<?xml version="1.0" encoding="UTF-8" standalone="no"?>
<!DOCTYPE svg PUBLIC "-//W3C//DTD SVG 1.1//EN" "http://www.w3.org/Graphics/SVG/1.1/DTD/svg11.dtd">
<svg width="100%" height="100%" viewBox="0 0 2048 1536" version="1.1" xmlns="http://www.w3.org/2000/svg" xmlns:xlink="http://www.w3.org/1999/xlink" xml:space="preserve" xmlns:serif="http://www.serif.com/" style="fill-rule:evenodd;clip-rule:evenodd;stroke-linecap:round;stroke-linejoin:round;stroke-miterlimit:1.5;">
    <path d="M1024,493C1175.78,493 1299,616.223 1299,768C1299,919.777 1175.78,1043 1024,1043C872.223,1043 749,919.777 749,768C749,616.223 872.223,493 1024,493ZM904,627.964L904,748.036C904,759.062 912.938,768 923.964,768L934.017,768C939.53,768 944,772.47 944,777.983L944,908.036C944,919.062 952.938,928 963.964,928L1124.04,928C1135.06,928 1144,919.062 1144,908.036L1144,627.964C1144,622.669 1141.9,617.591 1138.15,613.847C1134.41,610.103 1129.33,608 1124.04,608L923.964,608C918.669,608 913.591,610.103 909.847,613.847C906.103,617.591 904,622.669 904,627.964Z"/>
    <g id="Eye" transform="matrix(0.975792,0,0,1,24.7888,0)">
        <path d="M282.039,768C282.039,768 548.582,493.807 1024,493C1499.42,493.807 1765.96,768 1765.96,768C1765.96,768 1499.42,1042.19 1024,1043C548.582,1042.19 282.039,768 282.039,768Z" style="fill:none;stroke:black;stroke-width:40.49px;"/>
    </g>
    <g id="Lashes">
        <g transform="matrix(0.732751,0.0983766,0.0822678,-0.733589,1648.83,1148.35)">
            <path d="M174.231,586.876C161.872,573.613 141.303,572.661 128.326,584.753C115.348,596.845 114.846,617.43 127.205,630.694L276.487,790.909C288.846,804.172 309.415,805.124 322.392,793.032C335.37,780.941 335.872,760.355 323.513,747.091L174.231,586.876Z"/>
        </g>
        <g transform="matrix(2.35905,1.18234,-1.59013,-1.89395,2245.72,1556.43)">
            <path d="M155.676,604.166C143.317,590.902 131.062,582.203 128.326,584.753C125.589,587.302 133.402,600.141 145.76,613.404L295.042,773.619C307.401,786.883 319.656,795.582 322.392,793.032C325.128,790.483 317.316,777.644 304.958,764.381L155.676,604.166Z"/>
        </g>
        <g transform="matrix(2.3738,0.557348,-1.78977,-1.42441,2170.07,1270.31)">
            <path d="M156.1,603.77C143.741,590.506 131.296,581.985 128.326,584.753C125.355,587.521 132.977,600.536 145.336,613.8L294.618,774.015C306.977,787.279 319.422,795.8 322.392,793.032C325.363,790.264 317.741,777.249 305.382,763.985L156.1,603.77Z"/>
        </g>
        <g transform="matrix(2.32601,0.00548518,-1.95113,-0.980097,2070.56,1027.22)">
            <path d="M156.372,603.517C144.014,590.253 131.446,581.845 128.326,584.753C125.205,587.661 132.705,600.79 145.064,614.053L294.346,774.268C306.704,787.532 319.272,795.94 322.392,793.032C325.513,790.125 318.013,776.995 305.654,763.732L156.372,603.517Z"/>
        </g>
        <g transform="matrix(0.446716,-0.498085,-0.416232,-0.534563,1210.07,813.504)">
            <path d="M179.476,581.989C167.117,568.726 144.198,569.964 128.326,584.753C112.454,599.542 109.601,622.317 121.96,635.581L271.242,795.796C283.6,809.06 306.52,807.821 322.392,793.032C338.264,778.243 341.117,755.468 328.758,742.204L179.476,581.989Z"/>
        </g>
        <g transform="matrix(2.1104,-0.978041,-2.18253,-0.0636855,1825.27,617.56)">
            <path d="M156.372,603.517C144.014,590.253 131.446,581.845 128.326,584.753C125.205,587.661 132.705,600.79 145.064,614.053L294.346,774.268C306.704,787.532 319.272,795.94 322.392,793.032C325.513,790.125 318.013,776.995 305.654,763.732L156.372,603.517Z"/>
        </g>
        <g transform="matrix(1.95281,-1.46018,-2.2416,0.45545,1680.04,429.964)">
            <path d="M156.1,603.77C143.741,590.506 131.296,581.985 128.326,584.753C125.355,587.521 132.977,600.536 145.336,613.8L294.618,774.015C306.977,787.279 319.422,795.8 322.392,793.032C325.363,790.264 317.741,777.249 305.382,763.985L156.1,603.77Z"/>
        </g>
        <g transform="matrix(0.189142,-0.772956,-0.78418,-0.072079,863.634,741.874)">
            <path d="M171.418,589.497C159.06,576.233 139.751,574.108 128.326,584.753C116.901,595.398 117.659,614.809 130.017,628.073L279.3,788.288C291.658,801.552 310.967,803.678 322.392,793.032C333.817,782.387 333.059,762.976 320.7,749.712L171.418,589.497Z"/>
        </g>
        <g transform="matrix(-0.812581,0.193514,-0.00788546,-0.822234,365.987,1187.97)">
            <path d="M131.56,626.636C119.201,613.372 117.752,594.605 128.326,584.753C138.899,574.901 157.518,577.67 169.876,590.934L319.158,751.149C331.517,764.413 332.966,783.18 322.392,793.032C311.819,802.884 293.2,800.115 280.842,786.851L131.56,626.636Z"/>
        </g>
    </g>
</svg>
