G04 #@! TF.GenerationSoftware,KiCad,Pcbnew,7.0.11*
G04 #@! TF.CreationDate,2024-05-21T13:22:13-04:00*
G04 #@! TF.ProjectId,ISOCHet,49534f43-4865-4742-9e6b-696361645f70,rev?*
G04 #@! TF.SameCoordinates,Original*
G04 #@! TF.FileFunction,Soldermask,Bot*
G04 #@! TF.FilePolarity,Negative*
%FSLAX46Y46*%
G04 Gerber Fmt 4.6, Leading zero omitted, Abs format (unit mm)*
G04 Created by KiCad (PCBNEW 7.0.11) date 2024-05-21 13:22:13*
%MOMM*%
%LPD*%
G01*
G04 APERTURE LIST*
G04 Aperture macros list*
%AMRoundRect*
0 Rectangle with rounded corners*
0 $1 Rounding radius*
0 $2 $3 $4 $5 $6 $7 $8 $9 X,Y pos of 4 corners*
0 Add a 4 corners polygon primitive as box body*
4,1,4,$2,$3,$4,$5,$6,$7,$8,$9,$2,$3,0*
0 Add four circle primitives for the rounded corners*
1,1,$1+$1,$2,$3*
1,1,$1+$1,$4,$5*
1,1,$1+$1,$6,$7*
1,1,$1+$1,$8,$9*
0 Add four rect primitives between the rounded corners*
20,1,$1+$1,$2,$3,$4,$5,0*
20,1,$1+$1,$4,$5,$6,$7,0*
20,1,$1+$1,$6,$7,$8,$9,0*
20,1,$1+$1,$8,$9,$2,$3,0*%
%AMFreePoly0*
4,1,19,-1.250000,0.000000,-1.241997,0.101682,-1.196541,0.258146,-1.113601,0.398390,-0.998390,0.513601,-0.858146,0.596541,-0.701682,0.641997,-0.600000,0.650000,1.250000,0.650000,1.250000,-0.650000,-0.600000,-0.650000,-0.701682,-0.641997,-0.858146,-0.596541,-0.998390,-0.513601,-1.113601,-0.398390,-1.196541,-0.258146,-1.241997,-0.101682,-1.250000,0.000000,-1.250000,0.000000,-1.250000,0.000000,
$1*%
%AMFreePoly1*
4,1,23,-1.150000,0.000000,-1.141867,0.136527,-1.095394,0.350159,-1.009331,0.551136,-0.886788,0.732194,-0.732194,0.886788,-0.551136,1.009331,-0.350159,1.095394,-0.136527,1.141867,0.000000,1.150000,1.150000,1.150000,1.150000,-1.150000,0.000000,-1.150000,-0.136527,-1.141867,-0.350159,-1.095394,-0.551136,-1.009331,-0.732194,-0.886788,-0.886788,-0.732194,-1.009331,-0.551136,-1.095394,-0.350159,
-1.141867,-0.136527,-1.150000,0.000000,-1.150000,0.000000,-1.150000,0.000000,$1*%
%AMFreePoly2*
4,1,18,-1.250000,0.650000,0.600000,0.650000,0.701682,0.641997,0.858146,0.596541,0.998390,0.513601,1.113601,0.398390,1.196541,0.258146,1.241997,0.101682,1.250000,0.000000,1.241997,-0.101682,1.196541,-0.258146,1.113601,-0.398390,0.998390,-0.513601,0.858146,-0.596541,0.701682,-0.641997,0.600000,-0.650000,-1.250000,-0.650000,-1.250000,0.650000,-1.250000,0.650000,$1*%
%AMFreePoly3*
4,1,22,-1.150000,1.150000,0.000000,1.150000,0.136527,1.141867,0.350159,1.095394,0.551136,1.009331,0.732194,0.886788,0.886788,0.732194,1.009331,0.551136,1.095394,0.350159,1.141867,0.136527,1.150000,0.000000,1.141867,-0.136527,1.095394,-0.350159,1.009331,-0.551136,0.886788,-0.732194,0.732194,-0.886788,0.551136,-1.009331,0.350159,-1.095394,0.136527,-1.141867,0.000000,-1.150000,
-1.150000,-1.150000,-1.150000,1.150000,-1.150000,1.150000,$1*%
G04 Aperture macros list end*
%ADD10C,0.264582*%
%ADD11C,0.000000*%
%ADD12C,0.300000*%
%ADD13C,0.150000*%
%ADD14C,0.400000*%
%ADD15C,3.800000*%
%ADD16C,1.600000*%
%ADD17RoundRect,0.237500X-0.237500X0.250000X-0.237500X-0.250000X0.237500X-0.250000X0.237500X0.250000X0*%
%ADD18O,1.600000X1.600000*%
%ADD19C,1.750000*%
%ADD20C,3.987800*%
%ADD21C,2.300000*%
%ADD22R,2.500000X1.300000*%
%ADD23R,2.500000X2.300000*%
%ADD24O,1.554000X3.454000*%
%ADD25O,1.554000X3.054000*%
%ADD26FreePoly0,0.000000*%
%ADD27FreePoly1,0.000000*%
%ADD28C,4.000000*%
%ADD29FreePoly2,0.000000*%
%ADD30FreePoly3,0.000000*%
%ADD31RoundRect,0.237500X0.250000X0.237500X-0.250000X0.237500X-0.250000X-0.237500X0.250000X-0.237500X0*%
%ADD32RoundRect,0.237500X-0.250000X-0.237500X0.250000X-0.237500X0.250000X0.237500X-0.250000X0.237500X0*%
%ADD33R,1.350000X1.350000*%
%ADD34O,1.350000X1.350000*%
G04 APERTURE END LIST*
D10*
X147326473Y-57080039D02*
X146933175Y-57233676D01*
X145549517Y-57578241D02*
X145022194Y-57636628D01*
X140630483Y-56577060D02*
X140379934Y-56413063D01*
X141074582Y-56831463D02*
X140917536Y-56746425D01*
D11*
G36*
X144470875Y-52273875D02*
G01*
X144478932Y-52274489D01*
X144486873Y-52275499D01*
X144494688Y-52276896D01*
X144502365Y-52278670D01*
X144509896Y-52280810D01*
X144517271Y-52283308D01*
X144524479Y-52286152D01*
X144531510Y-52289333D01*
X144538355Y-52292840D01*
X144545003Y-52296664D01*
X144551444Y-52300795D01*
X144557669Y-52305223D01*
X144563667Y-52309937D01*
X144569428Y-52314928D01*
X144574943Y-52320186D01*
X144580201Y-52325701D01*
X144585192Y-52331462D01*
X144589906Y-52337459D01*
X144594334Y-52343684D01*
X144598465Y-52350125D01*
X144602290Y-52356773D01*
X144605797Y-52363617D01*
X144608978Y-52370648D01*
X144611822Y-52377856D01*
X144614320Y-52385230D01*
X144616460Y-52392761D01*
X144618234Y-52400439D01*
X144619631Y-52408253D01*
X144620641Y-52416194D01*
X144621254Y-52424251D01*
X144621461Y-52432415D01*
X144621461Y-53490750D01*
X144621254Y-53498914D01*
X144620641Y-53506971D01*
X144619631Y-53514912D01*
X144618233Y-53522727D01*
X144616460Y-53530405D01*
X144614319Y-53537936D01*
X144611822Y-53545310D01*
X144608978Y-53552518D01*
X144605797Y-53559549D01*
X144602289Y-53566394D01*
X144598465Y-53573042D01*
X144594334Y-53579483D01*
X144589906Y-53585708D01*
X144585191Y-53591705D01*
X144580200Y-53597467D01*
X144574942Y-53602981D01*
X144569428Y-53608239D01*
X144563666Y-53613230D01*
X144557668Y-53617944D01*
X144551444Y-53622372D01*
X144545002Y-53626503D01*
X144538354Y-53630327D01*
X144531510Y-53633835D01*
X144524479Y-53637016D01*
X144517271Y-53639860D01*
X144509896Y-53642357D01*
X144502365Y-53644498D01*
X144494687Y-53646271D01*
X144486873Y-53647669D01*
X144478932Y-53648679D01*
X144470875Y-53649292D01*
X144462711Y-53649499D01*
X144454547Y-53649292D01*
X144446489Y-53648679D01*
X144438548Y-53647669D01*
X144430734Y-53646272D01*
X144423056Y-53644498D01*
X144415525Y-53642357D01*
X144408151Y-53639860D01*
X144400943Y-53637016D01*
X144393912Y-53633835D01*
X144387068Y-53630328D01*
X144380420Y-53626503D01*
X144373979Y-53622372D01*
X144367754Y-53617945D01*
X144361756Y-53613230D01*
X144355995Y-53608239D01*
X144350481Y-53602982D01*
X144345223Y-53597467D01*
X144340232Y-53591706D01*
X144335517Y-53585708D01*
X144331089Y-53579484D01*
X144326958Y-53573043D01*
X144323134Y-53566395D01*
X144319626Y-53559550D01*
X144316446Y-53552519D01*
X144313601Y-53545312D01*
X144311104Y-53537937D01*
X144308963Y-53530406D01*
X144307189Y-53522729D01*
X144305792Y-53514914D01*
X144304781Y-53506974D01*
X144304168Y-53498916D01*
X144303961Y-53490752D01*
X144303961Y-52432418D01*
X144304167Y-52424254D01*
X144304781Y-52416196D01*
X144305791Y-52408255D01*
X144307188Y-52400441D01*
X144308962Y-52392763D01*
X144311102Y-52385232D01*
X144313600Y-52377857D01*
X144316444Y-52370650D01*
X144319625Y-52363618D01*
X144323132Y-52356774D01*
X144326957Y-52350126D01*
X144331088Y-52343685D01*
X144335516Y-52337460D01*
X144340230Y-52331462D01*
X144345221Y-52325701D01*
X144350479Y-52320186D01*
X144355994Y-52314929D01*
X144361755Y-52309938D01*
X144367753Y-52305223D01*
X144373978Y-52300795D01*
X144380419Y-52296664D01*
X144387067Y-52292840D01*
X144393911Y-52289333D01*
X144400943Y-52286152D01*
X144408151Y-52283308D01*
X144415525Y-52280811D01*
X144423056Y-52278670D01*
X144430734Y-52276896D01*
X144438548Y-52275499D01*
X144446489Y-52274489D01*
X144454547Y-52273875D01*
X144462711Y-52273669D01*
X144470875Y-52273875D01*
G37*
D10*
X145800954Y-54141051D02*
X146044151Y-54189769D01*
X142881299Y-54189769D02*
X143375935Y-54099613D01*
D11*
G36*
X146279367Y-55745382D02*
G01*
X146281736Y-55838930D01*
X146279367Y-55932477D01*
X146272337Y-56024802D01*
X146260761Y-56115792D01*
X146244753Y-56205331D01*
X146224428Y-56293305D01*
X146199900Y-56379599D01*
X146171284Y-56464098D01*
X146138695Y-56546688D01*
X146102248Y-56627254D01*
X146062056Y-56705681D01*
X146018236Y-56781855D01*
X145970901Y-56855661D01*
X145920166Y-56926985D01*
X145866146Y-56995711D01*
X145808956Y-57061725D01*
X145748709Y-57124913D01*
X145685521Y-57185159D01*
X145619507Y-57242350D01*
X145550781Y-57296370D01*
X145479457Y-57347105D01*
X145405651Y-57394440D01*
X145329477Y-57438260D01*
X145251050Y-57478451D01*
X145170484Y-57514899D01*
X145087894Y-57547488D01*
X145003395Y-57576103D01*
X144917101Y-57600631D01*
X144829128Y-57620956D01*
X144739589Y-57636965D01*
X144648599Y-57648541D01*
X144556273Y-57655571D01*
X144462726Y-57657940D01*
X144369177Y-57655571D01*
X144276850Y-57648541D01*
X144185859Y-57636965D01*
X144096319Y-57620956D01*
X144008344Y-57600631D01*
X143922049Y-57576103D01*
X143837550Y-57547488D01*
X143754959Y-57514899D01*
X143674393Y-57478451D01*
X143595966Y-57438260D01*
X143519792Y-57394440D01*
X143445986Y-57347105D01*
X143374662Y-57296370D01*
X143305936Y-57242350D01*
X143239922Y-57185159D01*
X143176735Y-57124913D01*
X143116489Y-57061725D01*
X143059299Y-56995711D01*
X143005280Y-56926985D01*
X142954546Y-56855661D01*
X142907211Y-56781855D01*
X142897635Y-56765209D01*
X143668976Y-56765209D01*
X143669148Y-56772005D01*
X143669658Y-56778711D01*
X143670498Y-56785320D01*
X143671659Y-56791823D01*
X143673134Y-56798212D01*
X143674914Y-56804479D01*
X143676990Y-56810614D01*
X143679355Y-56816611D01*
X143681999Y-56822461D01*
X143684916Y-56828155D01*
X143688095Y-56833685D01*
X143691530Y-56839042D01*
X143695212Y-56844220D01*
X143699132Y-56849208D01*
X143703282Y-56854000D01*
X143707655Y-56858586D01*
X143712240Y-56862958D01*
X143717031Y-56867109D01*
X143722019Y-56871029D01*
X143727196Y-56874711D01*
X143732553Y-56878146D01*
X143738081Y-56881325D01*
X143743774Y-56884241D01*
X143749622Y-56886886D01*
X143755617Y-56889250D01*
X143761751Y-56891326D01*
X143768015Y-56893106D01*
X143774401Y-56894580D01*
X143780902Y-56895742D01*
X143787508Y-56896581D01*
X143794211Y-56897091D01*
X143801003Y-56897263D01*
X144859839Y-56897263D01*
X144866635Y-56897091D01*
X144873341Y-56896581D01*
X144879950Y-56895742D01*
X144886453Y-56894580D01*
X144892842Y-56893106D01*
X144899108Y-56891326D01*
X144905244Y-56889250D01*
X144911241Y-56886886D01*
X144917090Y-56884241D01*
X144922784Y-56881325D01*
X144928314Y-56878146D01*
X144933672Y-56874711D01*
X144938849Y-56871029D01*
X144943838Y-56867109D01*
X144948629Y-56862958D01*
X144953216Y-56858586D01*
X144957588Y-56854000D01*
X144961739Y-56849208D01*
X144965659Y-56844220D01*
X144969340Y-56839042D01*
X144972775Y-56833685D01*
X144975955Y-56828155D01*
X144978871Y-56822461D01*
X144981516Y-56816611D01*
X144983880Y-56810614D01*
X144985956Y-56804479D01*
X144987735Y-56798212D01*
X144989210Y-56791823D01*
X144990371Y-56785320D01*
X144991211Y-56778711D01*
X144991721Y-56772005D01*
X144991893Y-56765209D01*
X144991893Y-55904963D01*
X144991979Y-55901565D01*
X144992234Y-55898212D01*
X144992654Y-55894908D01*
X144993234Y-55891656D01*
X144993972Y-55888461D01*
X144994862Y-55885328D01*
X144995900Y-55882260D01*
X144997082Y-55879261D01*
X144998405Y-55876336D01*
X144999863Y-55873489D01*
X145001453Y-55870724D01*
X145003171Y-55868044D01*
X145005012Y-55865456D01*
X145006973Y-55862961D01*
X145009048Y-55860565D01*
X145011235Y-55858271D01*
X145013528Y-55856085D01*
X145015924Y-55854009D01*
X145018419Y-55852049D01*
X145021007Y-55850208D01*
X145023687Y-55848490D01*
X145026452Y-55846900D01*
X145029299Y-55845442D01*
X145032224Y-55844119D01*
X145035223Y-55842937D01*
X145038291Y-55841899D01*
X145041424Y-55841009D01*
X145044619Y-55840271D01*
X145047870Y-55839690D01*
X145051175Y-55839271D01*
X145054528Y-55839015D01*
X145057926Y-55838930D01*
X145124423Y-55838930D01*
X145131218Y-55838758D01*
X145137925Y-55838248D01*
X145144533Y-55837408D01*
X145151036Y-55836247D01*
X145157425Y-55834772D01*
X145163692Y-55832993D01*
X145169828Y-55830917D01*
X145175824Y-55828552D01*
X145181674Y-55825908D01*
X145187368Y-55822992D01*
X145192898Y-55819812D01*
X145198256Y-55816377D01*
X145203433Y-55812696D01*
X145208421Y-55808775D01*
X145213213Y-55804625D01*
X145217799Y-55800253D01*
X145222171Y-55795666D01*
X145226322Y-55790875D01*
X145230242Y-55785886D01*
X145233924Y-55780709D01*
X145237359Y-55775351D01*
X145240538Y-55769821D01*
X145243454Y-55764127D01*
X145246099Y-55758278D01*
X145248463Y-55752281D01*
X145250539Y-55746145D01*
X145252319Y-55739879D01*
X145253793Y-55733490D01*
X145254955Y-55726987D01*
X145255794Y-55720378D01*
X145256304Y-55713672D01*
X145256476Y-55706876D01*
X145256476Y-54912650D01*
X145256314Y-54906102D01*
X145255830Y-54899598D01*
X145255029Y-54893149D01*
X145253916Y-54886766D01*
X145252494Y-54880461D01*
X145250769Y-54874243D01*
X145248744Y-54868124D01*
X145246425Y-54862114D01*
X145243816Y-54856224D01*
X145240921Y-54850465D01*
X145237744Y-54844849D01*
X145234291Y-54839385D01*
X145230566Y-54834084D01*
X145226573Y-54828958D01*
X145222316Y-54824017D01*
X145217801Y-54819272D01*
X145213056Y-54814756D01*
X145208115Y-54810500D01*
X145202988Y-54806506D01*
X145197688Y-54802781D01*
X145192224Y-54799328D01*
X145186607Y-54796152D01*
X145180848Y-54793257D01*
X145174959Y-54790647D01*
X145168949Y-54788328D01*
X145162829Y-54786304D01*
X145156612Y-54784578D01*
X145150306Y-54783157D01*
X145143924Y-54782043D01*
X145137475Y-54781242D01*
X145130971Y-54780759D01*
X145124423Y-54780596D01*
X143801003Y-54780596D01*
X143794460Y-54780759D01*
X143787961Y-54781242D01*
X143781516Y-54782043D01*
X143775137Y-54783157D01*
X143768834Y-54784578D01*
X143762618Y-54786304D01*
X143756501Y-54788328D01*
X143750492Y-54790647D01*
X143744604Y-54793257D01*
X143738847Y-54796152D01*
X143733232Y-54799328D01*
X143727770Y-54802781D01*
X143722472Y-54806506D01*
X143717349Y-54810500D01*
X143712412Y-54814756D01*
X143707672Y-54819272D01*
X143703149Y-54824017D01*
X143698887Y-54828958D01*
X143694890Y-54834084D01*
X143691161Y-54839385D01*
X143687705Y-54844849D01*
X143684528Y-54850465D01*
X143681632Y-54856224D01*
X143679022Y-54862114D01*
X143676703Y-54868124D01*
X143674679Y-54874243D01*
X143672955Y-54880461D01*
X143671534Y-54886766D01*
X143670421Y-54893149D01*
X143669621Y-54899598D01*
X143669138Y-54906102D01*
X143668976Y-54912650D01*
X143668976Y-56765209D01*
X142897635Y-56765209D01*
X142863391Y-56705681D01*
X142823201Y-56627254D01*
X142786754Y-56546688D01*
X142754166Y-56464098D01*
X142725551Y-56379599D01*
X142701023Y-56293305D01*
X142680698Y-56205331D01*
X142664690Y-56115792D01*
X142653114Y-56024802D01*
X142646085Y-55932477D01*
X142643716Y-55838930D01*
X142646085Y-55745382D01*
X142653114Y-55653057D01*
X142664690Y-55562067D01*
X142680698Y-55472528D01*
X142701023Y-55384554D01*
X142725551Y-55298260D01*
X142754166Y-55213761D01*
X142786754Y-55131171D01*
X142823201Y-55050606D01*
X142863391Y-54972178D01*
X142907211Y-54896004D01*
X142954546Y-54822198D01*
X143005280Y-54750875D01*
X143059299Y-54682148D01*
X143116489Y-54616134D01*
X143176735Y-54552946D01*
X143239922Y-54492700D01*
X143305936Y-54435509D01*
X143374662Y-54381489D01*
X143445986Y-54330754D01*
X143519792Y-54283420D01*
X143595966Y-54239599D01*
X143674393Y-54199408D01*
X143754959Y-54162960D01*
X143837550Y-54130372D01*
X143922049Y-54101756D01*
X144008344Y-54077228D01*
X144096319Y-54056903D01*
X144185859Y-54040894D01*
X144276850Y-54029318D01*
X144369177Y-54022288D01*
X144462726Y-54019919D01*
X144556273Y-54022288D01*
X144648599Y-54029318D01*
X144739589Y-54040894D01*
X144829128Y-54056903D01*
X144917101Y-54077228D01*
X145003395Y-54101756D01*
X145087894Y-54130372D01*
X145170484Y-54162960D01*
X145251050Y-54199408D01*
X145329477Y-54239599D01*
X145405651Y-54283420D01*
X145479457Y-54330754D01*
X145550781Y-54381489D01*
X145619507Y-54435509D01*
X145685521Y-54492700D01*
X145748709Y-54552946D01*
X145808956Y-54616134D01*
X145866146Y-54682148D01*
X145920166Y-54750875D01*
X145970901Y-54822198D01*
X146018236Y-54896004D01*
X146062056Y-54972178D01*
X146102248Y-55050606D01*
X146138695Y-55131171D01*
X146171284Y-55213761D01*
X146199900Y-55298260D01*
X146224428Y-55384554D01*
X146244753Y-55472528D01*
X146260761Y-55562067D01*
X146272337Y-55653057D01*
X146276435Y-55706876D01*
X146279367Y-55745382D01*
G37*
D10*
X148934926Y-55555460D02*
X149072689Y-55671519D01*
X148294972Y-56577060D02*
X148007917Y-56746425D01*
X142419898Y-57371459D02*
X142201830Y-57304881D01*
X139673779Y-55838930D02*
X139990533Y-55555460D01*
X146933175Y-57233676D02*
X146505553Y-57371459D01*
X140769480Y-56661403D02*
X140630483Y-56577060D01*
X143375935Y-57578241D02*
X143124497Y-57536801D01*
X143635545Y-57611737D02*
X143375935Y-57578241D01*
X147134149Y-54519343D02*
X147326473Y-54597811D01*
X146279040Y-54245104D02*
X146505553Y-54306392D01*
X139753694Y-55916870D02*
X139673779Y-55838930D01*
X148155974Y-55016449D02*
X148294972Y-55100793D01*
X143124497Y-57536801D02*
X142881299Y-57488082D01*
X141992276Y-54444174D02*
X142419898Y-54306392D01*
X144179010Y-57652250D02*
X143903259Y-57636628D01*
X148294972Y-55100793D02*
X148545522Y-55264791D01*
X146505553Y-57371459D02*
X146044151Y-57488082D01*
X142419898Y-54306392D02*
X142881299Y-54189769D01*
D11*
G36*
X149146703Y-53607205D02*
G01*
X149154328Y-53607849D01*
X149161931Y-53608862D01*
X149169496Y-53610246D01*
X149177011Y-53612003D01*
X149184460Y-53614135D01*
X149191831Y-53616643D01*
X149199109Y-53619529D01*
X149206280Y-53622796D01*
X149213330Y-53626444D01*
X149220244Y-53630477D01*
X149227010Y-53634895D01*
X149233613Y-53639701D01*
X149239965Y-53644835D01*
X149245984Y-53650227D01*
X149251669Y-53655863D01*
X149257018Y-53661728D01*
X149262030Y-53667810D01*
X149266702Y-53674092D01*
X149271032Y-53680563D01*
X149275019Y-53687207D01*
X149278661Y-53694011D01*
X149281956Y-53700961D01*
X149284902Y-53708042D01*
X149287498Y-53715240D01*
X149289741Y-53722542D01*
X149291629Y-53729934D01*
X149293162Y-53737400D01*
X149294336Y-53744929D01*
X149295150Y-53752504D01*
X149295603Y-53760113D01*
X149295692Y-53767742D01*
X149295415Y-53775375D01*
X149294771Y-53783000D01*
X149293758Y-53790602D01*
X149292374Y-53798168D01*
X149290617Y-53805682D01*
X149288486Y-53813132D01*
X149285978Y-53820502D01*
X149283091Y-53827780D01*
X149279824Y-53834951D01*
X149276175Y-53842000D01*
X149272143Y-53848915D01*
X149267724Y-53855681D01*
X149262918Y-53862283D01*
X148618646Y-54701921D01*
X148613512Y-54708272D01*
X148608120Y-54714290D01*
X148602484Y-54719975D01*
X148596619Y-54725324D01*
X148590537Y-54730335D01*
X148584254Y-54735006D01*
X148577784Y-54739337D01*
X148571139Y-54743323D01*
X148564335Y-54746965D01*
X148557386Y-54750260D01*
X148550305Y-54753206D01*
X148543106Y-54755801D01*
X148535804Y-54758043D01*
X148528412Y-54759932D01*
X148520945Y-54761464D01*
X148513417Y-54762638D01*
X148505841Y-54763452D01*
X148498232Y-54763905D01*
X148490603Y-54763993D01*
X148482970Y-54763717D01*
X148475345Y-54763073D01*
X148467742Y-54762060D01*
X148460177Y-54760676D01*
X148452663Y-54758919D01*
X148445213Y-54756787D01*
X148437842Y-54754279D01*
X148430564Y-54751393D01*
X148423393Y-54748126D01*
X148416343Y-54744478D01*
X148409429Y-54740445D01*
X148402663Y-54736026D01*
X148396060Y-54731220D01*
X148389709Y-54726086D01*
X148383690Y-54720694D01*
X148378005Y-54715059D01*
X148372656Y-54709193D01*
X148367645Y-54703112D01*
X148362973Y-54696829D01*
X148358643Y-54690359D01*
X148354656Y-54683714D01*
X148351014Y-54676910D01*
X148347719Y-54669961D01*
X148344773Y-54662880D01*
X148342177Y-54655681D01*
X148339934Y-54648379D01*
X148338046Y-54640988D01*
X148336513Y-54633521D01*
X148335339Y-54625993D01*
X148334524Y-54618417D01*
X148334072Y-54610808D01*
X148333983Y-54603180D01*
X148334259Y-54595546D01*
X148334903Y-54587921D01*
X148335916Y-54580319D01*
X148337300Y-54572754D01*
X148339056Y-54565240D01*
X148341188Y-54557790D01*
X148343696Y-54550419D01*
X148346582Y-54543142D01*
X148349849Y-54535971D01*
X148353498Y-54528921D01*
X148357530Y-54522006D01*
X148361949Y-54515241D01*
X148366755Y-54508638D01*
X149011028Y-53669006D01*
X149016162Y-53662655D01*
X149021554Y-53656636D01*
X149027190Y-53650951D01*
X149033055Y-53645601D01*
X149039136Y-53640590D01*
X149045419Y-53635918D01*
X149051890Y-53631588D01*
X149058534Y-53627601D01*
X149065338Y-53623959D01*
X149072288Y-53620664D01*
X149079369Y-53617718D01*
X149086567Y-53615123D01*
X149093869Y-53612880D01*
X149101261Y-53610991D01*
X149108728Y-53609459D01*
X149116256Y-53608285D01*
X149123832Y-53607470D01*
X149131441Y-53607018D01*
X149139070Y-53606929D01*
X149146703Y-53607205D01*
G37*
D10*
X142881299Y-57488082D02*
X142646410Y-57432747D01*
X147326473Y-54597811D02*
X147510081Y-54678917D01*
X147684902Y-56915853D02*
X147326473Y-57080039D01*
X140166436Y-55418115D02*
X140379934Y-55264791D01*
X147684902Y-54761997D02*
X147850871Y-54846388D01*
X148934926Y-56122396D02*
X148759021Y-56259740D01*
X144746444Y-57652250D02*
X144462728Y-57657940D01*
D11*
G36*
X138466236Y-54660044D02*
G01*
X138473850Y-54660653D01*
X138481440Y-54661629D01*
X138488991Y-54662973D01*
X138496488Y-54664685D01*
X138503919Y-54666768D01*
X138511269Y-54669222D01*
X138518523Y-54672049D01*
X138525668Y-54675250D01*
X138532690Y-54678826D01*
X138539574Y-54682778D01*
X138546307Y-54687109D01*
X138552874Y-54691817D01*
X138559261Y-54696906D01*
X139369991Y-55377191D01*
X139376113Y-55382597D01*
X139381891Y-55388246D01*
X139387325Y-55394125D01*
X139392413Y-55400218D01*
X139397154Y-55406512D01*
X139401548Y-55412993D01*
X139405592Y-55419646D01*
X139409285Y-55426458D01*
X139412627Y-55433414D01*
X139415615Y-55440501D01*
X139418250Y-55447703D01*
X139420529Y-55455008D01*
X139422451Y-55462401D01*
X139424015Y-55469868D01*
X139425220Y-55477395D01*
X139426065Y-55484967D01*
X139426548Y-55492571D01*
X139426668Y-55500193D01*
X139426424Y-55507818D01*
X139425815Y-55515432D01*
X139424839Y-55523022D01*
X139423495Y-55530573D01*
X139421783Y-55538071D01*
X139419700Y-55545502D01*
X139417245Y-55552851D01*
X139414418Y-55560106D01*
X139411217Y-55567251D01*
X139407640Y-55574273D01*
X139403687Y-55581157D01*
X139399356Y-55587890D01*
X139394647Y-55594457D01*
X139389557Y-55600844D01*
X139384151Y-55606965D01*
X139378502Y-55612743D01*
X139372624Y-55618177D01*
X139366531Y-55623265D01*
X139360237Y-55628006D01*
X139353757Y-55632399D01*
X139347103Y-55636443D01*
X139340292Y-55640137D01*
X139333336Y-55643478D01*
X139326249Y-55646467D01*
X139319047Y-55649101D01*
X139311742Y-55651380D01*
X139304349Y-55653302D01*
X139296882Y-55654867D01*
X139289356Y-55656072D01*
X139281783Y-55656916D01*
X139274179Y-55657399D01*
X139266558Y-55657520D01*
X139258933Y-55657276D01*
X139251318Y-55656667D01*
X139243729Y-55655691D01*
X139236178Y-55654347D01*
X139228680Y-55652635D01*
X139221249Y-55650552D01*
X139213900Y-55648098D01*
X139206645Y-55645271D01*
X139199500Y-55642070D01*
X139192478Y-55638494D01*
X139185594Y-55634542D01*
X139178861Y-55630211D01*
X139172295Y-55625502D01*
X139165907Y-55620413D01*
X138355178Y-54940129D01*
X138349057Y-54934723D01*
X138343279Y-54929074D01*
X138337845Y-54923195D01*
X138332757Y-54917102D01*
X138328015Y-54910808D01*
X138323622Y-54904327D01*
X138319578Y-54897674D01*
X138315884Y-54890862D01*
X138312542Y-54883905D01*
X138309554Y-54876819D01*
X138306919Y-54869616D01*
X138304640Y-54862311D01*
X138302718Y-54854918D01*
X138301154Y-54847451D01*
X138299948Y-54839924D01*
X138299104Y-54832351D01*
X138298621Y-54824747D01*
X138298500Y-54817125D01*
X138298744Y-54809500D01*
X138299354Y-54801886D01*
X138300330Y-54794296D01*
X138301673Y-54786745D01*
X138303386Y-54779247D01*
X138305469Y-54771817D01*
X138307924Y-54764467D01*
X138310751Y-54757213D01*
X138313952Y-54750068D01*
X138317529Y-54743046D01*
X138321482Y-54736162D01*
X138325812Y-54729430D01*
X138330522Y-54722863D01*
X138335612Y-54716477D01*
X138341018Y-54710355D01*
X138346667Y-54704577D01*
X138352545Y-54699143D01*
X138358638Y-54694055D01*
X138364932Y-54689314D01*
X138371412Y-54684921D01*
X138378065Y-54680877D01*
X138384877Y-54677183D01*
X138391833Y-54673842D01*
X138398920Y-54670853D01*
X138406122Y-54668219D01*
X138413427Y-54665940D01*
X138420820Y-54664018D01*
X138428287Y-54662454D01*
X138435813Y-54661248D01*
X138443385Y-54660404D01*
X138450989Y-54659921D01*
X138458611Y-54659800D01*
X138466236Y-54660044D01*
G37*
D10*
X146723620Y-54372970D02*
X146933175Y-54444174D01*
X140379934Y-55264791D02*
X140630483Y-55100793D01*
X141598978Y-54597811D02*
X141992276Y-54444174D01*
X148545522Y-56413063D02*
X148294972Y-56577060D01*
X145289907Y-54066117D02*
X145549517Y-54099613D01*
X145022194Y-54041227D02*
X145289907Y-54066117D01*
X140166436Y-56259740D02*
X139990533Y-56122396D01*
X140630483Y-55100793D02*
X140917536Y-54931426D01*
X148759021Y-55418115D02*
X148934926Y-55555460D01*
X146505553Y-54306392D02*
X146723620Y-54372970D01*
X142201830Y-57304881D02*
X141992276Y-57233676D01*
X147510081Y-54678917D02*
X147684902Y-54761997D01*
X140917536Y-56746425D02*
X140769480Y-56661403D01*
D11*
G36*
X150474013Y-54659876D02*
G01*
X150481617Y-54660359D01*
X150489189Y-54661204D01*
X150496716Y-54662409D01*
X150504183Y-54663973D01*
X150511576Y-54665896D01*
X150518881Y-54668175D01*
X150526083Y-54670809D01*
X150533170Y-54673798D01*
X150540126Y-54677140D01*
X150546938Y-54680833D01*
X150553591Y-54684877D01*
X150560072Y-54689270D01*
X150566365Y-54694011D01*
X150572458Y-54699099D01*
X150578336Y-54704533D01*
X150583985Y-54710311D01*
X150589391Y-54716432D01*
X150594481Y-54722818D01*
X150599190Y-54729385D01*
X150603520Y-54736118D01*
X150607473Y-54743002D01*
X150611050Y-54750023D01*
X150614251Y-54757168D01*
X150617078Y-54764423D01*
X150619533Y-54771772D01*
X150621616Y-54779203D01*
X150623328Y-54786701D01*
X150624672Y-54794252D01*
X150625648Y-54801841D01*
X150626257Y-54809456D01*
X150626501Y-54817081D01*
X150626381Y-54824702D01*
X150625898Y-54832306D01*
X150625053Y-54839879D01*
X150623848Y-54847405D01*
X150622284Y-54854872D01*
X150620361Y-54862265D01*
X150618083Y-54869570D01*
X150615448Y-54876773D01*
X150612459Y-54883859D01*
X150609118Y-54890816D01*
X150605424Y-54897627D01*
X150601380Y-54904281D01*
X150596987Y-54910761D01*
X150592246Y-54917055D01*
X150587157Y-54923149D01*
X150581724Y-54929027D01*
X150575945Y-54934676D01*
X150569824Y-54940082D01*
X149759094Y-55620366D01*
X149752707Y-55625456D01*
X149746141Y-55630165D01*
X149739409Y-55634496D01*
X149732525Y-55638449D01*
X149725503Y-55642025D01*
X149718358Y-55645226D01*
X149711104Y-55648053D01*
X149703754Y-55650508D01*
X149696323Y-55652590D01*
X149688826Y-55654303D01*
X149681275Y-55655646D01*
X149673685Y-55656622D01*
X149666071Y-55657231D01*
X149658446Y-55657475D01*
X149650824Y-55657355D01*
X149643220Y-55656871D01*
X149635647Y-55656027D01*
X149628120Y-55654821D01*
X149620654Y-55653257D01*
X149613261Y-55651335D01*
X149605956Y-55649056D01*
X149598753Y-55646421D01*
X149591666Y-55643432D01*
X149584710Y-55640091D01*
X149577898Y-55636397D01*
X149571245Y-55632354D01*
X149564765Y-55627960D01*
X149558471Y-55623219D01*
X149552378Y-55618131D01*
X149546500Y-55612698D01*
X149540851Y-55606920D01*
X149535445Y-55600799D01*
X149530356Y-55594412D01*
X149525646Y-55587845D01*
X149521316Y-55581113D01*
X149517363Y-55574229D01*
X149513787Y-55567207D01*
X149510585Y-55560062D01*
X149507758Y-55552808D01*
X149505304Y-55545458D01*
X149503221Y-55538027D01*
X149501508Y-55530529D01*
X149500164Y-55522979D01*
X149499189Y-55515389D01*
X149498579Y-55507775D01*
X149498335Y-55500150D01*
X149498456Y-55492528D01*
X149498939Y-55484924D01*
X149499783Y-55477352D01*
X149500988Y-55469825D01*
X149502553Y-55462358D01*
X149504475Y-55454965D01*
X149506754Y-55447660D01*
X149509388Y-55440457D01*
X149512377Y-55433371D01*
X149515719Y-55426415D01*
X149519412Y-55419603D01*
X149523456Y-55412949D01*
X149527849Y-55406469D01*
X149532591Y-55400175D01*
X149537679Y-55394081D01*
X149543113Y-55388203D01*
X149548891Y-55382554D01*
X149555012Y-55377147D01*
X150365742Y-54696864D01*
X150372129Y-54691774D01*
X150378695Y-54687065D01*
X150385428Y-54682734D01*
X150392312Y-54678781D01*
X150399333Y-54675205D01*
X150406478Y-54672004D01*
X150413733Y-54669177D01*
X150421082Y-54666723D01*
X150428513Y-54664640D01*
X150436011Y-54662927D01*
X150443562Y-54661584D01*
X150451151Y-54660608D01*
X150458766Y-54659999D01*
X150466391Y-54659755D01*
X150474013Y-54659876D01*
G37*
D10*
X144462728Y-57657940D02*
X144179010Y-57652250D01*
X149251683Y-55838930D02*
X148934926Y-56122396D01*
X143903259Y-57636628D02*
X143635545Y-57611737D01*
X141791302Y-57158508D02*
X141598978Y-57080039D01*
X139990533Y-56122396D02*
X139852771Y-56006338D01*
D11*
G36*
X147656171Y-52863449D02*
G01*
X147663906Y-52863918D01*
X147671646Y-52864771D01*
X147679376Y-52866014D01*
X147687085Y-52867652D01*
X147694758Y-52869689D01*
X147702382Y-52872129D01*
X147709945Y-52874979D01*
X147717433Y-52878242D01*
X147724744Y-52881880D01*
X147731787Y-52885841D01*
X147738557Y-52890112D01*
X147745049Y-52894680D01*
X147751257Y-52899533D01*
X147757178Y-52904655D01*
X147762806Y-52910035D01*
X147768137Y-52915659D01*
X147773165Y-52921513D01*
X147777886Y-52927584D01*
X147782294Y-52933859D01*
X147786386Y-52940325D01*
X147790157Y-52946969D01*
X147793600Y-52953776D01*
X147796713Y-52960735D01*
X147799488Y-52967830D01*
X147801923Y-52975050D01*
X147804012Y-52982381D01*
X147805750Y-52989809D01*
X147807133Y-52997322D01*
X147808155Y-53004905D01*
X147808811Y-53012547D01*
X147809098Y-53020232D01*
X147809009Y-53027949D01*
X147808541Y-53035684D01*
X147807688Y-53043423D01*
X147806446Y-53051153D01*
X147804809Y-53058861D01*
X147802773Y-53066534D01*
X147800332Y-53074158D01*
X147797483Y-53081720D01*
X147794221Y-53089206D01*
X147346951Y-54048379D01*
X147343314Y-54055691D01*
X147339353Y-54062734D01*
X147335081Y-54069504D01*
X147330513Y-54075996D01*
X147325661Y-54082205D01*
X147320538Y-54088126D01*
X147315159Y-54093754D01*
X147309535Y-54099085D01*
X147303681Y-54104113D01*
X147297610Y-54108834D01*
X147291334Y-54113243D01*
X147284868Y-54117335D01*
X147278225Y-54121105D01*
X147271418Y-54124549D01*
X147264460Y-54127661D01*
X147257364Y-54130437D01*
X147250144Y-54132871D01*
X147242813Y-54134960D01*
X147235385Y-54136698D01*
X147227872Y-54138080D01*
X147220289Y-54139102D01*
X147212647Y-54139758D01*
X147204961Y-54140044D01*
X147197244Y-54139955D01*
X147189510Y-54139486D01*
X147181770Y-54138633D01*
X147174040Y-54137390D01*
X147166331Y-54135752D01*
X147158658Y-54133715D01*
X147151033Y-54131275D01*
X147143471Y-54128425D01*
X147135983Y-54125162D01*
X147128671Y-54121524D01*
X147121628Y-54117563D01*
X147114858Y-54113292D01*
X147108367Y-54108724D01*
X147102158Y-54103872D01*
X147096237Y-54098749D01*
X147090609Y-54093369D01*
X147085279Y-54087746D01*
X147080251Y-54081892D01*
X147075530Y-54075820D01*
X147071121Y-54069545D01*
X147067029Y-54063079D01*
X147063259Y-54056436D01*
X147059815Y-54049628D01*
X147056703Y-54042670D01*
X147053927Y-54035574D01*
X147051492Y-54028355D01*
X147049403Y-54021024D01*
X147047665Y-54013595D01*
X147046283Y-54006083D01*
X147045261Y-53998499D01*
X147044604Y-53990858D01*
X147044318Y-53983172D01*
X147044407Y-53975456D01*
X147044875Y-53967721D01*
X147045728Y-53959982D01*
X147046971Y-53952252D01*
X147048608Y-53944544D01*
X147050644Y-53936871D01*
X147053084Y-53929247D01*
X147055933Y-53921685D01*
X147059196Y-53914198D01*
X147506465Y-52955026D01*
X147510102Y-52947714D01*
X147514063Y-52940671D01*
X147518335Y-52933901D01*
X147522903Y-52927409D01*
X147527755Y-52921200D01*
X147532878Y-52915279D01*
X147538258Y-52909650D01*
X147543881Y-52904320D01*
X147549735Y-52899291D01*
X147555807Y-52894570D01*
X147562082Y-52890162D01*
X147568548Y-52886070D01*
X147575191Y-52882299D01*
X147581999Y-52878856D01*
X147588957Y-52875744D01*
X147596052Y-52872968D01*
X147603272Y-52870533D01*
X147610603Y-52868444D01*
X147618031Y-52866707D01*
X147625544Y-52865324D01*
X147633127Y-52864303D01*
X147640769Y-52863646D01*
X147648455Y-52863360D01*
X147656171Y-52863449D01*
G37*
D10*
X146044151Y-57488082D02*
X145549517Y-57578241D01*
X139852771Y-56006338D02*
X139753694Y-55916870D01*
X143375935Y-54099613D02*
X143903259Y-54041227D01*
X142646410Y-57432747D02*
X142419898Y-57371459D01*
X141240550Y-54761997D02*
X141598978Y-54597811D01*
X146933175Y-54444174D02*
X147134149Y-54519343D01*
X144746444Y-54025607D02*
X145022194Y-54041227D01*
X148545522Y-55264791D02*
X148759021Y-55418115D01*
X148007917Y-54931426D02*
X148155974Y-55016449D01*
X143903259Y-54041227D02*
X144179010Y-54025607D01*
X148759021Y-56259740D02*
X148545522Y-56413063D01*
X146044151Y-54189769D02*
X146279040Y-54245104D01*
D11*
G36*
X146086896Y-52420660D02*
G01*
X146094867Y-52421393D01*
X146102866Y-52422538D01*
X146110881Y-52424103D01*
X146118807Y-52426072D01*
X146126540Y-52428414D01*
X146134074Y-52431119D01*
X146141400Y-52434174D01*
X146148512Y-52437568D01*
X146155401Y-52441287D01*
X146162060Y-52445322D01*
X146168481Y-52449658D01*
X146174658Y-52454286D01*
X146180581Y-52459191D01*
X146186243Y-52464364D01*
X146191638Y-52469791D01*
X146196756Y-52475461D01*
X146201592Y-52481362D01*
X146206136Y-52487482D01*
X146210382Y-52493809D01*
X146214322Y-52500331D01*
X146217948Y-52507036D01*
X146221252Y-52513912D01*
X146224228Y-52520948D01*
X146226866Y-52528130D01*
X146229161Y-52535448D01*
X146231104Y-52542890D01*
X146232687Y-52550443D01*
X146233903Y-52558095D01*
X146234745Y-52565835D01*
X146235204Y-52573651D01*
X146235274Y-52581530D01*
X146234946Y-52589462D01*
X146234213Y-52597433D01*
X146233067Y-52605432D01*
X146231500Y-52613447D01*
X146002441Y-53646693D01*
X146000474Y-53654619D01*
X145998132Y-53662353D01*
X145995429Y-53669887D01*
X145992375Y-53677214D01*
X145988982Y-53684326D01*
X145985263Y-53691215D01*
X145981230Y-53697874D01*
X145976894Y-53704296D01*
X145972268Y-53710472D01*
X145967363Y-53716395D01*
X145962191Y-53722058D01*
X145956764Y-53727452D01*
X145951095Y-53732571D01*
X145945194Y-53737406D01*
X145939075Y-53741950D01*
X145932748Y-53746196D01*
X145926227Y-53750136D01*
X145919522Y-53753762D01*
X145912646Y-53757066D01*
X145905610Y-53760042D01*
X145898428Y-53762681D01*
X145891109Y-53764975D01*
X145883668Y-53766918D01*
X145876114Y-53768502D01*
X145868461Y-53769718D01*
X145860721Y-53770560D01*
X145852904Y-53771020D01*
X145845024Y-53771090D01*
X145837092Y-53770762D01*
X145829120Y-53770030D01*
X145821120Y-53768884D01*
X145813104Y-53767319D01*
X145805178Y-53765351D01*
X145797445Y-53763008D01*
X145789911Y-53760303D01*
X145782585Y-53757248D01*
X145775473Y-53753855D01*
X145768584Y-53750135D01*
X145761925Y-53746101D01*
X145755504Y-53741764D01*
X145749328Y-53737137D01*
X145743405Y-53732231D01*
X145737742Y-53727059D01*
X145732348Y-53721631D01*
X145727229Y-53715961D01*
X145722394Y-53710060D01*
X145717849Y-53703940D01*
X145713604Y-53697614D01*
X145709664Y-53691092D01*
X145706038Y-53684387D01*
X145702734Y-53677510D01*
X145699758Y-53670475D01*
X145697120Y-53663292D01*
X145694825Y-53655974D01*
X145692882Y-53648533D01*
X145691299Y-53640980D01*
X145690083Y-53633327D01*
X145689241Y-53625587D01*
X145688782Y-53617772D01*
X145688713Y-53609892D01*
X145689041Y-53601961D01*
X145689774Y-53593990D01*
X145690920Y-53585991D01*
X145692486Y-53577976D01*
X145921544Y-52544730D01*
X145923511Y-52536804D01*
X145925853Y-52529070D01*
X145928557Y-52521536D01*
X145931611Y-52514209D01*
X145935004Y-52507097D01*
X145938723Y-52500208D01*
X145942757Y-52493549D01*
X145947093Y-52487127D01*
X145951720Y-52480951D01*
X145956625Y-52475028D01*
X145961798Y-52469365D01*
X145967225Y-52463971D01*
X145972895Y-52458852D01*
X145978796Y-52454016D01*
X145984915Y-52449472D01*
X145991242Y-52445226D01*
X145997764Y-52441287D01*
X146004469Y-52437661D01*
X146011346Y-52434356D01*
X146018381Y-52431381D01*
X146025564Y-52428742D01*
X146032882Y-52426447D01*
X146040324Y-52424504D01*
X146047877Y-52422921D01*
X146055530Y-52421704D01*
X146063270Y-52420862D01*
X146071086Y-52420403D01*
X146078965Y-52420333D01*
X146086896Y-52420660D01*
G37*
D10*
X144179010Y-54025607D02*
X144462728Y-54019919D01*
X140917536Y-54931426D02*
X141240550Y-54761997D01*
X139990533Y-55555460D02*
X140166436Y-55418115D01*
D11*
G36*
X139794231Y-53607849D02*
G01*
X139801840Y-53608302D01*
X139809416Y-53609116D01*
X139816944Y-53610290D01*
X139824411Y-53611823D01*
X139831803Y-53613711D01*
X139839105Y-53615954D01*
X139846303Y-53618550D01*
X139853384Y-53621496D01*
X139860334Y-53624791D01*
X139867138Y-53628433D01*
X139873782Y-53632420D01*
X139880253Y-53636751D01*
X139886536Y-53641422D01*
X139892617Y-53646434D01*
X139898483Y-53651783D01*
X139904118Y-53657468D01*
X139909511Y-53663487D01*
X139914645Y-53669838D01*
X140558911Y-54509474D01*
X140563717Y-54516077D01*
X140568135Y-54522842D01*
X140572168Y-54529757D01*
X140575816Y-54536807D01*
X140579083Y-54543978D01*
X140581969Y-54551255D01*
X140584477Y-54558626D01*
X140586609Y-54566076D01*
X140588365Y-54573590D01*
X140589749Y-54581155D01*
X140590762Y-54588758D01*
X140591406Y-54596383D01*
X140591683Y-54604016D01*
X140591594Y-54611645D01*
X140591141Y-54619254D01*
X140590327Y-54626830D01*
X140589153Y-54634358D01*
X140587620Y-54641825D01*
X140585732Y-54649217D01*
X140583489Y-54656519D01*
X140580893Y-54663718D01*
X140577947Y-54670799D01*
X140574652Y-54677748D01*
X140571009Y-54684552D01*
X140567022Y-54691197D01*
X140562691Y-54697667D01*
X140558019Y-54703951D01*
X140553008Y-54710032D01*
X140547658Y-54715897D01*
X140541972Y-54721533D01*
X140535953Y-54726925D01*
X140529601Y-54732059D01*
X140522998Y-54736866D01*
X140516232Y-54741285D01*
X140509317Y-54745318D01*
X140502266Y-54748967D01*
X140495095Y-54752233D01*
X140487818Y-54755120D01*
X140480447Y-54757628D01*
X140472997Y-54759760D01*
X140465482Y-54761517D01*
X140457917Y-54762901D01*
X140450315Y-54763914D01*
X140442690Y-54764557D01*
X140435056Y-54764834D01*
X140427428Y-54764745D01*
X140419819Y-54764292D01*
X140412243Y-54763478D01*
X140404715Y-54762303D01*
X140397248Y-54760771D01*
X140389857Y-54758882D01*
X140382555Y-54756639D01*
X140375356Y-54754044D01*
X140368275Y-54751097D01*
X140361326Y-54747802D01*
X140354522Y-54744160D01*
X140347878Y-54740173D01*
X140341407Y-54735843D01*
X140335124Y-54731171D01*
X140329043Y-54726159D01*
X140323177Y-54720810D01*
X140317542Y-54715125D01*
X140312150Y-54709106D01*
X140307015Y-54702754D01*
X139662748Y-53863119D01*
X139657942Y-53856517D01*
X139653524Y-53849751D01*
X139649492Y-53842836D01*
X139645844Y-53835786D01*
X139642578Y-53828615D01*
X139639692Y-53821338D01*
X139637184Y-53813967D01*
X139635053Y-53806517D01*
X139633297Y-53799002D01*
X139631914Y-53791436D01*
X139630901Y-53783834D01*
X139630258Y-53776209D01*
X139629982Y-53768575D01*
X139630071Y-53760946D01*
X139630524Y-53753337D01*
X139631339Y-53745761D01*
X139632513Y-53738232D01*
X139634046Y-53730765D01*
X139635935Y-53723373D01*
X139638178Y-53716071D01*
X139640774Y-53708872D01*
X139643720Y-53701791D01*
X139647015Y-53694841D01*
X139650657Y-53688038D01*
X139654643Y-53681393D01*
X139658974Y-53674923D01*
X139663645Y-53668640D01*
X139668656Y-53662559D01*
X139674005Y-53656694D01*
X139679689Y-53651059D01*
X139685708Y-53645668D01*
X139692058Y-53640535D01*
X139698661Y-53635728D01*
X139705427Y-53631309D01*
X139712342Y-53627276D01*
X139719392Y-53623627D01*
X139726563Y-53620361D01*
X139733841Y-53617474D01*
X139741212Y-53614966D01*
X139748662Y-53612834D01*
X139756176Y-53611077D01*
X139763742Y-53609693D01*
X139771344Y-53608680D01*
X139778969Y-53608037D01*
X139786603Y-53607760D01*
X139794231Y-53607849D01*
G37*
D10*
X147850871Y-54846388D02*
X148007917Y-54931426D01*
X145022194Y-57636628D02*
X144746444Y-57652250D01*
X149072689Y-55671519D02*
X149171767Y-55760988D01*
D11*
G36*
X141284879Y-52863595D02*
G01*
X141292521Y-52864252D01*
X141300104Y-52865273D01*
X141307617Y-52866656D01*
X141315045Y-52868393D01*
X141322376Y-52870482D01*
X141329596Y-52872916D01*
X141336691Y-52875692D01*
X141343650Y-52878804D01*
X141350457Y-52882248D01*
X141357101Y-52886018D01*
X141363567Y-52890109D01*
X141369843Y-52894518D01*
X141375914Y-52899239D01*
X141381769Y-52904267D01*
X141387393Y-52909597D01*
X141392773Y-52915225D01*
X141397896Y-52921146D01*
X141402748Y-52927355D01*
X141407317Y-52933847D01*
X141411589Y-52940617D01*
X141415550Y-52947660D01*
X141419188Y-52954972D01*
X141866451Y-53914152D01*
X141869714Y-53921639D01*
X141872563Y-53929200D01*
X141875004Y-53936824D01*
X141877040Y-53944497D01*
X141878677Y-53952205D01*
X141879920Y-53959935D01*
X141880774Y-53967674D01*
X141881242Y-53975408D01*
X141881331Y-53983125D01*
X141881045Y-53990811D01*
X141880389Y-53998452D01*
X141879367Y-54006035D01*
X141877985Y-54013548D01*
X141876247Y-54020976D01*
X141874158Y-54028307D01*
X141871724Y-54035527D01*
X141868948Y-54042623D01*
X141865836Y-54049581D01*
X141862392Y-54056388D01*
X141858622Y-54063032D01*
X141854530Y-54069498D01*
X141850121Y-54075774D01*
X141845400Y-54081845D01*
X141840371Y-54087700D01*
X141835040Y-54093324D01*
X141829412Y-54098704D01*
X141823490Y-54103827D01*
X141817281Y-54108679D01*
X141810789Y-54113248D01*
X141804018Y-54117520D01*
X141796974Y-54121482D01*
X141789661Y-54125120D01*
X141782175Y-54128383D01*
X141774613Y-54131232D01*
X141766990Y-54133672D01*
X141759317Y-54135709D01*
X141751609Y-54137346D01*
X141743880Y-54138589D01*
X141736141Y-54139442D01*
X141728406Y-54139911D01*
X141720690Y-54140000D01*
X141713004Y-54139713D01*
X141705363Y-54139057D01*
X141697780Y-54138035D01*
X141690267Y-54136653D01*
X141682839Y-54134915D01*
X141675508Y-54132827D01*
X141668288Y-54130392D01*
X141661193Y-54127616D01*
X141654234Y-54124504D01*
X141647427Y-54121061D01*
X141640783Y-54117291D01*
X141634317Y-54113199D01*
X141628041Y-54108790D01*
X141621970Y-54104069D01*
X141616115Y-54099041D01*
X141610492Y-54093711D01*
X141605111Y-54088083D01*
X141599989Y-54082162D01*
X141595136Y-54075953D01*
X141590567Y-54069461D01*
X141586296Y-54062691D01*
X141582334Y-54055648D01*
X141578697Y-54048336D01*
X141131434Y-53089157D01*
X141128171Y-53081670D01*
X141125322Y-53074108D01*
X141122881Y-53066484D01*
X141120845Y-53058812D01*
X141119207Y-53051104D01*
X141117964Y-53043374D01*
X141117111Y-53035635D01*
X141116642Y-53027900D01*
X141116553Y-53020184D01*
X141116839Y-53012498D01*
X141117496Y-53004857D01*
X141118517Y-52997273D01*
X141119899Y-52989761D01*
X141121637Y-52982332D01*
X141123726Y-52975002D01*
X141126160Y-52967782D01*
X141128936Y-52960686D01*
X141132048Y-52953728D01*
X141135492Y-52946920D01*
X141139262Y-52940277D01*
X141143354Y-52933811D01*
X141147763Y-52927535D01*
X141152484Y-52921464D01*
X141157513Y-52915609D01*
X141162844Y-52909985D01*
X141168472Y-52904605D01*
X141174394Y-52899482D01*
X141180603Y-52894630D01*
X141187096Y-52890061D01*
X141193867Y-52885789D01*
X141200911Y-52881827D01*
X141208224Y-52878189D01*
X141215710Y-52874926D01*
X141223271Y-52872077D01*
X141230895Y-52869637D01*
X141238567Y-52867600D01*
X141246275Y-52865963D01*
X141254005Y-52864720D01*
X141261743Y-52863867D01*
X141269478Y-52863398D01*
X141277194Y-52863309D01*
X141284879Y-52863595D01*
G37*
D10*
X149171767Y-55760988D02*
X149251683Y-55838930D01*
X141992276Y-57233676D02*
X141791302Y-57158508D01*
D11*
G36*
X142854573Y-52420385D02*
G01*
X142862389Y-52420845D01*
X142870129Y-52421687D01*
X142877781Y-52422903D01*
X142885334Y-52424487D01*
X142892776Y-52426430D01*
X142900094Y-52428725D01*
X142907277Y-52431364D01*
X142914312Y-52434339D01*
X142921188Y-52437644D01*
X142927893Y-52441270D01*
X142934415Y-52445210D01*
X142940742Y-52449456D01*
X142946862Y-52454000D01*
X142952763Y-52458836D01*
X142958433Y-52463954D01*
X142963860Y-52469349D01*
X142969032Y-52475012D01*
X142973938Y-52480935D01*
X142978565Y-52487111D01*
X142982902Y-52493533D01*
X142986935Y-52500192D01*
X142990655Y-52507081D01*
X142994048Y-52514193D01*
X142997102Y-52521520D01*
X142999806Y-52529054D01*
X143002148Y-52536788D01*
X143004116Y-52544714D01*
X143233187Y-53577961D01*
X143234753Y-53585976D01*
X143235899Y-53593974D01*
X143236633Y-53601945D01*
X143236962Y-53609876D01*
X143236893Y-53617756D01*
X143236434Y-53625571D01*
X143235593Y-53633311D01*
X143234377Y-53640963D01*
X143232794Y-53648516D01*
X143230852Y-53655957D01*
X143228558Y-53663275D01*
X143225919Y-53670458D01*
X143222944Y-53677493D01*
X143219640Y-53684369D01*
X143216014Y-53691074D01*
X143212075Y-53697595D01*
X143207829Y-53703922D01*
X143203285Y-53710042D01*
X143198450Y-53715943D01*
X143193331Y-53721613D01*
X143187937Y-53727040D01*
X143182274Y-53732213D01*
X143176350Y-53737118D01*
X143170174Y-53741746D01*
X143163752Y-53746083D01*
X143157093Y-53750117D01*
X143150203Y-53753837D01*
X143143091Y-53757231D01*
X143135763Y-53760286D01*
X143128229Y-53762991D01*
X143120494Y-53765335D01*
X143112567Y-53767304D01*
X143104553Y-53768869D01*
X143096554Y-53770014D01*
X143088583Y-53770747D01*
X143080651Y-53771074D01*
X143072772Y-53771004D01*
X143064956Y-53770544D01*
X143057216Y-53769702D01*
X143049564Y-53768486D01*
X143042011Y-53766902D01*
X143034569Y-53764959D01*
X143027251Y-53762664D01*
X143020068Y-53760025D01*
X143013033Y-53757049D01*
X143006157Y-53753745D01*
X142999452Y-53750119D01*
X142992930Y-53746179D01*
X142986603Y-53741933D01*
X142980483Y-53737389D01*
X142974582Y-53732553D01*
X142968912Y-53727434D01*
X142963485Y-53722040D01*
X142958313Y-53716377D01*
X142953407Y-53710454D01*
X142948780Y-53704278D01*
X142944444Y-53697856D01*
X142940410Y-53691197D01*
X142936691Y-53684308D01*
X142933298Y-53677196D01*
X142930244Y-53669869D01*
X142927540Y-53662335D01*
X142925198Y-53654601D01*
X142923230Y-53646675D01*
X142694159Y-52613428D01*
X142692593Y-52605413D01*
X142691446Y-52597414D01*
X142690713Y-52589443D01*
X142690385Y-52581512D01*
X142690454Y-52573633D01*
X142690913Y-52565817D01*
X142691755Y-52558077D01*
X142692971Y-52550425D01*
X142694554Y-52542872D01*
X142696497Y-52535430D01*
X142698791Y-52528112D01*
X142701430Y-52520930D01*
X142704406Y-52513894D01*
X142707710Y-52507018D01*
X142711336Y-52500313D01*
X142715276Y-52493791D01*
X142719522Y-52487464D01*
X142724066Y-52481344D01*
X142728902Y-52475444D01*
X142734020Y-52469773D01*
X142739415Y-52464346D01*
X142745078Y-52459174D01*
X142751001Y-52454268D01*
X142757177Y-52449641D01*
X142763599Y-52445304D01*
X142770258Y-52441270D01*
X142777147Y-52437550D01*
X142784259Y-52434156D01*
X142791585Y-52431101D01*
X142799119Y-52428397D01*
X142806852Y-52426054D01*
X142814778Y-52424085D01*
X142822792Y-52422520D01*
X142830791Y-52421375D01*
X142838762Y-52420643D01*
X142846693Y-52420315D01*
X142854573Y-52420385D01*
G37*
D10*
X140379934Y-56413063D02*
X140166436Y-56259740D01*
X145549517Y-54099613D02*
X145800954Y-54141051D01*
X141598978Y-57080039D02*
X141415371Y-56998933D01*
X141415371Y-56998933D02*
X141240550Y-56915853D01*
X144462728Y-54019919D02*
X144746444Y-54025607D01*
X148007917Y-56746425D02*
X147684902Y-56915853D01*
X141240550Y-56915853D02*
X141074582Y-56831463D01*
D12*
G36*
X179859825Y-62237094D02*
G01*
X179494487Y-62237094D01*
X179494487Y-64091924D01*
X179859825Y-64091924D01*
X179859825Y-62237094D01*
G37*
G36*
X178025659Y-62685964D02*
G01*
X178045556Y-62675261D01*
X178065515Y-62664913D01*
X178085536Y-62654921D01*
X178105618Y-62645284D01*
X178125762Y-62636002D01*
X178145969Y-62627077D01*
X178166237Y-62618506D01*
X178186566Y-62610291D01*
X178206958Y-62602432D01*
X178227411Y-62594928D01*
X178241081Y-62590123D01*
X178261487Y-62583366D01*
X178281653Y-62577274D01*
X178301580Y-62571846D01*
X178321267Y-62567083D01*
X178340715Y-62562985D01*
X178359923Y-62559551D01*
X178378891Y-62556782D01*
X178397620Y-62554677D01*
X178416109Y-62553237D01*
X178434359Y-62552462D01*
X178446392Y-62552314D01*
X178468126Y-62552735D01*
X178488978Y-62553999D01*
X178508950Y-62556105D01*
X178528041Y-62559053D01*
X178546251Y-62562844D01*
X178563579Y-62567477D01*
X178585314Y-62574964D01*
X178605482Y-62583949D01*
X178624084Y-62594432D01*
X178632798Y-62600235D01*
X178648769Y-62612957D01*
X178662611Y-62627163D01*
X178674323Y-62642852D01*
X178683906Y-62660025D01*
X178691359Y-62678682D01*
X178696683Y-62698823D01*
X178699877Y-62720448D01*
X178700942Y-62743556D01*
X178699686Y-62763694D01*
X178695919Y-62783167D01*
X178689640Y-62801974D01*
X178680849Y-62820115D01*
X178669547Y-62837591D01*
X178655733Y-62854402D01*
X178649504Y-62860940D01*
X178636068Y-62873627D01*
X178621697Y-62885971D01*
X178606392Y-62897972D01*
X178590153Y-62909629D01*
X178572980Y-62920943D01*
X178554872Y-62931913D01*
X178535831Y-62942540D01*
X178515855Y-62952824D01*
X178495212Y-62962812D01*
X178474391Y-62972552D01*
X178453392Y-62982046D01*
X178432214Y-62991292D01*
X178410857Y-63000291D01*
X178389322Y-63009042D01*
X178367608Y-63017547D01*
X178345715Y-63025803D01*
X178325519Y-63033566D01*
X178305378Y-63041685D01*
X178285292Y-63050162D01*
X178265261Y-63058996D01*
X178245285Y-63068187D01*
X178225364Y-63077736D01*
X178205498Y-63087641D01*
X178185687Y-63097904D01*
X178166055Y-63108558D01*
X178146944Y-63119858D01*
X178128356Y-63131804D01*
X178110289Y-63144396D01*
X178092745Y-63157633D01*
X178075723Y-63171516D01*
X178059223Y-63186044D01*
X178043245Y-63201219D01*
X178027919Y-63217087D01*
X178013377Y-63233917D01*
X177999618Y-63251708D01*
X177986641Y-63270462D01*
X177974448Y-63290177D01*
X177965817Y-63305594D01*
X177957627Y-63321552D01*
X177949877Y-63338051D01*
X177942568Y-63355092D01*
X177935811Y-63372683D01*
X177929719Y-63391001D01*
X177924291Y-63410045D01*
X177919528Y-63429816D01*
X177915430Y-63450313D01*
X177911996Y-63471537D01*
X177909227Y-63493487D01*
X177907122Y-63516164D01*
X177905682Y-63539567D01*
X177904907Y-63563696D01*
X177904759Y-63580186D01*
X177905400Y-63606473D01*
X177907325Y-63632412D01*
X177910532Y-63658003D01*
X177915022Y-63683246D01*
X177920795Y-63708142D01*
X177927850Y-63732690D01*
X177936189Y-63756890D01*
X177945810Y-63780743D01*
X177956714Y-63804248D01*
X177968901Y-63827404D01*
X177977739Y-63842649D01*
X177987127Y-63857580D01*
X177997048Y-63872146D01*
X178007502Y-63886348D01*
X178018488Y-63900187D01*
X178030006Y-63913661D01*
X178042056Y-63926771D01*
X178054639Y-63939517D01*
X178067754Y-63951899D01*
X178081402Y-63963917D01*
X178095582Y-63975571D01*
X178110294Y-63986861D01*
X178125539Y-63997786D01*
X178141316Y-64008348D01*
X178157626Y-64018545D01*
X178174468Y-64028379D01*
X178191842Y-64037848D01*
X178209738Y-64046845D01*
X178228146Y-64055262D01*
X178247066Y-64063098D01*
X178266498Y-64070354D01*
X178286441Y-64077029D01*
X178306896Y-64083124D01*
X178327863Y-64088638D01*
X178349342Y-64093572D01*
X178371332Y-64097926D01*
X178393835Y-64101699D01*
X178416849Y-64104891D01*
X178440374Y-64107503D01*
X178464412Y-64109535D01*
X178488961Y-64110986D01*
X178514022Y-64111857D01*
X178539595Y-64112147D01*
X178559496Y-64111957D01*
X178579466Y-64111389D01*
X178599506Y-64110443D01*
X178619616Y-64109117D01*
X178639795Y-64107413D01*
X178660044Y-64105331D01*
X178680362Y-64102869D01*
X178700749Y-64100029D01*
X178721207Y-64096811D01*
X178741734Y-64093213D01*
X178755457Y-64090605D01*
X178775951Y-64086368D01*
X178796384Y-64081738D01*
X178816755Y-64076714D01*
X178837064Y-64071295D01*
X178857312Y-64065482D01*
X178877497Y-64059275D01*
X178897621Y-64052674D01*
X178917683Y-64045679D01*
X178937683Y-64038290D01*
X178957621Y-64030507D01*
X178970879Y-64025099D01*
X178990601Y-64016643D01*
X179010199Y-64007762D01*
X179029674Y-63998456D01*
X179049024Y-63988726D01*
X179068252Y-63978570D01*
X179087355Y-63967989D01*
X179106335Y-63956983D01*
X179125192Y-63945552D01*
X179143924Y-63933696D01*
X179162533Y-63921415D01*
X179174871Y-63912991D01*
X179013524Y-63628106D01*
X178996969Y-63639908D01*
X178980056Y-63651352D01*
X178962787Y-63662439D01*
X178945160Y-63673169D01*
X178927176Y-63683542D01*
X178908835Y-63693557D01*
X178890137Y-63703216D01*
X178871081Y-63712517D01*
X178851834Y-63721385D01*
X178832558Y-63729745D01*
X178813255Y-63737597D01*
X178793925Y-63744940D01*
X178774567Y-63751775D01*
X178755182Y-63758102D01*
X178735769Y-63763920D01*
X178716329Y-63769230D01*
X178696964Y-63773970D01*
X178677998Y-63778078D01*
X178659430Y-63781553D01*
X178641261Y-63784397D01*
X178623490Y-63786609D01*
X178601837Y-63788485D01*
X178580806Y-63789374D01*
X178572568Y-63789453D01*
X178552065Y-63788992D01*
X178531498Y-63787607D01*
X178510866Y-63785299D01*
X178490170Y-63782069D01*
X178469410Y-63777915D01*
X178448585Y-63772838D01*
X178440237Y-63770549D01*
X178419912Y-63763997D01*
X178400704Y-63756158D01*
X178382612Y-63747030D01*
X178365636Y-63736614D01*
X178349777Y-63724911D01*
X178335033Y-63711919D01*
X178329448Y-63706362D01*
X178316656Y-63691342D01*
X178306033Y-63674583D01*
X178297577Y-63656085D01*
X178291289Y-63635848D01*
X178287820Y-63618407D01*
X178285739Y-63599853D01*
X178285045Y-63580186D01*
X178286328Y-63559769D01*
X178290176Y-63540062D01*
X178296591Y-63521067D01*
X178305571Y-63502782D01*
X178317116Y-63485209D01*
X178321535Y-63479509D01*
X178333561Y-63465541D01*
X178346831Y-63451937D01*
X178361347Y-63438699D01*
X178377108Y-63425825D01*
X178394114Y-63413317D01*
X178412365Y-63401173D01*
X178420014Y-63396418D01*
X178435580Y-63387123D01*
X178451503Y-63378145D01*
X178467783Y-63369483D01*
X178484421Y-63361137D01*
X178501415Y-63353106D01*
X178518767Y-63345392D01*
X178536476Y-63337994D01*
X178554543Y-63330912D01*
X178576057Y-63322517D01*
X178597737Y-63313821D01*
X178614105Y-63307100D01*
X178630566Y-63300209D01*
X178647119Y-63293148D01*
X178663765Y-63285918D01*
X178680504Y-63278517D01*
X178697335Y-63270946D01*
X178714260Y-63263205D01*
X178731277Y-63255294D01*
X178748161Y-63247132D01*
X178764852Y-63238638D01*
X178781350Y-63229811D01*
X178797655Y-63220652D01*
X178813767Y-63211161D01*
X178829685Y-63201337D01*
X178845410Y-63191181D01*
X178860942Y-63180693D01*
X178876281Y-63169873D01*
X178891427Y-63158720D01*
X178901416Y-63151100D01*
X178915991Y-63139214D01*
X178930041Y-63126803D01*
X178943565Y-63113867D01*
X178956563Y-63100404D01*
X178969036Y-63086417D01*
X178980984Y-63071904D01*
X178992406Y-63056865D01*
X179003302Y-63041301D01*
X179013673Y-63025211D01*
X179023519Y-63008596D01*
X179029790Y-62997227D01*
X179038590Y-62979553D01*
X179046524Y-62961153D01*
X179053593Y-62942026D01*
X179059796Y-62922173D01*
X179065133Y-62901593D01*
X179069605Y-62880287D01*
X179073211Y-62858255D01*
X179075952Y-62835496D01*
X179077828Y-62812010D01*
X179078837Y-62787798D01*
X179079030Y-62771254D01*
X179078750Y-62751307D01*
X179077910Y-62731693D01*
X179076510Y-62712413D01*
X179074551Y-62693465D01*
X179072032Y-62674851D01*
X179068952Y-62656570D01*
X179065313Y-62638622D01*
X179061115Y-62621008D01*
X179056356Y-62603726D01*
X179051037Y-62586778D01*
X179045159Y-62570163D01*
X179035291Y-62545864D01*
X179024164Y-62522316D01*
X179011778Y-62499517D01*
X179007369Y-62492084D01*
X178993332Y-62470264D01*
X178978260Y-62449317D01*
X178962152Y-62429244D01*
X178945009Y-62410044D01*
X178926830Y-62391717D01*
X178907616Y-62374263D01*
X178887366Y-62357683D01*
X178873291Y-62347114D01*
X178858755Y-62336934D01*
X178843759Y-62327142D01*
X178828303Y-62317737D01*
X178812387Y-62308721D01*
X178804257Y-62304359D01*
X178787722Y-62295917D01*
X178770872Y-62287955D01*
X178753705Y-62280474D01*
X178736223Y-62273474D01*
X178718424Y-62266955D01*
X178700310Y-62260917D01*
X178681879Y-62255360D01*
X178663133Y-62250284D01*
X178644071Y-62245688D01*
X178624692Y-62241573D01*
X178604998Y-62237939D01*
X178584988Y-62234786D01*
X178564661Y-62232114D01*
X178544019Y-62229923D01*
X178523061Y-62228212D01*
X178501786Y-62226983D01*
X178474089Y-62227191D01*
X178447051Y-62227814D01*
X178420673Y-62228853D01*
X178394954Y-62230308D01*
X178369895Y-62232178D01*
X178345495Y-62234464D01*
X178321755Y-62237165D01*
X178298674Y-62240282D01*
X178276252Y-62243814D01*
X178254490Y-62247763D01*
X178233388Y-62252126D01*
X178212945Y-62256906D01*
X178193161Y-62262101D01*
X178174037Y-62267711D01*
X178155572Y-62273737D01*
X178137767Y-62280179D01*
X178120404Y-62286852D01*
X178103269Y-62293684D01*
X178086360Y-62300674D01*
X178069678Y-62307821D01*
X178053222Y-62315127D01*
X178036994Y-62322590D01*
X178020991Y-62330212D01*
X178005216Y-62337991D01*
X177981978Y-62349957D01*
X177959250Y-62362278D01*
X177937032Y-62374954D01*
X177915324Y-62387986D01*
X177894126Y-62401374D01*
X177887173Y-62405915D01*
X178025659Y-62685964D01*
G37*
G36*
X176740447Y-62217167D02*
G01*
X176764718Y-62218053D01*
X176788793Y-62219530D01*
X176812673Y-62221597D01*
X176836357Y-62224256D01*
X176859845Y-62227505D01*
X176883137Y-62231345D01*
X176906233Y-62235776D01*
X176929134Y-62240797D01*
X176951839Y-62246409D01*
X176974348Y-62252612D01*
X176996661Y-62259406D01*
X177018779Y-62266791D01*
X177040700Y-62274766D01*
X177062426Y-62283332D01*
X177083956Y-62292489D01*
X177105226Y-62302162D01*
X177126168Y-62312279D01*
X177146785Y-62322839D01*
X177167075Y-62333842D01*
X177187039Y-62345288D01*
X177206677Y-62357177D01*
X177225988Y-62369509D01*
X177244974Y-62382285D01*
X177263632Y-62395503D01*
X177281965Y-62409164D01*
X177299971Y-62423269D01*
X177317651Y-62437816D01*
X177335005Y-62452807D01*
X177352032Y-62468241D01*
X177368733Y-62484117D01*
X177385108Y-62500437D01*
X177401098Y-62517131D01*
X177416645Y-62534131D01*
X177431749Y-62551437D01*
X177446410Y-62569048D01*
X177460628Y-62586965D01*
X177474402Y-62605188D01*
X177487734Y-62623716D01*
X177500623Y-62642550D01*
X177513068Y-62661689D01*
X177525070Y-62681135D01*
X177536630Y-62700886D01*
X177547746Y-62720943D01*
X177558419Y-62741305D01*
X177568650Y-62761973D01*
X177578437Y-62782947D01*
X177587781Y-62804226D01*
X177596618Y-62825736D01*
X177604885Y-62847400D01*
X177612582Y-62869219D01*
X177619709Y-62891192D01*
X177626266Y-62913320D01*
X177632253Y-62935602D01*
X177637669Y-62958039D01*
X177642515Y-62980631D01*
X177646792Y-63003377D01*
X177650498Y-63026277D01*
X177653633Y-63049333D01*
X177656199Y-63072542D01*
X177658195Y-63095907D01*
X177659620Y-63119426D01*
X177660475Y-63143099D01*
X177660760Y-63166927D01*
X177660475Y-63191394D01*
X177659620Y-63215665D01*
X177658195Y-63239740D01*
X177656199Y-63263620D01*
X177653633Y-63287303D01*
X177650498Y-63310791D01*
X177646792Y-63334084D01*
X177642515Y-63357180D01*
X177637669Y-63380081D01*
X177632253Y-63402785D01*
X177626266Y-63425295D01*
X177619709Y-63447608D01*
X177612582Y-63469725D01*
X177604885Y-63491647D01*
X177596618Y-63513373D01*
X177587781Y-63534903D01*
X177578437Y-63556172D01*
X177568650Y-63577115D01*
X177558419Y-63597732D01*
X177547746Y-63618022D01*
X177536630Y-63637986D01*
X177525070Y-63657624D01*
X177513068Y-63676935D01*
X177500623Y-63695920D01*
X177487734Y-63714579D01*
X177474402Y-63732912D01*
X177460628Y-63750918D01*
X177446410Y-63768598D01*
X177431749Y-63785952D01*
X177416645Y-63802979D01*
X177401098Y-63819680D01*
X177385108Y-63836055D01*
X177368733Y-63852046D01*
X177352032Y-63867599D01*
X177335005Y-63882711D01*
X177317651Y-63897384D01*
X177299971Y-63911617D01*
X177281965Y-63925411D01*
X177263632Y-63938765D01*
X177244974Y-63951679D01*
X177225988Y-63964154D01*
X177206677Y-63976189D01*
X177187039Y-63987784D01*
X177167075Y-63998940D01*
X177146785Y-64009656D01*
X177126168Y-64019933D01*
X177105226Y-64029770D01*
X177083956Y-64039167D01*
X177062426Y-64048004D01*
X177040700Y-64056272D01*
X177018779Y-64063969D01*
X176996661Y-64071096D01*
X176974348Y-64077652D01*
X176951839Y-64083639D01*
X176929134Y-64089056D01*
X176906233Y-64093902D01*
X176883137Y-64098178D01*
X176859845Y-64101884D01*
X176836357Y-64105020D01*
X176812673Y-64107586D01*
X176788793Y-64109581D01*
X176764718Y-64111006D01*
X176740447Y-64111862D01*
X176715980Y-64112147D01*
X176691833Y-64111862D01*
X176667861Y-64111006D01*
X176644063Y-64109581D01*
X176620442Y-64107586D01*
X176596995Y-64105020D01*
X176573723Y-64101884D01*
X176550627Y-64098178D01*
X176527706Y-64093902D01*
X176504960Y-64089056D01*
X176482389Y-64083639D01*
X176459993Y-64077652D01*
X176437772Y-64071096D01*
X176415727Y-64063969D01*
X176393857Y-64056272D01*
X176372162Y-64048004D01*
X176350642Y-64039167D01*
X176329362Y-64029770D01*
X176308388Y-64019933D01*
X176287720Y-64009656D01*
X176267358Y-63998940D01*
X176247301Y-63987784D01*
X176227550Y-63976189D01*
X176208105Y-63964154D01*
X176188965Y-63951679D01*
X176170131Y-63938765D01*
X176151603Y-63925411D01*
X176133380Y-63911617D01*
X176115463Y-63897384D01*
X176097852Y-63882711D01*
X176080547Y-63867599D01*
X176063547Y-63852046D01*
X176046852Y-63836055D01*
X176030538Y-63819680D01*
X176014677Y-63802979D01*
X175999269Y-63785952D01*
X175984314Y-63768598D01*
X175969813Y-63750918D01*
X175955765Y-63732912D01*
X175942171Y-63714579D01*
X175929030Y-63695920D01*
X175916342Y-63676935D01*
X175904108Y-63657624D01*
X175892327Y-63637986D01*
X175880999Y-63618022D01*
X175870125Y-63597732D01*
X175859704Y-63577115D01*
X175849737Y-63556172D01*
X175840223Y-63534903D01*
X175831226Y-63513373D01*
X175822809Y-63491647D01*
X175814973Y-63469725D01*
X175807717Y-63447608D01*
X175801042Y-63425295D01*
X175794947Y-63402785D01*
X175789433Y-63380081D01*
X175784499Y-63357180D01*
X175780146Y-63334084D01*
X175776373Y-63310791D01*
X175773180Y-63287303D01*
X175770568Y-63263620D01*
X175768536Y-63239740D01*
X175767085Y-63215665D01*
X175766215Y-63191394D01*
X175765924Y-63166927D01*
X176144012Y-63166927D01*
X176144181Y-63182306D01*
X176145064Y-63205135D01*
X176146705Y-63227679D01*
X176149103Y-63249937D01*
X176152259Y-63271909D01*
X176156172Y-63293595D01*
X176160842Y-63314995D01*
X176166270Y-63336110D01*
X176172455Y-63356938D01*
X176179397Y-63377480D01*
X176187097Y-63397736D01*
X176192556Y-63410994D01*
X176201228Y-63430520D01*
X176210480Y-63449614D01*
X176220311Y-63468274D01*
X176230722Y-63486502D01*
X176241713Y-63504297D01*
X176253283Y-63521659D01*
X176265432Y-63538589D01*
X176278162Y-63555085D01*
X176291471Y-63571149D01*
X176305359Y-63586780D01*
X176314914Y-63596859D01*
X176329634Y-63611443D01*
X176344817Y-63625386D01*
X176360463Y-63638687D01*
X176376573Y-63651347D01*
X176393147Y-63663365D01*
X176410185Y-63674742D01*
X176427686Y-63685478D01*
X176445651Y-63695572D01*
X176464080Y-63705024D01*
X176482973Y-63713836D01*
X176495786Y-63719319D01*
X176515243Y-63726881D01*
X176534987Y-63733647D01*
X176555017Y-63739617D01*
X176575332Y-63744790D01*
X176595934Y-63749168D01*
X176616821Y-63752750D01*
X176637995Y-63755536D01*
X176659454Y-63757526D01*
X176681199Y-63758720D01*
X176703231Y-63759118D01*
X176718599Y-63758941D01*
X176741375Y-63758013D01*
X176763818Y-63756288D01*
X176785929Y-63753767D01*
X176807708Y-63750451D01*
X176829155Y-63746338D01*
X176850269Y-63741430D01*
X176871051Y-63735725D01*
X176891500Y-63729225D01*
X176911617Y-63721928D01*
X176931402Y-63713836D01*
X176944384Y-63708033D01*
X176963489Y-63698794D01*
X176982153Y-63688914D01*
X177000377Y-63678392D01*
X177018160Y-63667229D01*
X177035503Y-63655424D01*
X177052406Y-63642978D01*
X177068868Y-63629891D01*
X177084889Y-63616162D01*
X177100470Y-63601792D01*
X177115610Y-63586780D01*
X177125366Y-63576408D01*
X177139492Y-63560488D01*
X177153007Y-63544136D01*
X177165911Y-63527350D01*
X177178205Y-63510132D01*
X177189889Y-63492482D01*
X177200962Y-63474398D01*
X177211424Y-63455882D01*
X177221276Y-63436933D01*
X177230517Y-63417551D01*
X177239148Y-63397736D01*
X177244472Y-63384264D01*
X177251814Y-63363817D01*
X177258382Y-63343084D01*
X177264178Y-63322065D01*
X177269202Y-63300760D01*
X177273452Y-63279170D01*
X177276930Y-63257293D01*
X177279634Y-63235130D01*
X177281566Y-63212682D01*
X177282726Y-63189947D01*
X177283112Y-63166927D01*
X177282945Y-63151279D01*
X177282071Y-63128064D01*
X177280447Y-63105158D01*
X177278073Y-63082561D01*
X177274950Y-63060274D01*
X177271077Y-63038295D01*
X177266454Y-63016626D01*
X177261082Y-62995266D01*
X177254960Y-62974215D01*
X177248088Y-62953473D01*
X177240467Y-62933040D01*
X177234944Y-62919571D01*
X177226145Y-62899760D01*
X177216727Y-62880421D01*
X177206691Y-62861553D01*
X177196036Y-62843157D01*
X177184764Y-62825231D01*
X177172873Y-62807778D01*
X177160364Y-62790796D01*
X177147237Y-62774285D01*
X177133491Y-62758245D01*
X177119127Y-62742677D01*
X177109248Y-62732545D01*
X177094061Y-62717887D01*
X177078434Y-62703879D01*
X177062366Y-62690520D01*
X177045857Y-62677810D01*
X177028909Y-62665749D01*
X177011519Y-62654338D01*
X176993690Y-62643575D01*
X176975419Y-62633462D01*
X176956709Y-62623997D01*
X176937557Y-62615182D01*
X176924574Y-62609699D01*
X176904842Y-62602137D01*
X176884801Y-62595371D01*
X176864450Y-62589401D01*
X176843791Y-62584227D01*
X176822822Y-62579850D01*
X176801545Y-62576268D01*
X176779958Y-62573482D01*
X176758062Y-62571492D01*
X176735857Y-62570298D01*
X176713342Y-62569900D01*
X176698299Y-62570077D01*
X176675990Y-62571005D01*
X176653991Y-62572730D01*
X176632301Y-62575251D01*
X176610921Y-62578567D01*
X176589849Y-62582680D01*
X176569086Y-62587588D01*
X176548633Y-62593293D01*
X176528489Y-62599793D01*
X176508654Y-62607090D01*
X176489127Y-62615182D01*
X176476316Y-62620987D01*
X176457486Y-62630235D01*
X176439119Y-62640132D01*
X176421216Y-62650678D01*
X176403776Y-62661873D01*
X176386800Y-62673718D01*
X176370288Y-62686211D01*
X176354240Y-62699354D01*
X176338655Y-62713146D01*
X176323534Y-62727587D01*
X176308876Y-62742677D01*
X176299388Y-62753003D01*
X176285639Y-62768886D01*
X176272469Y-62785240D01*
X176259879Y-62802065D01*
X176247868Y-62819361D01*
X176236437Y-62837129D01*
X176225586Y-62855369D01*
X176215314Y-62874079D01*
X176205622Y-62893261D01*
X176196509Y-62912915D01*
X176187976Y-62933040D01*
X176182652Y-62946628D01*
X176175311Y-62967266D01*
X176168742Y-62988214D01*
X176162946Y-63009472D01*
X176157923Y-63031038D01*
X176153672Y-63052913D01*
X176150195Y-63075098D01*
X176147490Y-63097591D01*
X176145558Y-63120394D01*
X176144399Y-63143506D01*
X176144012Y-63166927D01*
X175765924Y-63166927D01*
X175766215Y-63143099D01*
X175767085Y-63119426D01*
X175768536Y-63095907D01*
X175770568Y-63072542D01*
X175773180Y-63049333D01*
X175776373Y-63026277D01*
X175780146Y-63003377D01*
X175784499Y-62980631D01*
X175789433Y-62958039D01*
X175794947Y-62935602D01*
X175801042Y-62913320D01*
X175807717Y-62891192D01*
X175814973Y-62869219D01*
X175822809Y-62847400D01*
X175831226Y-62825736D01*
X175840223Y-62804226D01*
X175849737Y-62782947D01*
X175859704Y-62761973D01*
X175870125Y-62741305D01*
X175880999Y-62720943D01*
X175892327Y-62700886D01*
X175904108Y-62681135D01*
X175916342Y-62661689D01*
X175929030Y-62642550D01*
X175942171Y-62623716D01*
X175955765Y-62605188D01*
X175969813Y-62586965D01*
X175984314Y-62569048D01*
X175999269Y-62551437D01*
X176014677Y-62534131D01*
X176030538Y-62517131D01*
X176046852Y-62500437D01*
X176063547Y-62484117D01*
X176080547Y-62468241D01*
X176097852Y-62452807D01*
X176115463Y-62437816D01*
X176133380Y-62423269D01*
X176151603Y-62409164D01*
X176170131Y-62395503D01*
X176188965Y-62382285D01*
X176208105Y-62369509D01*
X176227550Y-62357177D01*
X176247301Y-62345288D01*
X176267358Y-62333842D01*
X176287720Y-62322839D01*
X176308388Y-62312279D01*
X176329362Y-62302162D01*
X176350642Y-62292489D01*
X176372162Y-62283332D01*
X176393857Y-62274766D01*
X176415727Y-62266791D01*
X176437772Y-62259406D01*
X176459993Y-62252612D01*
X176482389Y-62246409D01*
X176504960Y-62240797D01*
X176527706Y-62235776D01*
X176550627Y-62231345D01*
X176573723Y-62227505D01*
X176596995Y-62224256D01*
X176620442Y-62221597D01*
X176644063Y-62219530D01*
X176667861Y-62218053D01*
X176691833Y-62217167D01*
X176715980Y-62216871D01*
X176740447Y-62217167D01*
G37*
G36*
X174009134Y-63938051D02*
G01*
X174024888Y-63950048D01*
X174042343Y-63961671D01*
X174059676Y-63972301D01*
X174075365Y-63981423D01*
X174092676Y-63991095D01*
X174111608Y-64001317D01*
X174121682Y-64006634D01*
X174142702Y-64017144D01*
X174159224Y-64024828D01*
X174176396Y-64032342D01*
X174194216Y-64039687D01*
X174212686Y-64046861D01*
X174231805Y-64053865D01*
X174251574Y-64060699D01*
X174271991Y-64067363D01*
X174293058Y-64073857D01*
X174314773Y-64080181D01*
X174322156Y-64082251D01*
X174344550Y-64088042D01*
X174367385Y-64093215D01*
X174390661Y-64097769D01*
X174414377Y-64101705D01*
X174438533Y-64105023D01*
X174463130Y-64107723D01*
X174488168Y-64109804D01*
X174513645Y-64111268D01*
X174539564Y-64112112D01*
X174565923Y-64112339D01*
X174583740Y-64112147D01*
X174610980Y-64111218D01*
X174637857Y-64109749D01*
X174664369Y-64107742D01*
X174690517Y-64105195D01*
X174716301Y-64102109D01*
X174741721Y-64098484D01*
X174766777Y-64094319D01*
X174791469Y-64089615D01*
X174815796Y-64084372D01*
X174839760Y-64078590D01*
X174863360Y-64072269D01*
X174886595Y-64065408D01*
X174909467Y-64058008D01*
X174931974Y-64050069D01*
X174954117Y-64041590D01*
X174975896Y-64032572D01*
X174997234Y-64023074D01*
X175018163Y-64013153D01*
X175038684Y-64002809D01*
X175058796Y-63992043D01*
X175078498Y-63980855D01*
X175097793Y-63969244D01*
X175116678Y-63957211D01*
X175135155Y-63944755D01*
X175153223Y-63931877D01*
X175170882Y-63918576D01*
X175188133Y-63904853D01*
X175204975Y-63890707D01*
X175221408Y-63876139D01*
X175237432Y-63861148D01*
X175253048Y-63845735D01*
X175268255Y-63829900D01*
X175282981Y-63813705D01*
X175297264Y-63797216D01*
X175311104Y-63780430D01*
X175324501Y-63763350D01*
X175337455Y-63745974D01*
X175349966Y-63728302D01*
X175362034Y-63710336D01*
X175373658Y-63692074D01*
X175384840Y-63673516D01*
X175395578Y-63654663D01*
X175405874Y-63635515D01*
X175415726Y-63616071D01*
X175425135Y-63596332D01*
X175434101Y-63576298D01*
X175442624Y-63555968D01*
X175450705Y-63535343D01*
X175458317Y-63514428D01*
X175465439Y-63493337D01*
X175472070Y-63472071D01*
X175478209Y-63450630D01*
X175483858Y-63429014D01*
X175489015Y-63407223D01*
X175493681Y-63385257D01*
X175497856Y-63363115D01*
X175501539Y-63340798D01*
X175504732Y-63318306D01*
X175507433Y-63295639D01*
X175509643Y-63272797D01*
X175511362Y-63249780D01*
X175512590Y-63226587D01*
X175513327Y-63203219D01*
X175513573Y-63179676D01*
X175513322Y-63153381D01*
X175512570Y-63127360D01*
X175511316Y-63101613D01*
X175509561Y-63076142D01*
X175507304Y-63050945D01*
X175504546Y-63026023D01*
X175501287Y-63001376D01*
X175497526Y-62977004D01*
X175493263Y-62952906D01*
X175488500Y-62929083D01*
X175483234Y-62905535D01*
X175477467Y-62882262D01*
X175471199Y-62859263D01*
X175464429Y-62836540D01*
X175457158Y-62814091D01*
X175449386Y-62791917D01*
X175441146Y-62770014D01*
X175432473Y-62748489D01*
X175423368Y-62727341D01*
X175413830Y-62706572D01*
X175403859Y-62686180D01*
X175393456Y-62666167D01*
X175382619Y-62646531D01*
X175371350Y-62627272D01*
X175359648Y-62608392D01*
X175347513Y-62589890D01*
X175334946Y-62571765D01*
X175321946Y-62554018D01*
X175308513Y-62536649D01*
X175294647Y-62519657D01*
X175280349Y-62503044D01*
X175265617Y-62486808D01*
X175250488Y-62470935D01*
X175234994Y-62455519D01*
X175219136Y-62440559D01*
X175202914Y-62426056D01*
X175186328Y-62412010D01*
X175169378Y-62398421D01*
X175152064Y-62385288D01*
X175134386Y-62372613D01*
X175116343Y-62360394D01*
X175097937Y-62348632D01*
X175079167Y-62337327D01*
X175060032Y-62326478D01*
X175040533Y-62316087D01*
X175020671Y-62306152D01*
X175000444Y-62296674D01*
X174979853Y-62287653D01*
X174958888Y-62279082D01*
X174937648Y-62271063D01*
X174916133Y-62263598D01*
X174894344Y-62256686D01*
X174872279Y-62250327D01*
X174849940Y-62244520D01*
X174827327Y-62239267D01*
X174804438Y-62234567D01*
X174781275Y-62230419D01*
X174757836Y-62226825D01*
X174734124Y-62223783D01*
X174710136Y-62221295D01*
X174685873Y-62219360D01*
X174661336Y-62217977D01*
X174636524Y-62217148D01*
X174611437Y-62216871D01*
X174588305Y-62217069D01*
X174565509Y-62217661D01*
X174543050Y-62218649D01*
X174520927Y-62220031D01*
X174499141Y-62221808D01*
X174477691Y-62223981D01*
X174456579Y-62226548D01*
X174435802Y-62229511D01*
X174415363Y-62232868D01*
X174395259Y-62236620D01*
X174375493Y-62240768D01*
X174356063Y-62245310D01*
X174336970Y-62250248D01*
X174318213Y-62255580D01*
X174299793Y-62261307D01*
X174281709Y-62267429D01*
X174263945Y-62273778D01*
X174246593Y-62280186D01*
X174229654Y-62286652D01*
X174213126Y-62293176D01*
X174189107Y-62303071D01*
X174166016Y-62313098D01*
X174143852Y-62323257D01*
X174122616Y-62333547D01*
X174102307Y-62343968D01*
X174082925Y-62354521D01*
X174064470Y-62365204D01*
X174046943Y-62376020D01*
X174190705Y-62721135D01*
X174207074Y-62709100D01*
X174224749Y-62696955D01*
X174243729Y-62684700D01*
X174258820Y-62675437D01*
X174274646Y-62666112D01*
X174291206Y-62656725D01*
X174308500Y-62647276D01*
X174326528Y-62637765D01*
X174345290Y-62628193D01*
X174358206Y-62621777D01*
X174378103Y-62612506D01*
X174398557Y-62604147D01*
X174419567Y-62596700D01*
X174441133Y-62590164D01*
X174463256Y-62584541D01*
X174485935Y-62579829D01*
X174509170Y-62576030D01*
X174532962Y-62573142D01*
X174557310Y-62571166D01*
X174582215Y-62570102D01*
X174599127Y-62569900D01*
X174618838Y-62570286D01*
X174638401Y-62571445D01*
X174657818Y-62573377D01*
X174677087Y-62576082D01*
X174696210Y-62579560D01*
X174715186Y-62583810D01*
X174734016Y-62588833D01*
X174752698Y-62594629D01*
X174771234Y-62601198D01*
X174789623Y-62608540D01*
X174801800Y-62613863D01*
X174819817Y-62622431D01*
X174837431Y-62631648D01*
X174854644Y-62641514D01*
X174871455Y-62652029D01*
X174887864Y-62663194D01*
X174903872Y-62675007D01*
X174919477Y-62687470D01*
X174934680Y-62700582D01*
X174949482Y-62714343D01*
X174963882Y-62728753D01*
X174973259Y-62738720D01*
X174986915Y-62754041D01*
X175000023Y-62769833D01*
X175012583Y-62786097D01*
X175024593Y-62802832D01*
X175036055Y-62820038D01*
X175046968Y-62837716D01*
X175057333Y-62855865D01*
X175067149Y-62874486D01*
X175076416Y-62893578D01*
X175085134Y-62913141D01*
X175090642Y-62926445D01*
X175098263Y-62946721D01*
X175105134Y-62967321D01*
X175111256Y-62988246D01*
X175116628Y-63009496D01*
X175121251Y-63031070D01*
X175125124Y-63052968D01*
X175128247Y-63075191D01*
X175130621Y-63097739D01*
X175132245Y-63120611D01*
X175133120Y-63143808D01*
X175133287Y-63159453D01*
X175132943Y-63184312D01*
X175131911Y-63208768D01*
X175130191Y-63232823D01*
X175127784Y-63256476D01*
X175124689Y-63279727D01*
X175120906Y-63302576D01*
X175116436Y-63325023D01*
X175111277Y-63347068D01*
X175105431Y-63368712D01*
X175098897Y-63389954D01*
X175094159Y-63403891D01*
X175086525Y-63424390D01*
X175078296Y-63444340D01*
X175069472Y-63463741D01*
X175060053Y-63482593D01*
X175050038Y-63500897D01*
X175039429Y-63518652D01*
X175028225Y-63535859D01*
X175016425Y-63552516D01*
X175004031Y-63568625D01*
X174991042Y-63584186D01*
X174982051Y-63594254D01*
X174968113Y-63608775D01*
X174953664Y-63622662D01*
X174938705Y-63635916D01*
X174923236Y-63648536D01*
X174907257Y-63660522D01*
X174890768Y-63671874D01*
X174873769Y-63682593D01*
X174856260Y-63692678D01*
X174838241Y-63702129D01*
X174819712Y-63710947D01*
X174807076Y-63716473D01*
X174787641Y-63724094D01*
X174767751Y-63730966D01*
X174747404Y-63737088D01*
X174726602Y-63742460D01*
X174705343Y-63747083D01*
X174683629Y-63750956D01*
X174661458Y-63754079D01*
X174638832Y-63756453D01*
X174615750Y-63758077D01*
X174592212Y-63758952D01*
X174576266Y-63759118D01*
X174557858Y-63758933D01*
X174539783Y-63758376D01*
X174522042Y-63757449D01*
X174496054Y-63755362D01*
X174470815Y-63752441D01*
X174446326Y-63748685D01*
X174422587Y-63744095D01*
X174399598Y-63738670D01*
X174377358Y-63732410D01*
X174355868Y-63725316D01*
X174335127Y-63717387D01*
X174321716Y-63711637D01*
X174302295Y-63702606D01*
X174283762Y-63693482D01*
X174266117Y-63684265D01*
X174249362Y-63674955D01*
X174233495Y-63665553D01*
X174218517Y-63656058D01*
X174199928Y-63643253D01*
X174182920Y-63630284D01*
X174167491Y-63617150D01*
X174160370Y-63610521D01*
X174009134Y-63938051D01*
G37*
G36*
X172085282Y-62237094D02*
G01*
X172085282Y-64091924D01*
X172450621Y-64091924D01*
X172450621Y-63338385D01*
X173279776Y-63338385D01*
X173279776Y-64091924D01*
X173645115Y-64091924D01*
X173645115Y-62237094D01*
X173279776Y-62237094D01*
X173279776Y-62985796D01*
X172450621Y-62985796D01*
X172450621Y-62237094D01*
X172085282Y-62237094D01*
G37*
G36*
X171123356Y-64122258D02*
G01*
X171148287Y-64121963D01*
X171172740Y-64121077D01*
X171196716Y-64119600D01*
X171220214Y-64117532D01*
X171243235Y-64114874D01*
X171265778Y-64111625D01*
X171287844Y-64107785D01*
X171309433Y-64103354D01*
X171330544Y-64098333D01*
X171351178Y-64092720D01*
X171371334Y-64086517D01*
X171391013Y-64079724D01*
X171410214Y-64072339D01*
X171428938Y-64064364D01*
X171447185Y-64055798D01*
X171464954Y-64046641D01*
X171482169Y-64036962D01*
X171498861Y-64026830D01*
X171515032Y-64016244D01*
X171530680Y-64005205D01*
X171545806Y-63993713D01*
X171560411Y-63981767D01*
X171574493Y-63969368D01*
X171588053Y-63956515D01*
X171601091Y-63943209D01*
X171613607Y-63929450D01*
X171625601Y-63915237D01*
X171637072Y-63900571D01*
X171648022Y-63885452D01*
X171658450Y-63869879D01*
X171668355Y-63853853D01*
X171677739Y-63837374D01*
X171686576Y-63820511D01*
X171694843Y-63803336D01*
X171702540Y-63785848D01*
X171709667Y-63768048D01*
X171716224Y-63749936D01*
X171722211Y-63731510D01*
X171727627Y-63712773D01*
X171732474Y-63693722D01*
X171736750Y-63674359D01*
X171740456Y-63654684D01*
X171743592Y-63634696D01*
X171746157Y-63614395D01*
X171748153Y-63593782D01*
X171749578Y-63572856D01*
X171750433Y-63551618D01*
X171750718Y-63530067D01*
X171750384Y-63509370D01*
X171749379Y-63488934D01*
X171747705Y-63468758D01*
X171745360Y-63448844D01*
X171742347Y-63429191D01*
X171738663Y-63409799D01*
X171734309Y-63390668D01*
X171729286Y-63371798D01*
X171723593Y-63353189D01*
X171717231Y-63334841D01*
X171710198Y-63316754D01*
X171702496Y-63298928D01*
X171694124Y-63281363D01*
X171685082Y-63264059D01*
X171675371Y-63247017D01*
X171664989Y-63230235D01*
X171654048Y-63213741D01*
X171642657Y-63197674D01*
X171630816Y-63182033D01*
X171618525Y-63166817D01*
X171605784Y-63152027D01*
X171592593Y-63137664D01*
X171578953Y-63123726D01*
X171564862Y-63110214D01*
X171550321Y-63097128D01*
X171535331Y-63084468D01*
X171519890Y-63072233D01*
X171504000Y-63060425D01*
X171487659Y-63049042D01*
X171470869Y-63038086D01*
X171453629Y-63027555D01*
X171435938Y-63017450D01*
X171417841Y-63007814D01*
X171399490Y-62998800D01*
X171380884Y-62990408D01*
X171362024Y-62982637D01*
X171342910Y-62975487D01*
X171323542Y-62968960D01*
X171303920Y-62963054D01*
X171284044Y-62957770D01*
X171263913Y-62953107D01*
X171243528Y-62949066D01*
X171222889Y-62945647D01*
X171201996Y-62942849D01*
X171180849Y-62940674D01*
X171159448Y-62939119D01*
X171137792Y-62938187D01*
X171115882Y-62937876D01*
X171086592Y-62938414D01*
X171057960Y-62940026D01*
X171029988Y-62942714D01*
X171002676Y-62946476D01*
X170976023Y-62951314D01*
X170950029Y-62957227D01*
X170924695Y-62964215D01*
X170900021Y-62972278D01*
X170876005Y-62981416D01*
X170852650Y-62991629D01*
X170829953Y-63002917D01*
X170807917Y-63015280D01*
X170786539Y-63028718D01*
X170765821Y-63043231D01*
X170745763Y-63058819D01*
X170726364Y-63075482D01*
X170707714Y-63093106D01*
X170689902Y-63111684D01*
X170672927Y-63131217D01*
X170656791Y-63151705D01*
X170641493Y-63173147D01*
X170627033Y-63195545D01*
X170613412Y-63218897D01*
X170600628Y-63243204D01*
X170588682Y-63268466D01*
X170577574Y-63294683D01*
X170567305Y-63321854D01*
X170557873Y-63349981D01*
X170549280Y-63379062D01*
X170541524Y-63409098D01*
X170534607Y-63440089D01*
X170528527Y-63472035D01*
X171385380Y-63744171D01*
X171463635Y-63552489D01*
X170843747Y-63343661D01*
X170916727Y-63376194D01*
X170923819Y-63356132D01*
X170932458Y-63336885D01*
X170942641Y-63318453D01*
X170954371Y-63300838D01*
X170967646Y-63284038D01*
X170982466Y-63268054D01*
X170988827Y-63261889D01*
X171002497Y-63250348D01*
X171017788Y-63240346D01*
X171034701Y-63231883D01*
X171053234Y-63224959D01*
X171073389Y-63219574D01*
X171095165Y-63215727D01*
X171118562Y-63213419D01*
X171137173Y-63212697D01*
X171143580Y-63212649D01*
X171162745Y-63213219D01*
X171181333Y-63214930D01*
X171199345Y-63217781D01*
X171216779Y-63221772D01*
X171233637Y-63226903D01*
X171253897Y-63234921D01*
X171273255Y-63244720D01*
X171280746Y-63249139D01*
X171298617Y-63261283D01*
X171315136Y-63274908D01*
X171330302Y-63290014D01*
X171344116Y-63306601D01*
X171356577Y-63324670D01*
X171365573Y-63340191D01*
X171371751Y-63352454D01*
X171379067Y-63369531D01*
X171385408Y-63387350D01*
X171390772Y-63405911D01*
X171395162Y-63425214D01*
X171398576Y-63445259D01*
X171401015Y-63466045D01*
X171402478Y-63487574D01*
X171402966Y-63509844D01*
X171402633Y-63528918D01*
X171401636Y-63547397D01*
X171399975Y-63565281D01*
X171396726Y-63588200D01*
X171392295Y-63610062D01*
X171386683Y-63630866D01*
X171379889Y-63650612D01*
X171371914Y-63669300D01*
X171365157Y-63682621D01*
X171355272Y-63699355D01*
X171344521Y-63715045D01*
X171332905Y-63729690D01*
X171320424Y-63743291D01*
X171307077Y-63755848D01*
X171292864Y-63767361D01*
X171277786Y-63777830D01*
X171261842Y-63787255D01*
X171245232Y-63795498D01*
X171228155Y-63802642D01*
X171210611Y-63808687D01*
X171192599Y-63813633D01*
X171174121Y-63817480D01*
X171155175Y-63820228D01*
X171135762Y-63821876D01*
X171115882Y-63822426D01*
X171097844Y-63821932D01*
X171079999Y-63820451D01*
X171062347Y-63817982D01*
X171044888Y-63814526D01*
X171027622Y-63810083D01*
X171010550Y-63804652D01*
X171003775Y-63802203D01*
X170986782Y-63795572D01*
X170969875Y-63788318D01*
X170953054Y-63780442D01*
X170936318Y-63771943D01*
X170919669Y-63762822D01*
X170903105Y-63753078D01*
X170896504Y-63749007D01*
X170740432Y-64011470D01*
X170757046Y-64020693D01*
X170773915Y-64029569D01*
X170791039Y-64038097D01*
X170808418Y-64046277D01*
X170826052Y-64054109D01*
X170843941Y-64061594D01*
X170862085Y-64068730D01*
X170880484Y-64075520D01*
X170899138Y-64081961D01*
X170918048Y-64088054D01*
X170930795Y-64091924D01*
X170949819Y-64097345D01*
X170968642Y-64102233D01*
X170987264Y-64106587D01*
X171005685Y-64110409D01*
X171023905Y-64113697D01*
X171041924Y-64116452D01*
X171059742Y-64118674D01*
X171077359Y-64120363D01*
X171100536Y-64121784D01*
X171123356Y-64122258D01*
G37*
G36*
X171244257Y-62339530D02*
G01*
X171047739Y-62526376D01*
X171133468Y-62551435D01*
X170934312Y-62339530D01*
X170616894Y-62339530D01*
X171083349Y-62803347D01*
X171085548Y-62803347D01*
X171562114Y-62339530D01*
X171244257Y-62339530D01*
G37*
G36*
X170168904Y-62507032D02*
G01*
X169816315Y-62507032D01*
X169816315Y-62985796D01*
X169549016Y-62985796D01*
X169549016Y-63260130D01*
X169816315Y-63260130D01*
X169816315Y-64091924D01*
X170168904Y-64091924D01*
X170168904Y-63260130D01*
X170340363Y-63260130D01*
X170340363Y-62985796D01*
X170168904Y-62985796D01*
X170168904Y-62507032D01*
G37*
D13*
G36*
X179487716Y-65445042D02*
G01*
X179808712Y-64898579D01*
X179605258Y-64898579D01*
X179422747Y-65268515D01*
X179528107Y-65264882D01*
X179370174Y-64898579D01*
X179178901Y-64898579D01*
X179482800Y-65445042D01*
X179487716Y-65445042D01*
G37*
G36*
X179105598Y-64621821D02*
G01*
X178861966Y-64621821D01*
X178861966Y-65433929D01*
X179040843Y-65433929D01*
X179040843Y-64793218D01*
X179105598Y-64793218D01*
X179105598Y-64621821D01*
G37*
G36*
X178727113Y-65345665D02*
G01*
X178726682Y-65336399D01*
X178725390Y-65327513D01*
X178723236Y-65319008D01*
X178720221Y-65310884D01*
X178716344Y-65303140D01*
X178711605Y-65295777D01*
X178706006Y-65288794D01*
X178699544Y-65282193D01*
X178692565Y-65276132D01*
X178685412Y-65270879D01*
X178678086Y-65266435D01*
X178668684Y-65262015D01*
X178659010Y-65258859D01*
X178649066Y-65256965D01*
X178638850Y-65256333D01*
X178629372Y-65256965D01*
X178620041Y-65258859D01*
X178610856Y-65262015D01*
X178601817Y-65266435D01*
X178592924Y-65272117D01*
X178585915Y-65277571D01*
X178580720Y-65282193D01*
X178574258Y-65288794D01*
X178568659Y-65295777D01*
X178563920Y-65303140D01*
X178560043Y-65310884D01*
X178557028Y-65319008D01*
X178554874Y-65327513D01*
X178553582Y-65336399D01*
X178553151Y-65345665D01*
X178553582Y-65355506D01*
X178554874Y-65364833D01*
X178557028Y-65373645D01*
X178560043Y-65381943D01*
X178563920Y-65389727D01*
X178568659Y-65396996D01*
X178574258Y-65403752D01*
X178580720Y-65409993D01*
X178587659Y-65415603D01*
X178594691Y-65420465D01*
X178603613Y-65425490D01*
X178612682Y-65429347D01*
X178621896Y-65432035D01*
X178631256Y-65433555D01*
X178638850Y-65433929D01*
X178649066Y-65433344D01*
X178659010Y-65431591D01*
X178668684Y-65428669D01*
X178678086Y-65424579D01*
X178687217Y-65419319D01*
X178694326Y-65414270D01*
X178699544Y-65409993D01*
X178706006Y-65403752D01*
X178711605Y-65396996D01*
X178716344Y-65389727D01*
X178720221Y-65381943D01*
X178723236Y-65373645D01*
X178725390Y-65364833D01*
X178726682Y-65355506D01*
X178727113Y-65345665D01*
G37*
G36*
X178155101Y-64612010D02*
G01*
X178164205Y-64612169D01*
X178173225Y-64612486D01*
X178182159Y-64612962D01*
X178191008Y-64613596D01*
X178199772Y-64614389D01*
X178208450Y-64615341D01*
X178217044Y-64616451D01*
X178225553Y-64617720D01*
X178238155Y-64619921D01*
X178250567Y-64622479D01*
X178262787Y-64625393D01*
X178274815Y-64628665D01*
X178286652Y-64632293D01*
X178294388Y-64634913D01*
X178305751Y-64639249D01*
X178316825Y-64644074D01*
X178327610Y-64649387D01*
X178338105Y-64655189D01*
X178348312Y-64661478D01*
X178358229Y-64668257D01*
X178367856Y-64675523D01*
X178377195Y-64683278D01*
X178386244Y-64691522D01*
X178395004Y-64700254D01*
X178403441Y-64709465D01*
X178411521Y-64719230D01*
X178416709Y-64726046D01*
X178421739Y-64733108D01*
X178426610Y-64740415D01*
X178431322Y-64747967D01*
X178435876Y-64755765D01*
X178440272Y-64763809D01*
X178444508Y-64772098D01*
X178448586Y-64780632D01*
X178452506Y-64789412D01*
X178456267Y-64798437D01*
X178459869Y-64807707D01*
X178463312Y-64817224D01*
X178466597Y-64826985D01*
X178469703Y-64837019D01*
X178472608Y-64847354D01*
X178475313Y-64857990D01*
X178477817Y-64868926D01*
X178480121Y-64880163D01*
X178482225Y-64891700D01*
X178484129Y-64903538D01*
X178485832Y-64915676D01*
X178487334Y-64928114D01*
X178488637Y-64940854D01*
X178489738Y-64953894D01*
X178490640Y-64967234D01*
X178491341Y-64980875D01*
X178491842Y-64994816D01*
X178492143Y-65009058D01*
X178492243Y-65023601D01*
X178492138Y-65036663D01*
X178491822Y-65049510D01*
X178491296Y-65062141D01*
X178490560Y-65074558D01*
X178489613Y-65086758D01*
X178488456Y-65098744D01*
X178487089Y-65110514D01*
X178485511Y-65122069D01*
X178483723Y-65133408D01*
X178481724Y-65144532D01*
X178479515Y-65155440D01*
X178477096Y-65166133D01*
X178474466Y-65176611D01*
X178471626Y-65186874D01*
X178468576Y-65196921D01*
X178465315Y-65206752D01*
X178461871Y-65216371D01*
X178458269Y-65225779D01*
X178454511Y-65234977D01*
X178450596Y-65243965D01*
X178446523Y-65252742D01*
X178442294Y-65261309D01*
X178437908Y-65269665D01*
X178433365Y-65277812D01*
X178428665Y-65285747D01*
X178423808Y-65293473D01*
X178418794Y-65300988D01*
X178413623Y-65308292D01*
X178408296Y-65315387D01*
X178402811Y-65322270D01*
X178397169Y-65328944D01*
X178391371Y-65335407D01*
X178385410Y-65341636D01*
X178376256Y-65350599D01*
X178366847Y-65359102D01*
X178357182Y-65367148D01*
X178347262Y-65374735D01*
X178337087Y-65381864D01*
X178326656Y-65388535D01*
X178315969Y-65394747D01*
X178305027Y-65400501D01*
X178293830Y-65405797D01*
X178282377Y-65410634D01*
X178274599Y-65413610D01*
X178262817Y-65417714D01*
X178250895Y-65421386D01*
X178238834Y-65424626D01*
X178226634Y-65427434D01*
X178214295Y-65429811D01*
X178201818Y-65431755D01*
X178189201Y-65433267D01*
X178176445Y-65434347D01*
X178167864Y-65434827D01*
X178159221Y-65435115D01*
X178150517Y-65435211D01*
X178146157Y-65435188D01*
X178137490Y-65435006D01*
X178128892Y-65434642D01*
X178116122Y-65433755D01*
X178103507Y-65432458D01*
X178091045Y-65430752D01*
X178078738Y-65428636D01*
X178066584Y-65426111D01*
X178054585Y-65423177D01*
X178042740Y-65419833D01*
X178031048Y-65416079D01*
X178019511Y-65411916D01*
X178008131Y-65407317D01*
X177996991Y-65402256D01*
X177986092Y-65396734D01*
X177975433Y-65390749D01*
X177965014Y-65384301D01*
X177954836Y-65377392D01*
X177944899Y-65370021D01*
X177935201Y-65362188D01*
X177925745Y-65353893D01*
X177916528Y-65345135D01*
X177910518Y-65339040D01*
X177904615Y-65332730D01*
X177898877Y-65326194D01*
X177893302Y-65319433D01*
X177887891Y-65312446D01*
X177882643Y-65305234D01*
X177877559Y-65297797D01*
X177872639Y-65290134D01*
X177867882Y-65282246D01*
X177863289Y-65274132D01*
X177858859Y-65265794D01*
X177854593Y-65257229D01*
X177850491Y-65248439D01*
X177846552Y-65239424D01*
X177842777Y-65230184D01*
X177839166Y-65220718D01*
X177835718Y-65211026D01*
X177832457Y-65201103D01*
X177829407Y-65190941D01*
X177826567Y-65180540D01*
X177823937Y-65169900D01*
X177821518Y-65159022D01*
X177819309Y-65147904D01*
X177817311Y-65136548D01*
X177815522Y-65124954D01*
X177813945Y-65113120D01*
X177812577Y-65101048D01*
X177811420Y-65088737D01*
X177810473Y-65076187D01*
X177809737Y-65063399D01*
X177809211Y-65050371D01*
X177808896Y-65037105D01*
X177808790Y-65023601D01*
X177808830Y-65018685D01*
X177993652Y-65018685D01*
X177993707Y-65027213D01*
X177993996Y-65039826D01*
X177994533Y-65052225D01*
X177995318Y-65064409D01*
X177996351Y-65076380D01*
X177997633Y-65088136D01*
X177999161Y-65099679D01*
X178000938Y-65111007D01*
X178002963Y-65122121D01*
X178005236Y-65133021D01*
X178007757Y-65143707D01*
X178009599Y-65150640D01*
X178012660Y-65160692D01*
X178016078Y-65170327D01*
X178019853Y-65179546D01*
X178023985Y-65188347D01*
X178028473Y-65196731D01*
X178033319Y-65204698D01*
X178038521Y-65212249D01*
X178044080Y-65219382D01*
X178049996Y-65226098D01*
X178056269Y-65232398D01*
X178060650Y-65236331D01*
X178067618Y-65241756D01*
X178075063Y-65246610D01*
X178082985Y-65250892D01*
X178091384Y-65254604D01*
X178100261Y-65257744D01*
X178109614Y-65260314D01*
X178119445Y-65262312D01*
X178129752Y-65263740D01*
X178140537Y-65264596D01*
X178151799Y-65264882D01*
X178159205Y-65264755D01*
X178169939Y-65264089D01*
X178180223Y-65262852D01*
X178190055Y-65261043D01*
X178199437Y-65258664D01*
X178208368Y-65255714D01*
X178216848Y-65252193D01*
X178224877Y-65248100D01*
X178232455Y-65243437D01*
X178239583Y-65238203D01*
X178246260Y-65232398D01*
X178250453Y-65228249D01*
X178256439Y-65221693D01*
X178262061Y-65214740D01*
X178267319Y-65207388D01*
X178272212Y-65199638D01*
X178276740Y-65191490D01*
X178280905Y-65182943D01*
X178284705Y-65173999D01*
X178288140Y-65164656D01*
X178291211Y-65154915D01*
X178293918Y-65144775D01*
X178295548Y-65137836D01*
X178297797Y-65127248D01*
X178299808Y-65116445D01*
X178301583Y-65105429D01*
X178303122Y-65094198D01*
X178304423Y-65082754D01*
X178305488Y-65071095D01*
X178306317Y-65059222D01*
X178306908Y-65047135D01*
X178307263Y-65034834D01*
X178307382Y-65022318D01*
X178307329Y-65013956D01*
X178307053Y-65001610D01*
X178306540Y-64989500D01*
X178305791Y-64977627D01*
X178304805Y-64965991D01*
X178303582Y-64954591D01*
X178302122Y-64943428D01*
X178300426Y-64932502D01*
X178298493Y-64921812D01*
X178296324Y-64911360D01*
X178293918Y-64901143D01*
X178292154Y-64894471D01*
X178289204Y-64884789D01*
X178285890Y-64875498D01*
X178282212Y-64866597D01*
X178278169Y-64858087D01*
X178273762Y-64849967D01*
X178268990Y-64842239D01*
X178263854Y-64834901D01*
X178258354Y-64827953D01*
X178252489Y-64821397D01*
X178246260Y-64815231D01*
X178241859Y-64811375D01*
X178234881Y-64806057D01*
X178227453Y-64801299D01*
X178219574Y-64797101D01*
X178211244Y-64793463D01*
X178202464Y-64790384D01*
X178193232Y-64787866D01*
X178183550Y-64785907D01*
X178173417Y-64784507D01*
X178162834Y-64783668D01*
X178151799Y-64783388D01*
X178144238Y-64783510D01*
X178133294Y-64784155D01*
X178122828Y-64785351D01*
X178112838Y-64787100D01*
X178103325Y-64789401D01*
X178094290Y-64792254D01*
X178085732Y-64795659D01*
X178077651Y-64799617D01*
X178070046Y-64804127D01*
X178062919Y-64809189D01*
X178056269Y-64814803D01*
X178052048Y-64818788D01*
X178046013Y-64825081D01*
X178040335Y-64831753D01*
X178035013Y-64838805D01*
X178030049Y-64846237D01*
X178025441Y-64854047D01*
X178021191Y-64862238D01*
X178017297Y-64870807D01*
X178013760Y-64879756D01*
X178010580Y-64889085D01*
X178007757Y-64898792D01*
X178006049Y-64905422D01*
X178003693Y-64915582D01*
X178001586Y-64926001D01*
X177999726Y-64936679D01*
X177998115Y-64947617D01*
X177996751Y-64958813D01*
X177995635Y-64970269D01*
X177994767Y-64981984D01*
X177994148Y-64993959D01*
X177993776Y-65006192D01*
X177993652Y-65018685D01*
X177808830Y-65018685D01*
X177808896Y-65010538D01*
X177809211Y-64997691D01*
X177809737Y-64985060D01*
X177810473Y-64972643D01*
X177811420Y-64960443D01*
X177812577Y-64948457D01*
X177813945Y-64936687D01*
X177815522Y-64925132D01*
X177817311Y-64913793D01*
X177819309Y-64902669D01*
X177821518Y-64891761D01*
X177823937Y-64881068D01*
X177826567Y-64870590D01*
X177829407Y-64860328D01*
X177832457Y-64850281D01*
X177835718Y-64840449D01*
X177839163Y-64830830D01*
X177842767Y-64821422D01*
X177846530Y-64812224D01*
X177850451Y-64803236D01*
X177854531Y-64794459D01*
X177858769Y-64785892D01*
X177863166Y-64777536D01*
X177867722Y-64769390D01*
X177872436Y-64761454D01*
X177877309Y-64753728D01*
X177882340Y-64746213D01*
X177887530Y-64738909D01*
X177892879Y-64731815D01*
X177898386Y-64724931D01*
X177904052Y-64718257D01*
X177909876Y-64711794D01*
X177915812Y-64705540D01*
X177924934Y-64696546D01*
X177934320Y-64688018D01*
X177943968Y-64679957D01*
X177953879Y-64672361D01*
X177964054Y-64665231D01*
X177974491Y-64658566D01*
X177985191Y-64652368D01*
X177996154Y-64646635D01*
X178007381Y-64641368D01*
X178018870Y-64636567D01*
X178026622Y-64633591D01*
X178038369Y-64629487D01*
X178050259Y-64625815D01*
X178062291Y-64622575D01*
X178074467Y-64619767D01*
X178086785Y-64617390D01*
X178099246Y-64615446D01*
X178111849Y-64613934D01*
X178124596Y-64612854D01*
X178133173Y-64612374D01*
X178141813Y-64612086D01*
X178150517Y-64611990D01*
X178155101Y-64612010D01*
G37*
G36*
X177280066Y-65433929D02*
G01*
X177108668Y-65433929D01*
X177108668Y-65379992D01*
X177104207Y-65384107D01*
X177097113Y-65390214D01*
X177089816Y-65396073D01*
X177082317Y-65401684D01*
X177074615Y-65407047D01*
X177066709Y-65412163D01*
X177058601Y-65417030D01*
X177050290Y-65421650D01*
X177041776Y-65426021D01*
X177035949Y-65428764D01*
X177026896Y-65432547D01*
X177017466Y-65435932D01*
X177007662Y-65438919D01*
X176997481Y-65441507D01*
X176986925Y-65443697D01*
X176975993Y-65445489D01*
X176964685Y-65446883D01*
X176953002Y-65447878D01*
X176940943Y-65448476D01*
X176928509Y-65448675D01*
X176919357Y-65448536D01*
X176910283Y-65448120D01*
X176901285Y-65447427D01*
X176892365Y-65446457D01*
X176883520Y-65445210D01*
X176874753Y-65443686D01*
X176866063Y-65441884D01*
X176857449Y-65439806D01*
X176848912Y-65437450D01*
X176840452Y-65434817D01*
X176832069Y-65431907D01*
X176823763Y-65428719D01*
X176815533Y-65425255D01*
X176807380Y-65421513D01*
X176799304Y-65417494D01*
X176791305Y-65413198D01*
X176783443Y-65408619D01*
X176775778Y-65403802D01*
X176768309Y-65398748D01*
X176761038Y-65393457D01*
X176753964Y-65387929D01*
X176747087Y-65382163D01*
X176740407Y-65376161D01*
X176733923Y-65369922D01*
X176727637Y-65363445D01*
X176721548Y-65356732D01*
X176715656Y-65349781D01*
X176709961Y-65342593D01*
X176704463Y-65335168D01*
X176699162Y-65327506D01*
X176694058Y-65319607D01*
X176689151Y-65311471D01*
X176684467Y-65303095D01*
X176680085Y-65294528D01*
X176676005Y-65285771D01*
X176672227Y-65276823D01*
X176668752Y-65267685D01*
X176665579Y-65258357D01*
X176662708Y-65248838D01*
X176660139Y-65239130D01*
X176657873Y-65229230D01*
X176655908Y-65219141D01*
X176654246Y-65208861D01*
X176652886Y-65198391D01*
X176651829Y-65187730D01*
X176651073Y-65176879D01*
X176650620Y-65165838D01*
X176650469Y-65154606D01*
X176650485Y-65153324D01*
X176824431Y-65153324D01*
X176824738Y-65163929D01*
X176825660Y-65174268D01*
X176827196Y-65184339D01*
X176829346Y-65194143D01*
X176832111Y-65203680D01*
X176835490Y-65212950D01*
X176839484Y-65221952D01*
X176844092Y-65230688D01*
X176849158Y-65239009D01*
X176854631Y-65246877D01*
X176860511Y-65254290D01*
X176866799Y-65261249D01*
X176873494Y-65267754D01*
X176880597Y-65273804D01*
X176888107Y-65279401D01*
X176896024Y-65284543D01*
X176904232Y-65289102D01*
X176912614Y-65293052D01*
X176921169Y-65296394D01*
X176929898Y-65299129D01*
X176938800Y-65301256D01*
X176947876Y-65302776D01*
X176957126Y-65303687D01*
X176966549Y-65303991D01*
X176970666Y-65303955D01*
X176980745Y-65303552D01*
X176990522Y-65302699D01*
X176999996Y-65301398D01*
X177009168Y-65299648D01*
X177018036Y-65297449D01*
X177026603Y-65294802D01*
X177033231Y-65292371D01*
X177041225Y-65288956D01*
X177048896Y-65285124D01*
X177057674Y-65279975D01*
X177065987Y-65274225D01*
X177073833Y-65267874D01*
X177075083Y-65266756D01*
X177082366Y-65259674D01*
X177088149Y-65253278D01*
X177093670Y-65246434D01*
X177098930Y-65239140D01*
X177103930Y-65231399D01*
X177108668Y-65223208D01*
X177108668Y-65092202D01*
X177107244Y-65088867D01*
X177103377Y-65080800D01*
X177099071Y-65073118D01*
X177094327Y-65065823D01*
X177089145Y-65058914D01*
X177083525Y-65052391D01*
X177077466Y-65046254D01*
X177074896Y-65043911D01*
X177068185Y-65038352D01*
X177061067Y-65033221D01*
X177053542Y-65028518D01*
X177045611Y-65024242D01*
X177037272Y-65020395D01*
X177028526Y-65016975D01*
X177024903Y-65015707D01*
X177015699Y-65012895D01*
X177006287Y-65010594D01*
X176996665Y-65008804D01*
X176986835Y-65007526D01*
X176976797Y-65006759D01*
X176966549Y-65006504D01*
X176957126Y-65006801D01*
X176947876Y-65007692D01*
X176938800Y-65009178D01*
X176929898Y-65011259D01*
X176921169Y-65013933D01*
X176912614Y-65017202D01*
X176904232Y-65021066D01*
X176896024Y-65025524D01*
X176888107Y-65030449D01*
X176880597Y-65035822D01*
X176873494Y-65041643D01*
X176866799Y-65047910D01*
X176860511Y-65054626D01*
X176854631Y-65061788D01*
X176849158Y-65069398D01*
X176844092Y-65077456D01*
X176839484Y-65085888D01*
X176835490Y-65094620D01*
X176832111Y-65103653D01*
X176829346Y-65112986D01*
X176827196Y-65122620D01*
X176825660Y-65132554D01*
X176824738Y-65142789D01*
X176824431Y-65153324D01*
X176650485Y-65153324D01*
X176650606Y-65143387D01*
X176651016Y-65132384D01*
X176651701Y-65121595D01*
X176652659Y-65111022D01*
X176653891Y-65100665D01*
X176655397Y-65090523D01*
X176657177Y-65080596D01*
X176659231Y-65070884D01*
X176661558Y-65061388D01*
X176664160Y-65052108D01*
X176667035Y-65043043D01*
X176670184Y-65034193D01*
X176673606Y-65025558D01*
X176677303Y-65017139D01*
X176681273Y-65008935D01*
X176685518Y-65000947D01*
X176689961Y-64993183D01*
X176694584Y-64985653D01*
X176699385Y-64978357D01*
X176704364Y-64971294D01*
X176712169Y-64961139D01*
X176720375Y-64951509D01*
X176728984Y-64942406D01*
X176737994Y-64933828D01*
X176747406Y-64925776D01*
X176757221Y-64918250D01*
X176767437Y-64911250D01*
X176778055Y-64904776D01*
X176781660Y-64902738D01*
X176792618Y-64897013D01*
X176803789Y-64891869D01*
X176815175Y-64887308D01*
X176826775Y-64883329D01*
X176838589Y-64879932D01*
X176850617Y-64877118D01*
X176862860Y-64874886D01*
X176875316Y-64873236D01*
X176887987Y-64872169D01*
X176896553Y-64871780D01*
X176905214Y-64871651D01*
X176913598Y-64871723D01*
X176925958Y-64872100D01*
X176938059Y-64872800D01*
X176949901Y-64873823D01*
X176961483Y-64875169D01*
X176972806Y-64876838D01*
X176983870Y-64878830D01*
X176994675Y-64881146D01*
X177005221Y-64883784D01*
X177015507Y-64886746D01*
X177025534Y-64890030D01*
X177032025Y-64892361D01*
X177041457Y-64895982D01*
X177050525Y-64899754D01*
X177059229Y-64903676D01*
X177067568Y-64907748D01*
X177075543Y-64911971D01*
X177083153Y-64916344D01*
X177092733Y-64922408D01*
X177101666Y-64928739D01*
X177109951Y-64935337D01*
X177109951Y-64467307D01*
X177280066Y-64467307D01*
X177280066Y-65433929D01*
G37*
G36*
X176473087Y-65691238D02*
G01*
X176116615Y-64898579D01*
X175962101Y-64898579D01*
X176307674Y-65691238D01*
X176473087Y-65691238D01*
G37*
G36*
X176329686Y-65436279D02*
G01*
X176591911Y-64898579D01*
X176399570Y-64898579D01*
X176197398Y-65350581D01*
X176329686Y-65436279D01*
G37*
G36*
X175464364Y-65433929D02*
G01*
X175292967Y-65433929D01*
X175292967Y-65379992D01*
X175288506Y-65384107D01*
X175281412Y-65390214D01*
X175274115Y-65396073D01*
X175266616Y-65401684D01*
X175258913Y-65407047D01*
X175251008Y-65412163D01*
X175242900Y-65417030D01*
X175234589Y-65421650D01*
X175226075Y-65426021D01*
X175220248Y-65428764D01*
X175211194Y-65432547D01*
X175201765Y-65435932D01*
X175191960Y-65438919D01*
X175181780Y-65441507D01*
X175171223Y-65443697D01*
X175160292Y-65445489D01*
X175148984Y-65446883D01*
X175137301Y-65447878D01*
X175125242Y-65448476D01*
X175112807Y-65448675D01*
X175103656Y-65448536D01*
X175094582Y-65448120D01*
X175085584Y-65447427D01*
X175076663Y-65446457D01*
X175067819Y-65445210D01*
X175059052Y-65443686D01*
X175050362Y-65441884D01*
X175041748Y-65439806D01*
X175033211Y-65437450D01*
X175024751Y-65434817D01*
X175016368Y-65431907D01*
X175008061Y-65428719D01*
X174999832Y-65425255D01*
X174991679Y-65421513D01*
X174983603Y-65417494D01*
X174975604Y-65413198D01*
X174967742Y-65408619D01*
X174960076Y-65403802D01*
X174952608Y-65398748D01*
X174945337Y-65393457D01*
X174938263Y-65387929D01*
X174931385Y-65382163D01*
X174924705Y-65376161D01*
X174918222Y-65369922D01*
X174911936Y-65363445D01*
X174905847Y-65356732D01*
X174899955Y-65349781D01*
X174894260Y-65342593D01*
X174888761Y-65335168D01*
X174883460Y-65327506D01*
X174878356Y-65319607D01*
X174873449Y-65311471D01*
X174868765Y-65303095D01*
X174864383Y-65294528D01*
X174860304Y-65285771D01*
X174856526Y-65276823D01*
X174853051Y-65267685D01*
X174849878Y-65258357D01*
X174847007Y-65248838D01*
X174844438Y-65239130D01*
X174842171Y-65229230D01*
X174840207Y-65219141D01*
X174838545Y-65208861D01*
X174837185Y-65198391D01*
X174836127Y-65187730D01*
X174835372Y-65176879D01*
X174834918Y-65165838D01*
X174834767Y-65154606D01*
X174834783Y-65153324D01*
X175008729Y-65153324D01*
X175009037Y-65163929D01*
X175009958Y-65174268D01*
X175011494Y-65184339D01*
X175013645Y-65194143D01*
X175016410Y-65203680D01*
X175019789Y-65212950D01*
X175023783Y-65221952D01*
X175028391Y-65230688D01*
X175033457Y-65239009D01*
X175038930Y-65246877D01*
X175044810Y-65254290D01*
X175051098Y-65261249D01*
X175057793Y-65267754D01*
X175064896Y-65273804D01*
X175072406Y-65279401D01*
X175080323Y-65284543D01*
X175088531Y-65289102D01*
X175096912Y-65293052D01*
X175105468Y-65296394D01*
X175114196Y-65299129D01*
X175123099Y-65301256D01*
X175132175Y-65302776D01*
X175141425Y-65303687D01*
X175150848Y-65303991D01*
X175154965Y-65303955D01*
X175165044Y-65303552D01*
X175174821Y-65302699D01*
X175184295Y-65301398D01*
X175193466Y-65299648D01*
X175202335Y-65297449D01*
X175210901Y-65294802D01*
X175217530Y-65292371D01*
X175225524Y-65288956D01*
X175233195Y-65285124D01*
X175241973Y-65279975D01*
X175250285Y-65274225D01*
X175258132Y-65267874D01*
X175259382Y-65266756D01*
X175266665Y-65259674D01*
X175272447Y-65253278D01*
X175277968Y-65246434D01*
X175283229Y-65239140D01*
X175288228Y-65231399D01*
X175292967Y-65223208D01*
X175292967Y-65092202D01*
X175291543Y-65088867D01*
X175287675Y-65080800D01*
X175283370Y-65073118D01*
X175278626Y-65065823D01*
X175273444Y-65058914D01*
X175267824Y-65052391D01*
X175261765Y-65046254D01*
X175259195Y-65043911D01*
X175252484Y-65038352D01*
X175245366Y-65033221D01*
X175237841Y-65028518D01*
X175229909Y-65024242D01*
X175221570Y-65020395D01*
X175212825Y-65016975D01*
X175209202Y-65015707D01*
X175199998Y-65012895D01*
X175190585Y-65010594D01*
X175180964Y-65008804D01*
X175171134Y-65007526D01*
X175161095Y-65006759D01*
X175150848Y-65006504D01*
X175141425Y-65006801D01*
X175132175Y-65007692D01*
X175123099Y-65009178D01*
X175114196Y-65011259D01*
X175105468Y-65013933D01*
X175096912Y-65017202D01*
X175088531Y-65021066D01*
X175080323Y-65025524D01*
X175072406Y-65030449D01*
X175064896Y-65035822D01*
X175057793Y-65041643D01*
X175051098Y-65047910D01*
X175044810Y-65054626D01*
X175038930Y-65061788D01*
X175033457Y-65069398D01*
X175028391Y-65077456D01*
X175023783Y-65085888D01*
X175019789Y-65094620D01*
X175016410Y-65103653D01*
X175013645Y-65112986D01*
X175011494Y-65122620D01*
X175009958Y-65132554D01*
X175009037Y-65142789D01*
X175008729Y-65153324D01*
X174834783Y-65153324D01*
X174834904Y-65143387D01*
X174835315Y-65132384D01*
X174836000Y-65121595D01*
X174836958Y-65111022D01*
X174838190Y-65100665D01*
X174839696Y-65090523D01*
X174841476Y-65080596D01*
X174843530Y-65070884D01*
X174845857Y-65061388D01*
X174848458Y-65052108D01*
X174851333Y-65043043D01*
X174854482Y-65034193D01*
X174857905Y-65025558D01*
X174861602Y-65017139D01*
X174865572Y-65008935D01*
X174869816Y-65000947D01*
X174874260Y-64993183D01*
X174878882Y-64985653D01*
X174883683Y-64978357D01*
X174888663Y-64971294D01*
X174896467Y-64961139D01*
X174904674Y-64951509D01*
X174913282Y-64942406D01*
X174922293Y-64933828D01*
X174931705Y-64925776D01*
X174941519Y-64918250D01*
X174951736Y-64911250D01*
X174962354Y-64904776D01*
X174965959Y-64902738D01*
X174976916Y-64897013D01*
X174988088Y-64891869D01*
X174999474Y-64887308D01*
X175011074Y-64883329D01*
X175022888Y-64879932D01*
X175034916Y-64877118D01*
X175047158Y-64874886D01*
X175059615Y-64873236D01*
X175072285Y-64872169D01*
X175080851Y-64871780D01*
X175089513Y-64871651D01*
X175097897Y-64871723D01*
X175110257Y-64872100D01*
X175122358Y-64872800D01*
X175134199Y-64873823D01*
X175145782Y-64875169D01*
X175157105Y-64876838D01*
X175168169Y-64878830D01*
X175178974Y-64881146D01*
X175189519Y-64883784D01*
X175199806Y-64886746D01*
X175209833Y-64890030D01*
X175216323Y-64892361D01*
X175225756Y-64895982D01*
X175234824Y-64899754D01*
X175243527Y-64903676D01*
X175251867Y-64907748D01*
X175259841Y-64911971D01*
X175267452Y-64916344D01*
X175277032Y-64922408D01*
X175285965Y-64928739D01*
X175294249Y-64935337D01*
X175294249Y-64467307D01*
X175464364Y-64467307D01*
X175464364Y-65433929D01*
G37*
G36*
X174477384Y-64871800D02*
G01*
X174486032Y-64872245D01*
X174494621Y-64872988D01*
X174503152Y-64874028D01*
X174511625Y-64875366D01*
X174520039Y-64877000D01*
X174528395Y-64878932D01*
X174536692Y-64881161D01*
X174544931Y-64883687D01*
X174553111Y-64886511D01*
X174561233Y-64889631D01*
X174569296Y-64893049D01*
X174577301Y-64896764D01*
X174585248Y-64900776D01*
X174593136Y-64905085D01*
X174600966Y-64909692D01*
X174608676Y-64914529D01*
X174616206Y-64919583D01*
X174623556Y-64924854D01*
X174630725Y-64930342D01*
X174637714Y-64936047D01*
X174644523Y-64941969D01*
X174651152Y-64948108D01*
X174657600Y-64954465D01*
X174663867Y-64961038D01*
X174669955Y-64967828D01*
X174675862Y-64974836D01*
X174681589Y-64982060D01*
X174687135Y-64989502D01*
X174692502Y-64997160D01*
X174697687Y-65005036D01*
X174702693Y-65013129D01*
X174707429Y-65021403D01*
X174711859Y-65029825D01*
X174715984Y-65038393D01*
X174719803Y-65047109D01*
X174723317Y-65055971D01*
X174726525Y-65064981D01*
X174729428Y-65074137D01*
X174732025Y-65083440D01*
X174734317Y-65092890D01*
X174736303Y-65102487D01*
X174737983Y-65112231D01*
X174739358Y-65122122D01*
X174740427Y-65132160D01*
X174741191Y-65142345D01*
X174741650Y-65152676D01*
X174741802Y-65163155D01*
X174741659Y-65173344D01*
X174741228Y-65183394D01*
X174740510Y-65193306D01*
X174739505Y-65203079D01*
X174738213Y-65212714D01*
X174736633Y-65222210D01*
X174734767Y-65231567D01*
X174732613Y-65240786D01*
X174730172Y-65249866D01*
X174727444Y-65258808D01*
X174724428Y-65267611D01*
X174721126Y-65276275D01*
X174717536Y-65284801D01*
X174713659Y-65293189D01*
X174709495Y-65301438D01*
X174705044Y-65309548D01*
X174700351Y-65317484D01*
X174695464Y-65325209D01*
X174690380Y-65332724D01*
X174685102Y-65340029D01*
X174679628Y-65347123D01*
X174673959Y-65354007D01*
X174668094Y-65360680D01*
X174662034Y-65367143D01*
X174655779Y-65373396D01*
X174649328Y-65379438D01*
X174642682Y-65385271D01*
X174635841Y-65390892D01*
X174628804Y-65396303D01*
X174621572Y-65401504D01*
X174614145Y-65406495D01*
X174606522Y-65411275D01*
X174598735Y-65415804D01*
X174590868Y-65420041D01*
X174582921Y-65423985D01*
X174574893Y-65427637D01*
X174566785Y-65430997D01*
X174558597Y-65434065D01*
X174550329Y-65436841D01*
X174541981Y-65439325D01*
X174533553Y-65441516D01*
X174525045Y-65443415D01*
X174516456Y-65445022D01*
X174507787Y-65446337D01*
X174499038Y-65447360D01*
X174490209Y-65448090D01*
X174481300Y-65448529D01*
X174472311Y-65448675D01*
X174467133Y-65448644D01*
X174456965Y-65448400D01*
X174447047Y-65447913D01*
X174437380Y-65447182D01*
X174427964Y-65446207D01*
X174418797Y-65444988D01*
X174409881Y-65443525D01*
X174401216Y-65441819D01*
X174392801Y-65439869D01*
X174380648Y-65436486D01*
X174369059Y-65432556D01*
X174358033Y-65428076D01*
X174347571Y-65423049D01*
X174337672Y-65417473D01*
X174331358Y-65413506D01*
X174322354Y-65407410D01*
X174313910Y-65401137D01*
X174306025Y-65394687D01*
X174298700Y-65388061D01*
X174291935Y-65381259D01*
X174285730Y-65374279D01*
X174280084Y-65367124D01*
X174274998Y-65359791D01*
X174272704Y-65355985D01*
X174272704Y-65431578D01*
X174272891Y-65439033D01*
X174273726Y-65448605D01*
X174275229Y-65457756D01*
X174277399Y-65466486D01*
X174280238Y-65474796D01*
X174283744Y-65482685D01*
X174289066Y-65491955D01*
X174294075Y-65498897D01*
X174299631Y-65505429D01*
X174305615Y-65511560D01*
X174312027Y-65517290D01*
X174318865Y-65522619D01*
X174326132Y-65527548D01*
X174333825Y-65532076D01*
X174341946Y-65536203D01*
X174350495Y-65539930D01*
X174359290Y-65543236D01*
X174368260Y-65546101D01*
X174377403Y-65548525D01*
X174386719Y-65550509D01*
X174396209Y-65552051D01*
X174405873Y-65553153D01*
X174415711Y-65553815D01*
X174425722Y-65554035D01*
X174429532Y-65554012D01*
X174440682Y-65553661D01*
X174451411Y-65552890D01*
X174461719Y-65551697D01*
X174471606Y-65550085D01*
X174481073Y-65548051D01*
X174490119Y-65545597D01*
X174498745Y-65542722D01*
X174506949Y-65539426D01*
X174514733Y-65535709D01*
X174524457Y-65530099D01*
X174533660Y-65524088D01*
X174542569Y-65518024D01*
X174551184Y-65511907D01*
X174559506Y-65505736D01*
X174567533Y-65499512D01*
X174575267Y-65493234D01*
X174582707Y-65486902D01*
X174589853Y-65480518D01*
X174690298Y-65598060D01*
X174683452Y-65603603D01*
X174676380Y-65609226D01*
X174669080Y-65614930D01*
X174661553Y-65620713D01*
X174653800Y-65626577D01*
X174645819Y-65632521D01*
X174637611Y-65638545D01*
X174629176Y-65644649D01*
X174622591Y-65649191D01*
X174613396Y-65655043D01*
X174603728Y-65660662D01*
X174596165Y-65664722D01*
X174588335Y-65668651D01*
X174580239Y-65672448D01*
X174571876Y-65676114D01*
X174563246Y-65679649D01*
X174554350Y-65683052D01*
X174545187Y-65686323D01*
X174538901Y-65688393D01*
X174529140Y-65691248D01*
X174518980Y-65693803D01*
X174508423Y-65696057D01*
X174497467Y-65698010D01*
X174486113Y-65699663D01*
X174474361Y-65701016D01*
X174462211Y-65702068D01*
X174449662Y-65702819D01*
X174441076Y-65703153D01*
X174432312Y-65703353D01*
X174423371Y-65703420D01*
X174412398Y-65703283D01*
X174401545Y-65702872D01*
X174390813Y-65702188D01*
X174380201Y-65701229D01*
X174369709Y-65699997D01*
X174359337Y-65698491D01*
X174349086Y-65696711D01*
X174338954Y-65694658D01*
X174328943Y-65692330D01*
X174319052Y-65689729D01*
X174309282Y-65686854D01*
X174299631Y-65683705D01*
X174290101Y-65680282D01*
X174280691Y-65676586D01*
X174271401Y-65672615D01*
X174262232Y-65668371D01*
X174253235Y-65663916D01*
X174244463Y-65659258D01*
X174235917Y-65654399D01*
X174227597Y-65649337D01*
X174219502Y-65644074D01*
X174211632Y-65638608D01*
X174203987Y-65632941D01*
X174196568Y-65627071D01*
X174189375Y-65621000D01*
X174182407Y-65614726D01*
X174175664Y-65608250D01*
X174169146Y-65601573D01*
X174162854Y-65594693D01*
X174156788Y-65587611D01*
X174150947Y-65580327D01*
X174145331Y-65572842D01*
X174139974Y-65565211D01*
X174134962Y-65557441D01*
X174130297Y-65549530D01*
X174125977Y-65541479D01*
X174122002Y-65533288D01*
X174118373Y-65524957D01*
X174115090Y-65516485D01*
X174112152Y-65507873D01*
X174109560Y-65499121D01*
X174107313Y-65490228D01*
X174105413Y-65481196D01*
X174103857Y-65472023D01*
X174102648Y-65462710D01*
X174101784Y-65453256D01*
X174101265Y-65443662D01*
X174101092Y-65433929D01*
X174101092Y-65228123D01*
X174272704Y-65228123D01*
X174274573Y-65231453D01*
X174279472Y-65239465D01*
X174284695Y-65247027D01*
X174290241Y-65254141D01*
X174296111Y-65260806D01*
X174302304Y-65267022D01*
X174308821Y-65272789D01*
X174311517Y-65274973D01*
X174318467Y-65280141D01*
X174325721Y-65284891D01*
X174333277Y-65289223D01*
X174341136Y-65293139D01*
X174349297Y-65296637D01*
X174357761Y-65299717D01*
X174363000Y-65301359D01*
X174372040Y-65303738D01*
X174381466Y-65305667D01*
X174391278Y-65307148D01*
X174401476Y-65308180D01*
X174412061Y-65308763D01*
X174420806Y-65308907D01*
X174431101Y-65308603D01*
X174441149Y-65307691D01*
X174450950Y-65306172D01*
X174460503Y-65304045D01*
X174469810Y-65301310D01*
X174478869Y-65297967D01*
X174487682Y-65294017D01*
X174496247Y-65289459D01*
X174504468Y-65284316D01*
X174512249Y-65278720D01*
X174519588Y-65272669D01*
X174526487Y-65266164D01*
X174532945Y-65259205D01*
X174538963Y-65251792D01*
X174544539Y-65243925D01*
X174549675Y-65235603D01*
X174554233Y-65226868D01*
X174558183Y-65217865D01*
X174561526Y-65208595D01*
X174564261Y-65199058D01*
X174566388Y-65189254D01*
X174567907Y-65179183D01*
X174568819Y-65168845D01*
X174569123Y-65158239D01*
X174568819Y-65147704D01*
X174567907Y-65137469D01*
X174566388Y-65127535D01*
X174564261Y-65117901D01*
X174561526Y-65108568D01*
X174558183Y-65099535D01*
X174554233Y-65090803D01*
X174549675Y-65082371D01*
X174544539Y-65074310D01*
X174538963Y-65066690D01*
X174532945Y-65059511D01*
X174526487Y-65052772D01*
X174519588Y-65046474D01*
X174512249Y-65040617D01*
X174504468Y-65035201D01*
X174496247Y-65030226D01*
X174487682Y-65025768D01*
X174478869Y-65021904D01*
X174469810Y-65018635D01*
X174460503Y-65015960D01*
X174450950Y-65013880D01*
X174441149Y-65012394D01*
X174431101Y-65011502D01*
X174420806Y-65011205D01*
X174414215Y-65011297D01*
X174405613Y-65011706D01*
X174395161Y-65012678D01*
X174385043Y-65014161D01*
X174375259Y-65016155D01*
X174365809Y-65018660D01*
X174356693Y-65021677D01*
X174353113Y-65023019D01*
X174344397Y-65026668D01*
X174336016Y-65030733D01*
X174327968Y-65035216D01*
X174320255Y-65040116D01*
X174312875Y-65045434D01*
X174305829Y-65051169D01*
X174303095Y-65053578D01*
X174296647Y-65059869D01*
X174290752Y-65066547D01*
X174285410Y-65073610D01*
X174280622Y-65081060D01*
X174276386Y-65088896D01*
X174272704Y-65097118D01*
X174272704Y-65228123D01*
X174101092Y-65228123D01*
X174101092Y-64898579D01*
X174259240Y-64898579D01*
X174272347Y-64940491D01*
X174273049Y-64939701D01*
X174280051Y-64932548D01*
X174287842Y-64925689D01*
X174296420Y-64919124D01*
X174305787Y-64912853D01*
X174313329Y-64908343D01*
X174321314Y-64903997D01*
X174329743Y-64899818D01*
X174338615Y-64895803D01*
X174347930Y-64891954D01*
X174357634Y-64888325D01*
X174367673Y-64885054D01*
X174378046Y-64882139D01*
X174388753Y-64879582D01*
X174399794Y-64877381D01*
X174411170Y-64875537D01*
X174422880Y-64874050D01*
X174434925Y-64872920D01*
X174447303Y-64872147D01*
X174460017Y-64871730D01*
X174468678Y-64871651D01*
X174477384Y-64871800D01*
G37*
G36*
X173924780Y-65433929D02*
G01*
X173924780Y-64467307D01*
X173753382Y-64467307D01*
X173753382Y-65433929D01*
X173924780Y-65433929D01*
G37*
G36*
X173617461Y-65070190D02*
G01*
X173374897Y-65433929D01*
X173574505Y-65433929D01*
X173730087Y-65168070D01*
X173617461Y-65070190D01*
G37*
G36*
X173804887Y-65285612D02*
G01*
X173821984Y-65122763D01*
X173498637Y-64885115D01*
X173394345Y-64977011D01*
X173804887Y-65285612D01*
G37*
G36*
X173004961Y-65448675D02*
G01*
X173017080Y-65448531D01*
X173028967Y-65448100D01*
X173040622Y-65447382D01*
X173052045Y-65446377D01*
X173063235Y-65445085D01*
X173074194Y-65443505D01*
X173084920Y-65441639D01*
X173095415Y-65439485D01*
X173105677Y-65437044D01*
X173115707Y-65434316D01*
X173125506Y-65431301D01*
X173135072Y-65427998D01*
X173144406Y-65424408D01*
X173153508Y-65420531D01*
X173162378Y-65416367D01*
X173171016Y-65411916D01*
X173179384Y-65407211D01*
X173187498Y-65402286D01*
X173195359Y-65397140D01*
X173202966Y-65391774D01*
X173210319Y-65386187D01*
X173217418Y-65380380D01*
X173224263Y-65374353D01*
X173230855Y-65368105D01*
X173237193Y-65361637D01*
X173243277Y-65354948D01*
X173249108Y-65348039D01*
X173254684Y-65340910D01*
X173260007Y-65333560D01*
X173265076Y-65325990D01*
X173269891Y-65318200D01*
X173274452Y-65310189D01*
X173278748Y-65301992D01*
X173282767Y-65293643D01*
X173286509Y-65285142D01*
X173289973Y-65276489D01*
X173293161Y-65267684D01*
X173296071Y-65258728D01*
X173298704Y-65249619D01*
X173301060Y-65240358D01*
X173303138Y-65230946D01*
X173304940Y-65221381D01*
X173306464Y-65211665D01*
X173307711Y-65201797D01*
X173308682Y-65191776D01*
X173309374Y-65181604D01*
X173309790Y-65171280D01*
X173309929Y-65160804D01*
X173309766Y-65150743D01*
X173309278Y-65140808D01*
X173308464Y-65131001D01*
X173307324Y-65121321D01*
X173305859Y-65111767D01*
X173304068Y-65102340D01*
X173301952Y-65093040D01*
X173299510Y-65083867D01*
X173296743Y-65074821D01*
X173293650Y-65065902D01*
X173290231Y-65057110D01*
X173286487Y-65048445D01*
X173282417Y-65039906D01*
X173278022Y-65031495D01*
X173273301Y-65023210D01*
X173268255Y-65015052D01*
X173262936Y-65007034D01*
X173257399Y-64999224D01*
X173251643Y-64991620D01*
X173245668Y-64984224D01*
X173239475Y-64977035D01*
X173233062Y-64970052D01*
X173226431Y-64963277D01*
X173219582Y-64956709D01*
X173212513Y-64950347D01*
X173205226Y-64944193D01*
X173197720Y-64938246D01*
X173189996Y-64932506D01*
X173182053Y-64926972D01*
X173173891Y-64921646D01*
X173165510Y-64916527D01*
X173156911Y-64911615D01*
X173148113Y-64906931D01*
X173139192Y-64902549D01*
X173130148Y-64898469D01*
X173120980Y-64894692D01*
X173111689Y-64891216D01*
X173102274Y-64888043D01*
X173092735Y-64885172D01*
X173083073Y-64882604D01*
X173073287Y-64880337D01*
X173063378Y-64878373D01*
X173053345Y-64876711D01*
X173043189Y-64875351D01*
X173032909Y-64874293D01*
X173022505Y-64873538D01*
X173011978Y-64873084D01*
X173001328Y-64872933D01*
X172987089Y-64873195D01*
X172973171Y-64873978D01*
X172959574Y-64875285D01*
X172946297Y-64877114D01*
X172933341Y-64879466D01*
X172920705Y-64882340D01*
X172908390Y-64885737D01*
X172896395Y-64889656D01*
X172884721Y-64894098D01*
X172873368Y-64899063D01*
X172862335Y-64904550D01*
X172851622Y-64910560D01*
X172841231Y-64917092D01*
X172831159Y-64924147D01*
X172821409Y-64931725D01*
X172811979Y-64939825D01*
X172802913Y-64948392D01*
X172794254Y-64957423D01*
X172786003Y-64966918D01*
X172778159Y-64976878D01*
X172770722Y-64987301D01*
X172763693Y-64998189D01*
X172757071Y-65009541D01*
X172750857Y-65021357D01*
X172745050Y-65033637D01*
X172739650Y-65046381D01*
X172734658Y-65059589D01*
X172730073Y-65073262D01*
X172725896Y-65087399D01*
X172722126Y-65102000D01*
X172718763Y-65117065D01*
X172715808Y-65132594D01*
X173132334Y-65264882D01*
X173170374Y-65171703D01*
X172869040Y-65070190D01*
X172904516Y-65086005D01*
X172907964Y-65076252D01*
X172912163Y-65066896D01*
X172917113Y-65057936D01*
X172922815Y-65049373D01*
X172929268Y-65041206D01*
X172936473Y-65033436D01*
X172939565Y-65030439D01*
X172946210Y-65024829D01*
X172953643Y-65019967D01*
X172961865Y-65015853D01*
X172970874Y-65012487D01*
X172980671Y-65009869D01*
X172991257Y-65008000D01*
X173002630Y-65006878D01*
X173011678Y-65006527D01*
X173014792Y-65006504D01*
X173024108Y-65006781D01*
X173033144Y-65007612D01*
X173041900Y-65008998D01*
X173050375Y-65010938D01*
X173058569Y-65013432D01*
X173068418Y-65017330D01*
X173077829Y-65022094D01*
X173081470Y-65024242D01*
X173090157Y-65030145D01*
X173098187Y-65036768D01*
X173105560Y-65044111D01*
X173112275Y-65052175D01*
X173118332Y-65060958D01*
X173122705Y-65068503D01*
X173125709Y-65074464D01*
X173129265Y-65082765D01*
X173132347Y-65091428D01*
X173134955Y-65100450D01*
X173137089Y-65109834D01*
X173138748Y-65119577D01*
X173139934Y-65129682D01*
X173140645Y-65140147D01*
X173140882Y-65150973D01*
X173140721Y-65160245D01*
X173140236Y-65169228D01*
X173139428Y-65177922D01*
X173137849Y-65189063D01*
X173135695Y-65199690D01*
X173132967Y-65209803D01*
X173129664Y-65219402D01*
X173125787Y-65228486D01*
X173122503Y-65234962D01*
X173117698Y-65243097D01*
X173112472Y-65250723D01*
X173106825Y-65257843D01*
X173100758Y-65264454D01*
X173094269Y-65270559D01*
X173087361Y-65276155D01*
X173080031Y-65281244D01*
X173072280Y-65285826D01*
X173064206Y-65289833D01*
X173055905Y-65293306D01*
X173047376Y-65296244D01*
X173038621Y-65298648D01*
X173029638Y-65300518D01*
X173020428Y-65301854D01*
X173010992Y-65302656D01*
X173001328Y-65302923D01*
X172992559Y-65302683D01*
X172983884Y-65301963D01*
X172975304Y-65300763D01*
X172966817Y-65299083D01*
X172958424Y-65296923D01*
X172950125Y-65294282D01*
X172946831Y-65293092D01*
X172938571Y-65289869D01*
X172930352Y-65286342D01*
X172922175Y-65282514D01*
X172914040Y-65278383D01*
X172905946Y-65273949D01*
X172897894Y-65269212D01*
X172894685Y-65267233D01*
X172818817Y-65394819D01*
X172826894Y-65399303D01*
X172835094Y-65403617D01*
X172843418Y-65407763D01*
X172851866Y-65411739D01*
X172860438Y-65415547D01*
X172869134Y-65419185D01*
X172877954Y-65422654D01*
X172886898Y-65425954D01*
X172895966Y-65429086D01*
X172905158Y-65432048D01*
X172911355Y-65433929D01*
X172920603Y-65436564D01*
X172929753Y-65438940D01*
X172938805Y-65441057D01*
X172947760Y-65442914D01*
X172956616Y-65444513D01*
X172965376Y-65445852D01*
X172974037Y-65446932D01*
X172982601Y-65447753D01*
X172993868Y-65448444D01*
X173004961Y-65448675D01*
G37*
G36*
X172435631Y-64898579D02*
G01*
X172422167Y-64994108D01*
X172424732Y-64985560D01*
X172419237Y-64976310D01*
X172413334Y-64967395D01*
X172407021Y-64958814D01*
X172400298Y-64950568D01*
X172393166Y-64942655D01*
X172385625Y-64935078D01*
X172377674Y-64927834D01*
X172369313Y-64920925D01*
X172360543Y-64914350D01*
X172351364Y-64908110D01*
X172345017Y-64904135D01*
X172335157Y-64898559D01*
X172324891Y-64893531D01*
X172314220Y-64889052D01*
X172303143Y-64885122D01*
X172291660Y-64881739D01*
X172279771Y-64878905D01*
X172267477Y-64876620D01*
X172254777Y-64874883D01*
X172246085Y-64874030D01*
X172237212Y-64873421D01*
X172228160Y-64873055D01*
X172218926Y-64872933D01*
X172209516Y-64873108D01*
X172200303Y-64873631D01*
X172191290Y-64874503D01*
X172182475Y-64875725D01*
X172173859Y-64877295D01*
X172165442Y-64879214D01*
X172153188Y-64882747D01*
X172141381Y-64887066D01*
X172130022Y-64892169D01*
X172119109Y-64898058D01*
X172108644Y-64904732D01*
X172098626Y-64912190D01*
X172092195Y-64917599D01*
X172083094Y-64926207D01*
X172074864Y-64935280D01*
X172067506Y-64944820D01*
X172061020Y-64954825D01*
X172055405Y-64965296D01*
X172050661Y-64976233D01*
X172046789Y-64987636D01*
X172043789Y-64999504D01*
X172041660Y-65011839D01*
X172040403Y-65024639D01*
X172040049Y-65033431D01*
X172040049Y-65433929D01*
X172211447Y-65433929D01*
X172211447Y-65097118D01*
X172212024Y-65088419D01*
X172213469Y-65078175D01*
X172215718Y-65068630D01*
X172218771Y-65059784D01*
X172222626Y-65051637D01*
X172227286Y-65044189D01*
X172230467Y-65040056D01*
X172236594Y-65033900D01*
X172243891Y-65028786D01*
X172252356Y-65024717D01*
X172261990Y-65021690D01*
X172270538Y-65020021D01*
X172279835Y-65019019D01*
X172289879Y-65018685D01*
X172299556Y-65019089D01*
X172308926Y-65020301D01*
X172317989Y-65022322D01*
X172326744Y-65025150D01*
X172335193Y-65028786D01*
X172343334Y-65033231D01*
X172351168Y-65038484D01*
X172358694Y-65044544D01*
X172365807Y-65051243D01*
X172372506Y-65058516D01*
X172378790Y-65066363D01*
X172384661Y-65074785D01*
X172390117Y-65083781D01*
X172395159Y-65093351D01*
X172399787Y-65103496D01*
X172402987Y-65111481D01*
X172404001Y-65114215D01*
X172406828Y-65122589D01*
X172409376Y-65131205D01*
X172411646Y-65140060D01*
X172413639Y-65149157D01*
X172415353Y-65158493D01*
X172416789Y-65168070D01*
X172417947Y-65177888D01*
X172418828Y-65187945D01*
X172419430Y-65198244D01*
X172419754Y-65208782D01*
X172419816Y-65215942D01*
X172419816Y-65433929D01*
X172591214Y-65433929D01*
X172591214Y-64898579D01*
X172435631Y-64898579D01*
G37*
G36*
X171446142Y-64936620D02*
G01*
X171450183Y-64932546D01*
X171456469Y-64926690D01*
X171463025Y-64921139D01*
X171469853Y-64915891D01*
X171476950Y-64910948D01*
X171484318Y-64906309D01*
X171491957Y-64901975D01*
X171499866Y-64897944D01*
X171508045Y-64894218D01*
X171516495Y-64890797D01*
X171525216Y-64887679D01*
X171531110Y-64885738D01*
X171540018Y-64883062D01*
X171549005Y-64880667D01*
X171558070Y-64878554D01*
X171567214Y-64876722D01*
X171576438Y-64875173D01*
X171585740Y-64873905D01*
X171595121Y-64872919D01*
X171604581Y-64872214D01*
X171614119Y-64871792D01*
X171623737Y-64871651D01*
X171633768Y-64871780D01*
X171643666Y-64872169D01*
X171653430Y-64872816D01*
X171663060Y-64873721D01*
X171672557Y-64874886D01*
X171681920Y-64876309D01*
X171691150Y-64877991D01*
X171700246Y-64879932D01*
X171709209Y-64882132D01*
X171718038Y-64884591D01*
X171726733Y-64887308D01*
X171735295Y-64890284D01*
X171743723Y-64893519D01*
X171752018Y-64897013D01*
X171760179Y-64900765D01*
X171768207Y-64904776D01*
X171776062Y-64909036D01*
X171783708Y-64913535D01*
X171791143Y-64918273D01*
X171798367Y-64923249D01*
X171805381Y-64928464D01*
X171812185Y-64933918D01*
X171818778Y-64939611D01*
X171825161Y-64945542D01*
X171831334Y-64951712D01*
X171837296Y-64958121D01*
X171843048Y-64964769D01*
X171848589Y-64971655D01*
X171853921Y-64978780D01*
X171859041Y-64986144D01*
X171863952Y-64993747D01*
X171868652Y-65001588D01*
X171873103Y-65009654D01*
X171877267Y-65017930D01*
X171881144Y-65026417D01*
X171884734Y-65035114D01*
X171888036Y-65044022D01*
X171891051Y-65053140D01*
X171893780Y-65062468D01*
X171896221Y-65072006D01*
X171898374Y-65081755D01*
X171900241Y-65091715D01*
X171901821Y-65101884D01*
X171903113Y-65112264D01*
X171904118Y-65122855D01*
X171904836Y-65133656D01*
X171905267Y-65144667D01*
X171905410Y-65155889D01*
X171905279Y-65167120D01*
X171904886Y-65178161D01*
X171904231Y-65189012D01*
X171903313Y-65199673D01*
X171902134Y-65210143D01*
X171900692Y-65220423D01*
X171898988Y-65230513D01*
X171897022Y-65240412D01*
X171894794Y-65250121D01*
X171892304Y-65259639D01*
X171889551Y-65268968D01*
X171886537Y-65278105D01*
X171883260Y-65287053D01*
X171879721Y-65295810D01*
X171875920Y-65304377D01*
X171871857Y-65312754D01*
X171869723Y-65316851D01*
X171865306Y-65324863D01*
X171860695Y-65332634D01*
X171855888Y-65340162D01*
X171850886Y-65347448D01*
X171845688Y-65354492D01*
X171840295Y-65361294D01*
X171834707Y-65367854D01*
X171828924Y-65374172D01*
X171819882Y-65383195D01*
X171810401Y-65391673D01*
X171800480Y-65399607D01*
X171790120Y-65406996D01*
X171779320Y-65413840D01*
X171768159Y-65420065D01*
X171756717Y-65425678D01*
X171744993Y-65430679D01*
X171732988Y-65435067D01*
X171724827Y-65437653D01*
X171716542Y-65439966D01*
X171708131Y-65442007D01*
X171699595Y-65443776D01*
X171690934Y-65445273D01*
X171682147Y-65446497D01*
X171673236Y-65447450D01*
X171664199Y-65448130D01*
X171655037Y-65448539D01*
X171645750Y-65448675D01*
X171637396Y-65448581D01*
X171625098Y-65448090D01*
X171613078Y-65447179D01*
X171601336Y-65445846D01*
X171589872Y-65444093D01*
X171578686Y-65441919D01*
X171567778Y-65439325D01*
X171557148Y-65436309D01*
X171546796Y-65432873D01*
X171536722Y-65429016D01*
X171526925Y-65424739D01*
X171520526Y-65421707D01*
X171511070Y-65417008D01*
X171501787Y-65412130D01*
X171492678Y-65407071D01*
X171483740Y-65401832D01*
X171474976Y-65396412D01*
X171466385Y-65390812D01*
X171457966Y-65385032D01*
X171449720Y-65379071D01*
X171447211Y-65377162D01*
X171447211Y-65433929D01*
X171275813Y-65433929D01*
X171275813Y-65223208D01*
X171447211Y-65223208D01*
X171448138Y-65224882D01*
X171452936Y-65232983D01*
X171458005Y-65240635D01*
X171463346Y-65247838D01*
X171468958Y-65254593D01*
X171474841Y-65260899D01*
X171482260Y-65267874D01*
X171487382Y-65272175D01*
X171495441Y-65278125D01*
X171503951Y-65283475D01*
X171512912Y-65288223D01*
X171520724Y-65291721D01*
X171528849Y-65294802D01*
X171532166Y-65295914D01*
X171540728Y-65298382D01*
X171549676Y-65300402D01*
X171559010Y-65301972D01*
X171568730Y-65303094D01*
X171578837Y-65303767D01*
X171589329Y-65303991D01*
X171598753Y-65303687D01*
X171608003Y-65302776D01*
X171617079Y-65301256D01*
X171625981Y-65299129D01*
X171634710Y-65296394D01*
X171643265Y-65293052D01*
X171651647Y-65289102D01*
X171659855Y-65284543D01*
X171667775Y-65279401D01*
X171675295Y-65273804D01*
X171682415Y-65267754D01*
X171689133Y-65261249D01*
X171695451Y-65254290D01*
X171701368Y-65246877D01*
X171706885Y-65239009D01*
X171712000Y-65230688D01*
X171716559Y-65221952D01*
X171720509Y-65212950D01*
X171723851Y-65203680D01*
X171726586Y-65194143D01*
X171728713Y-65184339D01*
X171730233Y-65174268D01*
X171731144Y-65163929D01*
X171731448Y-65153324D01*
X171731144Y-65142789D01*
X171730233Y-65132554D01*
X171728713Y-65122620D01*
X171726586Y-65112986D01*
X171723851Y-65103653D01*
X171720509Y-65094620D01*
X171716559Y-65085888D01*
X171712000Y-65077456D01*
X171706885Y-65069398D01*
X171701368Y-65061788D01*
X171695451Y-65054626D01*
X171689133Y-65047910D01*
X171682415Y-65041643D01*
X171675295Y-65035822D01*
X171667775Y-65030449D01*
X171659855Y-65025524D01*
X171651647Y-65021066D01*
X171643265Y-65017202D01*
X171634710Y-65013933D01*
X171625981Y-65011259D01*
X171617079Y-65009178D01*
X171608003Y-65007692D01*
X171598753Y-65006801D01*
X171589329Y-65006504D01*
X171585076Y-65006544D01*
X171574625Y-65007005D01*
X171564435Y-65007976D01*
X171554506Y-65009459D01*
X171544838Y-65011453D01*
X171535431Y-65013959D01*
X171526284Y-65016975D01*
X171522712Y-65018292D01*
X171514081Y-65021883D01*
X171505878Y-65025901D01*
X171498103Y-65030348D01*
X171490755Y-65035222D01*
X171483836Y-65040524D01*
X171477344Y-65046254D01*
X171474847Y-65048662D01*
X171468963Y-65054954D01*
X171463590Y-65061631D01*
X171458728Y-65068695D01*
X171454378Y-65076145D01*
X171450538Y-65083980D01*
X171447211Y-65092202D01*
X171447211Y-65223208D01*
X171275813Y-65223208D01*
X171275813Y-64467307D01*
X171446142Y-64467307D01*
X171446142Y-64936620D01*
G37*
G36*
X170884445Y-64871686D02*
G01*
X170896998Y-64872215D01*
X170909419Y-64873379D01*
X170921709Y-64875178D01*
X170933868Y-64877612D01*
X170945895Y-64880680D01*
X170957790Y-64884384D01*
X170969554Y-64888722D01*
X170981187Y-64893695D01*
X170992688Y-64899303D01*
X171000282Y-64903395D01*
X171007818Y-64907768D01*
X171015208Y-64912401D01*
X171022417Y-64917269D01*
X171029446Y-64922372D01*
X171036295Y-64927710D01*
X171042963Y-64933284D01*
X171049452Y-64939094D01*
X171055760Y-64945139D01*
X171061887Y-64951419D01*
X171067834Y-64957935D01*
X171073601Y-64964686D01*
X171079188Y-64971673D01*
X171084594Y-64978895D01*
X171089820Y-64986352D01*
X171094866Y-64994045D01*
X171099731Y-65001973D01*
X171104416Y-65010137D01*
X171108867Y-65018487D01*
X171113031Y-65027030D01*
X171116908Y-65035765D01*
X171120498Y-65044691D01*
X171123800Y-65053810D01*
X171126816Y-65063121D01*
X171129544Y-65072623D01*
X171131985Y-65082318D01*
X171134139Y-65092205D01*
X171136005Y-65102283D01*
X171137585Y-65112554D01*
X171138877Y-65123017D01*
X171139882Y-65133672D01*
X171140600Y-65144518D01*
X171141031Y-65155557D01*
X171141174Y-65166788D01*
X171141036Y-65178756D01*
X171140620Y-65190457D01*
X171139927Y-65201890D01*
X171138957Y-65213057D01*
X171137710Y-65223956D01*
X171136186Y-65234588D01*
X171134384Y-65244953D01*
X171132305Y-65255051D01*
X171129949Y-65264882D01*
X171127316Y-65274446D01*
X171124406Y-65283742D01*
X171121219Y-65292771D01*
X171117754Y-65301534D01*
X171114013Y-65310029D01*
X171109994Y-65318257D01*
X171105698Y-65326217D01*
X171101165Y-65333892D01*
X171096435Y-65341314D01*
X171091508Y-65348484D01*
X171086384Y-65355403D01*
X171078328Y-65365307D01*
X171069829Y-65374644D01*
X171060887Y-65383414D01*
X171051502Y-65391617D01*
X171041673Y-65399252D01*
X171031401Y-65406320D01*
X171020686Y-65412821D01*
X171009527Y-65418755D01*
X170998025Y-65424102D01*
X170986279Y-65428923D01*
X170974288Y-65433218D01*
X170962053Y-65436987D01*
X170953761Y-65439208D01*
X170945360Y-65441195D01*
X170936851Y-65442948D01*
X170928233Y-65444467D01*
X170919507Y-65445753D01*
X170910672Y-65446805D01*
X170901729Y-65447623D01*
X170892677Y-65448207D01*
X170883516Y-65448558D01*
X170874247Y-65448675D01*
X170871268Y-65448661D01*
X170862483Y-65448454D01*
X170851126Y-65447793D01*
X170840177Y-65446691D01*
X170829635Y-65445148D01*
X170819500Y-65443165D01*
X170809773Y-65440741D01*
X170800453Y-65437876D01*
X170791541Y-65434570D01*
X170782956Y-65430967D01*
X170774724Y-65427210D01*
X170766847Y-65423300D01*
X170757498Y-65418196D01*
X170748702Y-65412852D01*
X170740459Y-65407268D01*
X170732770Y-65401444D01*
X170731285Y-65400260D01*
X170724207Y-65394484D01*
X170716471Y-65387870D01*
X170709561Y-65381601D01*
X170702544Y-65374725D01*
X170696652Y-65368319D01*
X170695370Y-65366868D01*
X170695370Y-65433929D01*
X170523759Y-65433929D01*
X170523759Y-65228123D01*
X170695370Y-65228123D01*
X170698813Y-65234712D01*
X170703332Y-65242543D01*
X170708092Y-65249926D01*
X170714120Y-65258193D01*
X170720494Y-65265814D01*
X170727213Y-65272789D01*
X170729535Y-65274973D01*
X170736790Y-65281124D01*
X170744481Y-65286674D01*
X170752608Y-65291623D01*
X170761171Y-65295970D01*
X170770169Y-65299717D01*
X170779524Y-65302840D01*
X170789313Y-65305317D01*
X170797805Y-65306887D01*
X170806598Y-65308009D01*
X170815695Y-65308682D01*
X170825094Y-65308907D01*
X170834517Y-65308603D01*
X170843767Y-65307691D01*
X170852843Y-65306172D01*
X170861745Y-65304045D01*
X170870474Y-65301310D01*
X170879029Y-65297967D01*
X170887411Y-65294017D01*
X170895619Y-65289459D01*
X170903539Y-65284316D01*
X170911059Y-65278720D01*
X170918179Y-65272669D01*
X170924897Y-65266164D01*
X170931215Y-65259205D01*
X170937132Y-65251792D01*
X170942649Y-65243925D01*
X170947765Y-65235603D01*
X170952323Y-65226868D01*
X170956273Y-65217865D01*
X170959616Y-65208595D01*
X170962350Y-65199058D01*
X170964478Y-65189254D01*
X170965997Y-65179183D01*
X170966909Y-65168845D01*
X170967212Y-65158239D01*
X170966925Y-65147704D01*
X170966064Y-65137469D01*
X170964628Y-65127535D01*
X170962618Y-65117901D01*
X170960033Y-65108568D01*
X170956874Y-65099535D01*
X170953141Y-65090803D01*
X170948833Y-65082371D01*
X170944038Y-65074310D01*
X170938842Y-65066690D01*
X170933245Y-65059511D01*
X170927248Y-65052772D01*
X170920850Y-65046474D01*
X170914051Y-65040617D01*
X170906852Y-65035201D01*
X170899252Y-65030226D01*
X170891365Y-65025768D01*
X170883304Y-65021904D01*
X170875069Y-65018635D01*
X170866661Y-65015960D01*
X170858079Y-65013880D01*
X170849323Y-65012394D01*
X170840394Y-65011502D01*
X170831291Y-65011205D01*
X170827175Y-65011246D01*
X170817095Y-65011706D01*
X170807319Y-65012678D01*
X170797845Y-65014161D01*
X170788673Y-65016155D01*
X170779804Y-65018660D01*
X170771238Y-65021677D01*
X170763006Y-65025158D01*
X170755139Y-65029057D01*
X170747637Y-65033373D01*
X170740500Y-65038106D01*
X170732418Y-65044337D01*
X170724862Y-65051169D01*
X170718958Y-65057306D01*
X170712507Y-65065180D01*
X170706747Y-65073610D01*
X170702474Y-65081060D01*
X170698682Y-65088896D01*
X170695370Y-65097118D01*
X170695370Y-65228123D01*
X170523759Y-65228123D01*
X170523759Y-64898579D01*
X170682975Y-64898579D01*
X170694194Y-64953480D01*
X170698689Y-64948357D01*
X170706082Y-64940613D01*
X170713916Y-64933050D01*
X170722191Y-64925667D01*
X170730907Y-64918464D01*
X170737732Y-64913180D01*
X170744806Y-64907998D01*
X170752128Y-64902917D01*
X170759698Y-64897938D01*
X170762300Y-64896320D01*
X170770557Y-64891777D01*
X170779490Y-64887695D01*
X170789100Y-64884075D01*
X170799385Y-64880918D01*
X170810347Y-64878223D01*
X170821986Y-64875989D01*
X170834300Y-64874218D01*
X170842885Y-64873294D01*
X170851771Y-64872575D01*
X170860957Y-64872062D01*
X170870444Y-64871754D01*
X170880231Y-64871651D01*
X170884445Y-64871686D01*
G37*
G36*
X170348087Y-64467307D02*
G01*
X170176690Y-64467307D01*
X170176690Y-65433929D01*
X170348087Y-65433929D01*
X170348087Y-64467307D01*
G37*
G36*
X170000163Y-64467307D02*
G01*
X169828766Y-64467307D01*
X169828766Y-65433929D01*
X170000163Y-65433929D01*
X170000163Y-64467307D01*
G37*
D14*
X161925000Y-44800000D02*
G75*
G03*
X161525000Y-44800000I-200000J0D01*
G01*
X161525000Y-44800000D02*
G75*
G03*
X161925000Y-44800000I200000J0D01*
G01*
X161925000Y-43450000D02*
G75*
G03*
X161525000Y-43450000I-200000J0D01*
G01*
X161525000Y-43450000D02*
G75*
G03*
X161925000Y-43450000I200000J0D01*
G01*
X161075000Y-44800000D02*
G75*
G03*
X160675000Y-44800000I-200000J0D01*
G01*
X160675000Y-44800000D02*
G75*
G03*
X161075000Y-44800000I200000J0D01*
G01*
X161075000Y-43450000D02*
G75*
G03*
X160675000Y-43450000I-200000J0D01*
G01*
X160675000Y-43450000D02*
G75*
G03*
X161075000Y-43450000I200000J0D01*
G01*
X160225000Y-44800000D02*
G75*
G03*
X159825000Y-44800000I-200000J0D01*
G01*
X159825000Y-44800000D02*
G75*
G03*
X160225000Y-44800000I200000J0D01*
G01*
X160225000Y-43450000D02*
G75*
G03*
X159825000Y-43450000I-200000J0D01*
G01*
X159825000Y-43450000D02*
G75*
G03*
X160225000Y-43450000I200000J0D01*
G01*
X159375000Y-44800000D02*
G75*
G03*
X158975000Y-44800000I-200000J0D01*
G01*
X158975000Y-44800000D02*
G75*
G03*
X159375000Y-44800000I200000J0D01*
G01*
X159375000Y-43450000D02*
G75*
G03*
X158975000Y-43450000I-200000J0D01*
G01*
X158975000Y-43450000D02*
G75*
G03*
X159375000Y-43450000I200000J0D01*
G01*
X158525000Y-44800000D02*
G75*
G03*
X158125000Y-44800000I-200000J0D01*
G01*
X158125000Y-44800000D02*
G75*
G03*
X158525000Y-44800000I200000J0D01*
G01*
X158525000Y-43450000D02*
G75*
G03*
X158125000Y-43450000I-200000J0D01*
G01*
X158125000Y-43450000D02*
G75*
G03*
X158525000Y-43450000I200000J0D01*
G01*
X157675000Y-44800000D02*
G75*
G03*
X157275000Y-44800000I-200000J0D01*
G01*
X157275000Y-44800000D02*
G75*
G03*
X157675000Y-44800000I200000J0D01*
G01*
X157675000Y-43450000D02*
G75*
G03*
X157275000Y-43450000I-200000J0D01*
G01*
X157275000Y-43450000D02*
G75*
G03*
X157675000Y-43450000I200000J0D01*
G01*
X156825000Y-44800000D02*
G75*
G03*
X156425000Y-44800000I-200000J0D01*
G01*
X156425000Y-44800000D02*
G75*
G03*
X156825000Y-44800000I200000J0D01*
G01*
X156825000Y-43450000D02*
G75*
G03*
X156425000Y-43450000I-200000J0D01*
G01*
X156425000Y-43450000D02*
G75*
G03*
X156825000Y-43450000I200000J0D01*
G01*
X155975000Y-44800000D02*
G75*
G03*
X155575000Y-44800000I-200000J0D01*
G01*
X155575000Y-44800000D02*
G75*
G03*
X155975000Y-44800000I200000J0D01*
G01*
X155975000Y-43450000D02*
G75*
G03*
X155575000Y-43450000I-200000J0D01*
G01*
X155575000Y-43450000D02*
G75*
G03*
X155975000Y-43450000I200000J0D01*
G01*
D15*
X158750000Y-57150000D03*
D16*
X162250000Y-61895000D03*
D17*
X162250000Y-64792500D03*
X162250000Y-66617500D03*
D18*
X162250000Y-69515000D03*
D19*
X170338750Y-57150000D03*
D20*
X175418750Y-57150000D03*
D19*
X180498750Y-57150000D03*
D21*
X171608750Y-54610000D03*
X177958750Y-52070000D03*
D19*
X139382500Y-47625000D03*
D20*
X144462500Y-47625000D03*
D19*
X149542500Y-47625000D03*
D21*
X140652500Y-45085000D03*
X147002500Y-42545000D03*
D19*
X139382500Y-66675000D03*
D20*
X144462500Y-66675000D03*
D19*
X149542500Y-66675000D03*
D22*
X140652500Y-64135000D03*
D23*
X147002500Y-61595000D03*
D24*
X163070000Y-44300000D03*
D25*
X163070000Y-40150000D03*
D24*
X154430000Y-44300000D03*
D25*
X154430000Y-40150000D03*
D19*
X137001250Y-66675000D03*
D20*
X142081250Y-66675000D03*
D26*
X138271250Y-64135000D03*
D27*
X144621250Y-61595000D03*
D20*
X167163750Y-45243750D03*
X167163750Y-69056250D03*
D28*
X182403750Y-45243750D03*
X182403750Y-69056250D03*
D20*
X146843750Y-66675000D03*
D19*
X151923750Y-66675000D03*
D29*
X143033750Y-64135000D03*
D30*
X149383750Y-61595000D03*
D31*
X159662500Y-46800000D03*
X157837500Y-46800000D03*
D32*
X157837500Y-41450000D03*
X159662500Y-41450000D03*
D33*
X184000000Y-61150000D03*
D34*
X184000000Y-59150000D03*
X184000000Y-57150000D03*
X184000000Y-55150000D03*
X184000000Y-53150000D03*
M02*
