G04 #@! TF.GenerationSoftware,KiCad,Pcbnew,7.0.11*
G04 #@! TF.CreationDate,2024-05-21T13:22:13-04:00*
G04 #@! TF.ProjectId,ISOCHet,49534f43-4865-4742-9e6b-696361645f70,rev?*
G04 #@! TF.SameCoordinates,Original*
G04 #@! TF.FileFunction,Soldermask,Top*
G04 #@! TF.FilePolarity,Negative*
%FSLAX46Y46*%
G04 Gerber Fmt 4.6, Leading zero omitted, Abs format (unit mm)*
G04 Created by KiCad (PCBNEW 7.0.11) date 2024-05-21 13:22:13*
%MOMM*%
%LPD*%
G01*
G04 APERTURE LIST*
G04 Aperture macros list*
%AMRoundRect*
0 Rectangle with rounded corners*
0 $1 Rounding radius*
0 $2 $3 $4 $5 $6 $7 $8 $9 X,Y pos of 4 corners*
0 Add a 4 corners polygon primitive as box body*
4,1,4,$2,$3,$4,$5,$6,$7,$8,$9,$2,$3,0*
0 Add four circle primitives for the rounded corners*
1,1,$1+$1,$2,$3*
1,1,$1+$1,$4,$5*
1,1,$1+$1,$6,$7*
1,1,$1+$1,$8,$9*
0 Add four rect primitives between the rounded corners*
20,1,$1+$1,$2,$3,$4,$5,0*
20,1,$1+$1,$4,$5,$6,$7,0*
20,1,$1+$1,$6,$7,$8,$9,0*
20,1,$1+$1,$8,$9,$2,$3,0*%
%AMFreePoly0*
4,1,15,-0.780000,0.162500,-0.617500,0.325000,0.552500,0.325000,0.639560,0.307683,0.713367,0.258367,0.762683,0.184560,0.780000,0.097500,0.780000,-0.097500,0.762683,-0.184560,0.713367,-0.258367,0.639560,-0.307683,0.552500,-0.325000,-0.617500,-0.325000,-0.780000,-0.162500,-0.780000,0.162500,-0.780000,0.162500,$1*%
%AMFreePoly1*
4,1,15,-0.700000,0.075000,-0.694291,0.103701,-0.678033,0.128033,-0.653701,0.144291,-0.625000,0.150000,0.625000,0.150000,0.700000,0.075000,0.700000,-0.075000,0.625000,-0.150000,-0.625000,-0.150000,-0.653701,-0.144291,-0.678033,-0.128033,-0.694291,-0.103701,-0.700000,-0.075000,-0.700000,0.075000,-0.700000,0.075000,$1*%
G04 Aperture macros list end*
%ADD10C,0.400000*%
%ADD11RoundRect,0.237500X-0.237500X0.300000X-0.237500X-0.300000X0.237500X-0.300000X0.237500X0.300000X0*%
%ADD12C,3.800000*%
%ADD13C,1.600000*%
%ADD14O,1.600000X1.600000*%
%ADD15RoundRect,0.162500X0.162500X-0.617500X0.162500X0.617500X-0.162500X0.617500X-0.162500X-0.617500X0*%
%ADD16FreePoly0,90.000000*%
%ADD17R,0.300000X1.400000*%
%ADD18FreePoly1,90.000000*%
%ADD19RoundRect,0.237500X-0.287500X-0.237500X0.287500X-0.237500X0.287500X0.237500X-0.287500X0.237500X0*%
%ADD20C,1.750000*%
%ADD21C,3.987800*%
%ADD22RoundRect,0.250000X0.250000X0.250000X-0.250000X0.250000X-0.250000X-0.250000X0.250000X-0.250000X0*%
%ADD23RoundRect,0.237500X0.300000X0.237500X-0.300000X0.237500X-0.300000X-0.237500X0.300000X-0.237500X0*%
%ADD24O,1.554000X3.454000*%
%ADD25O,1.554000X3.054000*%
%ADD26RoundRect,0.275000X0.275000X-0.625000X0.275000X0.625000X-0.275000X0.625000X-0.275000X-0.625000X0*%
%ADD27R,1.350000X1.350000*%
%ADD28O,1.350000X1.350000*%
G04 APERTURE END LIST*
D10*
X161925000Y-44800000D02*
G75*
G03*
X161525000Y-44800000I-200000J0D01*
G01*
X161525000Y-44800000D02*
G75*
G03*
X161925000Y-44800000I200000J0D01*
G01*
X161925000Y-43450000D02*
G75*
G03*
X161525000Y-43450000I-200000J0D01*
G01*
X161525000Y-43450000D02*
G75*
G03*
X161925000Y-43450000I200000J0D01*
G01*
X161075000Y-44800000D02*
G75*
G03*
X160675000Y-44800000I-200000J0D01*
G01*
X160675000Y-44800000D02*
G75*
G03*
X161075000Y-44800000I200000J0D01*
G01*
X161075000Y-43450000D02*
G75*
G03*
X160675000Y-43450000I-200000J0D01*
G01*
X160675000Y-43450000D02*
G75*
G03*
X161075000Y-43450000I200000J0D01*
G01*
X160225000Y-44800000D02*
G75*
G03*
X159825000Y-44800000I-200000J0D01*
G01*
X159825000Y-44800000D02*
G75*
G03*
X160225000Y-44800000I200000J0D01*
G01*
X160225000Y-43450000D02*
G75*
G03*
X159825000Y-43450000I-200000J0D01*
G01*
X159825000Y-43450000D02*
G75*
G03*
X160225000Y-43450000I200000J0D01*
G01*
X159375000Y-44800000D02*
G75*
G03*
X158975000Y-44800000I-200000J0D01*
G01*
X158975000Y-44800000D02*
G75*
G03*
X159375000Y-44800000I200000J0D01*
G01*
X159375000Y-43450000D02*
G75*
G03*
X158975000Y-43450000I-200000J0D01*
G01*
X158975000Y-43450000D02*
G75*
G03*
X159375000Y-43450000I200000J0D01*
G01*
X158525000Y-44800000D02*
G75*
G03*
X158125000Y-44800000I-200000J0D01*
G01*
X158125000Y-44800000D02*
G75*
G03*
X158525000Y-44800000I200000J0D01*
G01*
X158525000Y-43450000D02*
G75*
G03*
X158125000Y-43450000I-200000J0D01*
G01*
X158125000Y-43450000D02*
G75*
G03*
X158525000Y-43450000I200000J0D01*
G01*
X157675000Y-44800000D02*
G75*
G03*
X157275000Y-44800000I-200000J0D01*
G01*
X157275000Y-44800000D02*
G75*
G03*
X157675000Y-44800000I200000J0D01*
G01*
X157675000Y-43450000D02*
G75*
G03*
X157275000Y-43450000I-200000J0D01*
G01*
X157275000Y-43450000D02*
G75*
G03*
X157675000Y-43450000I200000J0D01*
G01*
X156825000Y-44800000D02*
G75*
G03*
X156425000Y-44800000I-200000J0D01*
G01*
X156425000Y-44800000D02*
G75*
G03*
X156825000Y-44800000I200000J0D01*
G01*
X156825000Y-43450000D02*
G75*
G03*
X156425000Y-43450000I-200000J0D01*
G01*
X156425000Y-43450000D02*
G75*
G03*
X156825000Y-43450000I200000J0D01*
G01*
X155975000Y-44800000D02*
G75*
G03*
X155575000Y-44800000I-200000J0D01*
G01*
X155575000Y-44800000D02*
G75*
G03*
X155975000Y-44800000I200000J0D01*
G01*
X155975000Y-43450000D02*
G75*
G03*
X155575000Y-43450000I-200000J0D01*
G01*
X155575000Y-43450000D02*
G75*
G03*
X155975000Y-43450000I200000J0D01*
G01*
D11*
X155250000Y-61895000D03*
X155250000Y-63620000D03*
D12*
X158750000Y-57150000D03*
D13*
X162250000Y-61895000D03*
D14*
X162250000Y-69515000D03*
D15*
X157800000Y-52850000D03*
D16*
X158750000Y-52850000D03*
D15*
X159700000Y-52850000D03*
X159700000Y-50150000D03*
X158750000Y-50150000D03*
X157800000Y-50150000D03*
D17*
X157000000Y-66295000D03*
X157500000Y-66295000D03*
X158000000Y-66295000D03*
X158500000Y-66295000D03*
X159000000Y-66295000D03*
X159000000Y-61895000D03*
X158500000Y-61895000D03*
D18*
X158000000Y-61895000D03*
D17*
X157500000Y-61895000D03*
X157000000Y-61895000D03*
D19*
X152875000Y-48107500D03*
X154625000Y-48107500D03*
D20*
X170338750Y-57150000D03*
D21*
X175418750Y-57150000D03*
D20*
X180498750Y-57150000D03*
D22*
X158750000Y-48107500D03*
X156250000Y-48107500D03*
D20*
X139382500Y-47625000D03*
D21*
X144462500Y-47625000D03*
D20*
X149542500Y-47625000D03*
X139382500Y-66675000D03*
D21*
X144462500Y-66675000D03*
D20*
X149542500Y-66675000D03*
D23*
X156475000Y-60000000D03*
X154750000Y-60000000D03*
D24*
X163070000Y-44300000D03*
D25*
X163070000Y-40150000D03*
D24*
X154430000Y-44300000D03*
D25*
X154430000Y-40150000D03*
D20*
X137001250Y-66675000D03*
D21*
X142081250Y-66675000D03*
X167163750Y-45243750D03*
X167163750Y-69056250D03*
D26*
X131950000Y-50725000D03*
X131950000Y-44525000D03*
X135650000Y-50725000D03*
X135650000Y-44525000D03*
D21*
X146843750Y-66675000D03*
D20*
X151923750Y-66675000D03*
D27*
X184000000Y-61150000D03*
D28*
X184000000Y-59150000D03*
X184000000Y-57150000D03*
X184000000Y-55150000D03*
X184000000Y-53150000D03*
M02*
