G04 #@! TF.GenerationSoftware,KiCad,Pcbnew,7.0.11*
G04 #@! TF.CreationDate,2024-05-21T13:22:13-04:00*
G04 #@! TF.ProjectId,ISOCHet,49534f43-4865-4742-9e6b-696361645f70,rev?*
G04 #@! TF.SameCoordinates,Original*
G04 #@! TF.FileFunction,Copper,L1,Top*
G04 #@! TF.FilePolarity,Positive*
%FSLAX46Y46*%
G04 Gerber Fmt 4.6, Leading zero omitted, Abs format (unit mm)*
G04 Created by KiCad (PCBNEW 7.0.11) date 2024-05-21 13:22:13*
%MOMM*%
%LPD*%
G01*
G04 APERTURE LIST*
G04 Aperture macros list*
%AMRoundRect*
0 Rectangle with rounded corners*
0 $1 Rounding radius*
0 $2 $3 $4 $5 $6 $7 $8 $9 X,Y pos of 4 corners*
0 Add a 4 corners polygon primitive as box body*
4,1,4,$2,$3,$4,$5,$6,$7,$8,$9,$2,$3,0*
0 Add four circle primitives for the rounded corners*
1,1,$1+$1,$2,$3*
1,1,$1+$1,$4,$5*
1,1,$1+$1,$6,$7*
1,1,$1+$1,$8,$9*
0 Add four rect primitives between the rounded corners*
20,1,$1+$1,$2,$3,$4,$5,0*
20,1,$1+$1,$4,$5,$6,$7,0*
20,1,$1+$1,$6,$7,$8,$9,0*
20,1,$1+$1,$8,$9,$2,$3,0*%
%AMFreePoly0*
4,1,15,-0.780000,0.162500,-0.617500,0.325000,0.552500,0.325000,0.639560,0.307683,0.713367,0.258367,0.762683,0.184560,0.780000,0.097500,0.780000,-0.097500,0.762683,-0.184560,0.713367,-0.258367,0.639560,-0.307683,0.552500,-0.325000,-0.617500,-0.325000,-0.780000,-0.162500,-0.780000,0.162500,-0.780000,0.162500,$1*%
%AMFreePoly1*
4,1,15,-0.700000,0.075000,-0.694291,0.103701,-0.678033,0.128033,-0.653701,0.144291,-0.625000,0.150000,0.625000,0.150000,0.700000,0.075000,0.700000,-0.075000,0.625000,-0.150000,-0.625000,-0.150000,-0.653701,-0.144291,-0.678033,-0.128033,-0.694291,-0.103701,-0.700000,-0.075000,-0.700000,0.075000,-0.700000,0.075000,$1*%
%AMFreePoly2*
4,1,19,-1.250000,0.000000,-1.241997,0.101682,-1.196541,0.258146,-1.113601,0.398390,-0.998390,0.513601,-0.858146,0.596541,-0.701682,0.641997,-0.600000,0.650000,1.250000,0.650000,1.250000,-0.650000,-0.600000,-0.650000,-0.701682,-0.641997,-0.858146,-0.596541,-0.998390,-0.513601,-1.113601,-0.398390,-1.196541,-0.258146,-1.241997,-0.101682,-1.250000,0.000000,-1.250000,0.000000,-1.250000,0.000000,
$1*%
%AMFreePoly3*
4,1,23,-1.150000,0.000000,-1.141867,0.136527,-1.095394,0.350159,-1.009331,0.551136,-0.886788,0.732194,-0.732194,0.886788,-0.551136,1.009331,-0.350159,1.095394,-0.136527,1.141867,0.000000,1.150000,1.150000,1.150000,1.150000,-1.150000,0.000000,-1.150000,-0.136527,-1.141867,-0.350159,-1.095394,-0.551136,-1.009331,-0.732194,-0.886788,-0.886788,-0.732194,-1.009331,-0.551136,-1.095394,-0.350159,
-1.141867,-0.136527,-1.150000,0.000000,-1.150000,0.000000,-1.150000,0.000000,$1*%
%AMFreePoly4*
4,1,18,-1.250000,0.650000,0.600000,0.650000,0.701682,0.641997,0.858146,0.596541,0.998390,0.513601,1.113601,0.398390,1.196541,0.258146,1.241997,0.101682,1.250000,0.000000,1.241997,-0.101682,1.196541,-0.258146,1.113601,-0.398390,0.998390,-0.513601,0.858146,-0.596541,0.701682,-0.641997,0.600000,-0.650000,-1.250000,-0.650000,-1.250000,0.650000,-1.250000,0.650000,$1*%
%AMFreePoly5*
4,1,22,-1.150000,1.150000,0.000000,1.150000,0.136527,1.141867,0.350159,1.095394,0.551136,1.009331,0.732194,0.886788,0.886788,0.732194,1.009331,0.551136,1.095394,0.350159,1.141867,0.136527,1.150000,0.000000,1.141867,-0.136527,1.095394,-0.350159,1.009331,-0.551136,0.886788,-0.732194,0.732194,-0.886788,0.551136,-1.009331,0.350159,-1.095394,0.136527,-1.141867,0.000000,-1.150000,
-1.150000,-1.150000,-1.150000,1.150000,-1.150000,1.150000,$1*%
G04 Aperture macros list end*
G04 #@! TA.AperFunction,SMDPad,CuDef*
%ADD10RoundRect,0.237500X-0.237500X0.300000X-0.237500X-0.300000X0.237500X-0.300000X0.237500X0.300000X0*%
G04 #@! TD*
G04 #@! TA.AperFunction,SMDPad,CuDef*
%ADD11R,0.350000X2.000000*%
G04 #@! TD*
G04 #@! TA.AperFunction,ComponentPad*
%ADD12C,3.800000*%
G04 #@! TD*
G04 #@! TA.AperFunction,ComponentPad*
%ADD13C,1.600000*%
G04 #@! TD*
G04 #@! TA.AperFunction,ComponentPad*
%ADD14O,1.600000X1.600000*%
G04 #@! TD*
G04 #@! TA.AperFunction,SMDPad,CuDef*
%ADD15RoundRect,0.162500X0.162500X-0.617500X0.162500X0.617500X-0.162500X0.617500X-0.162500X-0.617500X0*%
G04 #@! TD*
G04 #@! TA.AperFunction,SMDPad,CuDef*
%ADD16FreePoly0,90.000000*%
G04 #@! TD*
G04 #@! TA.AperFunction,SMDPad,CuDef*
%ADD17R,0.300000X1.400000*%
G04 #@! TD*
G04 #@! TA.AperFunction,SMDPad,CuDef*
%ADD18FreePoly1,90.000000*%
G04 #@! TD*
G04 #@! TA.AperFunction,SMDPad,CuDef*
%ADD19RoundRect,0.237500X-0.287500X-0.237500X0.287500X-0.237500X0.287500X0.237500X-0.287500X0.237500X0*%
G04 #@! TD*
G04 #@! TA.AperFunction,ComponentPad*
%ADD20C,2.300000*%
G04 #@! TD*
G04 #@! TA.AperFunction,SMDPad,CuDef*
%ADD21RoundRect,0.250000X0.250000X0.250000X-0.250000X0.250000X-0.250000X-0.250000X0.250000X-0.250000X0*%
G04 #@! TD*
G04 #@! TA.AperFunction,ComponentPad*
%ADD22R,2.500000X1.300000*%
G04 #@! TD*
G04 #@! TA.AperFunction,ComponentPad*
%ADD23R,2.500000X2.300000*%
G04 #@! TD*
G04 #@! TA.AperFunction,SMDPad,CuDef*
%ADD24RoundRect,0.237500X0.300000X0.237500X-0.300000X0.237500X-0.300000X-0.237500X0.300000X-0.237500X0*%
G04 #@! TD*
G04 #@! TA.AperFunction,ComponentPad*
%ADD25C,0.700000*%
G04 #@! TD*
G04 #@! TA.AperFunction,ComponentPad*
%ADD26O,1.350000X3.250000*%
G04 #@! TD*
G04 #@! TA.AperFunction,ComponentPad*
%ADD27O,1.350000X2.850000*%
G04 #@! TD*
G04 #@! TA.AperFunction,ComponentPad*
%ADD28FreePoly2,0.000000*%
G04 #@! TD*
G04 #@! TA.AperFunction,ComponentPad*
%ADD29FreePoly3,0.000000*%
G04 #@! TD*
G04 #@! TA.AperFunction,ComponentPad*
%ADD30C,4.000000*%
G04 #@! TD*
G04 #@! TA.AperFunction,SMDPad,CuDef*
%ADD31RoundRect,0.275000X0.275000X-0.625000X0.275000X0.625000X-0.275000X0.625000X-0.275000X-0.625000X0*%
G04 #@! TD*
G04 #@! TA.AperFunction,ComponentPad*
%ADD32FreePoly4,0.000000*%
G04 #@! TD*
G04 #@! TA.AperFunction,ComponentPad*
%ADD33FreePoly5,0.000000*%
G04 #@! TD*
G04 #@! TA.AperFunction,ComponentPad*
%ADD34R,1.350000X1.350000*%
G04 #@! TD*
G04 #@! TA.AperFunction,ComponentPad*
%ADD35O,1.350000X1.350000*%
G04 #@! TD*
G04 #@! TA.AperFunction,ViaPad*
%ADD36C,0.800000*%
G04 #@! TD*
G04 #@! TA.AperFunction,Conductor*
%ADD37C,0.300000*%
G04 #@! TD*
G04 #@! TA.AperFunction,Conductor*
%ADD38C,0.400000*%
G04 #@! TD*
G04 #@! TA.AperFunction,Conductor*
%ADD39C,0.250000*%
G04 #@! TD*
G04 #@! TA.AperFunction,Conductor*
%ADD40C,0.500000*%
G04 #@! TD*
G04 APERTURE END LIST*
D10*
X155250000Y-61895000D03*
X155250000Y-63620000D03*
D11*
X158750000Y-54400000D03*
D12*
X158750000Y-57150000D03*
D13*
X162250000Y-61895000D03*
D14*
X162250000Y-69515000D03*
D15*
X157800000Y-52850000D03*
D16*
X158750000Y-52850000D03*
D15*
X159700000Y-52850000D03*
X159700000Y-50150000D03*
X158750000Y-50150000D03*
X157800000Y-50150000D03*
D17*
X157000000Y-66295000D03*
X157500000Y-66295000D03*
X158000000Y-66295000D03*
X158500000Y-66295000D03*
X159000000Y-66295000D03*
X159000000Y-61895000D03*
X158500000Y-61895000D03*
D18*
X158000000Y-61895000D03*
D17*
X157500000Y-61895000D03*
X157000000Y-61895000D03*
D19*
X152875000Y-48107500D03*
X154625000Y-48107500D03*
D20*
X171608750Y-54610000D03*
X177958750Y-52070000D03*
D21*
X158750000Y-48107500D03*
X156250000Y-48107500D03*
D20*
X140652500Y-45085000D03*
X147002500Y-42545000D03*
D22*
X140652500Y-64135000D03*
D23*
X147002500Y-61595000D03*
D24*
X156475000Y-60000000D03*
X154750000Y-60000000D03*
D25*
X161725000Y-44800000D03*
X160875000Y-44800000D03*
X160025000Y-44800000D03*
X159175000Y-44800000D03*
X158325000Y-44800000D03*
X157475000Y-44800000D03*
X156625000Y-44800000D03*
X155775000Y-44800000D03*
X155775000Y-43450000D03*
X156625000Y-43450000D03*
X157475000Y-43450000D03*
X158325000Y-43450000D03*
X159175000Y-43450000D03*
X160025000Y-43450000D03*
X160875000Y-43450000D03*
X161725000Y-43450000D03*
D26*
X163070000Y-44300000D03*
D27*
X163070000Y-40150000D03*
D26*
X154430000Y-44300000D03*
D27*
X154430000Y-40150000D03*
D28*
X138271250Y-64135000D03*
D29*
X144621250Y-61595000D03*
D30*
X182403750Y-45243750D03*
X182403750Y-69056250D03*
D31*
X131950000Y-50725000D03*
X131950000Y-44525000D03*
X135650000Y-50725000D03*
X135650000Y-44525000D03*
D32*
X143033750Y-64135000D03*
D33*
X149383750Y-61595000D03*
D34*
X184000000Y-61150000D03*
D35*
X184000000Y-59150000D03*
X184000000Y-57150000D03*
X184000000Y-55150000D03*
X184000000Y-53150000D03*
D36*
X154700000Y-55150000D03*
X137500000Y-50750000D03*
X151750000Y-59500000D03*
D37*
X154700015Y-58185382D02*
G75*
G03*
X155118762Y-58999115I999985J-18D01*
G01*
X157499985Y-61214618D02*
G75*
G03*
X157081238Y-60400885I-999985J18D01*
G01*
X157081238Y-60400884D02*
X155118762Y-58999116D01*
X157500000Y-61214618D02*
X157500000Y-61895000D01*
X154700000Y-55150000D02*
X154700000Y-58185382D01*
D38*
X158750000Y-48107500D02*
X158750000Y-50150000D01*
D37*
X154702146Y-55147854D02*
X154702146Y-53837064D01*
X154700000Y-55150000D02*
X154702146Y-55147854D01*
X157200000Y-51488155D02*
X157929648Y-51488155D01*
X157929655Y-51488192D02*
G75*
G03*
X158750000Y-50500000I-189355J991792D01*
G01*
X157200000Y-51488213D02*
G75*
G03*
X154702146Y-53837064I1700J-2504387D01*
G01*
X158000000Y-63750000D02*
X158000000Y-61895000D01*
X154625000Y-48107500D02*
X156250000Y-48107500D01*
X160875000Y-43450000D02*
X160875000Y-43200000D01*
X156623478Y-45779856D02*
X156623478Y-44801522D01*
X157625000Y-42200000D02*
X159875000Y-42200000D01*
X156625000Y-43450000D02*
X156625000Y-43200000D01*
X156625000Y-43450000D02*
X156625000Y-44800000D01*
X153875000Y-46692500D02*
X155625000Y-46692500D01*
X160875000Y-43450000D02*
X160875000Y-44800000D01*
X155625000Y-46692477D02*
G75*
G03*
X156623478Y-45779856I-1700J1004377D01*
G01*
X153875000Y-46692500D02*
G75*
G03*
X152875000Y-47692500I0J-1000000D01*
G01*
X160875000Y-43200000D02*
G75*
G03*
X159875000Y-42200000I-1000000J0D01*
G01*
X157625000Y-42200000D02*
G75*
G03*
X156625000Y-43200000I0J-1000000D01*
G01*
D39*
X159700000Y-47207107D02*
X159700000Y-50150000D01*
X159321447Y-46621447D02*
X159553554Y-46853554D01*
X158325000Y-43450000D02*
X159175000Y-44800000D01*
X159175000Y-44800000D02*
X159175000Y-46267893D01*
X159699995Y-47207107D02*
G75*
G03*
X159553554Y-46853554I-499995J7D01*
G01*
X159175005Y-46267893D02*
G75*
G03*
X159321447Y-46621447I499995J-7D01*
G01*
X158178553Y-46621447D02*
X157946446Y-46853554D01*
X157800000Y-47207107D02*
X157800000Y-50150000D01*
X158325000Y-44800000D02*
X158325000Y-46267893D01*
X158178556Y-46621450D02*
G75*
G03*
X158325000Y-46267893I-353556J353550D01*
G01*
X157946443Y-46853551D02*
G75*
G03*
X157800000Y-47207107I353557J-353549D01*
G01*
X161114213Y-55364213D02*
X160285786Y-54535786D01*
X159000000Y-61895000D02*
X162250000Y-61895000D01*
X161700000Y-57143146D02*
X161700000Y-56778427D01*
X159000000Y-61895000D02*
X159000000Y-61292893D01*
X159439340Y-60232233D02*
X161114214Y-58557359D01*
X159700020Y-53121573D02*
G75*
G03*
X160285787Y-54535785I1999980J-27D01*
G01*
X159439343Y-60232236D02*
G75*
G03*
X159000000Y-61292893I1060657J-1060664D01*
G01*
X161699980Y-56778427D02*
G75*
G03*
X161114212Y-55364214I-1999980J27D01*
G01*
X161114191Y-58557336D02*
G75*
G03*
X161700000Y-57143146I-1414191J1414236D01*
G01*
X131950000Y-50725000D02*
X131950000Y-44525000D01*
X131950000Y-50725000D02*
X131950000Y-68750000D01*
X136950000Y-73750000D02*
X159250000Y-73750000D01*
X162250000Y-70750000D02*
X162250000Y-69515000D01*
X159250000Y-73750000D02*
G75*
G03*
X162250000Y-70750000I0J3000000D01*
G01*
X131950000Y-68750000D02*
G75*
G03*
X136950000Y-73750000I5000000J0D01*
G01*
X135427493Y-57367535D02*
X135812724Y-57290908D01*
X139867267Y-55634234D02*
X140085483Y-55307651D01*
X132400000Y-61250000D02*
X132402409Y-61053611D01*
X137239776Y-57209092D02*
X137625007Y-57132465D01*
X133115091Y-71193104D02*
X132916756Y-70849578D01*
X134709078Y-72683459D02*
X134355490Y-72464526D01*
X132402970Y-68556707D02*
X132400000Y-68553799D01*
X135812724Y-57290908D02*
X136203611Y-57252409D01*
X140534965Y-54222507D02*
X140611592Y-53837276D01*
X133185233Y-58865766D02*
X133434408Y-58562144D01*
X140270638Y-54961252D02*
X140420947Y-54598372D01*
X136400000Y-57250000D02*
X136652500Y-57250000D01*
X132517535Y-60277493D02*
X132631553Y-59901628D01*
X136203611Y-57252409D02*
X136400000Y-57250000D01*
X137625007Y-57132465D02*
X138000872Y-57018447D01*
X133194022Y-71305830D02*
X133115091Y-71193104D01*
X139036734Y-56464767D02*
X139340356Y-56215592D01*
X136652500Y-57250000D02*
X136848889Y-57247591D01*
X136900000Y-73250000D02*
X136692060Y-73247666D01*
X133434408Y-58562144D02*
X133712144Y-58284408D01*
X153000000Y-73250000D02*
X136900000Y-73250000D01*
X140650091Y-53446389D02*
X140652500Y-53250000D01*
X132631553Y-59901628D02*
X132781862Y-59538748D01*
X134688748Y-57631862D02*
X135051628Y-57481553D01*
X132441892Y-69343503D02*
X132407108Y-68945916D01*
X140652500Y-53250000D02*
X140652500Y-45085000D01*
X132613441Y-70117311D02*
X132510776Y-69734160D01*
X135081358Y-72868832D02*
X134709078Y-72683459D01*
X132749112Y-70490064D02*
X132613441Y-70117311D01*
X157500000Y-66295000D02*
X157500000Y-68750000D01*
X133436097Y-71626389D02*
X133194022Y-71305830D01*
X140420947Y-54598372D02*
X140534965Y-54222507D01*
X139618092Y-55937856D02*
X139867267Y-55634234D01*
X140085483Y-55307651D02*
X140270638Y-54961252D01*
X138710151Y-56682983D02*
X139036734Y-56464767D01*
X134015766Y-58035233D02*
X134342349Y-57817017D01*
X133712144Y-58284408D02*
X134015766Y-58035233D01*
X132781862Y-59538748D02*
X132967017Y-59192349D01*
X132407108Y-68945916D02*
X132402970Y-68556707D01*
X134342349Y-57817017D02*
X134688748Y-57631862D01*
X134355490Y-72464526D02*
X134023611Y-72213903D01*
X135051628Y-57481553D02*
X135427493Y-57367535D01*
X136277955Y-73209293D02*
X135869157Y-73132876D01*
X132402409Y-61053611D02*
X132440908Y-60662724D01*
X133716273Y-71933727D02*
X133436097Y-71626389D01*
X135469154Y-73019065D02*
X135081358Y-72868832D01*
X132510776Y-69734160D02*
X132441892Y-69343503D01*
X132400000Y-68553799D02*
X132400000Y-61250000D01*
X138000872Y-57018447D02*
X138363752Y-56868138D01*
X132967017Y-59192349D02*
X133185233Y-58865766D01*
X132440908Y-60662724D02*
X132517535Y-60277493D01*
X136692060Y-73247666D02*
X136277955Y-73209293D01*
X138363752Y-56868138D02*
X138710151Y-56682983D01*
X132916756Y-70849578D02*
X132749112Y-70490064D01*
X134023611Y-72213903D02*
X133716273Y-71933727D01*
X135869157Y-73132876D02*
X135469154Y-73019065D01*
X136848889Y-57247591D02*
X137239776Y-57209092D01*
X140611592Y-53837276D02*
X140650091Y-53446389D01*
X139340356Y-56215592D02*
X139618092Y-55937856D01*
X153000000Y-73250000D02*
G75*
G03*
X157500000Y-68750000I0J4500000D01*
G01*
X169108750Y-64250000D02*
X159502107Y-64250000D01*
X171608750Y-54610000D02*
X171608750Y-61750000D01*
X159502107Y-64250007D02*
G75*
G03*
X158002107Y-65750000I-7J-1499993D01*
G01*
X169108750Y-64249950D02*
G75*
G03*
X171608750Y-61750000I50J2499950D01*
G01*
X153000000Y-72750000D02*
X136897666Y-72750000D01*
X132900000Y-67938607D02*
X132900000Y-68747666D01*
X138718755Y-64137495D02*
X136694700Y-64137495D01*
X157000000Y-68750000D02*
X157000000Y-66295000D01*
X132897600Y-68750000D02*
G75*
G03*
X136897666Y-72750000I4000000J0D01*
G01*
X153000000Y-72750000D02*
G75*
G03*
X157000000Y-68750000I0J4000000D01*
G01*
X136694703Y-64137546D02*
G75*
G03*
X132900001Y-67938607I209897J-4004254D01*
G01*
X155800000Y-57143146D02*
X155800000Y-56778427D01*
X158060660Y-60232233D02*
X156385786Y-58557359D01*
X158500000Y-61895000D02*
X158500000Y-61292893D01*
X156385786Y-55364214D02*
X157214213Y-54535787D01*
X156385772Y-55364200D02*
G75*
G03*
X155800000Y-56778427I1414228J-1414200D01*
G01*
X157214227Y-54535801D02*
G75*
G03*
X157800000Y-53121573I-1414227J1414201D01*
G01*
X155799968Y-57143146D02*
G75*
G03*
X156385786Y-58557359I2000032J46D01*
G01*
X158500004Y-61292893D02*
G75*
G03*
X158060660Y-60232233I-1500004J-7D01*
G01*
X135650000Y-44525000D02*
X135650000Y-50725000D01*
D37*
X153607139Y-61892452D02*
X154747452Y-61892452D01*
D39*
X135650000Y-50725000D02*
X137475000Y-50725000D01*
X137475000Y-50725000D02*
X137500000Y-50750000D01*
D37*
X154750000Y-61895000D02*
X154747452Y-61892452D01*
X151752253Y-59502253D02*
X151752253Y-60031402D01*
X151750000Y-59500000D02*
X151752253Y-59502253D01*
X157000000Y-61895000D02*
X155250000Y-61895000D01*
X154747452Y-61892452D02*
X155250000Y-61892452D01*
X151752261Y-60031401D02*
G75*
G03*
X153607139Y-61892452I2004839J143301D01*
G01*
D39*
X179250000Y-65250000D02*
X159500000Y-65250000D01*
X184000000Y-59150000D02*
X182750000Y-59150000D01*
X181750000Y-60150000D02*
X181750000Y-62750000D01*
X179250000Y-65250000D02*
G75*
G03*
X181750000Y-62750000I0J2500000D01*
G01*
X182750000Y-59150000D02*
G75*
G03*
X181750000Y-60150000I0J-1000000D01*
G01*
X159500000Y-65250000D02*
G75*
G03*
X159000000Y-65750000I0J-500000D01*
G01*
X181250000Y-62750000D02*
X181250000Y-60216618D01*
X181689340Y-59155958D02*
X183695298Y-57150000D01*
X159500000Y-64750000D02*
X179250000Y-64750000D01*
X159500000Y-64750000D02*
G75*
G03*
X158500000Y-65750000I0J-1000000D01*
G01*
X179250000Y-64750000D02*
G75*
G03*
X181250000Y-62750000I0J2000000D01*
G01*
X181689331Y-59155949D02*
G75*
G03*
X181250000Y-60216618I1060669J-1060651D01*
G01*
D40*
X155775000Y-42450000D02*
X155775000Y-44800000D01*
X161725000Y-42450000D02*
X161725000Y-45800000D01*
X160500000Y-51500000D02*
X159750000Y-51500000D01*
X159750000Y-51500000D02*
G75*
G03*
X158750000Y-52500000I0J-1000000D01*
G01*
G04 #@! TA.AperFunction,Conductor*
G36*
X153813584Y-38370185D02*
G01*
X153859339Y-38422989D01*
X153869283Y-38492147D01*
X153840258Y-38555703D01*
X153825209Y-38570354D01*
X153701707Y-38671707D01*
X153573620Y-38827784D01*
X153573615Y-38827790D01*
X153478443Y-39005845D01*
X153419829Y-39199067D01*
X153405000Y-39349642D01*
X153405000Y-39775000D01*
X154055000Y-39775000D01*
X154055000Y-40525000D01*
X153405000Y-40525000D01*
X153405000Y-40950357D01*
X153419829Y-41100932D01*
X153478443Y-41294154D01*
X153573615Y-41472209D01*
X153573620Y-41472215D01*
X153701707Y-41628292D01*
X153857784Y-41756379D01*
X153857790Y-41756383D01*
X154035846Y-41851556D01*
X154035849Y-41851557D01*
X154055000Y-41857366D01*
X154055000Y-40631073D01*
X154070414Y-40723446D01*
X154129981Y-40833514D01*
X154222059Y-40918278D01*
X154336670Y-40968551D01*
X154461395Y-40978886D01*
X154582719Y-40948163D01*
X154687492Y-40879711D01*
X154764363Y-40780948D01*
X154805000Y-40662576D01*
X154805000Y-41857366D01*
X154824150Y-41851557D01*
X154824153Y-41851556D01*
X155002209Y-41756383D01*
X155002215Y-41756379D01*
X155158292Y-41628292D01*
X155286379Y-41472215D01*
X155286384Y-41472209D01*
X155381556Y-41294154D01*
X155440170Y-41100932D01*
X155455000Y-40950357D01*
X155455000Y-40525000D01*
X154805000Y-40525000D01*
X154805000Y-39775000D01*
X155455000Y-39775000D01*
X155455000Y-39349642D01*
X155440170Y-39199067D01*
X155381556Y-39005845D01*
X155286384Y-38827790D01*
X155286379Y-38827784D01*
X155158292Y-38671707D01*
X155034791Y-38570354D01*
X154995456Y-38512608D01*
X154993585Y-38442763D01*
X155029772Y-38382995D01*
X155092528Y-38352279D01*
X155113455Y-38350500D01*
X162386545Y-38350500D01*
X162453584Y-38370185D01*
X162499339Y-38422989D01*
X162509283Y-38492147D01*
X162480258Y-38555703D01*
X162465209Y-38570354D01*
X162341707Y-38671707D01*
X162213620Y-38827784D01*
X162213615Y-38827790D01*
X162118443Y-39005845D01*
X162059829Y-39199067D01*
X162045000Y-39349642D01*
X162045000Y-39775000D01*
X162695000Y-39775000D01*
X162695000Y-40525000D01*
X162045000Y-40525000D01*
X162045000Y-40950357D01*
X162059829Y-41100932D01*
X162118443Y-41294154D01*
X162213615Y-41472209D01*
X162213620Y-41472215D01*
X162341707Y-41628292D01*
X162497784Y-41756379D01*
X162497790Y-41756383D01*
X162675846Y-41851556D01*
X162675849Y-41851557D01*
X162695000Y-41857366D01*
X162695000Y-40631073D01*
X162710414Y-40723446D01*
X162769981Y-40833514D01*
X162862059Y-40918278D01*
X162976670Y-40968551D01*
X163101395Y-40978886D01*
X163222719Y-40948163D01*
X163327492Y-40879711D01*
X163404363Y-40780948D01*
X163445000Y-40662576D01*
X163445000Y-41857366D01*
X163464150Y-41851557D01*
X163464153Y-41851556D01*
X163642209Y-41756383D01*
X163642215Y-41756379D01*
X163798292Y-41628292D01*
X163926379Y-41472215D01*
X163926384Y-41472209D01*
X164021556Y-41294154D01*
X164080170Y-41100932D01*
X164095000Y-40950357D01*
X164095000Y-40525000D01*
X163445000Y-40525000D01*
X163445000Y-39775000D01*
X164095000Y-39775000D01*
X164095000Y-39349642D01*
X164080170Y-39199067D01*
X164021556Y-39005845D01*
X163926384Y-38827790D01*
X163926379Y-38827784D01*
X163798292Y-38671707D01*
X163674791Y-38570354D01*
X163635456Y-38512608D01*
X163633585Y-38442763D01*
X163669772Y-38382995D01*
X163732528Y-38352279D01*
X163753455Y-38350500D01*
X165876000Y-38350500D01*
X165943039Y-38370185D01*
X165988794Y-38422989D01*
X166000000Y-38474500D01*
X166000000Y-43255008D01*
X165980315Y-43322047D01*
X165946177Y-43357239D01*
X165769668Y-43478404D01*
X165546812Y-43679966D01*
X165352808Y-43909436D01*
X165352806Y-43909438D01*
X165191116Y-44162722D01*
X165064636Y-44435281D01*
X165064632Y-44435290D01*
X165036434Y-44526191D01*
X164975604Y-44722285D01*
X164938466Y-44942456D01*
X164925624Y-45018592D01*
X164917678Y-45256270D01*
X164915583Y-45318917D01*
X164945660Y-45617892D01*
X164945661Y-45617899D01*
X165015318Y-45910191D01*
X165015321Y-45910203D01*
X165123316Y-46190603D01*
X165123323Y-46190618D01*
X165267729Y-46454125D01*
X165267733Y-46454131D01*
X165340345Y-46552680D01*
X165445973Y-46696040D01*
X165596653Y-46851842D01*
X165654870Y-46912038D01*
X165654877Y-46912044D01*
X165890690Y-47098264D01*
X165890693Y-47098266D01*
X165890696Y-47098268D01*
X165939194Y-47126993D01*
X165986841Y-47178091D01*
X166000000Y-47233681D01*
X166000000Y-51626000D01*
X165980315Y-51693039D01*
X165927511Y-51738794D01*
X165876000Y-51750000D01*
X159824000Y-51750000D01*
X159756961Y-51730315D01*
X159711206Y-51677511D01*
X159700000Y-51626000D01*
X159700000Y-51354500D01*
X159719685Y-51287461D01*
X159772489Y-51241706D01*
X159824000Y-51230500D01*
X159918276Y-51230500D01*
X159949549Y-51227567D01*
X159949551Y-51227567D01*
X160033399Y-51198226D01*
X160081289Y-51181469D01*
X160193589Y-51098589D01*
X160276469Y-50986289D01*
X160316178Y-50872808D01*
X160322567Y-50854551D01*
X160322567Y-50854549D01*
X160325500Y-50823276D01*
X160325500Y-49476723D01*
X160322567Y-49445450D01*
X160322567Y-49445448D01*
X160276470Y-49313714D01*
X160276469Y-49313711D01*
X160276465Y-49313705D01*
X160193591Y-49201413D01*
X160193584Y-49201406D01*
X160175865Y-49188329D01*
X160133615Y-49132681D01*
X160125500Y-49088560D01*
X160125500Y-47168378D01*
X160125495Y-47168262D01*
X160125495Y-47154425D01*
X160125496Y-47134275D01*
X160102709Y-46990391D01*
X160057695Y-46851844D01*
X160057694Y-46851842D01*
X160057690Y-46851833D01*
X159991570Y-46722061D01*
X159991558Y-46722041D01*
X159972665Y-46696037D01*
X159905935Y-46604189D01*
X159883495Y-46581749D01*
X159883480Y-46581732D01*
X159878108Y-46576360D01*
X159851330Y-46549582D01*
X159811173Y-46509423D01*
X159811172Y-46509422D01*
X159805803Y-46504053D01*
X159805788Y-46504040D01*
X159636819Y-46335071D01*
X159603334Y-46273748D01*
X159600500Y-46247387D01*
X159600500Y-46241035D01*
X159600501Y-46206721D01*
X159600500Y-46206717D01*
X159600500Y-45349225D01*
X159620185Y-45282186D01*
X159672989Y-45236431D01*
X159742147Y-45226487D01*
X159791539Y-45244909D01*
X159809216Y-45256270D01*
X159814949Y-45259954D01*
X159922107Y-45291417D01*
X159943547Y-45297713D01*
X159953036Y-45300499D01*
X159953038Y-45300500D01*
X159953039Y-45300500D01*
X160096962Y-45300500D01*
X160096962Y-45300499D01*
X160235053Y-45259953D01*
X160356128Y-45182143D01*
X160356285Y-45181961D01*
X160356486Y-45181832D01*
X160362828Y-45176337D01*
X160363617Y-45177248D01*
X160415059Y-45144186D01*
X160484929Y-45144182D01*
X160536384Y-45177246D01*
X160537172Y-45176337D01*
X160543492Y-45181813D01*
X160543705Y-45181950D01*
X160543872Y-45182143D01*
X160543873Y-45182144D01*
X160546005Y-45183514D01*
X160664947Y-45259953D01*
X160664950Y-45259954D01*
X160664949Y-45259954D01*
X160772107Y-45291417D01*
X160793547Y-45297713D01*
X160803036Y-45300499D01*
X160803038Y-45300500D01*
X160803039Y-45300500D01*
X160946962Y-45300500D01*
X160946962Y-45300499D01*
X161085053Y-45259953D01*
X161206128Y-45182143D01*
X161300377Y-45073373D01*
X161360165Y-44942457D01*
X161376318Y-44830103D01*
X161379085Y-44824044D01*
X161496233Y-44824044D01*
X161525791Y-44915013D01*
X161589794Y-44986096D01*
X161677175Y-45025000D01*
X161748650Y-45025000D01*
X161818560Y-45010140D01*
X161895943Y-44953918D01*
X161943769Y-44871082D01*
X161953767Y-44775956D01*
X161924209Y-44684987D01*
X161860206Y-44613904D01*
X161772825Y-44575000D01*
X161701350Y-44575000D01*
X161631440Y-44589860D01*
X161554057Y-44646082D01*
X161506231Y-44728918D01*
X161496233Y-44824044D01*
X161379085Y-44824044D01*
X161405342Y-44766549D01*
X161411375Y-44760070D01*
X161637318Y-44534127D01*
X161698641Y-44500642D01*
X161768333Y-44505626D01*
X161812680Y-44534127D01*
X161990871Y-44712318D01*
X162024356Y-44773641D01*
X162019372Y-44843333D01*
X161990871Y-44887680D01*
X161325833Y-45552718D01*
X161325833Y-45552719D01*
X161460884Y-45612849D01*
X161460889Y-45612851D01*
X161635661Y-45650000D01*
X161814336Y-45650000D01*
X161848988Y-45642634D01*
X161918655Y-45647949D01*
X161974390Y-45690085D01*
X161985771Y-45708652D01*
X162066715Y-45871208D01*
X162197945Y-46044985D01*
X162358868Y-46191685D01*
X162544016Y-46306323D01*
X162695000Y-46364814D01*
X162695000Y-44981073D01*
X162710414Y-45073446D01*
X162769981Y-45183514D01*
X162862059Y-45268278D01*
X162976670Y-45318551D01*
X163101395Y-45328886D01*
X163222719Y-45298163D01*
X163327492Y-45229711D01*
X163404363Y-45130948D01*
X163445000Y-45012576D01*
X163445000Y-46364814D01*
X163595983Y-46306323D01*
X163595984Y-46306323D01*
X163781130Y-46191685D01*
X163781131Y-46191685D01*
X163942054Y-46044985D01*
X164073284Y-45871208D01*
X164170344Y-45676287D01*
X164170349Y-45676274D01*
X164229942Y-45466830D01*
X164245000Y-45304322D01*
X164245000Y-44675000D01*
X163445000Y-44675000D01*
X163445000Y-43925000D01*
X164245000Y-43925000D01*
X164245000Y-43295677D01*
X164229942Y-43133169D01*
X164170349Y-42923725D01*
X164170344Y-42923712D01*
X164073284Y-42728791D01*
X163942054Y-42555014D01*
X163781131Y-42408314D01*
X163595987Y-42293678D01*
X163445000Y-42235183D01*
X163445000Y-43618927D01*
X163429586Y-43526554D01*
X163370019Y-43416486D01*
X163277941Y-43331722D01*
X163163330Y-43281449D01*
X163038605Y-43271114D01*
X162917281Y-43301837D01*
X162812508Y-43370289D01*
X162735637Y-43469052D01*
X162695000Y-43587424D01*
X162695000Y-42235183D01*
X162544012Y-42293678D01*
X162358869Y-42408314D01*
X162358868Y-42408314D01*
X162197945Y-42555014D01*
X162158357Y-42607437D01*
X162102247Y-42649073D01*
X162032535Y-42653764D01*
X162008967Y-42645989D01*
X161989115Y-42637150D01*
X161989110Y-42637148D01*
X161814339Y-42600000D01*
X161635661Y-42600000D01*
X161460889Y-42637148D01*
X161460884Y-42637150D01*
X161368899Y-42678104D01*
X161299649Y-42687388D01*
X161236373Y-42657759D01*
X161207980Y-42621119D01*
X161115578Y-42439771D01*
X161092723Y-42408314D01*
X160981379Y-42255063D01*
X160819937Y-42093621D01*
X160635228Y-41959421D01*
X160431803Y-41855770D01*
X160214660Y-41785215D01*
X159989162Y-41749500D01*
X159989157Y-41749500D01*
X159942902Y-41749500D01*
X157684309Y-41749500D01*
X157625000Y-41749500D01*
X157510843Y-41749500D01*
X157510838Y-41749500D01*
X157285339Y-41785215D01*
X157068196Y-41855770D01*
X156864771Y-41959421D01*
X156680061Y-42093622D01*
X156518622Y-42255061D01*
X156384421Y-42439771D01*
X156292019Y-42621120D01*
X156244044Y-42671916D01*
X156176223Y-42688711D01*
X156131098Y-42678104D01*
X156039115Y-42637150D01*
X156039110Y-42637148D01*
X155864339Y-42600000D01*
X155685661Y-42600000D01*
X155510891Y-42637148D01*
X155491029Y-42645991D01*
X155421779Y-42655274D01*
X155358503Y-42625644D01*
X155341641Y-42607436D01*
X155302054Y-42555013D01*
X155141131Y-42408314D01*
X154955987Y-42293678D01*
X154805000Y-42235183D01*
X154805000Y-43618927D01*
X154789586Y-43526554D01*
X154730019Y-43416486D01*
X154637941Y-43331722D01*
X154523330Y-43281449D01*
X154398605Y-43271114D01*
X154277281Y-43301837D01*
X154172508Y-43370289D01*
X154095637Y-43469052D01*
X154055000Y-43587424D01*
X154055000Y-42235183D01*
X153904012Y-42293678D01*
X153718869Y-42408314D01*
X153718868Y-42408314D01*
X153557945Y-42555014D01*
X153426715Y-42728791D01*
X153329655Y-42923712D01*
X153329650Y-42923725D01*
X153270057Y-43133169D01*
X153255000Y-43295677D01*
X153255000Y-43925000D01*
X154055000Y-43925000D01*
X154055000Y-44675000D01*
X153255000Y-44675000D01*
X153255000Y-45304322D01*
X153270057Y-45466830D01*
X153329650Y-45676274D01*
X153329655Y-45676287D01*
X153426715Y-45871208D01*
X153557943Y-46044983D01*
X153582619Y-46067478D01*
X153618900Y-46127189D01*
X153617139Y-46197037D01*
X153577895Y-46254844D01*
X153537399Y-46277046D01*
X153318196Y-46348270D01*
X153114771Y-46451921D01*
X152930061Y-46586122D01*
X152768622Y-46747561D01*
X152634421Y-46932271D01*
X152530771Y-47135695D01*
X152482365Y-47284670D01*
X152442926Y-47342344D01*
X152409925Y-47361704D01*
X152321343Y-47396637D01*
X152321339Y-47396639D01*
X152203499Y-47485999D01*
X152114139Y-47603839D01*
X152059882Y-47741424D01*
X152059882Y-47741425D01*
X152049500Y-47827881D01*
X152049500Y-48387118D01*
X152059882Y-48473574D01*
X152059882Y-48473575D01*
X152059883Y-48473577D01*
X152113418Y-48609333D01*
X152114139Y-48611160D01*
X152203499Y-48729000D01*
X152321339Y-48818360D01*
X152321342Y-48818362D01*
X152458923Y-48872617D01*
X152516562Y-48879539D01*
X152545381Y-48883000D01*
X152545382Y-48883000D01*
X153204619Y-48883000D01*
X153226232Y-48880404D01*
X153291077Y-48872617D01*
X153428658Y-48818362D01*
X153546500Y-48729000D01*
X153635862Y-48611158D01*
X153635864Y-48611152D01*
X153640018Y-48603766D01*
X153641952Y-48604853D01*
X153677547Y-48559101D01*
X153743454Y-48535905D01*
X153811439Y-48552023D01*
X153859918Y-48602338D01*
X153863112Y-48609333D01*
X153864139Y-48611160D01*
X153953499Y-48729000D01*
X154071339Y-48818360D01*
X154071342Y-48818362D01*
X154208923Y-48872617D01*
X154266562Y-48879539D01*
X154295381Y-48883000D01*
X154295382Y-48883000D01*
X154954619Y-48883000D01*
X154976232Y-48880404D01*
X155041077Y-48872617D01*
X155178658Y-48818362D01*
X155296500Y-48729000D01*
X155344863Y-48665223D01*
X155401053Y-48623701D01*
X155470774Y-48619148D01*
X155531889Y-48653013D01*
X155542470Y-48665224D01*
X155607077Y-48750422D01*
X155727656Y-48841860D01*
X155727657Y-48841860D01*
X155727658Y-48841861D01*
X155868436Y-48897377D01*
X155956898Y-48908000D01*
X155956903Y-48908000D01*
X156543097Y-48908000D01*
X156543102Y-48908000D01*
X156631564Y-48897377D01*
X156772342Y-48841861D01*
X156892922Y-48750422D01*
X156984361Y-48629842D01*
X157039877Y-48489064D01*
X157050500Y-48400602D01*
X157050500Y-47814398D01*
X157039877Y-47725936D01*
X156984361Y-47585158D01*
X156984360Y-47585157D01*
X156984360Y-47585156D01*
X156892922Y-47464577D01*
X156772343Y-47373139D01*
X156631561Y-47317622D01*
X156585926Y-47312142D01*
X156543102Y-47307000D01*
X156133556Y-47307000D01*
X156066517Y-47287315D01*
X156020762Y-47234511D01*
X156010818Y-47165353D01*
X156039843Y-47101797D01*
X156097241Y-47064437D01*
X156112207Y-47059852D01*
X156152306Y-47047571D01*
X156346690Y-46954874D01*
X156525308Y-46834569D01*
X156684267Y-46689278D01*
X156820104Y-46522168D01*
X156929858Y-46336879D01*
X157011137Y-46137452D01*
X157062170Y-45928231D01*
X157066562Y-45880771D01*
X157071544Y-45855648D01*
X157073978Y-45847757D01*
X157073978Y-45806154D01*
X157074496Y-45794828D01*
X157074740Y-45792158D01*
X157077512Y-45761950D01*
X157075772Y-45751830D01*
X157073978Y-45730816D01*
X157073978Y-45364313D01*
X157093663Y-45297274D01*
X157146467Y-45251519D01*
X157215625Y-45241575D01*
X157256610Y-45256863D01*
X157256882Y-45256270D01*
X157264949Y-45259954D01*
X157372107Y-45291417D01*
X157393547Y-45297713D01*
X157403036Y-45300499D01*
X157403038Y-45300500D01*
X157403039Y-45300500D01*
X157546962Y-45300500D01*
X157546962Y-45300499D01*
X157685050Y-45259954D01*
X157685051Y-45259954D01*
X157690784Y-45256270D01*
X157708460Y-45244909D01*
X157775499Y-45225225D01*
X157842539Y-45244909D01*
X157888294Y-45297713D01*
X157899500Y-45349225D01*
X157899500Y-46199110D01*
X157899499Y-46199128D01*
X157899499Y-46247389D01*
X157879814Y-46314428D01*
X157863180Y-46335070D01*
X157691952Y-46506298D01*
X157691922Y-46506326D01*
X157678296Y-46519953D01*
X157678284Y-46519959D01*
X157594063Y-46604182D01*
X157508435Y-46722040D01*
X157442298Y-46851847D01*
X157397286Y-46990388D01*
X157374499Y-47134273D01*
X157374500Y-47173619D01*
X157374500Y-49088560D01*
X157354815Y-49155599D01*
X157324135Y-49188329D01*
X157306415Y-49201406D01*
X157306408Y-49201413D01*
X157223534Y-49313705D01*
X157223529Y-49313714D01*
X157177432Y-49445448D01*
X157177432Y-49445450D01*
X157174500Y-49476723D01*
X157174500Y-50823276D01*
X157177432Y-50854549D01*
X157177432Y-50854550D01*
X157183821Y-50872808D01*
X157187382Y-50942587D01*
X157152652Y-51003214D01*
X157090658Y-51035440D01*
X157066825Y-51037761D01*
X157040401Y-51037770D01*
X157040388Y-51037771D01*
X156723690Y-51072234D01*
X156723679Y-51072235D01*
X156723677Y-51072236D01*
X156723673Y-51072236D01*
X156723672Y-51072237D01*
X156412493Y-51140550D01*
X156110473Y-51241917D01*
X156110468Y-51241919D01*
X155821078Y-51375174D01*
X155547696Y-51538766D01*
X155301236Y-51724943D01*
X155235878Y-51749644D01*
X155226494Y-51750000D01*
X151624000Y-51750000D01*
X151556961Y-51730315D01*
X151511206Y-51677511D01*
X151500000Y-51626000D01*
X151500000Y-38474500D01*
X151519685Y-38407461D01*
X151572489Y-38361706D01*
X151624000Y-38350500D01*
X153746545Y-38350500D01*
X153813584Y-38370185D01*
G37*
G04 #@! TD.AperFunction*
G04 #@! TA.AperFunction,Conductor*
G36*
X146246968Y-61461779D02*
G01*
X146236611Y-61639608D01*
X146267543Y-61815032D01*
X146280470Y-61845000D01*
X145341820Y-61845000D01*
X145376782Y-61728221D01*
X145387139Y-61550392D01*
X145356207Y-61374968D01*
X145343280Y-61345000D01*
X146281930Y-61345000D01*
X146246968Y-61461779D01*
G37*
G04 #@! TD.AperFunction*
G04 #@! TA.AperFunction,Conductor*
G36*
X148628218Y-61461779D02*
G01*
X148617861Y-61639608D01*
X148648793Y-61815032D01*
X148661720Y-61845000D01*
X147723070Y-61845000D01*
X147758032Y-61728221D01*
X147768389Y-61550392D01*
X147737457Y-61374968D01*
X147724530Y-61345000D01*
X148663180Y-61345000D01*
X148628218Y-61461779D01*
G37*
G04 #@! TD.AperFunction*
G04 #@! TA.AperFunction,Conductor*
G36*
X150937539Y-38370185D02*
G01*
X150983294Y-38422989D01*
X150994500Y-38474500D01*
X150994500Y-45280954D01*
X150994500Y-48351176D01*
X150994500Y-51626000D01*
X150994501Y-51626009D01*
X151006052Y-51733450D01*
X151006054Y-51733462D01*
X151017260Y-51784972D01*
X151051383Y-51887497D01*
X151051386Y-51887503D01*
X151129171Y-52008537D01*
X151129179Y-52008548D01*
X151174923Y-52061340D01*
X151174926Y-52061343D01*
X151174930Y-52061347D01*
X151283664Y-52155567D01*
X151283667Y-52155568D01*
X151283668Y-52155569D01*
X151405403Y-52211165D01*
X151414541Y-52215338D01*
X151481580Y-52235023D01*
X151481584Y-52235024D01*
X151624000Y-52255500D01*
X154346144Y-52255500D01*
X154413183Y-52275185D01*
X154458938Y-52327989D01*
X154468882Y-52397147D01*
X154455378Y-52438185D01*
X154341961Y-52649291D01*
X154341957Y-52649300D01*
X154214121Y-52964518D01*
X154214120Y-52964521D01*
X154120912Y-53291650D01*
X154063412Y-53626909D01*
X154063411Y-53626917D01*
X154057437Y-53723407D01*
X154053779Y-53746578D01*
X154051647Y-53754881D01*
X154051646Y-53754890D01*
X154051646Y-53812988D01*
X154051407Y-53820688D01*
X154048350Y-53869814D01*
X154048350Y-53869821D01*
X154050017Y-53880000D01*
X154051646Y-53900032D01*
X154051646Y-54476694D01*
X154031961Y-54543733D01*
X154019796Y-54559666D01*
X153967466Y-54617784D01*
X153872821Y-54781715D01*
X153872818Y-54781722D01*
X153819554Y-54945653D01*
X153814326Y-54961744D01*
X153794540Y-55150000D01*
X153814326Y-55338256D01*
X153814327Y-55338259D01*
X153872818Y-55518277D01*
X153872821Y-55518284D01*
X153967466Y-55682215D01*
X154017649Y-55737948D01*
X154047880Y-55800940D01*
X154049500Y-55820921D01*
X154049500Y-58221242D01*
X154049467Y-58297602D01*
X154079851Y-58520011D01*
X154079852Y-58520016D01*
X154140067Y-58736270D01*
X154219332Y-58919968D01*
X154227818Y-58989321D01*
X154197463Y-59052251D01*
X154182036Y-59062311D01*
X154178937Y-59075384D01*
X155015871Y-59912318D01*
X155049356Y-59973641D01*
X155044372Y-60043333D01*
X155015871Y-60087680D01*
X154178937Y-60924614D01*
X154299847Y-60964680D01*
X154299855Y-60964681D01*
X154323519Y-60967099D01*
X154388211Y-60993494D01*
X154428363Y-61050674D01*
X154431227Y-61120485D01*
X154416458Y-61155551D01*
X154399500Y-61183046D01*
X154347554Y-61229772D01*
X154293960Y-61241952D01*
X153653537Y-61241952D01*
X153634537Y-61240488D01*
X153452942Y-61212330D01*
X153433862Y-61207802D01*
X153247990Y-61147823D01*
X153229863Y-61140345D01*
X153055763Y-61051811D01*
X153039041Y-61041568D01*
X152881074Y-60926694D01*
X152866176Y-60913942D01*
X152728299Y-60775606D01*
X152715603Y-60760673D01*
X152601248Y-60602317D01*
X152591066Y-60585567D01*
X152553184Y-60510458D01*
X152503107Y-60411170D01*
X152495695Y-60393033D01*
X152461753Y-60286639D01*
X153712500Y-60286639D01*
X153712501Y-60286655D01*
X153722819Y-60387653D01*
X153777045Y-60551300D01*
X153777046Y-60551303D01*
X153803024Y-60593420D01*
X153803025Y-60593420D01*
X154396447Y-60000000D01*
X154396447Y-59999999D01*
X153803025Y-59406577D01*
X153803024Y-59406577D01*
X153777047Y-59448695D01*
X153777045Y-59448700D01*
X153722819Y-59612346D01*
X153712500Y-59713345D01*
X153712500Y-60286639D01*
X152461753Y-60286639D01*
X152436330Y-60206948D01*
X152431866Y-60187854D01*
X152427762Y-60160793D01*
X152437172Y-60091560D01*
X152458210Y-60059229D01*
X152482533Y-60032216D01*
X152577179Y-59868284D01*
X152635674Y-59688256D01*
X152655460Y-59500000D01*
X152635674Y-59311744D01*
X152577179Y-59131716D01*
X152482533Y-58967784D01*
X152355871Y-58827112D01*
X152343734Y-58818294D01*
X152202734Y-58715851D01*
X152202729Y-58715848D01*
X152029807Y-58638857D01*
X152029802Y-58638855D01*
X151884001Y-58607865D01*
X151844646Y-58599500D01*
X151655354Y-58599500D01*
X151622897Y-58606398D01*
X151470197Y-58638855D01*
X151470192Y-58638857D01*
X151297270Y-58715848D01*
X151297265Y-58715851D01*
X151144129Y-58827111D01*
X151017466Y-58967785D01*
X150922821Y-59131715D01*
X150922818Y-59131722D01*
X150876277Y-59274962D01*
X150864326Y-59311744D01*
X150844540Y-59500000D01*
X150864326Y-59688256D01*
X150864327Y-59688259D01*
X150922818Y-59868277D01*
X150922821Y-59868284D01*
X151017466Y-60032215D01*
X151078758Y-60100287D01*
X151108988Y-60163279D01*
X151110295Y-60174455D01*
X151113774Y-60223342D01*
X151113778Y-60223371D01*
X151166300Y-60510447D01*
X151166302Y-60510455D01*
X151166303Y-60510458D01*
X151249919Y-60790100D01*
X151278216Y-60857001D01*
X151363618Y-61058915D01*
X151506040Y-61313684D01*
X151506041Y-61313686D01*
X151675469Y-61551342D01*
X151675475Y-61551350D01*
X151856496Y-61754059D01*
X151869887Y-61769054D01*
X152086944Y-61964188D01*
X152324043Y-62134410D01*
X152578337Y-62277677D01*
X152689190Y-62324999D01*
X152846768Y-62392268D01*
X152846782Y-62392273D01*
X152895063Y-62406884D01*
X153126138Y-62476815D01*
X153413071Y-62530297D01*
X153490295Y-62536049D01*
X153511913Y-62539601D01*
X153524962Y-62542952D01*
X153578213Y-62542952D01*
X153587465Y-62543298D01*
X153631692Y-62546607D01*
X153631695Y-62546607D01*
X153646731Y-62544339D01*
X153665227Y-62542952D01*
X154290817Y-62542952D01*
X154357856Y-62562637D01*
X154396355Y-62601854D01*
X154419646Y-62639615D01*
X154429661Y-62655851D01*
X154443982Y-62670172D01*
X154477467Y-62731495D01*
X154472483Y-62801187D01*
X154443985Y-62845532D01*
X154430052Y-62859465D01*
X154339551Y-63006188D01*
X154339546Y-63006199D01*
X154285319Y-63169847D01*
X154275000Y-63270845D01*
X154275000Y-63370000D01*
X156224999Y-63370000D01*
X156224999Y-63270860D01*
X156224998Y-63270845D01*
X156214680Y-63169847D01*
X156160453Y-63006199D01*
X156160448Y-63006188D01*
X156069947Y-62859465D01*
X156069944Y-62859461D01*
X156056017Y-62845534D01*
X156022532Y-62784211D01*
X156027516Y-62714519D01*
X156056017Y-62670172D01*
X156070340Y-62655850D01*
X156102072Y-62604404D01*
X156154020Y-62557679D01*
X156207611Y-62545500D01*
X156227649Y-62545500D01*
X156294688Y-62565185D01*
X156340443Y-62617989D01*
X156350939Y-62656248D01*
X156355908Y-62702483D01*
X156406202Y-62837328D01*
X156406206Y-62837335D01*
X156492452Y-62952544D01*
X156492455Y-62952547D01*
X156607664Y-63038793D01*
X156607671Y-63038797D01*
X156652618Y-63055561D01*
X156742517Y-63089091D01*
X156802127Y-63095500D01*
X157197872Y-63095499D01*
X157197873Y-63095498D01*
X157197885Y-63095498D01*
X157236744Y-63091320D01*
X157263252Y-63091320D01*
X157302127Y-63095500D01*
X157697872Y-63095499D01*
X157757483Y-63089091D01*
X157765028Y-63087308D01*
X157765651Y-63089945D01*
X157810245Y-63084853D01*
X157849999Y-63090086D01*
X157866794Y-63075357D01*
X157869685Y-63065515D01*
X157899686Y-63033289D01*
X157925689Y-63013823D01*
X157991152Y-62989406D01*
X158059425Y-63004257D01*
X158074305Y-63013820D01*
X158100312Y-63033289D01*
X158129125Y-63071780D01*
X158149999Y-63090086D01*
X158189752Y-63084853D01*
X158234342Y-63089926D01*
X158234962Y-63087306D01*
X158242511Y-63089089D01*
X158242517Y-63089091D01*
X158302127Y-63095500D01*
X158697872Y-63095499D01*
X158697873Y-63095498D01*
X158697885Y-63095498D01*
X158736744Y-63091320D01*
X158763252Y-63091320D01*
X158802127Y-63095500D01*
X159197872Y-63095499D01*
X159257483Y-63089091D01*
X159392331Y-63038796D01*
X159507546Y-62952546D01*
X159593796Y-62837331D01*
X159644091Y-62702483D01*
X159650500Y-62642873D01*
X159650500Y-62642845D01*
X159650678Y-62639548D01*
X159651934Y-62639615D01*
X159670185Y-62577461D01*
X159722989Y-62531706D01*
X159774500Y-62520500D01*
X161035812Y-62520500D01*
X161102851Y-62540185D01*
X161137387Y-62573377D01*
X161249954Y-62734141D01*
X161410858Y-62895045D01*
X161410861Y-62895047D01*
X161597266Y-63025568D01*
X161803504Y-63121739D01*
X161803509Y-63121740D01*
X161803511Y-63121741D01*
X161856415Y-63135916D01*
X162023308Y-63180635D01*
X162177031Y-63194084D01*
X162249998Y-63200468D01*
X162250000Y-63200468D01*
X162250002Y-63200468D01*
X162322969Y-63194084D01*
X162476692Y-63180635D01*
X162696496Y-63121739D01*
X162902734Y-63025568D01*
X163089139Y-62895047D01*
X163250047Y-62734139D01*
X163380568Y-62547734D01*
X163476739Y-62341496D01*
X163535635Y-62121692D01*
X163555468Y-61895000D01*
X163551873Y-61853914D01*
X163542782Y-61750000D01*
X163535635Y-61668308D01*
X163476739Y-61448504D01*
X163380568Y-61242266D01*
X163252188Y-61058918D01*
X163250045Y-61055858D01*
X163089141Y-60894954D01*
X162902734Y-60764432D01*
X162902732Y-60764431D01*
X162696497Y-60668261D01*
X162696488Y-60668258D01*
X162476697Y-60609366D01*
X162476693Y-60609365D01*
X162476692Y-60609365D01*
X162476691Y-60609364D01*
X162476686Y-60609364D01*
X162250002Y-60589532D01*
X162249998Y-60589532D01*
X162023313Y-60609364D01*
X162023302Y-60609366D01*
X161803511Y-60668258D01*
X161803502Y-60668261D01*
X161597267Y-60764431D01*
X161597265Y-60764432D01*
X161410858Y-60894954D01*
X161249954Y-61055858D01*
X161137387Y-61216623D01*
X161082811Y-61260248D01*
X161035812Y-61269500D01*
X159774499Y-61269500D01*
X159707460Y-61249815D01*
X159661705Y-61197011D01*
X159651562Y-61150388D01*
X159650995Y-61150418D01*
X159650855Y-61150434D01*
X159650854Y-61150426D01*
X159650676Y-61150436D01*
X159650498Y-61147117D01*
X159649057Y-61133714D01*
X159651773Y-61091507D01*
X159666025Y-61032147D01*
X159672037Y-61013644D01*
X159687837Y-60975499D01*
X159717085Y-60904888D01*
X159725908Y-60887572D01*
X159787422Y-60787190D01*
X159798846Y-60771467D01*
X159878518Y-60678183D01*
X159885111Y-60671052D01*
X159935338Y-60620825D01*
X161584334Y-58971829D01*
X161584337Y-58971824D01*
X161586790Y-58969372D01*
X161587462Y-58968654D01*
X161660739Y-58895382D01*
X161844603Y-58664833D01*
X162001496Y-58415148D01*
X162129448Y-58149466D01*
X162226849Y-57871129D01*
X162292473Y-57583636D01*
X162322812Y-57314428D01*
X162325497Y-57290606D01*
X162325497Y-57257247D01*
X162325497Y-57232166D01*
X162325500Y-57232147D01*
X162325500Y-57124275D01*
X162325502Y-57067211D01*
X162325500Y-57067206D01*
X162325501Y-57060448D01*
X162325500Y-57060410D01*
X162325500Y-56735406D01*
X162325480Y-56734785D01*
X162325480Y-56713758D01*
X162325482Y-56630991D01*
X162292469Y-56337955D01*
X162226853Y-56050459D01*
X162153809Y-55841702D01*
X162129462Y-55772119D01*
X162129461Y-55772118D01*
X162129457Y-55772110D01*
X162001516Y-55506429D01*
X161844628Y-55256738D01*
X161794821Y-55194281D01*
X161660770Y-55026182D01*
X161642937Y-55008349D01*
X161619450Y-54984861D01*
X161619447Y-54984857D01*
X161540188Y-54905598D01*
X161498490Y-54863898D01*
X161498467Y-54863877D01*
X160730961Y-54096370D01*
X160725413Y-54090447D01*
X160614901Y-53964429D01*
X160605028Y-53951562D01*
X160600859Y-53945322D01*
X160514166Y-53815574D01*
X160506064Y-53801540D01*
X160495367Y-53779848D01*
X160483373Y-53711019D01*
X160488196Y-53688118D01*
X160519430Y-53587887D01*
X160525500Y-53521091D01*
X160525499Y-52379499D01*
X160545184Y-52312461D01*
X160597987Y-52266706D01*
X160649499Y-52255500D01*
X165875990Y-52255500D01*
X165876000Y-52255500D01*
X165983456Y-52243947D01*
X166034967Y-52232741D01*
X166069197Y-52221347D01*
X166137497Y-52198616D01*
X166137501Y-52198613D01*
X166137504Y-52198613D01*
X166258543Y-52120825D01*
X166311347Y-52075070D01*
X166315740Y-52070000D01*
X176303648Y-52070000D01*
X176324024Y-52328912D01*
X176384651Y-52581445D01*
X176384656Y-52581462D01*
X176484040Y-52821397D01*
X176484042Y-52821400D01*
X176619742Y-53042842D01*
X176619743Y-53042843D01*
X176625551Y-53049644D01*
X177272424Y-52402771D01*
X177294347Y-52453593D01*
X177400718Y-52596476D01*
X177537174Y-52710975D01*
X177626477Y-52755824D01*
X176979104Y-53403197D01*
X176985907Y-53409007D01*
X177207349Y-53544707D01*
X177207352Y-53544709D01*
X177447287Y-53644093D01*
X177447304Y-53644098D01*
X177699838Y-53704725D01*
X177699837Y-53704725D01*
X177958750Y-53725101D01*
X178217662Y-53704725D01*
X178470195Y-53644098D01*
X178470212Y-53644093D01*
X178710147Y-53544709D01*
X178710150Y-53544707D01*
X178931594Y-53409005D01*
X178938394Y-53403197D01*
X178294057Y-52758860D01*
X178303063Y-52755583D01*
X178451888Y-52657699D01*
X178574128Y-52528132D01*
X178645981Y-52403678D01*
X179291947Y-53049644D01*
X179297755Y-53042844D01*
X179433457Y-52821400D01*
X179433459Y-52821397D01*
X179532843Y-52581462D01*
X179532848Y-52581445D01*
X179593475Y-52328912D01*
X179613851Y-52070000D01*
X179593475Y-51811087D01*
X179532848Y-51558554D01*
X179532843Y-51558537D01*
X179433459Y-51318602D01*
X179433457Y-51318599D01*
X179297757Y-51097157D01*
X179291947Y-51090354D01*
X178645074Y-51737226D01*
X178623153Y-51686407D01*
X178516782Y-51543524D01*
X178380326Y-51429025D01*
X178291022Y-51384174D01*
X178938395Y-50736801D01*
X178931593Y-50730993D01*
X178931592Y-50730992D01*
X178710150Y-50595292D01*
X178710147Y-50595290D01*
X178470212Y-50495906D01*
X178470195Y-50495901D01*
X178217661Y-50435274D01*
X178217662Y-50435274D01*
X177958750Y-50414898D01*
X177699837Y-50435274D01*
X177447304Y-50495901D01*
X177447287Y-50495906D01*
X177207352Y-50595290D01*
X177207349Y-50595292D01*
X176985905Y-50730993D01*
X176979103Y-50736800D01*
X177623442Y-51381139D01*
X177614437Y-51384417D01*
X177465612Y-51482301D01*
X177343372Y-51611868D01*
X177271518Y-51736321D01*
X176625550Y-51090353D01*
X176619743Y-51097155D01*
X176484042Y-51318599D01*
X176484040Y-51318602D01*
X176384656Y-51558537D01*
X176384651Y-51558554D01*
X176324024Y-51811087D01*
X176303648Y-52070000D01*
X166315740Y-52070000D01*
X166405567Y-51966336D01*
X166465338Y-51835459D01*
X166485023Y-51768420D01*
X166485024Y-51768416D01*
X166505500Y-51626000D01*
X166505500Y-47553054D01*
X166525185Y-47486015D01*
X166577989Y-47440260D01*
X166647147Y-47430316D01*
X166662252Y-47433458D01*
X166715696Y-47448098D01*
X167013505Y-47488150D01*
X167013510Y-47488150D01*
X167238791Y-47488150D01*
X167402263Y-47477206D01*
X167463569Y-47473102D01*
X167758037Y-47413249D01*
X168041901Y-47314681D01*
X168310093Y-47179157D01*
X168557830Y-47009096D01*
X168780689Y-46807532D01*
X168974693Y-46578062D01*
X169136381Y-46324782D01*
X169262868Y-46052210D01*
X169351896Y-45765212D01*
X169401876Y-45468908D01*
X169409404Y-45243755D01*
X179898306Y-45243755D01*
X179918060Y-45557754D01*
X179918061Y-45557761D01*
X179918062Y-45557765D01*
X179975650Y-45859655D01*
X179977020Y-45866833D01*
X180074247Y-46166066D01*
X180074249Y-46166071D01*
X180208211Y-46450753D01*
X180208214Y-46450759D01*
X180376801Y-46716411D01*
X180376804Y-46716415D01*
X180577356Y-46958840D01*
X180577358Y-46958842D01*
X180577360Y-46958844D01*
X180588363Y-46969176D01*
X180806718Y-47174226D01*
X180806728Y-47174234D01*
X181061254Y-47359158D01*
X181061259Y-47359160D01*
X181061266Y-47359166D01*
X181336984Y-47510744D01*
X181336989Y-47510746D01*
X181336991Y-47510747D01*
X181336992Y-47510748D01*
X181629521Y-47626568D01*
X181629524Y-47626569D01*
X181916170Y-47700167D01*
X181934277Y-47704816D01*
X181999760Y-47713088D01*
X182246420Y-47744249D01*
X182246429Y-47744249D01*
X182246432Y-47744250D01*
X182246434Y-47744250D01*
X182561066Y-47744250D01*
X182561068Y-47744250D01*
X182561071Y-47744249D01*
X182561079Y-47744249D01*
X182747343Y-47720718D01*
X182873223Y-47704816D01*
X183177975Y-47626569D01*
X183177978Y-47626568D01*
X183470507Y-47510748D01*
X183470508Y-47510747D01*
X183470506Y-47510747D01*
X183470516Y-47510744D01*
X183746234Y-47359166D01*
X184000780Y-47174228D01*
X184230140Y-46958844D01*
X184430697Y-46716413D01*
X184599287Y-46450757D01*
X184733253Y-46166065D01*
X184830481Y-45866829D01*
X184889438Y-45557765D01*
X184889439Y-45557754D01*
X184909194Y-45243755D01*
X184909194Y-45243744D01*
X184889439Y-44929745D01*
X184889438Y-44929738D01*
X184889438Y-44929735D01*
X184830481Y-44620671D01*
X184733253Y-44321435D01*
X184599287Y-44036743D01*
X184564164Y-43981398D01*
X184430698Y-43771088D01*
X184430695Y-43771084D01*
X184230143Y-43528659D01*
X184230141Y-43528657D01*
X184000781Y-43313273D01*
X184000771Y-43313265D01*
X183746245Y-43128341D01*
X183746238Y-43128336D01*
X183746234Y-43128334D01*
X183470516Y-42976756D01*
X183470513Y-42976754D01*
X183470508Y-42976752D01*
X183470507Y-42976751D01*
X183177978Y-42860931D01*
X183177975Y-42860930D01*
X182873226Y-42782684D01*
X182873213Y-42782682D01*
X182561079Y-42743250D01*
X182561068Y-42743250D01*
X182246432Y-42743250D01*
X182246420Y-42743250D01*
X181934286Y-42782682D01*
X181934273Y-42782684D01*
X181629524Y-42860930D01*
X181629521Y-42860931D01*
X181336992Y-42976751D01*
X181336991Y-42976752D01*
X181061266Y-43128334D01*
X181061254Y-43128341D01*
X180806728Y-43313265D01*
X180806718Y-43313273D01*
X180577358Y-43528657D01*
X180577356Y-43528659D01*
X180376804Y-43771084D01*
X180376801Y-43771088D01*
X180208214Y-44036740D01*
X180208211Y-44036746D01*
X180074249Y-44321428D01*
X180074247Y-44321433D01*
X179977020Y-44620666D01*
X179918061Y-44929738D01*
X179918060Y-44929745D01*
X179898306Y-45243744D01*
X179898306Y-45243755D01*
X169409404Y-45243755D01*
X169411917Y-45168586D01*
X169381839Y-44869605D01*
X169312180Y-44577301D01*
X169204181Y-44296890D01*
X169059771Y-44033375D01*
X168881527Y-43791460D01*
X168672629Y-43575461D01*
X168672622Y-43575455D01*
X168436805Y-43389233D01*
X168436806Y-43389233D01*
X168436804Y-43389232D01*
X168178263Y-43236098D01*
X167901617Y-43118790D01*
X167901610Y-43118787D01*
X167611809Y-43039403D01*
X167611806Y-43039402D01*
X167611804Y-43039402D01*
X167313995Y-42999350D01*
X167088717Y-42999350D01*
X167088709Y-42999350D01*
X166863933Y-43014397D01*
X166863924Y-43014399D01*
X166654199Y-43057027D01*
X166584582Y-43051090D01*
X166529226Y-43008458D01*
X166505707Y-42942666D01*
X166505500Y-42935512D01*
X166505500Y-38474500D01*
X166525185Y-38407461D01*
X166577989Y-38361706D01*
X166629500Y-38350500D01*
X186280830Y-38350500D01*
X186318908Y-38350500D01*
X186331061Y-38351097D01*
X186341635Y-38352138D01*
X186459069Y-38363704D01*
X186482897Y-38368443D01*
X186600140Y-38404008D01*
X186622589Y-38413308D01*
X186730630Y-38471057D01*
X186750840Y-38484561D01*
X186845535Y-38562274D01*
X186862725Y-38579464D01*
X186940438Y-38674159D01*
X186953942Y-38694369D01*
X187011690Y-38802407D01*
X187020993Y-38824865D01*
X187056554Y-38942093D01*
X187061296Y-38965935D01*
X187073903Y-39093938D01*
X187074500Y-39106092D01*
X187074500Y-75193907D01*
X187073903Y-75206061D01*
X187061296Y-75334064D01*
X187056554Y-75357906D01*
X187020993Y-75475134D01*
X187011690Y-75497592D01*
X186953942Y-75605630D01*
X186940438Y-75625840D01*
X186862725Y-75720535D01*
X186845535Y-75737725D01*
X186750840Y-75815438D01*
X186730630Y-75828942D01*
X186622592Y-75886690D01*
X186600134Y-75895993D01*
X186482906Y-75931554D01*
X186459064Y-75936296D01*
X186331062Y-75948903D01*
X186318908Y-75949500D01*
X131181092Y-75949500D01*
X131168938Y-75948903D01*
X131040935Y-75936296D01*
X131017095Y-75931554D01*
X130899864Y-75895992D01*
X130877407Y-75886690D01*
X130769369Y-75828942D01*
X130749159Y-75815438D01*
X130654464Y-75737725D01*
X130637274Y-75720535D01*
X130559561Y-75625840D01*
X130546057Y-75605630D01*
X130488309Y-75497592D01*
X130479008Y-75475140D01*
X130443443Y-75357897D01*
X130438704Y-75334069D01*
X130426097Y-75206060D01*
X130425500Y-75193907D01*
X130425500Y-51393558D01*
X130899500Y-51393558D01*
X130914157Y-51523648D01*
X130914159Y-51523658D01*
X130971877Y-51688604D01*
X130971878Y-51688606D01*
X131064853Y-51836576D01*
X131188424Y-51960147D01*
X131266473Y-52009188D01*
X131312762Y-52061519D01*
X131324500Y-52114180D01*
X131324500Y-68971031D01*
X131359183Y-69411717D01*
X131359183Y-69411718D01*
X131411446Y-69741692D01*
X131428336Y-69848327D01*
X131531531Y-70278166D01*
X131531535Y-70278177D01*
X131668130Y-70698578D01*
X131698270Y-70771342D01*
X131837299Y-71106987D01*
X132037987Y-71500859D01*
X132037992Y-71500867D01*
X132037994Y-71500871D01*
X132037997Y-71500878D01*
X132268953Y-71877762D01*
X132268960Y-71877773D01*
X132528785Y-72235392D01*
X132528795Y-72235406D01*
X132650048Y-72377374D01*
X132815882Y-72571540D01*
X133128460Y-72884118D01*
X133128466Y-72884123D01*
X133464593Y-73171204D01*
X133464600Y-73171209D01*
X133822228Y-73431041D01*
X133836127Y-73439558D01*
X134199121Y-73662002D01*
X134199127Y-73662004D01*
X134199141Y-73662013D01*
X134593013Y-73862701D01*
X135000199Y-74031363D01*
X135001421Y-74031869D01*
X135108318Y-74066601D01*
X135421834Y-74168469D01*
X135851673Y-74271664D01*
X136288283Y-74340817D01*
X136728974Y-74375500D01*
X136728982Y-74375500D01*
X159428106Y-74375500D01*
X159428109Y-74375500D01*
X159782613Y-74340584D01*
X159955544Y-74306185D01*
X160131966Y-74271094D01*
X160131977Y-74271091D01*
X160131977Y-74271090D01*
X160131987Y-74271089D01*
X160472867Y-74167684D01*
X160801970Y-74031365D01*
X161116127Y-73863445D01*
X161412312Y-73665541D01*
X161687673Y-73439558D01*
X161939558Y-73187673D01*
X162165541Y-72912312D01*
X162363445Y-72616127D01*
X162531365Y-72301970D01*
X162667684Y-71972867D01*
X162771089Y-71631987D01*
X162771091Y-71631977D01*
X162771094Y-71631966D01*
X162809463Y-71439068D01*
X162840584Y-71282613D01*
X162875500Y-70928109D01*
X162875500Y-70750000D01*
X162875500Y-70729188D01*
X162895185Y-70662149D01*
X162928377Y-70627613D01*
X163069333Y-70528915D01*
X163089139Y-70515047D01*
X163250047Y-70354139D01*
X163380568Y-70167734D01*
X163476739Y-69961496D01*
X163535635Y-69741692D01*
X163555468Y-69515000D01*
X163535635Y-69288308D01*
X163493596Y-69131417D01*
X164915583Y-69131417D01*
X164945660Y-69430392D01*
X164945661Y-69430399D01*
X165015318Y-69722691D01*
X165015321Y-69722703D01*
X165123316Y-70003103D01*
X165123323Y-70003118D01*
X165267729Y-70266625D01*
X165267733Y-70266631D01*
X165359046Y-70390562D01*
X165445973Y-70508540D01*
X165629769Y-70698584D01*
X165654870Y-70724538D01*
X165654877Y-70724544D01*
X165714136Y-70771340D01*
X165890696Y-70910768D01*
X166149237Y-71063902D01*
X166425883Y-71181210D01*
X166425886Y-71181210D01*
X166425889Y-71181212D01*
X166570789Y-71220904D01*
X166715696Y-71260598D01*
X167013505Y-71300650D01*
X167013510Y-71300650D01*
X167238791Y-71300650D01*
X167402263Y-71289706D01*
X167463569Y-71285602D01*
X167758037Y-71225749D01*
X168041901Y-71127181D01*
X168310093Y-70991657D01*
X168557830Y-70821596D01*
X168780689Y-70620032D01*
X168974693Y-70390562D01*
X169136381Y-70137282D01*
X169262868Y-69864710D01*
X169351896Y-69577712D01*
X169401876Y-69281408D01*
X169409404Y-69056255D01*
X179898306Y-69056255D01*
X179918060Y-69370254D01*
X179918061Y-69370261D01*
X179977020Y-69679333D01*
X180074247Y-69978566D01*
X180074249Y-69978571D01*
X180208211Y-70263253D01*
X180208214Y-70263259D01*
X180376801Y-70528911D01*
X180376804Y-70528915D01*
X180577356Y-70771340D01*
X180577358Y-70771342D01*
X180806718Y-70986726D01*
X180806728Y-70986734D01*
X181061254Y-71171658D01*
X181061259Y-71171660D01*
X181061266Y-71171666D01*
X181336984Y-71323244D01*
X181336989Y-71323246D01*
X181336991Y-71323247D01*
X181336992Y-71323248D01*
X181629521Y-71439068D01*
X181629524Y-71439069D01*
X181802841Y-71483569D01*
X181934277Y-71517316D01*
X181999760Y-71525588D01*
X182246420Y-71556749D01*
X182246429Y-71556749D01*
X182246432Y-71556750D01*
X182246434Y-71556750D01*
X182561066Y-71556750D01*
X182561068Y-71556750D01*
X182561071Y-71556749D01*
X182561079Y-71556749D01*
X182747343Y-71533218D01*
X182873223Y-71517316D01*
X183177975Y-71439069D01*
X183177978Y-71439068D01*
X183470507Y-71323248D01*
X183470508Y-71323247D01*
X183470506Y-71323247D01*
X183470516Y-71323244D01*
X183746234Y-71171666D01*
X184000780Y-70986728D01*
X184230140Y-70771344D01*
X184430697Y-70528913D01*
X184599287Y-70263257D01*
X184733253Y-69978565D01*
X184830481Y-69679329D01*
X184889438Y-69370265D01*
X184894594Y-69288313D01*
X184909194Y-69056255D01*
X184909194Y-69056244D01*
X184889439Y-68742245D01*
X184889438Y-68742238D01*
X184889438Y-68742235D01*
X184830481Y-68433171D01*
X184733253Y-68133935D01*
X184599287Y-67849243D01*
X184491841Y-67679934D01*
X184430698Y-67583588D01*
X184430695Y-67583584D01*
X184230143Y-67341159D01*
X184230141Y-67341157D01*
X184161732Y-67276916D01*
X184000780Y-67125772D01*
X184000777Y-67125770D01*
X184000771Y-67125765D01*
X183746245Y-66940841D01*
X183746238Y-66940836D01*
X183746234Y-66940834D01*
X183470516Y-66789256D01*
X183470513Y-66789254D01*
X183470508Y-66789252D01*
X183470507Y-66789251D01*
X183177978Y-66673431D01*
X183177975Y-66673430D01*
X182873226Y-66595184D01*
X182873213Y-66595182D01*
X182561079Y-66555750D01*
X182561068Y-66555750D01*
X182246432Y-66555750D01*
X182246420Y-66555750D01*
X181934286Y-66595182D01*
X181934273Y-66595184D01*
X181629524Y-66673430D01*
X181629521Y-66673431D01*
X181336992Y-66789251D01*
X181336991Y-66789252D01*
X181061266Y-66940834D01*
X181061254Y-66940841D01*
X180806728Y-67125765D01*
X180806718Y-67125773D01*
X180577358Y-67341157D01*
X180577356Y-67341159D01*
X180376804Y-67583584D01*
X180376801Y-67583588D01*
X180208214Y-67849240D01*
X180208211Y-67849246D01*
X180074249Y-68133928D01*
X180074247Y-68133933D01*
X179977020Y-68433166D01*
X179918061Y-68742238D01*
X179918060Y-68742245D01*
X179898306Y-69056244D01*
X179898306Y-69056255D01*
X169409404Y-69056255D01*
X169411917Y-68981086D01*
X169381839Y-68682105D01*
X169312180Y-68389801D01*
X169204181Y-68109390D01*
X169059771Y-67845875D01*
X168881527Y-67603960D01*
X168672629Y-67387961D01*
X168672622Y-67387955D01*
X168436805Y-67201733D01*
X168436806Y-67201733D01*
X168436804Y-67201732D01*
X168178263Y-67048598D01*
X167901617Y-66931290D01*
X167901610Y-66931287D01*
X167611809Y-66851903D01*
X167611806Y-66851902D01*
X167611804Y-66851902D01*
X167313995Y-66811850D01*
X167088717Y-66811850D01*
X167088709Y-66811850D01*
X166863933Y-66826897D01*
X166863924Y-66826899D01*
X166569460Y-66886751D01*
X166285597Y-66985319D01*
X166285594Y-66985321D01*
X166017412Y-67120839D01*
X165769668Y-67290905D01*
X165546812Y-67492466D01*
X165352808Y-67721936D01*
X165352806Y-67721938D01*
X165191116Y-67975222D01*
X165064636Y-68247781D01*
X165064632Y-68247790D01*
X165052079Y-68288258D01*
X164975604Y-68534785D01*
X164939989Y-68745928D01*
X164925624Y-68831092D01*
X164921248Y-68961992D01*
X164915583Y-69131417D01*
X163493596Y-69131417D01*
X163476739Y-69068504D01*
X163380568Y-68862266D01*
X163254801Y-68682650D01*
X163250045Y-68675858D01*
X163089141Y-68514954D01*
X162902734Y-68384432D01*
X162902732Y-68384431D01*
X162696497Y-68288261D01*
X162696488Y-68288258D01*
X162476697Y-68229366D01*
X162476693Y-68229365D01*
X162476692Y-68229365D01*
X162476691Y-68229364D01*
X162476686Y-68229364D01*
X162250002Y-68209532D01*
X162249998Y-68209532D01*
X162023313Y-68229364D01*
X162023302Y-68229366D01*
X161803511Y-68288258D01*
X161803502Y-68288261D01*
X161597267Y-68384431D01*
X161597265Y-68384432D01*
X161410858Y-68514954D01*
X161249954Y-68675858D01*
X161119432Y-68862265D01*
X161119431Y-68862267D01*
X161023261Y-69068502D01*
X161023258Y-69068511D01*
X160964366Y-69288302D01*
X160964364Y-69288313D01*
X160944532Y-69514998D01*
X160944532Y-69515001D01*
X160964364Y-69741686D01*
X160964366Y-69741697D01*
X161023258Y-69961488D01*
X161023261Y-69961497D01*
X161119431Y-70167732D01*
X161119432Y-70167734D01*
X161249954Y-70354141D01*
X161410858Y-70515045D01*
X161571623Y-70627613D01*
X161615248Y-70682189D01*
X161624500Y-70729188D01*
X161624500Y-70746249D01*
X161624274Y-70753736D01*
X161607639Y-71028727D01*
X161605834Y-71043592D01*
X161556851Y-71310883D01*
X161553267Y-71325421D01*
X161472429Y-71584841D01*
X161467120Y-71598842D01*
X161355593Y-71846645D01*
X161348634Y-71859904D01*
X161208055Y-72092451D01*
X161199549Y-72104774D01*
X161031962Y-72318683D01*
X161022032Y-72329891D01*
X160829891Y-72522032D01*
X160818683Y-72531962D01*
X160604774Y-72699549D01*
X160592451Y-72708055D01*
X160359904Y-72848634D01*
X160346645Y-72855593D01*
X160098842Y-72967120D01*
X160084841Y-72972429D01*
X159825421Y-73053267D01*
X159810883Y-73056851D01*
X159543592Y-73105834D01*
X159528727Y-73107639D01*
X159253736Y-73124274D01*
X159246249Y-73124500D01*
X156085671Y-73124500D01*
X156018632Y-73104815D01*
X155972877Y-73052011D01*
X155962933Y-72982853D01*
X155991958Y-72919297D01*
X156009509Y-72902647D01*
X156315429Y-72664539D01*
X156315429Y-72664538D01*
X156315439Y-72664531D01*
X156627374Y-72377374D01*
X156914531Y-72065439D01*
X156925159Y-72051784D01*
X157174932Y-71730876D01*
X157174935Y-71730870D01*
X157174948Y-71730855D01*
X157406845Y-71375910D01*
X157608640Y-71003027D01*
X157778952Y-70614753D01*
X157916620Y-70213741D01*
X158020702Y-69802730D01*
X158090487Y-69384529D01*
X158125500Y-68961992D01*
X158125500Y-68750000D01*
X158125500Y-68674051D01*
X158125500Y-67614663D01*
X158145185Y-67547624D01*
X158197989Y-67501869D01*
X158236210Y-67491377D01*
X158236716Y-67491322D01*
X158263251Y-67491320D01*
X158302127Y-67495500D01*
X158697872Y-67495499D01*
X158697873Y-67495498D01*
X158697885Y-67495498D01*
X158736744Y-67491320D01*
X158763252Y-67491320D01*
X158802127Y-67495500D01*
X159197872Y-67495499D01*
X159257483Y-67489091D01*
X159392331Y-67438796D01*
X159507546Y-67352546D01*
X159593796Y-67237331D01*
X159644091Y-67102483D01*
X159650500Y-67042873D01*
X159650499Y-65999499D01*
X159670183Y-65932461D01*
X159722987Y-65886706D01*
X159774499Y-65875500D01*
X179413796Y-65875500D01*
X179413801Y-65875500D01*
X179739607Y-65841256D01*
X180060049Y-65773144D01*
X180371616Y-65671910D01*
X180670894Y-65538662D01*
X180954605Y-65374862D01*
X181219640Y-65182303D01*
X181463095Y-64963095D01*
X181682303Y-64719640D01*
X181874862Y-64454605D01*
X182038662Y-64170894D01*
X182171910Y-63871616D01*
X182273144Y-63560049D01*
X182341256Y-63239607D01*
X182375500Y-62913801D01*
X182375500Y-62750000D01*
X182375500Y-62674051D01*
X182375500Y-60158126D01*
X182376561Y-60141941D01*
X182382443Y-60097263D01*
X182386130Y-60069253D01*
X182394508Y-60037989D01*
X182419426Y-59977829D01*
X182435609Y-59949801D01*
X182475254Y-59898135D01*
X182498135Y-59875254D01*
X182549801Y-59835609D01*
X182577829Y-59819426D01*
X182637992Y-59794507D01*
X182669253Y-59786130D01*
X182741941Y-59776560D01*
X182758126Y-59775500D01*
X182825949Y-59775500D01*
X182937586Y-59775500D01*
X183004625Y-59795185D01*
X183036536Y-59824770D01*
X183078049Y-59879742D01*
X183102741Y-59945102D01*
X183088176Y-60013436D01*
X183053407Y-60053733D01*
X182967809Y-60117812D01*
X182881649Y-60232906D01*
X182881645Y-60232913D01*
X182831403Y-60367620D01*
X182831401Y-60367627D01*
X182825000Y-60427155D01*
X182825000Y-60900000D01*
X183684314Y-60900000D01*
X183672359Y-60911955D01*
X183614835Y-61024852D01*
X183595014Y-61150000D01*
X183614835Y-61275148D01*
X183672359Y-61388045D01*
X183684314Y-61400000D01*
X182825000Y-61400000D01*
X182825000Y-61872844D01*
X182831401Y-61932372D01*
X182831403Y-61932379D01*
X182881645Y-62067086D01*
X182881649Y-62067093D01*
X182967809Y-62182187D01*
X182967812Y-62182190D01*
X183082906Y-62268350D01*
X183082913Y-62268354D01*
X183217620Y-62318596D01*
X183217627Y-62318598D01*
X183277155Y-62324999D01*
X183277172Y-62325000D01*
X183750000Y-62325000D01*
X183750000Y-61465686D01*
X183761955Y-61477641D01*
X183874852Y-61535165D01*
X183968519Y-61550000D01*
X184031481Y-61550000D01*
X184125148Y-61535165D01*
X184238045Y-61477641D01*
X184250000Y-61465686D01*
X184250000Y-62325000D01*
X184722828Y-62325000D01*
X184722844Y-62324999D01*
X184782372Y-62318598D01*
X184782379Y-62318596D01*
X184917086Y-62268354D01*
X184917093Y-62268350D01*
X185032187Y-62182190D01*
X185032190Y-62182187D01*
X185118350Y-62067093D01*
X185118354Y-62067086D01*
X185168596Y-61932379D01*
X185168598Y-61932372D01*
X185174999Y-61872844D01*
X185175000Y-61872827D01*
X185175000Y-61400000D01*
X184315686Y-61400000D01*
X184327641Y-61388045D01*
X184385165Y-61275148D01*
X184404986Y-61150000D01*
X184385165Y-61024852D01*
X184327641Y-60911955D01*
X184315686Y-60900000D01*
X185175000Y-60900000D01*
X185175000Y-60427172D01*
X185174999Y-60427155D01*
X185168598Y-60367627D01*
X185168596Y-60367620D01*
X185118354Y-60232913D01*
X185118350Y-60232906D01*
X185032190Y-60117812D01*
X184946593Y-60053733D01*
X184904723Y-59997799D01*
X184899739Y-59928107D01*
X184921949Y-59879743D01*
X185003712Y-59771472D01*
X185100817Y-59576459D01*
X185160435Y-59366923D01*
X185180536Y-59150000D01*
X185160435Y-58933077D01*
X185100817Y-58723541D01*
X185003712Y-58528528D01*
X184872427Y-58354678D01*
X184748423Y-58241634D01*
X184712145Y-58181927D01*
X184713905Y-58112079D01*
X184748423Y-58058365D01*
X184872427Y-57945322D01*
X185003712Y-57771472D01*
X185100817Y-57576459D01*
X185160435Y-57366923D01*
X185180536Y-57150000D01*
X185160435Y-56933077D01*
X185100817Y-56723541D01*
X185003712Y-56528528D01*
X184872427Y-56354678D01*
X184748423Y-56241634D01*
X184712145Y-56181927D01*
X184713905Y-56112079D01*
X184748423Y-56058365D01*
X184872427Y-55945322D01*
X185003712Y-55771472D01*
X185100817Y-55576459D01*
X185160435Y-55366923D01*
X185180536Y-55150000D01*
X185160435Y-54933077D01*
X185100817Y-54723541D01*
X185003712Y-54528528D01*
X184872427Y-54354678D01*
X184748423Y-54241634D01*
X184712145Y-54181927D01*
X184713905Y-54112079D01*
X184748423Y-54058365D01*
X184872427Y-53945322D01*
X185003712Y-53771472D01*
X185100817Y-53576459D01*
X185160435Y-53366923D01*
X185180536Y-53150000D01*
X185179131Y-53134843D01*
X185176515Y-53106615D01*
X185160435Y-52933077D01*
X185100817Y-52723541D01*
X185003712Y-52528528D01*
X184872427Y-52354678D01*
X184866910Y-52349649D01*
X184750958Y-52243945D01*
X184711432Y-52207912D01*
X184711428Y-52207909D01*
X184711423Y-52207906D01*
X184526213Y-52093229D01*
X184526207Y-52093226D01*
X184422685Y-52053122D01*
X184323069Y-52014530D01*
X184108926Y-51974500D01*
X183891074Y-51974500D01*
X183676931Y-52014530D01*
X183628130Y-52033435D01*
X183473792Y-52093226D01*
X183473786Y-52093229D01*
X183288576Y-52207906D01*
X183288566Y-52207913D01*
X183127574Y-52354676D01*
X182996288Y-52528527D01*
X182899184Y-52723537D01*
X182839564Y-52933081D01*
X182819464Y-53149999D01*
X182819464Y-53150000D01*
X182839564Y-53366918D01*
X182839564Y-53366920D01*
X182839565Y-53366923D01*
X182899183Y-53576459D01*
X182899184Y-53576462D01*
X182996288Y-53771472D01*
X183127574Y-53945324D01*
X183251572Y-54058363D01*
X183287854Y-54118074D01*
X183286093Y-54187922D01*
X183251572Y-54241637D01*
X183127574Y-54354675D01*
X182996288Y-54528527D01*
X182899184Y-54723537D01*
X182876373Y-54803710D01*
X182844673Y-54915126D01*
X182839564Y-54933081D01*
X182819464Y-55149999D01*
X182819464Y-55150000D01*
X182839564Y-55366918D01*
X182839564Y-55366920D01*
X182839565Y-55366923D01*
X182882629Y-55518277D01*
X182899184Y-55576462D01*
X182996288Y-55771472D01*
X183127574Y-55945324D01*
X183251572Y-56058363D01*
X183287854Y-56118074D01*
X183286093Y-56187922D01*
X183251572Y-56241637D01*
X183127574Y-56354675D01*
X182996288Y-56528527D01*
X182899184Y-56723537D01*
X182839564Y-56933081D01*
X182824489Y-57095768D01*
X182798703Y-57160705D01*
X182788699Y-57172007D01*
X181283368Y-58677338D01*
X181283328Y-58677359D01*
X181162623Y-58798067D01*
X181013785Y-58984708D01*
X181013779Y-58984717D01*
X180886772Y-59186852D01*
X180886771Y-59186852D01*
X180783192Y-59401944D01*
X180704346Y-59627280D01*
X180704345Y-59627282D01*
X180651225Y-59860024D01*
X180639470Y-59964366D01*
X180625579Y-60087680D01*
X180624499Y-60097263D01*
X180624500Y-60157599D01*
X180624500Y-62745124D01*
X180624118Y-62754853D01*
X180608343Y-62955291D01*
X180605299Y-62974509D01*
X180559505Y-63165254D01*
X180553492Y-63183760D01*
X180478423Y-63364990D01*
X180469590Y-63382326D01*
X180367091Y-63549592D01*
X180355653Y-63565335D01*
X180228255Y-63714497D01*
X180214497Y-63728255D01*
X180065335Y-63855653D01*
X180049592Y-63867091D01*
X179882326Y-63969590D01*
X179864990Y-63978423D01*
X179683760Y-64053492D01*
X179665254Y-64059505D01*
X179474509Y-64105299D01*
X179455291Y-64108343D01*
X179254854Y-64124118D01*
X179245125Y-64124500D01*
X171455005Y-64124500D01*
X171387966Y-64104815D01*
X171342211Y-64052011D01*
X171332267Y-63982853D01*
X171361292Y-63919297D01*
X171362823Y-63917564D01*
X171541047Y-63719630D01*
X171733607Y-63454597D01*
X171897409Y-63170889D01*
X172030658Y-62871612D01*
X172131893Y-62560046D01*
X172200006Y-62239605D01*
X172234250Y-61913800D01*
X172234250Y-61750000D01*
X172234250Y-61674051D01*
X172234250Y-57225167D01*
X173170583Y-57225167D01*
X173200660Y-57524142D01*
X173200661Y-57524149D01*
X173270318Y-57816441D01*
X173270321Y-57816453D01*
X173378316Y-58096853D01*
X173378323Y-58096868D01*
X173522729Y-58360375D01*
X173522733Y-58360381D01*
X173614046Y-58484312D01*
X173700973Y-58602290D01*
X173838573Y-58744567D01*
X173909870Y-58818288D01*
X173909877Y-58818294D01*
X174000355Y-58889744D01*
X174145696Y-59004518D01*
X174404237Y-59157652D01*
X174680883Y-59274960D01*
X174680886Y-59274960D01*
X174680889Y-59274962D01*
X174806029Y-59309241D01*
X174970696Y-59354348D01*
X175268505Y-59394400D01*
X175268510Y-59394400D01*
X175493791Y-59394400D01*
X175657263Y-59383456D01*
X175718569Y-59379352D01*
X176013037Y-59319499D01*
X176296901Y-59220931D01*
X176565093Y-59085407D01*
X176812830Y-58915346D01*
X177035689Y-58713782D01*
X177229693Y-58484312D01*
X177391381Y-58231032D01*
X177517868Y-57958460D01*
X177606896Y-57671462D01*
X177656876Y-57375158D01*
X177666203Y-57096202D01*
X179369410Y-57096202D01*
X179379637Y-57310901D01*
X179430313Y-57519791D01*
X179430315Y-57519795D01*
X179501838Y-57676409D01*
X179519604Y-57715310D01*
X179644284Y-57890399D01*
X179644285Y-57890400D01*
X179644290Y-57890406D01*
X179799844Y-58038725D01*
X179799846Y-58038726D01*
X179799847Y-58038727D01*
X179980670Y-58154935D01*
X180180218Y-58234822D01*
X180242766Y-58246877D01*
X180391277Y-58275500D01*
X180391278Y-58275500D01*
X180552362Y-58275500D01*
X180552368Y-58275500D01*
X180712721Y-58260188D01*
X180918959Y-58199631D01*
X181110009Y-58101138D01*
X181150327Y-58069432D01*
X181189371Y-58038727D01*
X181278967Y-57968268D01*
X181419726Y-57805824D01*
X181448892Y-57755308D01*
X181523216Y-57626574D01*
X181527198Y-57619677D01*
X181597500Y-57416554D01*
X181628089Y-57203797D01*
X181617862Y-56989096D01*
X181567187Y-56780210D01*
X181477896Y-56584690D01*
X181353216Y-56409601D01*
X181353214Y-56409599D01*
X181353209Y-56409593D01*
X181197655Y-56261274D01*
X181016830Y-56145065D01*
X180817280Y-56065177D01*
X180606223Y-56024500D01*
X180606222Y-56024500D01*
X180445132Y-56024500D01*
X180284779Y-56039812D01*
X180284775Y-56039813D01*
X180078543Y-56100368D01*
X179887486Y-56198864D01*
X179718535Y-56331729D01*
X179718532Y-56331733D01*
X179577771Y-56494178D01*
X179470303Y-56680319D01*
X179400001Y-56883442D01*
X179400000Y-56883444D01*
X179369411Y-57096200D01*
X179369410Y-57096202D01*
X177666203Y-57096202D01*
X177666917Y-57074836D01*
X177636839Y-56775855D01*
X177632651Y-56758283D01*
X177610115Y-56663716D01*
X177567180Y-56483551D01*
X177459181Y-56203140D01*
X177314771Y-55939625D01*
X177311771Y-55935554D01*
X177259578Y-55864716D01*
X177136527Y-55697710D01*
X176927629Y-55481711D01*
X176927622Y-55481705D01*
X176745969Y-55338256D01*
X176691804Y-55295482D01*
X176433263Y-55142348D01*
X176156617Y-55025040D01*
X176156610Y-55025037D01*
X175866809Y-54945653D01*
X175866806Y-54945652D01*
X175866804Y-54945652D01*
X175568995Y-54905600D01*
X175343717Y-54905600D01*
X175343709Y-54905600D01*
X175118933Y-54920647D01*
X175118924Y-54920649D01*
X174824460Y-54980501D01*
X174540597Y-55079069D01*
X174540594Y-55079071D01*
X174272412Y-55214589D01*
X174024668Y-55384655D01*
X173801812Y-55586216D01*
X173607808Y-55815686D01*
X173607806Y-55815688D01*
X173446116Y-56068972D01*
X173319636Y-56341531D01*
X173319632Y-56341540D01*
X173302816Y-56395750D01*
X173230604Y-56628535D01*
X173185757Y-56894410D01*
X173180624Y-56924842D01*
X173176675Y-57042971D01*
X173170583Y-57225167D01*
X172234250Y-57225167D01*
X172234250Y-56220252D01*
X172253935Y-56153213D01*
X172306739Y-56107458D01*
X172310798Y-56105691D01*
X172360371Y-56085157D01*
X172360371Y-56085156D01*
X172360378Y-56085154D01*
X172581890Y-55949412D01*
X172779439Y-55780689D01*
X172948162Y-55583140D01*
X173083904Y-55361628D01*
X173183323Y-55121610D01*
X173243971Y-54868994D01*
X173264354Y-54610000D01*
X173243971Y-54351006D01*
X173183323Y-54098390D01*
X173113228Y-53929165D01*
X173083906Y-53858376D01*
X173057680Y-53815579D01*
X172948162Y-53636860D01*
X172779439Y-53439311D01*
X172581890Y-53270588D01*
X172360378Y-53134846D01*
X172360377Y-53134845D01*
X172360373Y-53134843D01*
X172194377Y-53066086D01*
X172120360Y-53035427D01*
X172120361Y-53035427D01*
X171982671Y-53002370D01*
X171867744Y-52974779D01*
X171867742Y-52974778D01*
X171867741Y-52974778D01*
X171608750Y-52954396D01*
X171349759Y-52974778D01*
X171097139Y-53035427D01*
X170857126Y-53134843D01*
X170635609Y-53270588D01*
X170438061Y-53439311D01*
X170269338Y-53636859D01*
X170133593Y-53858376D01*
X170034177Y-54098389D01*
X169973528Y-54351009D01*
X169953146Y-54610000D01*
X169973528Y-54868990D01*
X170034177Y-55121610D01*
X170133593Y-55361623D01*
X170133595Y-55361627D01*
X170133596Y-55361628D01*
X170186441Y-55447864D01*
X170269338Y-55583140D01*
X170430741Y-55772119D01*
X170438061Y-55780689D01*
X170467943Y-55806210D01*
X170506136Y-55864716D01*
X170506635Y-55934584D01*
X170469281Y-55993631D01*
X170405934Y-56023109D01*
X170387411Y-56024500D01*
X170285132Y-56024500D01*
X170124779Y-56039812D01*
X170124775Y-56039813D01*
X169918543Y-56100368D01*
X169727486Y-56198864D01*
X169558535Y-56331729D01*
X169558532Y-56331733D01*
X169417771Y-56494178D01*
X169310303Y-56680319D01*
X169240001Y-56883442D01*
X169240000Y-56883444D01*
X169209411Y-57096200D01*
X169209410Y-57096202D01*
X169219637Y-57310901D01*
X169270313Y-57519791D01*
X169270315Y-57519795D01*
X169341838Y-57676409D01*
X169359604Y-57715310D01*
X169484284Y-57890399D01*
X169484285Y-57890400D01*
X169484290Y-57890406D01*
X169639844Y-58038725D01*
X169639846Y-58038726D01*
X169639847Y-58038727D01*
X169820670Y-58154935D01*
X170020218Y-58234822D01*
X170082766Y-58246877D01*
X170231277Y-58275500D01*
X170231278Y-58275500D01*
X170392362Y-58275500D01*
X170392368Y-58275500D01*
X170552721Y-58260188D01*
X170758959Y-58199631D01*
X170802431Y-58177219D01*
X170871036Y-58163996D01*
X170935901Y-58189964D01*
X170976430Y-58246877D01*
X170983250Y-58287435D01*
X170983250Y-61745948D01*
X170982984Y-61754059D01*
X170967744Y-61986558D01*
X170965627Y-62002638D01*
X170920964Y-62227175D01*
X170916766Y-62242843D01*
X170843174Y-62459633D01*
X170836967Y-62474618D01*
X170735710Y-62679945D01*
X170727600Y-62693992D01*
X170600407Y-62884347D01*
X170590532Y-62897216D01*
X170439582Y-63069338D01*
X170428113Y-63080807D01*
X170255984Y-63231757D01*
X170243115Y-63241631D01*
X170052761Y-63368817D01*
X170038714Y-63376927D01*
X169833385Y-63478181D01*
X169818400Y-63484388D01*
X169601609Y-63557975D01*
X169585941Y-63562173D01*
X169361403Y-63606832D01*
X169345321Y-63608949D01*
X169112044Y-63624234D01*
X169103937Y-63624499D01*
X169025218Y-63624499D01*
X169025202Y-63624500D01*
X159459434Y-63624500D01*
X159459218Y-63624506D01*
X159362796Y-63624506D01*
X159086551Y-63660873D01*
X158817424Y-63732985D01*
X158817414Y-63732988D01*
X158560014Y-63839607D01*
X158560009Y-63839609D01*
X158318709Y-63978921D01*
X158097663Y-64148535D01*
X158097656Y-64148541D01*
X157900649Y-64345548D01*
X157900641Y-64345557D01*
X157731034Y-64566591D01*
X157731022Y-64566609D01*
X157591717Y-64807891D01*
X157591712Y-64807903D01*
X157504706Y-65017953D01*
X157460865Y-65072356D01*
X157394571Y-65094421D01*
X157390146Y-65094500D01*
X157302132Y-65094500D01*
X157302118Y-65094501D01*
X157263253Y-65098679D01*
X157236748Y-65098679D01*
X157197874Y-65094500D01*
X156802129Y-65094500D01*
X156802123Y-65094501D01*
X156742516Y-65100908D01*
X156607671Y-65151202D01*
X156607664Y-65151206D01*
X156492455Y-65237452D01*
X156492452Y-65237455D01*
X156406206Y-65352664D01*
X156406202Y-65352671D01*
X156355908Y-65487517D01*
X156349501Y-65547116D01*
X156349500Y-65547135D01*
X156349500Y-67042870D01*
X156349501Y-67042876D01*
X156355908Y-67102481D01*
X156366682Y-67131366D01*
X156374500Y-67174700D01*
X156374500Y-68746753D01*
X156374330Y-68753243D01*
X156356353Y-69096244D01*
X156354996Y-69109152D01*
X156301776Y-69445173D01*
X156299078Y-69457869D01*
X156211021Y-69786502D01*
X156207010Y-69798845D01*
X156085088Y-70116464D01*
X156079809Y-70128322D01*
X155925351Y-70431464D01*
X155918865Y-70442697D01*
X155862875Y-70528915D01*
X155733569Y-70728028D01*
X155725940Y-70738528D01*
X155511828Y-71002934D01*
X155503143Y-71012579D01*
X155262579Y-71253143D01*
X155252934Y-71261828D01*
X154988528Y-71475940D01*
X154978028Y-71483569D01*
X154926061Y-71517317D01*
X154692697Y-71668865D01*
X154681464Y-71675351D01*
X154378322Y-71829809D01*
X154366464Y-71835088D01*
X154048845Y-71957010D01*
X154036502Y-71961021D01*
X153707869Y-72049078D01*
X153695173Y-72051776D01*
X153359152Y-72104996D01*
X153346244Y-72106353D01*
X153003244Y-72124330D01*
X152996754Y-72124500D01*
X136981216Y-72124500D01*
X136981200Y-72124499D01*
X136900898Y-72124499D01*
X136894411Y-72124329D01*
X136551415Y-72106360D01*
X136538506Y-72105004D01*
X136202462Y-72051784D01*
X136189766Y-72049085D01*
X135861147Y-71961037D01*
X135848803Y-71957027D01*
X135531166Y-71835102D01*
X135519308Y-71829822D01*
X135216174Y-71675372D01*
X135204934Y-71668883D01*
X134919598Y-71483587D01*
X134909098Y-71475958D01*
X134644687Y-71261848D01*
X134635059Y-71253180D01*
X134394462Y-71012588D01*
X134385787Y-71002953D01*
X134372648Y-70986728D01*
X134171672Y-70738546D01*
X134164046Y-70728050D01*
X134161765Y-70724538D01*
X134025718Y-70515045D01*
X133978746Y-70442715D01*
X133972257Y-70431475D01*
X133817797Y-70128335D01*
X133812517Y-70116477D01*
X133753025Y-69961496D01*
X133690588Y-69798845D01*
X133686581Y-69786512D01*
X133598520Y-69457869D01*
X133595824Y-69445180D01*
X133593482Y-69430395D01*
X133542603Y-69109156D01*
X133541246Y-69096248D01*
X133525670Y-68799037D01*
X133525500Y-68792547D01*
X133525500Y-67968939D01*
X133526159Y-67956175D01*
X133533486Y-67885375D01*
X133560531Y-67624022D01*
X133562543Y-67611195D01*
X133633077Y-67276916D01*
X133636422Y-67264360D01*
X133644204Y-67240300D01*
X133741541Y-66939324D01*
X133746180Y-66927191D01*
X133807386Y-66789256D01*
X133884747Y-66614911D01*
X133890630Y-66603334D01*
X133895323Y-66595184D01*
X134061111Y-66307279D01*
X134068156Y-66296404D01*
X134268700Y-66019789D01*
X134276851Y-66009705D01*
X134505228Y-65755608D01*
X134514398Y-65746423D01*
X134768107Y-65517625D01*
X134778175Y-65509459D01*
X135054457Y-65308450D01*
X135065309Y-65301393D01*
X135361104Y-65130402D01*
X135372661Y-65124507D01*
X135684711Y-64985414D01*
X135696818Y-64980762D01*
X136021703Y-64875091D01*
X136034242Y-64871728D01*
X136368390Y-64800637D01*
X136381217Y-64798603D01*
X136634252Y-64771990D01*
X136702980Y-64784554D01*
X136749519Y-64825232D01*
X136782336Y-64873139D01*
X136782343Y-64873147D01*
X136933102Y-65023906D01*
X136933108Y-65023911D01*
X137109013Y-65144409D01*
X137304065Y-65230532D01*
X137304071Y-65230533D01*
X137304073Y-65230534D01*
X137511609Y-65279347D01*
X137511614Y-65279347D01*
X137511620Y-65279349D01*
X137600238Y-65285500D01*
X139354618Y-65285499D01*
X139354627Y-65285500D01*
X140079267Y-65285499D01*
X140146306Y-65305183D01*
X140192061Y-65357987D01*
X140202005Y-65427146D01*
X140183786Y-65476220D01*
X140111039Y-65590178D01*
X140108616Y-65593973D01*
X140093495Y-65626557D01*
X140047420Y-65679081D01*
X139980261Y-65698357D01*
X139913981Y-65678676D01*
X139900585Y-65670067D01*
X139701030Y-65590177D01*
X139489973Y-65549500D01*
X139489972Y-65549500D01*
X139328882Y-65549500D01*
X139168529Y-65564812D01*
X139168525Y-65564813D01*
X138962293Y-65625368D01*
X138771236Y-65723864D01*
X138602285Y-65856729D01*
X138602282Y-65856733D01*
X138461521Y-66019178D01*
X138354053Y-66205319D01*
X138310746Y-66330445D01*
X138270217Y-66387359D01*
X138205352Y-66413327D01*
X138136745Y-66400103D01*
X138086178Y-66351887D01*
X138073061Y-66319119D01*
X138069688Y-66305214D01*
X138069687Y-66305213D01*
X138069687Y-66305210D01*
X137980396Y-66109690D01*
X137855716Y-65934601D01*
X137855714Y-65934599D01*
X137855709Y-65934593D01*
X137700155Y-65786274D01*
X137519330Y-65670065D01*
X137319780Y-65590177D01*
X137108723Y-65549500D01*
X137108722Y-65549500D01*
X136947632Y-65549500D01*
X136787279Y-65564812D01*
X136787275Y-65564813D01*
X136581043Y-65625368D01*
X136389986Y-65723864D01*
X136221035Y-65856729D01*
X136221032Y-65856733D01*
X136080271Y-66019178D01*
X135972803Y-66205319D01*
X135902501Y-66408442D01*
X135902500Y-66408444D01*
X135871911Y-66621200D01*
X135871910Y-66621202D01*
X135882137Y-66835901D01*
X135932813Y-67044791D01*
X135932815Y-67044795D01*
X136020743Y-67237331D01*
X136022104Y-67240310D01*
X136127246Y-67387961D01*
X136146785Y-67415400D01*
X136146790Y-67415406D01*
X136302344Y-67563725D01*
X136302346Y-67563726D01*
X136302347Y-67563727D01*
X136483170Y-67679935D01*
X136682718Y-67759822D01*
X136788248Y-67780161D01*
X136893777Y-67800500D01*
X136893778Y-67800500D01*
X137054862Y-67800500D01*
X137054868Y-67800500D01*
X137215221Y-67785188D01*
X137421459Y-67724631D01*
X137612509Y-67626138D01*
X137781467Y-67493268D01*
X137922226Y-67330824D01*
X137974486Y-67240308D01*
X138029697Y-67144679D01*
X138034305Y-67131366D01*
X138073003Y-67019553D01*
X138113531Y-66962641D01*
X138178396Y-66936673D01*
X138247003Y-66949895D01*
X138297570Y-66998111D01*
X138310687Y-67030876D01*
X138313600Y-67042883D01*
X138314063Y-67044790D01*
X138314064Y-67044792D01*
X138314065Y-67044795D01*
X138401993Y-67237331D01*
X138403354Y-67240310D01*
X138508496Y-67387961D01*
X138528035Y-67415400D01*
X138528040Y-67415406D01*
X138683594Y-67563725D01*
X138683596Y-67563726D01*
X138683597Y-67563727D01*
X138864420Y-67679935D01*
X139063968Y-67759822D01*
X139169498Y-67780161D01*
X139275027Y-67800500D01*
X139275028Y-67800500D01*
X139436112Y-67800500D01*
X139436118Y-67800500D01*
X139596471Y-67785188D01*
X139802709Y-67724631D01*
X139924822Y-67661677D01*
X139993426Y-67648454D01*
X140058291Y-67674422D01*
X140090382Y-67712301D01*
X140185229Y-67885375D01*
X140185233Y-67885381D01*
X140276546Y-68009312D01*
X140363473Y-68127290D01*
X140572371Y-68343289D01*
X140808196Y-68529518D01*
X141066737Y-68682652D01*
X141343383Y-68799960D01*
X141343386Y-68799960D01*
X141343389Y-68799962D01*
X141457033Y-68831092D01*
X141633196Y-68879348D01*
X141931005Y-68919400D01*
X141931010Y-68919400D01*
X142156291Y-68919400D01*
X142319763Y-68908456D01*
X142381069Y-68904352D01*
X142675537Y-68844499D01*
X142959401Y-68745931D01*
X143220054Y-68614216D01*
X143288763Y-68601550D01*
X143339167Y-68618198D01*
X143447987Y-68682652D01*
X143724633Y-68799960D01*
X143724636Y-68799960D01*
X143724639Y-68799962D01*
X143838283Y-68831092D01*
X144014446Y-68879348D01*
X144312255Y-68919400D01*
X144312260Y-68919400D01*
X144537541Y-68919400D01*
X144701013Y-68908456D01*
X144762319Y-68904352D01*
X145056787Y-68844499D01*
X145340651Y-68745931D01*
X145601304Y-68614216D01*
X145670013Y-68601550D01*
X145720417Y-68618198D01*
X145829237Y-68682652D01*
X146105883Y-68799960D01*
X146105886Y-68799960D01*
X146105889Y-68799962D01*
X146219533Y-68831092D01*
X146395696Y-68879348D01*
X146693505Y-68919400D01*
X146693510Y-68919400D01*
X146918791Y-68919400D01*
X147082263Y-68908456D01*
X147143569Y-68904352D01*
X147438037Y-68844499D01*
X147721901Y-68745931D01*
X147990093Y-68610407D01*
X148237830Y-68440346D01*
X148460689Y-68238782D01*
X148654693Y-68009312D01*
X148816381Y-67756032D01*
X148831503Y-67723442D01*
X148877576Y-67670919D01*
X148944733Y-67651641D01*
X149011021Y-67671324D01*
X149024420Y-67679935D01*
X149223968Y-67759822D01*
X149329498Y-67780161D01*
X149435027Y-67800500D01*
X149435028Y-67800500D01*
X149596112Y-67800500D01*
X149596118Y-67800500D01*
X149756471Y-67785188D01*
X149962709Y-67724631D01*
X150153759Y-67626138D01*
X150322717Y-67493268D01*
X150463476Y-67330824D01*
X150515736Y-67240308D01*
X150570947Y-67144679D01*
X150575555Y-67131366D01*
X150614253Y-67019553D01*
X150654781Y-66962641D01*
X150719646Y-66936673D01*
X150788253Y-66949895D01*
X150838820Y-66998111D01*
X150851937Y-67030876D01*
X150854850Y-67042883D01*
X150855313Y-67044790D01*
X150855314Y-67044792D01*
X150855315Y-67044795D01*
X150943243Y-67237331D01*
X150944604Y-67240310D01*
X151049746Y-67387961D01*
X151069285Y-67415400D01*
X151069290Y-67415406D01*
X151224844Y-67563725D01*
X151224846Y-67563726D01*
X151224847Y-67563727D01*
X151405670Y-67679935D01*
X151605218Y-67759822D01*
X151710748Y-67780161D01*
X151816277Y-67800500D01*
X151816278Y-67800500D01*
X151977362Y-67800500D01*
X151977368Y-67800500D01*
X152137721Y-67785188D01*
X152343959Y-67724631D01*
X152535009Y-67626138D01*
X152703967Y-67493268D01*
X152844726Y-67330824D01*
X152952198Y-67144677D01*
X153022500Y-66941554D01*
X153053089Y-66728797D01*
X153042862Y-66514096D01*
X152992187Y-66305210D01*
X152902896Y-66109690D01*
X152778216Y-65934601D01*
X152778214Y-65934599D01*
X152778209Y-65934593D01*
X152622655Y-65786274D01*
X152441830Y-65670065D01*
X152242280Y-65590177D01*
X152031223Y-65549500D01*
X152031222Y-65549500D01*
X151870132Y-65549500D01*
X151709779Y-65564812D01*
X151709775Y-65564813D01*
X151503543Y-65625368D01*
X151312486Y-65723864D01*
X151143535Y-65856729D01*
X151143532Y-65856733D01*
X151002771Y-66019178D01*
X150895303Y-66205319D01*
X150851996Y-66330445D01*
X150811467Y-66387359D01*
X150746602Y-66413327D01*
X150677995Y-66400103D01*
X150627428Y-66351887D01*
X150614311Y-66319119D01*
X150610938Y-66305214D01*
X150610937Y-66305213D01*
X150610937Y-66305210D01*
X150521646Y-66109690D01*
X150396966Y-65934601D01*
X150396964Y-65934599D01*
X150396959Y-65934593D01*
X150241405Y-65786274D01*
X150060580Y-65670065D01*
X149861030Y-65590177D01*
X149649973Y-65549500D01*
X149649972Y-65549500D01*
X149488882Y-65549500D01*
X149328529Y-65564812D01*
X149328525Y-65564813D01*
X149122293Y-65625368D01*
X149000179Y-65688322D01*
X148931572Y-65701544D01*
X148866707Y-65675576D01*
X148834617Y-65637698D01*
X148816162Y-65604022D01*
X148739771Y-65464625D01*
X148561527Y-65222710D01*
X148352629Y-65006711D01*
X148352622Y-65006705D01*
X148116805Y-64820483D01*
X148116806Y-64820483D01*
X148116804Y-64820482D01*
X147858263Y-64667348D01*
X147581617Y-64550040D01*
X147581610Y-64550037D01*
X147291809Y-64470653D01*
X147291806Y-64470652D01*
X147291804Y-64470652D01*
X146993995Y-64430600D01*
X146768717Y-64430600D01*
X146768709Y-64430600D01*
X146543933Y-64445647D01*
X146543924Y-64445649D01*
X146249460Y-64505501D01*
X145965597Y-64604069D01*
X145965594Y-64604071D01*
X145704947Y-64735782D01*
X145636235Y-64748449D01*
X145585830Y-64731800D01*
X145477021Y-64667352D01*
X145477016Y-64667349D01*
X145477013Y-64667348D01*
X145200367Y-64550040D01*
X145200360Y-64550037D01*
X144910559Y-64470653D01*
X144910540Y-64470649D01*
X144877502Y-64466206D01*
X144813685Y-64437761D01*
X144775378Y-64379329D01*
X144773327Y-64314919D01*
X144778097Y-64294638D01*
X144778099Y-64294630D01*
X144784250Y-64206012D01*
X144784250Y-64063988D01*
X144783521Y-64053492D01*
X144778099Y-63975375D01*
X144778099Y-63975370D01*
X144778097Y-63975364D01*
X144778097Y-63975359D01*
X144753316Y-63870000D01*
X154275001Y-63870000D01*
X154275001Y-63969154D01*
X154285319Y-64070152D01*
X154339546Y-64233800D01*
X154339551Y-64233811D01*
X154430052Y-64380534D01*
X154430055Y-64380538D01*
X154551961Y-64502444D01*
X154551965Y-64502447D01*
X154698688Y-64592948D01*
X154698699Y-64592953D01*
X154862347Y-64647180D01*
X154963352Y-64657499D01*
X155000000Y-64657499D01*
X155000000Y-63870000D01*
X155500000Y-63870000D01*
X155500000Y-64657499D01*
X155536640Y-64657499D01*
X155536654Y-64657498D01*
X155637652Y-64647180D01*
X155801300Y-64592953D01*
X155801311Y-64592948D01*
X155948034Y-64502447D01*
X155948038Y-64502444D01*
X156069944Y-64380538D01*
X156069947Y-64380534D01*
X156160448Y-64233811D01*
X156160453Y-64233800D01*
X156214680Y-64070152D01*
X156224999Y-63969154D01*
X156225000Y-63969141D01*
X156225000Y-63870000D01*
X155500000Y-63870000D01*
X155000000Y-63870000D01*
X154275001Y-63870000D01*
X144753316Y-63870000D01*
X144729284Y-63767823D01*
X144729282Y-63767817D01*
X144729282Y-63767815D01*
X144643159Y-63572763D01*
X144522661Y-63396858D01*
X144522656Y-63396852D01*
X144407569Y-63281765D01*
X144374084Y-63220442D01*
X144371250Y-63194084D01*
X144371250Y-62318857D01*
X144532185Y-62357000D01*
X144665627Y-62357000D01*
X144798175Y-62341507D01*
X144871250Y-62314909D01*
X144871250Y-63245000D01*
X146752500Y-63245000D01*
X146752500Y-62318857D01*
X146913435Y-62357000D01*
X147046877Y-62357000D01*
X147179425Y-62341507D01*
X147252500Y-62314909D01*
X147252500Y-63245000D01*
X148351682Y-63245000D01*
X148351691Y-63244999D01*
X149133750Y-63244999D01*
X149133750Y-62318857D01*
X149294685Y-62357000D01*
X149428127Y-62357000D01*
X149560675Y-62341507D01*
X149633750Y-62314909D01*
X149633750Y-63230426D01*
X149642666Y-63229724D01*
X149895195Y-63169098D01*
X149895212Y-63169093D01*
X150135147Y-63069709D01*
X150135150Y-63069707D01*
X150356590Y-62934009D01*
X150356591Y-62934008D01*
X150554083Y-62765333D01*
X150722758Y-62567841D01*
X150722759Y-62567840D01*
X150858457Y-62346400D01*
X150858459Y-62346397D01*
X150957843Y-62106462D01*
X150957848Y-62106445D01*
X151018475Y-61853914D01*
X151018475Y-61853911D01*
X151019177Y-61845001D01*
X151019176Y-61845000D01*
X150104320Y-61845000D01*
X150139282Y-61728221D01*
X150149639Y-61550392D01*
X150118707Y-61374968D01*
X150105780Y-61345000D01*
X151019176Y-61345000D01*
X151019177Y-61344998D01*
X151018475Y-61336088D01*
X151018475Y-61336085D01*
X150957848Y-61083554D01*
X150957843Y-61083537D01*
X150858459Y-60843602D01*
X150858457Y-60843599D01*
X150722759Y-60622159D01*
X150722758Y-60622158D01*
X150554083Y-60424666D01*
X150356591Y-60255991D01*
X150356590Y-60255990D01*
X150135150Y-60120292D01*
X150135147Y-60120290D01*
X149895212Y-60020906D01*
X149895195Y-60020901D01*
X149642662Y-59960274D01*
X149633751Y-59959572D01*
X149633750Y-59959573D01*
X149633750Y-60871142D01*
X149472815Y-60833000D01*
X149339373Y-60833000D01*
X149206825Y-60848493D01*
X149133750Y-60875090D01*
X149133750Y-59945000D01*
X147252500Y-59945000D01*
X147252500Y-60871142D01*
X147091565Y-60833000D01*
X146958123Y-60833000D01*
X146825575Y-60848493D01*
X146752500Y-60875090D01*
X146752500Y-59945000D01*
X144871250Y-59945000D01*
X144871250Y-60871142D01*
X144710315Y-60833000D01*
X144576873Y-60833000D01*
X144444325Y-60848493D01*
X144371250Y-60875090D01*
X144371250Y-59959573D01*
X144371248Y-59959572D01*
X144362338Y-59960274D01*
X144362335Y-59960274D01*
X144109804Y-60020901D01*
X144109787Y-60020906D01*
X143869852Y-60120290D01*
X143869849Y-60120292D01*
X143648409Y-60255990D01*
X143648408Y-60255991D01*
X143450916Y-60424666D01*
X143282241Y-60622158D01*
X143282240Y-60622159D01*
X143146542Y-60843599D01*
X143146540Y-60843602D01*
X143047156Y-61083537D01*
X143047151Y-61083554D01*
X142986524Y-61336085D01*
X142986524Y-61336088D01*
X142985822Y-61344998D01*
X142985824Y-61345000D01*
X143900680Y-61345000D01*
X143865718Y-61461779D01*
X143855361Y-61639608D01*
X143886293Y-61815032D01*
X143899220Y-61845000D01*
X142985824Y-61845000D01*
X142985822Y-61845001D01*
X142986524Y-61853911D01*
X142986524Y-61853914D01*
X143047151Y-62106445D01*
X143047156Y-62106462D01*
X143146540Y-62346397D01*
X143146542Y-62346400D01*
X143282240Y-62567840D01*
X143282241Y-62567841D01*
X143450917Y-62765335D01*
X143451944Y-62766212D01*
X143452225Y-62766643D01*
X143454361Y-62768779D01*
X143453912Y-62769227D01*
X143490136Y-62824719D01*
X143490633Y-62894587D01*
X143453278Y-62953633D01*
X143389930Y-62983109D01*
X143371410Y-62984500D01*
X137600234Y-62984500D01*
X137511625Y-62990650D01*
X137511609Y-62990652D01*
X137304073Y-63039465D01*
X137304067Y-63039467D01*
X137222783Y-63075357D01*
X137117740Y-63121738D01*
X137109011Y-63125592D01*
X136933108Y-63246088D01*
X136933102Y-63246093D01*
X136782341Y-63396854D01*
X136739509Y-63459379D01*
X136685382Y-63503561D01*
X136652748Y-63512323D01*
X136642811Y-63513578D01*
X136633782Y-63514384D01*
X136462014Y-63523410D01*
X136065418Y-63578777D01*
X136065414Y-63578778D01*
X135675094Y-63668132D01*
X135675071Y-63668138D01*
X135293907Y-63790815D01*
X135293900Y-63790818D01*
X134924704Y-63945919D01*
X134570279Y-64132268D01*
X134570261Y-64132279D01*
X134233238Y-64348486D01*
X133916084Y-64592973D01*
X133916082Y-64592974D01*
X133621209Y-64863883D01*
X133621195Y-64863897D01*
X133350773Y-65159231D01*
X133247834Y-65293231D01*
X133191383Y-65334403D01*
X133121635Y-65338518D01*
X133060733Y-65304272D01*
X133028015Y-65242537D01*
X133025500Y-65217690D01*
X133025500Y-61254647D01*
X133025509Y-61253127D01*
X133026009Y-61212330D01*
X133027466Y-61093473D01*
X133028053Y-61082871D01*
X133059788Y-60760657D01*
X133061573Y-60748629D01*
X133071575Y-60698350D01*
X133123831Y-60435637D01*
X133126786Y-60423839D01*
X133136134Y-60393025D01*
X133219433Y-60118423D01*
X133223531Y-60106973D01*
X133345663Y-59812120D01*
X133350858Y-59801136D01*
X133501310Y-59519662D01*
X133507548Y-59509254D01*
X133684865Y-59243882D01*
X133692100Y-59234127D01*
X133894579Y-58987403D01*
X133902733Y-58978407D01*
X134128410Y-58752730D01*
X134137406Y-58744576D01*
X134384124Y-58542102D01*
X134393880Y-58534867D01*
X134659248Y-58357553D01*
X134669665Y-58351309D01*
X134951153Y-58200849D01*
X134962129Y-58195659D01*
X135256986Y-58073526D01*
X135268412Y-58069437D01*
X135573852Y-57976782D01*
X135585629Y-57973833D01*
X135898643Y-57911570D01*
X135910661Y-57909787D01*
X136232875Y-57878052D01*
X136243477Y-57877465D01*
X136403079Y-57875509D01*
X136404599Y-57875500D01*
X136566026Y-57875500D01*
X136580054Y-57876296D01*
X136581155Y-57876421D01*
X136581159Y-57876422D01*
X136654996Y-57875516D01*
X136655588Y-57875509D01*
X136657108Y-57875500D01*
X136691850Y-57875500D01*
X136695741Y-57875255D01*
X136695751Y-57875414D01*
X136702699Y-57874930D01*
X136794434Y-57873805D01*
X136814874Y-57875247D01*
X136831560Y-57877824D01*
X136831561Y-57877823D01*
X136831562Y-57877824D01*
X136878134Y-57873236D01*
X136888765Y-57872648D01*
X136895908Y-57872561D01*
X136920166Y-57869193D01*
X136924982Y-57868622D01*
X137243862Y-57837214D01*
X137262824Y-57836806D01*
X137284304Y-57837989D01*
X137325689Y-57829755D01*
X137337721Y-57827971D01*
X137340246Y-57827723D01*
X137368583Y-57821271D01*
X137371886Y-57820567D01*
X137690640Y-57757162D01*
X137709460Y-57754897D01*
X137730965Y-57753969D01*
X137771342Y-57741719D01*
X137783164Y-57738759D01*
X137785630Y-57738269D01*
X137813199Y-57729070D01*
X137816387Y-57728055D01*
X138127420Y-57633703D01*
X138145943Y-57629603D01*
X138167228Y-57626574D01*
X138167228Y-57626573D01*
X138167235Y-57626573D01*
X138206236Y-57610417D01*
X138217680Y-57606324D01*
X138220101Y-57605590D01*
X138246656Y-57593724D01*
X138249706Y-57592411D01*
X138549993Y-57468029D01*
X138568023Y-57462133D01*
X138588923Y-57457029D01*
X138626150Y-57437130D01*
X138637152Y-57431928D01*
X138639474Y-57430967D01*
X138664770Y-57416537D01*
X138667633Y-57414956D01*
X138954299Y-57261728D01*
X138971664Y-57254094D01*
X138991959Y-57246968D01*
X139027060Y-57223513D01*
X139037485Y-57217266D01*
X139039714Y-57216075D01*
X139063413Y-57199278D01*
X139066186Y-57197369D01*
X139336434Y-57016795D01*
X139352956Y-57007500D01*
X139372463Y-56998415D01*
X139405094Y-56971633D01*
X139414858Y-56964393D01*
X139416962Y-56962989D01*
X139438930Y-56943925D01*
X139441458Y-56941791D01*
X139692729Y-56735580D01*
X139708250Y-56724718D01*
X139726776Y-56713762D01*
X139726780Y-56713758D01*
X139756610Y-56683928D01*
X139765637Y-56675747D01*
X139767586Y-56674148D01*
X139787604Y-56652997D01*
X139789907Y-56650630D01*
X140019729Y-56420808D01*
X140034124Y-56408465D01*
X140051482Y-56395751D01*
X140078250Y-56363131D01*
X140086425Y-56354113D01*
X140088212Y-56352327D01*
X140106073Y-56329299D01*
X140108083Y-56326780D01*
X140314310Y-56075489D01*
X140327424Y-56061797D01*
X140343450Y-56047445D01*
X140343820Y-56046890D01*
X140366891Y-56012363D01*
X140374149Y-56002577D01*
X140375749Y-56000628D01*
X140391263Y-55975966D01*
X140393043Y-55973223D01*
X140573623Y-55702966D01*
X140585333Y-55688054D01*
X140599875Y-55672199D01*
X140601416Y-55669315D01*
X140619769Y-55634981D01*
X140626027Y-55624540D01*
X140627429Y-55622442D01*
X140640430Y-55596419D01*
X140641950Y-55593480D01*
X140795177Y-55306815D01*
X140805370Y-55290823D01*
X140818286Y-55273623D01*
X140834440Y-55234621D01*
X140839635Y-55223640D01*
X140840829Y-55221408D01*
X140851225Y-55194213D01*
X140852432Y-55191181D01*
X140976832Y-54890854D01*
X140985406Y-54873947D01*
X140996575Y-54855562D01*
X141008825Y-54815178D01*
X141012923Y-54803726D01*
X141013893Y-54801385D01*
X141021569Y-54773320D01*
X141022494Y-54770112D01*
X141116841Y-54459097D01*
X141123715Y-54441433D01*
X141133030Y-54422036D01*
X141141261Y-54380649D01*
X141144225Y-54368826D01*
X141144954Y-54366425D01*
X141149840Y-54337758D01*
X141150452Y-54334441D01*
X141213855Y-54015699D01*
X141218965Y-53997443D01*
X141226335Y-53977224D01*
X141230472Y-53935215D01*
X141232256Y-53923190D01*
X141232750Y-53920711D01*
X141234804Y-53891686D01*
X141235086Y-53888365D01*
X141236913Y-53869821D01*
X141266488Y-53569530D01*
X141270173Y-53549380D01*
X141274575Y-53533074D01*
X141275148Y-53486251D01*
X141275736Y-53475633D01*
X141276436Y-53468539D01*
X141275763Y-53444111D01*
X141275726Y-53439188D01*
X141275996Y-53417143D01*
X141276891Y-53344126D01*
X141277864Y-53330088D01*
X141277998Y-53329024D01*
X141278000Y-53329019D01*
X141278000Y-53254653D01*
X141278009Y-53253134D01*
X141278104Y-53245351D01*
X141278436Y-53218325D01*
X141278434Y-53218315D01*
X141278435Y-53218311D01*
X141278239Y-53214420D01*
X141278394Y-53214412D01*
X141278000Y-53207455D01*
X141278000Y-47700167D01*
X142214333Y-47700167D01*
X142244410Y-47999142D01*
X142244411Y-47999149D01*
X142314068Y-48291441D01*
X142314071Y-48291453D01*
X142422066Y-48571853D01*
X142422073Y-48571868D01*
X142566479Y-48835375D01*
X142566483Y-48835381D01*
X142657796Y-48959312D01*
X142744723Y-49077290D01*
X142953621Y-49293289D01*
X143189446Y-49479518D01*
X143447987Y-49632652D01*
X143724633Y-49749960D01*
X143724636Y-49749960D01*
X143724639Y-49749962D01*
X143766377Y-49761395D01*
X144014446Y-49829348D01*
X144312255Y-49869400D01*
X144312260Y-49869400D01*
X144537541Y-49869400D01*
X144701013Y-49858456D01*
X144762319Y-49854352D01*
X145056787Y-49794499D01*
X145340651Y-49695931D01*
X145608843Y-49560407D01*
X145856580Y-49390346D01*
X146079439Y-49188782D01*
X146273443Y-48959312D01*
X146435131Y-48706032D01*
X146561618Y-48433460D01*
X146650646Y-48146462D01*
X146700626Y-47850158D01*
X146709953Y-47571202D01*
X148413160Y-47571202D01*
X148423387Y-47785901D01*
X148474063Y-47994791D01*
X148474065Y-47994795D01*
X148476053Y-47999149D01*
X148563354Y-48190310D01*
X148677906Y-48351176D01*
X148688035Y-48365400D01*
X148688040Y-48365406D01*
X148843594Y-48513725D01*
X148843596Y-48513726D01*
X148843597Y-48513727D01*
X149024420Y-48629935D01*
X149223968Y-48709822D01*
X149286516Y-48721877D01*
X149435027Y-48750500D01*
X149435028Y-48750500D01*
X149596112Y-48750500D01*
X149596118Y-48750500D01*
X149756471Y-48735188D01*
X149962709Y-48674631D01*
X150153759Y-48576138D01*
X150322717Y-48443268D01*
X150463476Y-48280824D01*
X150570948Y-48094677D01*
X150641250Y-47891554D01*
X150671839Y-47678797D01*
X150661612Y-47464096D01*
X150610937Y-47255210D01*
X150521646Y-47059690D01*
X150396966Y-46884601D01*
X150396964Y-46884599D01*
X150396959Y-46884593D01*
X150241405Y-46736274D01*
X150060580Y-46620065D01*
X149861030Y-46540177D01*
X149649973Y-46499500D01*
X149649972Y-46499500D01*
X149488882Y-46499500D01*
X149328529Y-46514812D01*
X149328525Y-46514813D01*
X149122293Y-46575368D01*
X148931236Y-46673864D01*
X148762285Y-46806729D01*
X148762282Y-46806733D01*
X148621521Y-46969178D01*
X148514053Y-47155319D01*
X148443751Y-47358442D01*
X148443750Y-47358444D01*
X148413161Y-47571200D01*
X148413160Y-47571202D01*
X146709953Y-47571202D01*
X146710667Y-47549836D01*
X146680589Y-47250855D01*
X146610930Y-46958551D01*
X146502931Y-46678140D01*
X146358521Y-46414625D01*
X146180277Y-46172710D01*
X145971379Y-45956711D01*
X145971372Y-45956705D01*
X145735555Y-45770483D01*
X145735556Y-45770483D01*
X145735554Y-45770482D01*
X145477013Y-45617348D01*
X145200367Y-45500040D01*
X145200360Y-45500037D01*
X144910559Y-45420653D01*
X144910556Y-45420652D01*
X144910554Y-45420652D01*
X144612745Y-45380600D01*
X144387467Y-45380600D01*
X144387459Y-45380600D01*
X144162683Y-45395647D01*
X144162674Y-45395649D01*
X143868210Y-45455501D01*
X143584347Y-45554069D01*
X143584344Y-45554071D01*
X143316162Y-45689589D01*
X143068418Y-45859655D01*
X142845562Y-46061216D01*
X142651558Y-46290686D01*
X142651556Y-46290688D01*
X142489866Y-46543972D01*
X142363386Y-46816531D01*
X142363382Y-46816540D01*
X142342272Y-46884593D01*
X142274354Y-47103535D01*
X142231235Y-47359165D01*
X142224374Y-47399842D01*
X142219252Y-47553054D01*
X142214333Y-47700167D01*
X141278000Y-47700167D01*
X141278000Y-46695252D01*
X141297685Y-46628213D01*
X141350489Y-46582458D01*
X141354548Y-46580691D01*
X141404121Y-46560157D01*
X141404121Y-46560156D01*
X141404128Y-46560154D01*
X141625640Y-46424412D01*
X141823189Y-46255689D01*
X141991912Y-46058140D01*
X142127654Y-45836628D01*
X142227073Y-45596610D01*
X142287721Y-45343994D01*
X142308104Y-45085000D01*
X142287721Y-44826006D01*
X142227073Y-44573390D01*
X142127654Y-44333372D01*
X141991912Y-44111860D01*
X141823189Y-43914311D01*
X141625640Y-43745588D01*
X141404128Y-43609846D01*
X141404127Y-43609845D01*
X141404123Y-43609843D01*
X141238127Y-43541086D01*
X141164110Y-43510427D01*
X141164111Y-43510427D01*
X141026421Y-43477370D01*
X140911494Y-43449779D01*
X140911492Y-43449778D01*
X140911491Y-43449778D01*
X140652500Y-43429396D01*
X140393509Y-43449778D01*
X140140889Y-43510427D01*
X139900876Y-43609843D01*
X139679359Y-43745588D01*
X139481811Y-43914311D01*
X139313088Y-44111859D01*
X139177343Y-44333376D01*
X139077927Y-44573389D01*
X139017278Y-44826009D01*
X138996896Y-45085000D01*
X139017278Y-45343990D01*
X139077927Y-45596610D01*
X139177343Y-45836623D01*
X139177345Y-45836627D01*
X139177346Y-45836628D01*
X139313088Y-46058140D01*
X139481811Y-46255689D01*
X139511693Y-46281210D01*
X139549886Y-46339716D01*
X139550385Y-46409584D01*
X139513031Y-46468631D01*
X139449684Y-46498109D01*
X139431161Y-46499500D01*
X139328882Y-46499500D01*
X139168529Y-46514812D01*
X139168525Y-46514813D01*
X138962293Y-46575368D01*
X138771236Y-46673864D01*
X138602285Y-46806729D01*
X138602282Y-46806733D01*
X138461521Y-46969178D01*
X138354053Y-47155319D01*
X138283751Y-47358442D01*
X138283750Y-47358444D01*
X138253161Y-47571200D01*
X138253160Y-47571202D01*
X138263387Y-47785901D01*
X138314063Y-47994791D01*
X138314065Y-47994795D01*
X138316053Y-47999149D01*
X138403354Y-48190310D01*
X138517906Y-48351176D01*
X138528035Y-48365400D01*
X138528040Y-48365406D01*
X138683594Y-48513725D01*
X138683596Y-48513726D01*
X138683597Y-48513727D01*
X138864420Y-48629935D01*
X139063968Y-48709822D01*
X139126516Y-48721877D01*
X139275027Y-48750500D01*
X139275028Y-48750500D01*
X139436112Y-48750500D01*
X139436118Y-48750500D01*
X139596471Y-48735188D01*
X139802709Y-48674631D01*
X139846181Y-48652219D01*
X139914786Y-48638996D01*
X139979651Y-48664964D01*
X140020180Y-48721877D01*
X140027000Y-48762435D01*
X140027000Y-53245351D01*
X140026991Y-53246873D01*
X140025032Y-53406511D01*
X140024444Y-53417143D01*
X139992711Y-53739331D01*
X139990925Y-53751368D01*
X139928668Y-54064355D01*
X139925712Y-54076159D01*
X139833067Y-54381567D01*
X139828967Y-54393025D01*
X139706838Y-54687870D01*
X139701635Y-54698870D01*
X139551200Y-54980314D01*
X139544944Y-54990752D01*
X139367638Y-55256108D01*
X139360390Y-55265881D01*
X139157928Y-55512584D01*
X139149755Y-55521601D01*
X138924098Y-55747258D01*
X138915081Y-55755431D01*
X138668382Y-55957889D01*
X138658609Y-55965137D01*
X138393259Y-56142439D01*
X138382822Y-56148695D01*
X138101358Y-56299142D01*
X138090356Y-56304345D01*
X137795518Y-56426470D01*
X137784069Y-56430566D01*
X137521514Y-56510213D01*
X137478666Y-56523211D01*
X137466862Y-56526167D01*
X137153866Y-56588425D01*
X137141830Y-56590211D01*
X136819640Y-56621945D01*
X136809006Y-56622533D01*
X136649421Y-56624491D01*
X136647900Y-56624500D01*
X136486474Y-56624500D01*
X136472446Y-56623704D01*
X136471344Y-56623578D01*
X136471341Y-56623578D01*
X136410755Y-56624321D01*
X136396912Y-56624491D01*
X136395392Y-56624500D01*
X136360650Y-56624500D01*
X136360645Y-56624500D01*
X136356773Y-56624744D01*
X136356763Y-56624589D01*
X136349807Y-56625068D01*
X136258062Y-56626193D01*
X136237630Y-56624751D01*
X136220940Y-56622175D01*
X136174359Y-56626763D01*
X136163735Y-56627351D01*
X136156589Y-56627439D01*
X136132362Y-56630801D01*
X136127473Y-56631381D01*
X135808644Y-56662783D01*
X135789679Y-56663193D01*
X135773162Y-56662284D01*
X135768196Y-56662011D01*
X135768195Y-56662011D01*
X135768194Y-56662011D01*
X135768191Y-56662011D01*
X135726792Y-56670245D01*
X135714784Y-56672027D01*
X135712268Y-56672275D01*
X135712234Y-56672280D01*
X135683906Y-56678729D01*
X135680576Y-56679439D01*
X135361865Y-56742834D01*
X135343033Y-56745101D01*
X135321540Y-56746030D01*
X135321536Y-56746030D01*
X135321535Y-56746031D01*
X135321532Y-56746032D01*
X135281143Y-56758283D01*
X135269358Y-56761235D01*
X135266891Y-56761726D01*
X135266874Y-56761730D01*
X135266870Y-56761731D01*
X135256965Y-56765034D01*
X135239325Y-56770919D01*
X135236087Y-56771949D01*
X134925077Y-56866294D01*
X134906565Y-56870394D01*
X134885265Y-56873427D01*
X134885264Y-56873427D01*
X134885259Y-56873428D01*
X134846273Y-56889576D01*
X134834845Y-56893667D01*
X134832396Y-56894410D01*
X134832391Y-56894412D01*
X134805882Y-56906256D01*
X134802753Y-56907603D01*
X134502509Y-57031967D01*
X134484482Y-57037864D01*
X134463577Y-57042970D01*
X134426347Y-57062868D01*
X134415383Y-57068056D01*
X134413029Y-57069031D01*
X134413026Y-57069033D01*
X134402852Y-57074836D01*
X134387796Y-57083423D01*
X134384817Y-57085068D01*
X134283778Y-57139075D01*
X134128318Y-57222171D01*
X134098208Y-57238265D01*
X134080844Y-57245901D01*
X134060542Y-57253031D01*
X134060533Y-57253035D01*
X134025448Y-57276479D01*
X134015025Y-57282728D01*
X134012788Y-57283924D01*
X134012781Y-57283927D01*
X133989094Y-57300714D01*
X133986290Y-57302644D01*
X133716071Y-57483199D01*
X133699540Y-57492500D01*
X133680043Y-57501582D01*
X133680037Y-57501585D01*
X133680033Y-57501587D01*
X133680030Y-57501590D01*
X133647410Y-57528359D01*
X133637661Y-57535591D01*
X133635545Y-57537005D01*
X133635538Y-57537010D01*
X133613607Y-57556040D01*
X133611006Y-57558235D01*
X133359777Y-57764411D01*
X133344241Y-57775285D01*
X133325724Y-57786237D01*
X133295880Y-57816080D01*
X133286885Y-57824233D01*
X133284916Y-57825848D01*
X133284910Y-57825855D01*
X133264932Y-57846961D01*
X133262559Y-57849400D01*
X133032776Y-58079183D01*
X133018379Y-58091529D01*
X133001019Y-58104247D01*
X133001016Y-58104249D01*
X132974244Y-58136872D01*
X132966082Y-58145879D01*
X132964284Y-58147676D01*
X132946491Y-58170614D01*
X132944369Y-58173273D01*
X132795354Y-58354851D01*
X132737608Y-58394186D01*
X132667764Y-58396057D01*
X132607995Y-58359870D01*
X132577279Y-58297115D01*
X132575500Y-58276187D01*
X132575500Y-52114180D01*
X132595185Y-52047141D01*
X132633524Y-52009189D01*
X132711576Y-51960147D01*
X132835147Y-51836576D01*
X132928122Y-51688606D01*
X132928123Y-51688604D01*
X132931627Y-51683028D01*
X132983962Y-51636737D01*
X133036621Y-51625000D01*
X134563379Y-51625000D01*
X134630418Y-51644685D01*
X134668373Y-51683028D01*
X134700055Y-51733450D01*
X134764853Y-51836576D01*
X134888424Y-51960147D01*
X135036394Y-52053122D01*
X135201343Y-52110841D01*
X135201349Y-52110841D01*
X135201351Y-52110842D01*
X135230978Y-52114180D01*
X135331442Y-52125499D01*
X135331445Y-52125500D01*
X135331448Y-52125500D01*
X135968555Y-52125500D01*
X135968556Y-52125499D01*
X136098657Y-52110841D01*
X136263606Y-52053122D01*
X136411576Y-51960147D01*
X136535147Y-51836576D01*
X136628122Y-51688606D01*
X136685841Y-51523657D01*
X136688335Y-51501515D01*
X136715401Y-51437102D01*
X136772995Y-51397546D01*
X136842832Y-51395407D01*
X136888279Y-51419883D01*
X136888871Y-51419069D01*
X137047265Y-51534148D01*
X137047270Y-51534151D01*
X137220192Y-51611142D01*
X137220197Y-51611144D01*
X137405354Y-51650500D01*
X137405355Y-51650500D01*
X137594644Y-51650500D01*
X137594646Y-51650500D01*
X137779803Y-51611144D01*
X137952730Y-51534151D01*
X138105871Y-51422888D01*
X138232533Y-51282216D01*
X138327179Y-51118284D01*
X138385674Y-50938256D01*
X138405460Y-50750000D01*
X138385674Y-50561744D01*
X138327179Y-50381716D01*
X138232533Y-50217784D01*
X138105871Y-50077112D01*
X138104090Y-50075818D01*
X137952734Y-49965851D01*
X137952729Y-49965848D01*
X137779807Y-49888857D01*
X137779802Y-49888855D01*
X137617473Y-49854352D01*
X137594646Y-49849500D01*
X137405354Y-49849500D01*
X137382527Y-49854352D01*
X137220197Y-49888855D01*
X137220192Y-49888857D01*
X137047270Y-49965848D01*
X137047265Y-49965851D01*
X136895910Y-50075818D01*
X136830104Y-50099298D01*
X136823025Y-50099500D01*
X136816164Y-50099500D01*
X136749125Y-50079815D01*
X136703370Y-50027011D01*
X136692944Y-49989383D01*
X136685842Y-49926350D01*
X136685841Y-49926348D01*
X136685841Y-49926343D01*
X136628122Y-49761394D01*
X136535147Y-49613424D01*
X136411576Y-49489853D01*
X136395125Y-49479516D01*
X136333528Y-49440812D01*
X136287237Y-49388477D01*
X136275500Y-49335818D01*
X136275500Y-45914180D01*
X136295185Y-45847141D01*
X136333524Y-45809189D01*
X136411576Y-45760147D01*
X136535147Y-45636576D01*
X136628122Y-45488606D01*
X136685841Y-45323657D01*
X136700500Y-45193552D01*
X136700500Y-43856448D01*
X136685841Y-43726343D01*
X136628122Y-43561394D01*
X136535147Y-43413424D01*
X136411576Y-43289853D01*
X136263606Y-43196878D01*
X136263605Y-43196877D01*
X136263604Y-43196877D01*
X136098658Y-43139159D01*
X136098648Y-43139157D01*
X135968558Y-43124500D01*
X135968552Y-43124500D01*
X135331448Y-43124500D01*
X135331441Y-43124500D01*
X135201351Y-43139157D01*
X135201341Y-43139159D01*
X135036395Y-43196877D01*
X134888423Y-43289853D01*
X134764853Y-43413423D01*
X134668373Y-43566972D01*
X134616038Y-43613263D01*
X134563379Y-43625000D01*
X133036621Y-43625000D01*
X132969582Y-43605315D01*
X132931627Y-43566972D01*
X132857990Y-43449779D01*
X132835147Y-43413424D01*
X132711576Y-43289853D01*
X132563606Y-43196878D01*
X132563605Y-43196877D01*
X132563604Y-43196877D01*
X132398658Y-43139159D01*
X132398648Y-43139157D01*
X132268558Y-43124500D01*
X132268552Y-43124500D01*
X131631448Y-43124500D01*
X131631441Y-43124500D01*
X131501351Y-43139157D01*
X131501341Y-43139159D01*
X131336395Y-43196877D01*
X131188423Y-43289853D01*
X131064853Y-43413423D01*
X130971877Y-43561395D01*
X130914159Y-43726341D01*
X130914157Y-43726351D01*
X130899500Y-43856441D01*
X130899500Y-45193558D01*
X130914157Y-45323648D01*
X130914159Y-45323658D01*
X130948100Y-45420653D01*
X130971878Y-45488606D01*
X131064853Y-45636576D01*
X131188424Y-45760147D01*
X131266473Y-45809188D01*
X131312762Y-45861519D01*
X131324500Y-45914180D01*
X131324500Y-49335818D01*
X131304815Y-49402857D01*
X131266472Y-49440812D01*
X131188423Y-49489853D01*
X131064853Y-49613423D01*
X130971877Y-49761395D01*
X130914159Y-49926341D01*
X130914157Y-49926351D01*
X130899500Y-50056441D01*
X130899500Y-51393558D01*
X130425500Y-51393558D01*
X130425500Y-42545000D01*
X145347398Y-42545000D01*
X145367774Y-42803912D01*
X145428401Y-43056445D01*
X145428406Y-43056462D01*
X145527790Y-43296397D01*
X145527792Y-43296400D01*
X145663492Y-43517842D01*
X145663493Y-43517843D01*
X145669301Y-43524644D01*
X146316174Y-42877771D01*
X146338097Y-42928593D01*
X146444468Y-43071476D01*
X146580924Y-43185975D01*
X146670227Y-43230824D01*
X146022854Y-43878197D01*
X146029657Y-43884007D01*
X146251099Y-44019707D01*
X146251102Y-44019709D01*
X146491037Y-44119093D01*
X146491054Y-44119098D01*
X146743588Y-44179725D01*
X146743587Y-44179725D01*
X147002500Y-44200101D01*
X147261412Y-44179725D01*
X147513945Y-44119098D01*
X147513962Y-44119093D01*
X147753897Y-44019709D01*
X147753900Y-44019707D01*
X147975344Y-43884005D01*
X147982144Y-43878197D01*
X147337807Y-43233860D01*
X147346813Y-43230583D01*
X147495638Y-43132699D01*
X147617878Y-43003132D01*
X147689731Y-42878678D01*
X148335697Y-43524644D01*
X148341505Y-43517844D01*
X148477207Y-43296400D01*
X148477209Y-43296397D01*
X148576593Y-43056462D01*
X148576598Y-43056445D01*
X148637225Y-42803912D01*
X148657601Y-42545000D01*
X148637225Y-42286087D01*
X148576598Y-42033554D01*
X148576593Y-42033537D01*
X148477209Y-41793602D01*
X148477207Y-41793599D01*
X148341507Y-41572157D01*
X148335697Y-41565354D01*
X147688824Y-42212226D01*
X147666903Y-42161407D01*
X147560532Y-42018524D01*
X147424076Y-41904025D01*
X147334772Y-41859174D01*
X147982145Y-41211801D01*
X147975343Y-41205993D01*
X147975342Y-41205992D01*
X147753900Y-41070292D01*
X147753897Y-41070290D01*
X147513962Y-40970906D01*
X147513945Y-40970901D01*
X147261411Y-40910274D01*
X147261412Y-40910274D01*
X147002500Y-40889898D01*
X146743587Y-40910274D01*
X146491054Y-40970901D01*
X146491037Y-40970906D01*
X146251102Y-41070290D01*
X146251099Y-41070292D01*
X146029655Y-41205993D01*
X146022853Y-41211800D01*
X146667192Y-41856139D01*
X146658187Y-41859417D01*
X146509362Y-41957301D01*
X146387122Y-42086868D01*
X146315268Y-42211320D01*
X145669301Y-41565353D01*
X145663493Y-41572155D01*
X145527792Y-41793599D01*
X145527790Y-41793602D01*
X145428406Y-42033537D01*
X145428401Y-42033554D01*
X145367774Y-42286087D01*
X145347398Y-42545000D01*
X130425500Y-42545000D01*
X130425500Y-39106092D01*
X130426097Y-39093939D01*
X130427930Y-39075326D01*
X130438704Y-38965928D01*
X130443442Y-38942104D01*
X130479010Y-38824855D01*
X130488306Y-38802413D01*
X130546061Y-38694363D01*
X130559556Y-38674165D01*
X130637279Y-38579458D01*
X130654458Y-38562279D01*
X130749165Y-38484556D01*
X130769363Y-38471061D01*
X130877413Y-38413306D01*
X130899855Y-38404010D01*
X131017104Y-38368442D01*
X131040928Y-38363704D01*
X131159614Y-38352015D01*
X131168939Y-38351097D01*
X131181092Y-38350500D01*
X131219170Y-38350500D01*
X150870500Y-38350500D01*
X150937539Y-38370185D01*
G37*
G04 #@! TD.AperFunction*
G04 #@! TA.AperFunction,Conductor*
G36*
X159630702Y-54741067D02*
G01*
X159646442Y-54757463D01*
X159739229Y-54873816D01*
X159739233Y-54873820D01*
X159739237Y-54873825D01*
X159780539Y-54915126D01*
X159780556Y-54915146D01*
X159826042Y-54960632D01*
X159826047Y-54960639D01*
X159902557Y-55037149D01*
X159902575Y-55037165D01*
X160669025Y-55803615D01*
X160674572Y-55809538D01*
X160785099Y-55935571D01*
X160794972Y-55948437D01*
X160861123Y-56047442D01*
X160885824Y-56084411D01*
X160893934Y-56098458D01*
X160966265Y-56245136D01*
X160972472Y-56260121D01*
X161025037Y-56414977D01*
X161029235Y-56430645D01*
X161061137Y-56591039D01*
X161063254Y-56607119D01*
X161074234Y-56774671D01*
X161074499Y-56782780D01*
X161074499Y-56861962D01*
X161074500Y-56861979D01*
X161074500Y-57139075D01*
X161074234Y-57147189D01*
X161063268Y-57314425D01*
X161061151Y-57330504D01*
X161029242Y-57490906D01*
X161025043Y-57506574D01*
X160991184Y-57606317D01*
X160972476Y-57661424D01*
X160966268Y-57676409D01*
X160893933Y-57823084D01*
X160885825Y-57837126D01*
X160850229Y-57890399D01*
X160794966Y-57973102D01*
X160785092Y-57985969D01*
X160674254Y-58112352D01*
X160668707Y-58118274D01*
X160615124Y-58171855D01*
X160615096Y-58171885D01*
X158967212Y-59819769D01*
X158967108Y-59819878D01*
X158912648Y-59874338D01*
X158846949Y-59956722D01*
X158789760Y-59996862D01*
X158719948Y-59999712D01*
X158659679Y-59964366D01*
X158653055Y-59956722D01*
X158587358Y-59874341D01*
X158561540Y-59848523D01*
X158561536Y-59848516D01*
X158449249Y-59736232D01*
X158449248Y-59736231D01*
X156888848Y-58175830D01*
X156888846Y-58175827D01*
X156853442Y-58140423D01*
X156853437Y-58140419D01*
X156830960Y-58117942D01*
X156825414Y-58112022D01*
X156807441Y-58091529D01*
X156714882Y-57985989D01*
X156705008Y-57973120D01*
X156614147Y-57837142D01*
X156606037Y-57823096D01*
X156572606Y-57755308D01*
X156533700Y-57676419D01*
X156527500Y-57661452D01*
X156474919Y-57506566D01*
X156470725Y-57490914D01*
X156438815Y-57330504D01*
X156436699Y-57314428D01*
X156425766Y-57147677D01*
X156425500Y-57139564D01*
X156425500Y-56854372D01*
X156425501Y-56854368D01*
X156425500Y-56782483D01*
X156425765Y-56774375D01*
X156426704Y-56760050D01*
X156436726Y-56607110D01*
X156438842Y-56591039D01*
X156470748Y-56430627D01*
X156474942Y-56414977D01*
X156527510Y-56260105D01*
X156533714Y-56245130D01*
X156552067Y-56207912D01*
X156606048Y-56098445D01*
X156614151Y-56084411D01*
X156705019Y-55948415D01*
X156714877Y-55935568D01*
X156825217Y-55809745D01*
X156830715Y-55803875D01*
X156867682Y-55766908D01*
X157592597Y-55041991D01*
X157592602Y-55041988D01*
X157602806Y-55031783D01*
X157602808Y-55031783D01*
X157620179Y-55014411D01*
X157620241Y-55014377D01*
X157656525Y-54978091D01*
X157656526Y-54978092D01*
X157760785Y-54873831D01*
X157764646Y-54868990D01*
X157834238Y-54781722D01*
X157853552Y-54757501D01*
X157910739Y-54717360D01*
X157980551Y-54714509D01*
X158040821Y-54749854D01*
X158072416Y-54812172D01*
X158074500Y-54834813D01*
X158074500Y-55447870D01*
X158074501Y-55447876D01*
X158080908Y-55507483D01*
X158131202Y-55642328D01*
X158131206Y-55642335D01*
X158217452Y-55757544D01*
X158217455Y-55757547D01*
X158332664Y-55843793D01*
X158332671Y-55843797D01*
X158377618Y-55860561D01*
X158467517Y-55894091D01*
X158527127Y-55900500D01*
X158972872Y-55900499D01*
X159032483Y-55894091D01*
X159167331Y-55843796D01*
X159282546Y-55757546D01*
X159368796Y-55642331D01*
X159419091Y-55507483D01*
X159425500Y-55447873D01*
X159425499Y-54834778D01*
X159445183Y-54767741D01*
X159497987Y-54721986D01*
X159567146Y-54712042D01*
X159630702Y-54741067D01*
G37*
G04 #@! TD.AperFunction*
M02*
