%TF.GenerationSoftware,KiCad,Pcbnew,7.0.11*%
%TF.CreationDate,2024-05-21T13:22:28-04:00*%
%TF.ProjectId,ISOCHet,49534f43-4865-4742-9e6b-696361645f70,rev?*%
%TF.SameCoordinates,Original*%
%TF.FileFunction,Drillmap*%
%TF.FilePolarity,Positive*%
%FSLAX45Y45*%
G04 Gerber Fmt 4.5, Leading zero omitted, Abs format (unit mm)*
G04 Created by KiCad (PCBNEW 7.0.11) date 2024-05-21 13:22:28*
%MOMM*%
%LPD*%
G01*
G04 APERTURE LIST*
%ADD10C,0.200000*%
%ADD11C,0.175000*%
%ADD12C,0.398780*%
G04 APERTURE END LIST*
D10*
X13017500Y-7520000D02*
X13017500Y-3910000D01*
X13117500Y-3810000D02*
G75*
G03*
X13017500Y-3910000I0J-100000D01*
G01*
X13017500Y-7520000D02*
G75*
G03*
X13117500Y-7620000I100000J0D01*
G01*
X18732500Y-3910000D02*
X18732500Y-7520000D01*
X18632500Y-7620000D02*
X13117500Y-7620000D01*
X18632500Y-7620000D02*
G75*
G03*
X18732500Y-7520000I0J100000D01*
G01*
X13117500Y-3810000D02*
X18632500Y-3810000D01*
X18732500Y-3910000D02*
G75*
G03*
X18632500Y-3810000I-100000J0D01*
G01*
D11*
X13612625Y-6580000D02*
X13787625Y-6755000D01*
X13787625Y-6580000D02*
X13612625Y-6755000D01*
X13850750Y-4675000D02*
X14025750Y-4850000D01*
X14025750Y-4675000D02*
X13850750Y-4850000D01*
X13850750Y-6580000D02*
X14025750Y-6755000D01*
X14025750Y-6580000D02*
X13850750Y-6755000D01*
X14866750Y-4675000D02*
X15041750Y-4850000D01*
X15041750Y-4675000D02*
X14866750Y-4850000D01*
X14866750Y-6580000D02*
X15041750Y-6755000D01*
X15041750Y-6580000D02*
X14866750Y-6755000D01*
X15104875Y-6580000D02*
X15279875Y-6755000D01*
X15279875Y-6580000D02*
X15104875Y-6755000D01*
X16946375Y-5627500D02*
X17121375Y-5802500D01*
X17121375Y-5627500D02*
X16946375Y-5802500D01*
X17962375Y-5627500D02*
X18137375Y-5802500D01*
X18137375Y-5627500D02*
X17962375Y-5802500D01*
D12*
X14407515Y-6667500D02*
G75*
G03*
X14008735Y-6667500I-199390J0D01*
G01*
X14008735Y-6667500D02*
G75*
G03*
X14407515Y-6667500I199390J0D01*
G01*
X14645640Y-4762500D02*
G75*
G03*
X14246860Y-4762500I-199390J0D01*
G01*
X14246860Y-4762500D02*
G75*
G03*
X14645640Y-4762500I199390J0D01*
G01*
X14645640Y-6667500D02*
G75*
G03*
X14246860Y-6667500I-199390J0D01*
G01*
X14246860Y-6667500D02*
G75*
G03*
X14645640Y-6667500I199390J0D01*
G01*
X14883765Y-6667500D02*
G75*
G03*
X14484985Y-6667500I-199390J0D01*
G01*
X14484985Y-6667500D02*
G75*
G03*
X14883765Y-6667500I199390J0D01*
G01*
X16915765Y-4524375D02*
G75*
G03*
X16516985Y-4524375I-199390J0D01*
G01*
X16516985Y-4524375D02*
G75*
G03*
X16915765Y-4524375I199390J0D01*
G01*
X16915765Y-6905625D02*
G75*
G03*
X16516985Y-6905625I-199390J0D01*
G01*
X16516985Y-6905625D02*
G75*
G03*
X16915765Y-6905625I199390J0D01*
G01*
X17741265Y-5715000D02*
G75*
G03*
X17342485Y-5715000I-199390J0D01*
G01*
X17342485Y-5715000D02*
G75*
G03*
X17741265Y-5715000I199390J0D01*
G01*
D10*
X13268277Y-7941484D02*
X13268277Y-7741484D01*
X13268277Y-7741484D02*
X13315896Y-7741484D01*
X13315896Y-7741484D02*
X13344467Y-7751008D01*
X13344467Y-7751008D02*
X13363515Y-7770055D01*
X13363515Y-7770055D02*
X13373039Y-7789103D01*
X13373039Y-7789103D02*
X13382562Y-7827198D01*
X13382562Y-7827198D02*
X13382562Y-7855769D01*
X13382562Y-7855769D02*
X13373039Y-7893865D01*
X13373039Y-7893865D02*
X13363515Y-7912912D01*
X13363515Y-7912912D02*
X13344467Y-7931960D01*
X13344467Y-7931960D02*
X13315896Y-7941484D01*
X13315896Y-7941484D02*
X13268277Y-7941484D01*
X13468277Y-7941484D02*
X13468277Y-7808150D01*
X13468277Y-7846246D02*
X13477801Y-7827198D01*
X13477801Y-7827198D02*
X13487324Y-7817674D01*
X13487324Y-7817674D02*
X13506372Y-7808150D01*
X13506372Y-7808150D02*
X13525420Y-7808150D01*
X13592086Y-7941484D02*
X13592086Y-7808150D01*
X13592086Y-7741484D02*
X13582562Y-7751008D01*
X13582562Y-7751008D02*
X13592086Y-7760531D01*
X13592086Y-7760531D02*
X13601610Y-7751008D01*
X13601610Y-7751008D02*
X13592086Y-7741484D01*
X13592086Y-7741484D02*
X13592086Y-7760531D01*
X13715896Y-7941484D02*
X13696848Y-7931960D01*
X13696848Y-7931960D02*
X13687324Y-7912912D01*
X13687324Y-7912912D02*
X13687324Y-7741484D01*
X13820658Y-7941484D02*
X13801610Y-7931960D01*
X13801610Y-7931960D02*
X13792086Y-7912912D01*
X13792086Y-7912912D02*
X13792086Y-7741484D01*
X14049229Y-7941484D02*
X14049229Y-7741484D01*
X14049229Y-7741484D02*
X14115896Y-7884341D01*
X14115896Y-7884341D02*
X14182562Y-7741484D01*
X14182562Y-7741484D02*
X14182562Y-7941484D01*
X14363515Y-7941484D02*
X14363515Y-7836722D01*
X14363515Y-7836722D02*
X14353991Y-7817674D01*
X14353991Y-7817674D02*
X14334943Y-7808150D01*
X14334943Y-7808150D02*
X14296848Y-7808150D01*
X14296848Y-7808150D02*
X14277801Y-7817674D01*
X14363515Y-7931960D02*
X14344467Y-7941484D01*
X14344467Y-7941484D02*
X14296848Y-7941484D01*
X14296848Y-7941484D02*
X14277801Y-7931960D01*
X14277801Y-7931960D02*
X14268277Y-7912912D01*
X14268277Y-7912912D02*
X14268277Y-7893865D01*
X14268277Y-7893865D02*
X14277801Y-7874817D01*
X14277801Y-7874817D02*
X14296848Y-7865293D01*
X14296848Y-7865293D02*
X14344467Y-7865293D01*
X14344467Y-7865293D02*
X14363515Y-7855769D01*
X14458753Y-7808150D02*
X14458753Y-8008150D01*
X14458753Y-7817674D02*
X14477801Y-7808150D01*
X14477801Y-7808150D02*
X14515896Y-7808150D01*
X14515896Y-7808150D02*
X14534943Y-7817674D01*
X14534943Y-7817674D02*
X14544467Y-7827198D01*
X14544467Y-7827198D02*
X14553991Y-7846246D01*
X14553991Y-7846246D02*
X14553991Y-7903388D01*
X14553991Y-7903388D02*
X14544467Y-7922436D01*
X14544467Y-7922436D02*
X14534943Y-7931960D01*
X14534943Y-7931960D02*
X14515896Y-7941484D01*
X14515896Y-7941484D02*
X14477801Y-7941484D01*
X14477801Y-7941484D02*
X14458753Y-7931960D01*
X14639705Y-7922436D02*
X14649229Y-7931960D01*
X14649229Y-7931960D02*
X14639705Y-7941484D01*
X14639705Y-7941484D02*
X14630182Y-7931960D01*
X14630182Y-7931960D02*
X14639705Y-7922436D01*
X14639705Y-7922436D02*
X14639705Y-7941484D01*
X14639705Y-7817674D02*
X14649229Y-7827198D01*
X14649229Y-7827198D02*
X14639705Y-7836722D01*
X14639705Y-7836722D02*
X14630182Y-7827198D01*
X14630182Y-7827198D02*
X14639705Y-7817674D01*
X14639705Y-7817674D02*
X14639705Y-7836722D01*
D11*
X12832500Y-8182500D02*
X13007500Y-8357500D01*
X13007500Y-8182500D02*
X12832500Y-8357500D01*
D10*
X13373039Y-8361484D02*
X13258753Y-8361484D01*
X13315896Y-8361484D02*
X13315896Y-8161484D01*
X13315896Y-8161484D02*
X13296848Y-8190055D01*
X13296848Y-8190055D02*
X13277801Y-8209103D01*
X13277801Y-8209103D02*
X13258753Y-8218627D01*
X13458753Y-8342436D02*
X13468277Y-8351960D01*
X13468277Y-8351960D02*
X13458753Y-8361484D01*
X13458753Y-8361484D02*
X13449229Y-8351960D01*
X13449229Y-8351960D02*
X13458753Y-8342436D01*
X13458753Y-8342436D02*
X13458753Y-8361484D01*
X13534943Y-8161484D02*
X13668277Y-8161484D01*
X13668277Y-8161484D02*
X13582562Y-8361484D01*
X13839705Y-8161484D02*
X13744467Y-8161484D01*
X13744467Y-8161484D02*
X13734943Y-8256722D01*
X13734943Y-8256722D02*
X13744467Y-8247198D01*
X13744467Y-8247198D02*
X13763515Y-8237674D01*
X13763515Y-8237674D02*
X13811134Y-8237674D01*
X13811134Y-8237674D02*
X13830182Y-8247198D01*
X13830182Y-8247198D02*
X13839705Y-8256722D01*
X13839705Y-8256722D02*
X13849229Y-8275769D01*
X13849229Y-8275769D02*
X13849229Y-8323388D01*
X13849229Y-8323388D02*
X13839705Y-8342436D01*
X13839705Y-8342436D02*
X13830182Y-8351960D01*
X13830182Y-8351960D02*
X13811134Y-8361484D01*
X13811134Y-8361484D02*
X13763515Y-8361484D01*
X13763515Y-8361484D02*
X13744467Y-8351960D01*
X13744467Y-8351960D02*
X13734943Y-8342436D01*
X13973039Y-8161484D02*
X13992086Y-8161484D01*
X13992086Y-8161484D02*
X14011134Y-8171008D01*
X14011134Y-8171008D02*
X14020658Y-8180531D01*
X14020658Y-8180531D02*
X14030182Y-8199579D01*
X14030182Y-8199579D02*
X14039705Y-8237674D01*
X14039705Y-8237674D02*
X14039705Y-8285293D01*
X14039705Y-8285293D02*
X14030182Y-8323388D01*
X14030182Y-8323388D02*
X14020658Y-8342436D01*
X14020658Y-8342436D02*
X14011134Y-8351960D01*
X14011134Y-8351960D02*
X13992086Y-8361484D01*
X13992086Y-8361484D02*
X13973039Y-8361484D01*
X13973039Y-8361484D02*
X13953991Y-8351960D01*
X13953991Y-8351960D02*
X13944467Y-8342436D01*
X13944467Y-8342436D02*
X13934943Y-8323388D01*
X13934943Y-8323388D02*
X13925420Y-8285293D01*
X13925420Y-8285293D02*
X13925420Y-8237674D01*
X13925420Y-8237674D02*
X13934943Y-8199579D01*
X13934943Y-8199579D02*
X13944467Y-8180531D01*
X13944467Y-8180531D02*
X13953991Y-8171008D01*
X13953991Y-8171008D02*
X13973039Y-8161484D01*
X14125420Y-8361484D02*
X14125420Y-8228150D01*
X14125420Y-8247198D02*
X14134943Y-8237674D01*
X14134943Y-8237674D02*
X14153991Y-8228150D01*
X14153991Y-8228150D02*
X14182563Y-8228150D01*
X14182563Y-8228150D02*
X14201610Y-8237674D01*
X14201610Y-8237674D02*
X14211134Y-8256722D01*
X14211134Y-8256722D02*
X14211134Y-8361484D01*
X14211134Y-8256722D02*
X14220658Y-8237674D01*
X14220658Y-8237674D02*
X14239705Y-8228150D01*
X14239705Y-8228150D02*
X14268277Y-8228150D01*
X14268277Y-8228150D02*
X14287324Y-8237674D01*
X14287324Y-8237674D02*
X14296848Y-8256722D01*
X14296848Y-8256722D02*
X14296848Y-8361484D01*
X14392086Y-8361484D02*
X14392086Y-8228150D01*
X14392086Y-8247198D02*
X14401610Y-8237674D01*
X14401610Y-8237674D02*
X14420658Y-8228150D01*
X14420658Y-8228150D02*
X14449229Y-8228150D01*
X14449229Y-8228150D02*
X14468277Y-8237674D01*
X14468277Y-8237674D02*
X14477801Y-8256722D01*
X14477801Y-8256722D02*
X14477801Y-8361484D01*
X14477801Y-8256722D02*
X14487324Y-8237674D01*
X14487324Y-8237674D02*
X14506372Y-8228150D01*
X14506372Y-8228150D02*
X14534943Y-8228150D01*
X14534943Y-8228150D02*
X14553991Y-8237674D01*
X14553991Y-8237674D02*
X14563515Y-8256722D01*
X14563515Y-8256722D02*
X14563515Y-8361484D01*
X14953991Y-8151960D02*
X14782563Y-8409103D01*
X15211134Y-8161484D02*
X15230182Y-8161484D01*
X15230182Y-8161484D02*
X15249229Y-8171008D01*
X15249229Y-8171008D02*
X15258753Y-8180531D01*
X15258753Y-8180531D02*
X15268277Y-8199579D01*
X15268277Y-8199579D02*
X15277801Y-8237674D01*
X15277801Y-8237674D02*
X15277801Y-8285293D01*
X15277801Y-8285293D02*
X15268277Y-8323388D01*
X15268277Y-8323388D02*
X15258753Y-8342436D01*
X15258753Y-8342436D02*
X15249229Y-8351960D01*
X15249229Y-8351960D02*
X15230182Y-8361484D01*
X15230182Y-8361484D02*
X15211134Y-8361484D01*
X15211134Y-8361484D02*
X15192086Y-8351960D01*
X15192086Y-8351960D02*
X15182563Y-8342436D01*
X15182563Y-8342436D02*
X15173039Y-8323388D01*
X15173039Y-8323388D02*
X15163515Y-8285293D01*
X15163515Y-8285293D02*
X15163515Y-8237674D01*
X15163515Y-8237674D02*
X15173039Y-8199579D01*
X15173039Y-8199579D02*
X15182563Y-8180531D01*
X15182563Y-8180531D02*
X15192086Y-8171008D01*
X15192086Y-8171008D02*
X15211134Y-8161484D01*
X15363515Y-8342436D02*
X15373039Y-8351960D01*
X15373039Y-8351960D02*
X15363515Y-8361484D01*
X15363515Y-8361484D02*
X15353991Y-8351960D01*
X15353991Y-8351960D02*
X15363515Y-8342436D01*
X15363515Y-8342436D02*
X15363515Y-8361484D01*
X15496848Y-8161484D02*
X15515896Y-8161484D01*
X15515896Y-8161484D02*
X15534944Y-8171008D01*
X15534944Y-8171008D02*
X15544467Y-8180531D01*
X15544467Y-8180531D02*
X15553991Y-8199579D01*
X15553991Y-8199579D02*
X15563515Y-8237674D01*
X15563515Y-8237674D02*
X15563515Y-8285293D01*
X15563515Y-8285293D02*
X15553991Y-8323388D01*
X15553991Y-8323388D02*
X15544467Y-8342436D01*
X15544467Y-8342436D02*
X15534944Y-8351960D01*
X15534944Y-8351960D02*
X15515896Y-8361484D01*
X15515896Y-8361484D02*
X15496848Y-8361484D01*
X15496848Y-8361484D02*
X15477801Y-8351960D01*
X15477801Y-8351960D02*
X15468277Y-8342436D01*
X15468277Y-8342436D02*
X15458753Y-8323388D01*
X15458753Y-8323388D02*
X15449229Y-8285293D01*
X15449229Y-8285293D02*
X15449229Y-8237674D01*
X15449229Y-8237674D02*
X15458753Y-8199579D01*
X15458753Y-8199579D02*
X15468277Y-8180531D01*
X15468277Y-8180531D02*
X15477801Y-8171008D01*
X15477801Y-8171008D02*
X15496848Y-8161484D01*
X15734944Y-8161484D02*
X15696848Y-8161484D01*
X15696848Y-8161484D02*
X15677801Y-8171008D01*
X15677801Y-8171008D02*
X15668277Y-8180531D01*
X15668277Y-8180531D02*
X15649229Y-8209103D01*
X15649229Y-8209103D02*
X15639706Y-8247198D01*
X15639706Y-8247198D02*
X15639706Y-8323388D01*
X15639706Y-8323388D02*
X15649229Y-8342436D01*
X15649229Y-8342436D02*
X15658753Y-8351960D01*
X15658753Y-8351960D02*
X15677801Y-8361484D01*
X15677801Y-8361484D02*
X15715896Y-8361484D01*
X15715896Y-8361484D02*
X15734944Y-8351960D01*
X15734944Y-8351960D02*
X15744467Y-8342436D01*
X15744467Y-8342436D02*
X15753991Y-8323388D01*
X15753991Y-8323388D02*
X15753991Y-8275769D01*
X15753991Y-8275769D02*
X15744467Y-8256722D01*
X15744467Y-8256722D02*
X15734944Y-8247198D01*
X15734944Y-8247198D02*
X15715896Y-8237674D01*
X15715896Y-8237674D02*
X15677801Y-8237674D01*
X15677801Y-8237674D02*
X15658753Y-8247198D01*
X15658753Y-8247198D02*
X15649229Y-8256722D01*
X15649229Y-8256722D02*
X15639706Y-8275769D01*
X15868277Y-8247198D02*
X15849229Y-8237674D01*
X15849229Y-8237674D02*
X15839706Y-8228150D01*
X15839706Y-8228150D02*
X15830182Y-8209103D01*
X15830182Y-8209103D02*
X15830182Y-8199579D01*
X15830182Y-8199579D02*
X15839706Y-8180531D01*
X15839706Y-8180531D02*
X15849229Y-8171008D01*
X15849229Y-8171008D02*
X15868277Y-8161484D01*
X15868277Y-8161484D02*
X15906372Y-8161484D01*
X15906372Y-8161484D02*
X15925420Y-8171008D01*
X15925420Y-8171008D02*
X15934944Y-8180531D01*
X15934944Y-8180531D02*
X15944467Y-8199579D01*
X15944467Y-8199579D02*
X15944467Y-8209103D01*
X15944467Y-8209103D02*
X15934944Y-8228150D01*
X15934944Y-8228150D02*
X15925420Y-8237674D01*
X15925420Y-8237674D02*
X15906372Y-8247198D01*
X15906372Y-8247198D02*
X15868277Y-8247198D01*
X15868277Y-8247198D02*
X15849229Y-8256722D01*
X15849229Y-8256722D02*
X15839706Y-8266246D01*
X15839706Y-8266246D02*
X15830182Y-8285293D01*
X15830182Y-8285293D02*
X15830182Y-8323388D01*
X15830182Y-8323388D02*
X15839706Y-8342436D01*
X15839706Y-8342436D02*
X15849229Y-8351960D01*
X15849229Y-8351960D02*
X15868277Y-8361484D01*
X15868277Y-8361484D02*
X15906372Y-8361484D01*
X15906372Y-8361484D02*
X15925420Y-8351960D01*
X15925420Y-8351960D02*
X15934944Y-8342436D01*
X15934944Y-8342436D02*
X15944467Y-8323388D01*
X15944467Y-8323388D02*
X15944467Y-8285293D01*
X15944467Y-8285293D02*
X15934944Y-8266246D01*
X15934944Y-8266246D02*
X15925420Y-8256722D01*
X15925420Y-8256722D02*
X15906372Y-8247198D01*
X16039706Y-8361484D02*
X16077801Y-8361484D01*
X16077801Y-8361484D02*
X16096848Y-8351960D01*
X16096848Y-8351960D02*
X16106372Y-8342436D01*
X16106372Y-8342436D02*
X16125420Y-8313865D01*
X16125420Y-8313865D02*
X16134944Y-8275769D01*
X16134944Y-8275769D02*
X16134944Y-8199579D01*
X16134944Y-8199579D02*
X16125420Y-8180531D01*
X16125420Y-8180531D02*
X16115896Y-8171008D01*
X16115896Y-8171008D02*
X16096848Y-8161484D01*
X16096848Y-8161484D02*
X16058753Y-8161484D01*
X16058753Y-8161484D02*
X16039706Y-8171008D01*
X16039706Y-8171008D02*
X16030182Y-8180531D01*
X16030182Y-8180531D02*
X16020658Y-8199579D01*
X16020658Y-8199579D02*
X16020658Y-8247198D01*
X16020658Y-8247198D02*
X16030182Y-8266246D01*
X16030182Y-8266246D02*
X16039706Y-8275769D01*
X16039706Y-8275769D02*
X16058753Y-8285293D01*
X16058753Y-8285293D02*
X16096848Y-8285293D01*
X16096848Y-8285293D02*
X16115896Y-8275769D01*
X16115896Y-8275769D02*
X16125420Y-8266246D01*
X16125420Y-8266246D02*
X16134944Y-8247198D01*
X16211134Y-8161484D02*
X16211134Y-8199579D01*
X16287325Y-8161484D02*
X16287325Y-8199579D01*
X16582563Y-8437674D02*
X16573039Y-8428150D01*
X16573039Y-8428150D02*
X16553991Y-8399579D01*
X16553991Y-8399579D02*
X16544468Y-8380531D01*
X16544468Y-8380531D02*
X16534944Y-8351960D01*
X16534944Y-8351960D02*
X16525420Y-8304341D01*
X16525420Y-8304341D02*
X16525420Y-8266246D01*
X16525420Y-8266246D02*
X16534944Y-8218627D01*
X16534944Y-8218627D02*
X16544468Y-8190055D01*
X16544468Y-8190055D02*
X16553991Y-8171008D01*
X16553991Y-8171008D02*
X16573039Y-8142436D01*
X16573039Y-8142436D02*
X16582563Y-8132912D01*
X16687325Y-8247198D02*
X16668277Y-8237674D01*
X16668277Y-8237674D02*
X16658753Y-8228150D01*
X16658753Y-8228150D02*
X16649229Y-8209103D01*
X16649229Y-8209103D02*
X16649229Y-8199579D01*
X16649229Y-8199579D02*
X16658753Y-8180531D01*
X16658753Y-8180531D02*
X16668277Y-8171008D01*
X16668277Y-8171008D02*
X16687325Y-8161484D01*
X16687325Y-8161484D02*
X16725420Y-8161484D01*
X16725420Y-8161484D02*
X16744468Y-8171008D01*
X16744468Y-8171008D02*
X16753991Y-8180531D01*
X16753991Y-8180531D02*
X16763515Y-8199579D01*
X16763515Y-8199579D02*
X16763515Y-8209103D01*
X16763515Y-8209103D02*
X16753991Y-8228150D01*
X16753991Y-8228150D02*
X16744468Y-8237674D01*
X16744468Y-8237674D02*
X16725420Y-8247198D01*
X16725420Y-8247198D02*
X16687325Y-8247198D01*
X16687325Y-8247198D02*
X16668277Y-8256722D01*
X16668277Y-8256722D02*
X16658753Y-8266246D01*
X16658753Y-8266246D02*
X16649229Y-8285293D01*
X16649229Y-8285293D02*
X16649229Y-8323388D01*
X16649229Y-8323388D02*
X16658753Y-8342436D01*
X16658753Y-8342436D02*
X16668277Y-8351960D01*
X16668277Y-8351960D02*
X16687325Y-8361484D01*
X16687325Y-8361484D02*
X16725420Y-8361484D01*
X16725420Y-8361484D02*
X16744468Y-8351960D01*
X16744468Y-8351960D02*
X16753991Y-8342436D01*
X16753991Y-8342436D02*
X16763515Y-8323388D01*
X16763515Y-8323388D02*
X16763515Y-8285293D01*
X16763515Y-8285293D02*
X16753991Y-8266246D01*
X16753991Y-8266246D02*
X16744468Y-8256722D01*
X16744468Y-8256722D02*
X16725420Y-8247198D01*
X17001611Y-8361484D02*
X17001611Y-8161484D01*
X17087325Y-8361484D02*
X17087325Y-8256722D01*
X17087325Y-8256722D02*
X17077801Y-8237674D01*
X17077801Y-8237674D02*
X17058753Y-8228150D01*
X17058753Y-8228150D02*
X17030182Y-8228150D01*
X17030182Y-8228150D02*
X17011134Y-8237674D01*
X17011134Y-8237674D02*
X17001611Y-8247198D01*
X17211134Y-8361484D02*
X17192087Y-8351960D01*
X17192087Y-8351960D02*
X17182563Y-8342436D01*
X17182563Y-8342436D02*
X17173039Y-8323388D01*
X17173039Y-8323388D02*
X17173039Y-8266246D01*
X17173039Y-8266246D02*
X17182563Y-8247198D01*
X17182563Y-8247198D02*
X17192087Y-8237674D01*
X17192087Y-8237674D02*
X17211134Y-8228150D01*
X17211134Y-8228150D02*
X17239706Y-8228150D01*
X17239706Y-8228150D02*
X17258753Y-8237674D01*
X17258753Y-8237674D02*
X17268277Y-8247198D01*
X17268277Y-8247198D02*
X17277801Y-8266246D01*
X17277801Y-8266246D02*
X17277801Y-8323388D01*
X17277801Y-8323388D02*
X17268277Y-8342436D01*
X17268277Y-8342436D02*
X17258753Y-8351960D01*
X17258753Y-8351960D02*
X17239706Y-8361484D01*
X17239706Y-8361484D02*
X17211134Y-8361484D01*
X17392087Y-8361484D02*
X17373039Y-8351960D01*
X17373039Y-8351960D02*
X17363515Y-8332912D01*
X17363515Y-8332912D02*
X17363515Y-8161484D01*
X17544468Y-8351960D02*
X17525420Y-8361484D01*
X17525420Y-8361484D02*
X17487325Y-8361484D01*
X17487325Y-8361484D02*
X17468277Y-8351960D01*
X17468277Y-8351960D02*
X17458753Y-8332912D01*
X17458753Y-8332912D02*
X17458753Y-8256722D01*
X17458753Y-8256722D02*
X17468277Y-8237674D01*
X17468277Y-8237674D02*
X17487325Y-8228150D01*
X17487325Y-8228150D02*
X17525420Y-8228150D01*
X17525420Y-8228150D02*
X17544468Y-8237674D01*
X17544468Y-8237674D02*
X17553992Y-8256722D01*
X17553992Y-8256722D02*
X17553992Y-8275769D01*
X17553992Y-8275769D02*
X17458753Y-8294817D01*
X17630182Y-8351960D02*
X17649230Y-8361484D01*
X17649230Y-8361484D02*
X17687325Y-8361484D01*
X17687325Y-8361484D02*
X17706373Y-8351960D01*
X17706373Y-8351960D02*
X17715896Y-8332912D01*
X17715896Y-8332912D02*
X17715896Y-8323388D01*
X17715896Y-8323388D02*
X17706373Y-8304341D01*
X17706373Y-8304341D02*
X17687325Y-8294817D01*
X17687325Y-8294817D02*
X17658753Y-8294817D01*
X17658753Y-8294817D02*
X17639706Y-8285293D01*
X17639706Y-8285293D02*
X17630182Y-8266246D01*
X17630182Y-8266246D02*
X17630182Y-8256722D01*
X17630182Y-8256722D02*
X17639706Y-8237674D01*
X17639706Y-8237674D02*
X17658753Y-8228150D01*
X17658753Y-8228150D02*
X17687325Y-8228150D01*
X17687325Y-8228150D02*
X17706373Y-8237674D01*
X17782563Y-8437674D02*
X17792087Y-8428150D01*
X17792087Y-8428150D02*
X17811134Y-8399579D01*
X17811134Y-8399579D02*
X17820658Y-8380531D01*
X17820658Y-8380531D02*
X17830182Y-8351960D01*
X17830182Y-8351960D02*
X17839706Y-8304341D01*
X17839706Y-8304341D02*
X17839706Y-8266246D01*
X17839706Y-8266246D02*
X17830182Y-8218627D01*
X17830182Y-8218627D02*
X17820658Y-8190055D01*
X17820658Y-8190055D02*
X17811134Y-8171008D01*
X17811134Y-8171008D02*
X17792087Y-8142436D01*
X17792087Y-8142436D02*
X17782563Y-8132912D01*
X18144468Y-8437674D02*
X18134944Y-8428150D01*
X18134944Y-8428150D02*
X18115896Y-8399579D01*
X18115896Y-8399579D02*
X18106373Y-8380531D01*
X18106373Y-8380531D02*
X18096849Y-8351960D01*
X18096849Y-8351960D02*
X18087325Y-8304341D01*
X18087325Y-8304341D02*
X18087325Y-8266246D01*
X18087325Y-8266246D02*
X18096849Y-8218627D01*
X18096849Y-8218627D02*
X18106373Y-8190055D01*
X18106373Y-8190055D02*
X18115896Y-8171008D01*
X18115896Y-8171008D02*
X18134944Y-8142436D01*
X18134944Y-8142436D02*
X18144468Y-8132912D01*
X18220658Y-8228150D02*
X18220658Y-8361484D01*
X18220658Y-8247198D02*
X18230182Y-8237674D01*
X18230182Y-8237674D02*
X18249230Y-8228150D01*
X18249230Y-8228150D02*
X18277801Y-8228150D01*
X18277801Y-8228150D02*
X18296849Y-8237674D01*
X18296849Y-8237674D02*
X18306373Y-8256722D01*
X18306373Y-8256722D02*
X18306373Y-8361484D01*
X18430182Y-8361484D02*
X18411134Y-8351960D01*
X18411134Y-8351960D02*
X18401611Y-8342436D01*
X18401611Y-8342436D02*
X18392087Y-8323388D01*
X18392087Y-8323388D02*
X18392087Y-8266246D01*
X18392087Y-8266246D02*
X18401611Y-8247198D01*
X18401611Y-8247198D02*
X18411134Y-8237674D01*
X18411134Y-8237674D02*
X18430182Y-8228150D01*
X18430182Y-8228150D02*
X18458754Y-8228150D01*
X18458754Y-8228150D02*
X18477801Y-8237674D01*
X18477801Y-8237674D02*
X18487325Y-8247198D01*
X18487325Y-8247198D02*
X18496849Y-8266246D01*
X18496849Y-8266246D02*
X18496849Y-8323388D01*
X18496849Y-8323388D02*
X18487325Y-8342436D01*
X18487325Y-8342436D02*
X18477801Y-8351960D01*
X18477801Y-8351960D02*
X18458754Y-8361484D01*
X18458754Y-8361484D02*
X18430182Y-8361484D01*
X18553992Y-8228150D02*
X18630182Y-8228150D01*
X18582563Y-8161484D02*
X18582563Y-8332912D01*
X18582563Y-8332912D02*
X18592087Y-8351960D01*
X18592087Y-8351960D02*
X18611134Y-8361484D01*
X18611134Y-8361484D02*
X18630182Y-8361484D01*
X18849230Y-8228150D02*
X18849230Y-8428150D01*
X18849230Y-8237674D02*
X18868277Y-8228150D01*
X18868277Y-8228150D02*
X18906373Y-8228150D01*
X18906373Y-8228150D02*
X18925420Y-8237674D01*
X18925420Y-8237674D02*
X18934944Y-8247198D01*
X18934944Y-8247198D02*
X18944468Y-8266246D01*
X18944468Y-8266246D02*
X18944468Y-8323388D01*
X18944468Y-8323388D02*
X18934944Y-8342436D01*
X18934944Y-8342436D02*
X18925420Y-8351960D01*
X18925420Y-8351960D02*
X18906373Y-8361484D01*
X18906373Y-8361484D02*
X18868277Y-8361484D01*
X18868277Y-8361484D02*
X18849230Y-8351960D01*
X19058754Y-8361484D02*
X19039706Y-8351960D01*
X19039706Y-8351960D02*
X19030182Y-8332912D01*
X19030182Y-8332912D02*
X19030182Y-8161484D01*
X19220658Y-8361484D02*
X19220658Y-8256722D01*
X19220658Y-8256722D02*
X19211135Y-8237674D01*
X19211135Y-8237674D02*
X19192087Y-8228150D01*
X19192087Y-8228150D02*
X19153992Y-8228150D01*
X19153992Y-8228150D02*
X19134944Y-8237674D01*
X19220658Y-8351960D02*
X19201611Y-8361484D01*
X19201611Y-8361484D02*
X19153992Y-8361484D01*
X19153992Y-8361484D02*
X19134944Y-8351960D01*
X19134944Y-8351960D02*
X19125420Y-8332912D01*
X19125420Y-8332912D02*
X19125420Y-8313865D01*
X19125420Y-8313865D02*
X19134944Y-8294817D01*
X19134944Y-8294817D02*
X19153992Y-8285293D01*
X19153992Y-8285293D02*
X19201611Y-8285293D01*
X19201611Y-8285293D02*
X19220658Y-8275769D01*
X19287325Y-8228150D02*
X19363515Y-8228150D01*
X19315896Y-8161484D02*
X19315896Y-8332912D01*
X19315896Y-8332912D02*
X19325420Y-8351960D01*
X19325420Y-8351960D02*
X19344468Y-8361484D01*
X19344468Y-8361484D02*
X19363515Y-8361484D01*
X19506373Y-8351960D02*
X19487325Y-8361484D01*
X19487325Y-8361484D02*
X19449230Y-8361484D01*
X19449230Y-8361484D02*
X19430182Y-8351960D01*
X19430182Y-8351960D02*
X19420658Y-8332912D01*
X19420658Y-8332912D02*
X19420658Y-8256722D01*
X19420658Y-8256722D02*
X19430182Y-8237674D01*
X19430182Y-8237674D02*
X19449230Y-8228150D01*
X19449230Y-8228150D02*
X19487325Y-8228150D01*
X19487325Y-8228150D02*
X19506373Y-8237674D01*
X19506373Y-8237674D02*
X19515896Y-8256722D01*
X19515896Y-8256722D02*
X19515896Y-8275769D01*
X19515896Y-8275769D02*
X19420658Y-8294817D01*
X19687325Y-8361484D02*
X19687325Y-8161484D01*
X19687325Y-8351960D02*
X19668277Y-8361484D01*
X19668277Y-8361484D02*
X19630182Y-8361484D01*
X19630182Y-8361484D02*
X19611135Y-8351960D01*
X19611135Y-8351960D02*
X19601611Y-8342436D01*
X19601611Y-8342436D02*
X19592087Y-8323388D01*
X19592087Y-8323388D02*
X19592087Y-8266246D01*
X19592087Y-8266246D02*
X19601611Y-8247198D01*
X19601611Y-8247198D02*
X19611135Y-8237674D01*
X19611135Y-8237674D02*
X19630182Y-8228150D01*
X19630182Y-8228150D02*
X19668277Y-8228150D01*
X19668277Y-8228150D02*
X19687325Y-8237674D01*
X19763516Y-8437674D02*
X19773039Y-8428150D01*
X19773039Y-8428150D02*
X19792087Y-8399579D01*
X19792087Y-8399579D02*
X19801611Y-8380531D01*
X19801611Y-8380531D02*
X19811135Y-8351960D01*
X19811135Y-8351960D02*
X19820658Y-8304341D01*
X19820658Y-8304341D02*
X19820658Y-8266246D01*
X19820658Y-8266246D02*
X19811135Y-8218627D01*
X19811135Y-8218627D02*
X19801611Y-8190055D01*
X19801611Y-8190055D02*
X19792087Y-8171008D01*
X19792087Y-8171008D02*
X19773039Y-8142436D01*
X19773039Y-8142436D02*
X19763516Y-8132912D01*
X13007500Y-8565000D02*
G75*
G03*
X12807500Y-8565000I-100000J0D01*
G01*
X12807500Y-8565000D02*
G75*
G03*
X13007500Y-8565000I100000J0D01*
G01*
X13249229Y-8456484D02*
X13373039Y-8456484D01*
X13373039Y-8456484D02*
X13306372Y-8532674D01*
X13306372Y-8532674D02*
X13334943Y-8532674D01*
X13334943Y-8532674D02*
X13353991Y-8542198D01*
X13353991Y-8542198D02*
X13363515Y-8551722D01*
X13363515Y-8551722D02*
X13373039Y-8570770D01*
X13373039Y-8570770D02*
X13373039Y-8618389D01*
X13373039Y-8618389D02*
X13363515Y-8637436D01*
X13363515Y-8637436D02*
X13353991Y-8646960D01*
X13353991Y-8646960D02*
X13334943Y-8656484D01*
X13334943Y-8656484D02*
X13277801Y-8656484D01*
X13277801Y-8656484D02*
X13258753Y-8646960D01*
X13258753Y-8646960D02*
X13249229Y-8637436D01*
X13458753Y-8637436D02*
X13468277Y-8646960D01*
X13468277Y-8646960D02*
X13458753Y-8656484D01*
X13458753Y-8656484D02*
X13449229Y-8646960D01*
X13449229Y-8646960D02*
X13458753Y-8637436D01*
X13458753Y-8637436D02*
X13458753Y-8656484D01*
X13563515Y-8656484D02*
X13601610Y-8656484D01*
X13601610Y-8656484D02*
X13620658Y-8646960D01*
X13620658Y-8646960D02*
X13630182Y-8637436D01*
X13630182Y-8637436D02*
X13649229Y-8608865D01*
X13649229Y-8608865D02*
X13658753Y-8570770D01*
X13658753Y-8570770D02*
X13658753Y-8494579D01*
X13658753Y-8494579D02*
X13649229Y-8475531D01*
X13649229Y-8475531D02*
X13639705Y-8466008D01*
X13639705Y-8466008D02*
X13620658Y-8456484D01*
X13620658Y-8456484D02*
X13582562Y-8456484D01*
X13582562Y-8456484D02*
X13563515Y-8466008D01*
X13563515Y-8466008D02*
X13553991Y-8475531D01*
X13553991Y-8475531D02*
X13544467Y-8494579D01*
X13544467Y-8494579D02*
X13544467Y-8542198D01*
X13544467Y-8542198D02*
X13553991Y-8561246D01*
X13553991Y-8561246D02*
X13563515Y-8570770D01*
X13563515Y-8570770D02*
X13582562Y-8580293D01*
X13582562Y-8580293D02*
X13620658Y-8580293D01*
X13620658Y-8580293D02*
X13639705Y-8570770D01*
X13639705Y-8570770D02*
X13649229Y-8561246D01*
X13649229Y-8561246D02*
X13658753Y-8542198D01*
X13773039Y-8542198D02*
X13753991Y-8532674D01*
X13753991Y-8532674D02*
X13744467Y-8523150D01*
X13744467Y-8523150D02*
X13734943Y-8504103D01*
X13734943Y-8504103D02*
X13734943Y-8494579D01*
X13734943Y-8494579D02*
X13744467Y-8475531D01*
X13744467Y-8475531D02*
X13753991Y-8466008D01*
X13753991Y-8466008D02*
X13773039Y-8456484D01*
X13773039Y-8456484D02*
X13811134Y-8456484D01*
X13811134Y-8456484D02*
X13830182Y-8466008D01*
X13830182Y-8466008D02*
X13839705Y-8475531D01*
X13839705Y-8475531D02*
X13849229Y-8494579D01*
X13849229Y-8494579D02*
X13849229Y-8504103D01*
X13849229Y-8504103D02*
X13839705Y-8523150D01*
X13839705Y-8523150D02*
X13830182Y-8532674D01*
X13830182Y-8532674D02*
X13811134Y-8542198D01*
X13811134Y-8542198D02*
X13773039Y-8542198D01*
X13773039Y-8542198D02*
X13753991Y-8551722D01*
X13753991Y-8551722D02*
X13744467Y-8561246D01*
X13744467Y-8561246D02*
X13734943Y-8580293D01*
X13734943Y-8580293D02*
X13734943Y-8618389D01*
X13734943Y-8618389D02*
X13744467Y-8637436D01*
X13744467Y-8637436D02*
X13753991Y-8646960D01*
X13753991Y-8646960D02*
X13773039Y-8656484D01*
X13773039Y-8656484D02*
X13811134Y-8656484D01*
X13811134Y-8656484D02*
X13830182Y-8646960D01*
X13830182Y-8646960D02*
X13839705Y-8637436D01*
X13839705Y-8637436D02*
X13849229Y-8618389D01*
X13849229Y-8618389D02*
X13849229Y-8580293D01*
X13849229Y-8580293D02*
X13839705Y-8561246D01*
X13839705Y-8561246D02*
X13830182Y-8551722D01*
X13830182Y-8551722D02*
X13811134Y-8542198D01*
X13963515Y-8542198D02*
X13944467Y-8532674D01*
X13944467Y-8532674D02*
X13934943Y-8523150D01*
X13934943Y-8523150D02*
X13925420Y-8504103D01*
X13925420Y-8504103D02*
X13925420Y-8494579D01*
X13925420Y-8494579D02*
X13934943Y-8475531D01*
X13934943Y-8475531D02*
X13944467Y-8466008D01*
X13944467Y-8466008D02*
X13963515Y-8456484D01*
X13963515Y-8456484D02*
X14001610Y-8456484D01*
X14001610Y-8456484D02*
X14020658Y-8466008D01*
X14020658Y-8466008D02*
X14030182Y-8475531D01*
X14030182Y-8475531D02*
X14039705Y-8494579D01*
X14039705Y-8494579D02*
X14039705Y-8504103D01*
X14039705Y-8504103D02*
X14030182Y-8523150D01*
X14030182Y-8523150D02*
X14020658Y-8532674D01*
X14020658Y-8532674D02*
X14001610Y-8542198D01*
X14001610Y-8542198D02*
X13963515Y-8542198D01*
X13963515Y-8542198D02*
X13944467Y-8551722D01*
X13944467Y-8551722D02*
X13934943Y-8561246D01*
X13934943Y-8561246D02*
X13925420Y-8580293D01*
X13925420Y-8580293D02*
X13925420Y-8618389D01*
X13925420Y-8618389D02*
X13934943Y-8637436D01*
X13934943Y-8637436D02*
X13944467Y-8646960D01*
X13944467Y-8646960D02*
X13963515Y-8656484D01*
X13963515Y-8656484D02*
X14001610Y-8656484D01*
X14001610Y-8656484D02*
X14020658Y-8646960D01*
X14020658Y-8646960D02*
X14030182Y-8637436D01*
X14030182Y-8637436D02*
X14039705Y-8618389D01*
X14039705Y-8618389D02*
X14039705Y-8580293D01*
X14039705Y-8580293D02*
X14030182Y-8561246D01*
X14030182Y-8561246D02*
X14020658Y-8551722D01*
X14020658Y-8551722D02*
X14001610Y-8542198D01*
X14125420Y-8656484D02*
X14125420Y-8523150D01*
X14125420Y-8542198D02*
X14134943Y-8532674D01*
X14134943Y-8532674D02*
X14153991Y-8523150D01*
X14153991Y-8523150D02*
X14182563Y-8523150D01*
X14182563Y-8523150D02*
X14201610Y-8532674D01*
X14201610Y-8532674D02*
X14211134Y-8551722D01*
X14211134Y-8551722D02*
X14211134Y-8656484D01*
X14211134Y-8551722D02*
X14220658Y-8532674D01*
X14220658Y-8532674D02*
X14239705Y-8523150D01*
X14239705Y-8523150D02*
X14268277Y-8523150D01*
X14268277Y-8523150D02*
X14287324Y-8532674D01*
X14287324Y-8532674D02*
X14296848Y-8551722D01*
X14296848Y-8551722D02*
X14296848Y-8656484D01*
X14392086Y-8656484D02*
X14392086Y-8523150D01*
X14392086Y-8542198D02*
X14401610Y-8532674D01*
X14401610Y-8532674D02*
X14420658Y-8523150D01*
X14420658Y-8523150D02*
X14449229Y-8523150D01*
X14449229Y-8523150D02*
X14468277Y-8532674D01*
X14468277Y-8532674D02*
X14477801Y-8551722D01*
X14477801Y-8551722D02*
X14477801Y-8656484D01*
X14477801Y-8551722D02*
X14487324Y-8532674D01*
X14487324Y-8532674D02*
X14506372Y-8523150D01*
X14506372Y-8523150D02*
X14534943Y-8523150D01*
X14534943Y-8523150D02*
X14553991Y-8532674D01*
X14553991Y-8532674D02*
X14563515Y-8551722D01*
X14563515Y-8551722D02*
X14563515Y-8656484D01*
X14953991Y-8446960D02*
X14782563Y-8704103D01*
X15211134Y-8456484D02*
X15230182Y-8456484D01*
X15230182Y-8456484D02*
X15249229Y-8466008D01*
X15249229Y-8466008D02*
X15258753Y-8475531D01*
X15258753Y-8475531D02*
X15268277Y-8494579D01*
X15268277Y-8494579D02*
X15277801Y-8532674D01*
X15277801Y-8532674D02*
X15277801Y-8580293D01*
X15277801Y-8580293D02*
X15268277Y-8618389D01*
X15268277Y-8618389D02*
X15258753Y-8637436D01*
X15258753Y-8637436D02*
X15249229Y-8646960D01*
X15249229Y-8646960D02*
X15230182Y-8656484D01*
X15230182Y-8656484D02*
X15211134Y-8656484D01*
X15211134Y-8656484D02*
X15192086Y-8646960D01*
X15192086Y-8646960D02*
X15182563Y-8637436D01*
X15182563Y-8637436D02*
X15173039Y-8618389D01*
X15173039Y-8618389D02*
X15163515Y-8580293D01*
X15163515Y-8580293D02*
X15163515Y-8532674D01*
X15163515Y-8532674D02*
X15173039Y-8494579D01*
X15173039Y-8494579D02*
X15182563Y-8475531D01*
X15182563Y-8475531D02*
X15192086Y-8466008D01*
X15192086Y-8466008D02*
X15211134Y-8456484D01*
X15363515Y-8637436D02*
X15373039Y-8646960D01*
X15373039Y-8646960D02*
X15363515Y-8656484D01*
X15363515Y-8656484D02*
X15353991Y-8646960D01*
X15353991Y-8646960D02*
X15363515Y-8637436D01*
X15363515Y-8637436D02*
X15363515Y-8656484D01*
X15563515Y-8656484D02*
X15449229Y-8656484D01*
X15506372Y-8656484D02*
X15506372Y-8456484D01*
X15506372Y-8456484D02*
X15487325Y-8485055D01*
X15487325Y-8485055D02*
X15468277Y-8504103D01*
X15468277Y-8504103D02*
X15449229Y-8513627D01*
X15744467Y-8456484D02*
X15649229Y-8456484D01*
X15649229Y-8456484D02*
X15639706Y-8551722D01*
X15639706Y-8551722D02*
X15649229Y-8542198D01*
X15649229Y-8542198D02*
X15668277Y-8532674D01*
X15668277Y-8532674D02*
X15715896Y-8532674D01*
X15715896Y-8532674D02*
X15734944Y-8542198D01*
X15734944Y-8542198D02*
X15744467Y-8551722D01*
X15744467Y-8551722D02*
X15753991Y-8570770D01*
X15753991Y-8570770D02*
X15753991Y-8618389D01*
X15753991Y-8618389D02*
X15744467Y-8637436D01*
X15744467Y-8637436D02*
X15734944Y-8646960D01*
X15734944Y-8646960D02*
X15715896Y-8656484D01*
X15715896Y-8656484D02*
X15668277Y-8656484D01*
X15668277Y-8656484D02*
X15649229Y-8646960D01*
X15649229Y-8646960D02*
X15639706Y-8637436D01*
X15820658Y-8456484D02*
X15953991Y-8456484D01*
X15953991Y-8456484D02*
X15868277Y-8656484D01*
X16068277Y-8456484D02*
X16087325Y-8456484D01*
X16087325Y-8456484D02*
X16106372Y-8466008D01*
X16106372Y-8466008D02*
X16115896Y-8475531D01*
X16115896Y-8475531D02*
X16125420Y-8494579D01*
X16125420Y-8494579D02*
X16134944Y-8532674D01*
X16134944Y-8532674D02*
X16134944Y-8580293D01*
X16134944Y-8580293D02*
X16125420Y-8618389D01*
X16125420Y-8618389D02*
X16115896Y-8637436D01*
X16115896Y-8637436D02*
X16106372Y-8646960D01*
X16106372Y-8646960D02*
X16087325Y-8656484D01*
X16087325Y-8656484D02*
X16068277Y-8656484D01*
X16068277Y-8656484D02*
X16049229Y-8646960D01*
X16049229Y-8646960D02*
X16039706Y-8637436D01*
X16039706Y-8637436D02*
X16030182Y-8618389D01*
X16030182Y-8618389D02*
X16020658Y-8580293D01*
X16020658Y-8580293D02*
X16020658Y-8532674D01*
X16020658Y-8532674D02*
X16030182Y-8494579D01*
X16030182Y-8494579D02*
X16039706Y-8475531D01*
X16039706Y-8475531D02*
X16049229Y-8466008D01*
X16049229Y-8466008D02*
X16068277Y-8456484D01*
X16211134Y-8456484D02*
X16211134Y-8494579D01*
X16287325Y-8456484D02*
X16287325Y-8494579D01*
X16582563Y-8732674D02*
X16573039Y-8723150D01*
X16573039Y-8723150D02*
X16553991Y-8694579D01*
X16553991Y-8694579D02*
X16544468Y-8675531D01*
X16544468Y-8675531D02*
X16534944Y-8646960D01*
X16534944Y-8646960D02*
X16525420Y-8599341D01*
X16525420Y-8599341D02*
X16525420Y-8561246D01*
X16525420Y-8561246D02*
X16534944Y-8513627D01*
X16534944Y-8513627D02*
X16544468Y-8485055D01*
X16544468Y-8485055D02*
X16553991Y-8466008D01*
X16553991Y-8466008D02*
X16573039Y-8437436D01*
X16573039Y-8437436D02*
X16582563Y-8427912D01*
X16639706Y-8456484D02*
X16773039Y-8456484D01*
X16773039Y-8456484D02*
X16687325Y-8656484D01*
X17001611Y-8656484D02*
X17001611Y-8456484D01*
X17087325Y-8656484D02*
X17087325Y-8551722D01*
X17087325Y-8551722D02*
X17077801Y-8532674D01*
X17077801Y-8532674D02*
X17058753Y-8523150D01*
X17058753Y-8523150D02*
X17030182Y-8523150D01*
X17030182Y-8523150D02*
X17011134Y-8532674D01*
X17011134Y-8532674D02*
X17001611Y-8542198D01*
X17211134Y-8656484D02*
X17192087Y-8646960D01*
X17192087Y-8646960D02*
X17182563Y-8637436D01*
X17182563Y-8637436D02*
X17173039Y-8618389D01*
X17173039Y-8618389D02*
X17173039Y-8561246D01*
X17173039Y-8561246D02*
X17182563Y-8542198D01*
X17182563Y-8542198D02*
X17192087Y-8532674D01*
X17192087Y-8532674D02*
X17211134Y-8523150D01*
X17211134Y-8523150D02*
X17239706Y-8523150D01*
X17239706Y-8523150D02*
X17258753Y-8532674D01*
X17258753Y-8532674D02*
X17268277Y-8542198D01*
X17268277Y-8542198D02*
X17277801Y-8561246D01*
X17277801Y-8561246D02*
X17277801Y-8618389D01*
X17277801Y-8618389D02*
X17268277Y-8637436D01*
X17268277Y-8637436D02*
X17258753Y-8646960D01*
X17258753Y-8646960D02*
X17239706Y-8656484D01*
X17239706Y-8656484D02*
X17211134Y-8656484D01*
X17392087Y-8656484D02*
X17373039Y-8646960D01*
X17373039Y-8646960D02*
X17363515Y-8627912D01*
X17363515Y-8627912D02*
X17363515Y-8456484D01*
X17544468Y-8646960D02*
X17525420Y-8656484D01*
X17525420Y-8656484D02*
X17487325Y-8656484D01*
X17487325Y-8656484D02*
X17468277Y-8646960D01*
X17468277Y-8646960D02*
X17458753Y-8627912D01*
X17458753Y-8627912D02*
X17458753Y-8551722D01*
X17458753Y-8551722D02*
X17468277Y-8532674D01*
X17468277Y-8532674D02*
X17487325Y-8523150D01*
X17487325Y-8523150D02*
X17525420Y-8523150D01*
X17525420Y-8523150D02*
X17544468Y-8532674D01*
X17544468Y-8532674D02*
X17553992Y-8551722D01*
X17553992Y-8551722D02*
X17553992Y-8570770D01*
X17553992Y-8570770D02*
X17458753Y-8589817D01*
X17630182Y-8646960D02*
X17649230Y-8656484D01*
X17649230Y-8656484D02*
X17687325Y-8656484D01*
X17687325Y-8656484D02*
X17706373Y-8646960D01*
X17706373Y-8646960D02*
X17715896Y-8627912D01*
X17715896Y-8627912D02*
X17715896Y-8618389D01*
X17715896Y-8618389D02*
X17706373Y-8599341D01*
X17706373Y-8599341D02*
X17687325Y-8589817D01*
X17687325Y-8589817D02*
X17658753Y-8589817D01*
X17658753Y-8589817D02*
X17639706Y-8580293D01*
X17639706Y-8580293D02*
X17630182Y-8561246D01*
X17630182Y-8561246D02*
X17630182Y-8551722D01*
X17630182Y-8551722D02*
X17639706Y-8532674D01*
X17639706Y-8532674D02*
X17658753Y-8523150D01*
X17658753Y-8523150D02*
X17687325Y-8523150D01*
X17687325Y-8523150D02*
X17706373Y-8532674D01*
X17782563Y-8732674D02*
X17792087Y-8723150D01*
X17792087Y-8723150D02*
X17811134Y-8694579D01*
X17811134Y-8694579D02*
X17820658Y-8675531D01*
X17820658Y-8675531D02*
X17830182Y-8646960D01*
X17830182Y-8646960D02*
X17839706Y-8599341D01*
X17839706Y-8599341D02*
X17839706Y-8561246D01*
X17839706Y-8561246D02*
X17830182Y-8513627D01*
X17830182Y-8513627D02*
X17820658Y-8485055D01*
X17820658Y-8485055D02*
X17811134Y-8466008D01*
X17811134Y-8466008D02*
X17792087Y-8437436D01*
X17792087Y-8437436D02*
X17782563Y-8427912D01*
X18144468Y-8732674D02*
X18134944Y-8723150D01*
X18134944Y-8723150D02*
X18115896Y-8694579D01*
X18115896Y-8694579D02*
X18106373Y-8675531D01*
X18106373Y-8675531D02*
X18096849Y-8646960D01*
X18096849Y-8646960D02*
X18087325Y-8599341D01*
X18087325Y-8599341D02*
X18087325Y-8561246D01*
X18087325Y-8561246D02*
X18096849Y-8513627D01*
X18096849Y-8513627D02*
X18106373Y-8485055D01*
X18106373Y-8485055D02*
X18115896Y-8466008D01*
X18115896Y-8466008D02*
X18134944Y-8437436D01*
X18134944Y-8437436D02*
X18144468Y-8427912D01*
X18220658Y-8523150D02*
X18220658Y-8656484D01*
X18220658Y-8542198D02*
X18230182Y-8532674D01*
X18230182Y-8532674D02*
X18249230Y-8523150D01*
X18249230Y-8523150D02*
X18277801Y-8523150D01*
X18277801Y-8523150D02*
X18296849Y-8532674D01*
X18296849Y-8532674D02*
X18306373Y-8551722D01*
X18306373Y-8551722D02*
X18306373Y-8656484D01*
X18430182Y-8656484D02*
X18411134Y-8646960D01*
X18411134Y-8646960D02*
X18401611Y-8637436D01*
X18401611Y-8637436D02*
X18392087Y-8618389D01*
X18392087Y-8618389D02*
X18392087Y-8561246D01*
X18392087Y-8561246D02*
X18401611Y-8542198D01*
X18401611Y-8542198D02*
X18411134Y-8532674D01*
X18411134Y-8532674D02*
X18430182Y-8523150D01*
X18430182Y-8523150D02*
X18458754Y-8523150D01*
X18458754Y-8523150D02*
X18477801Y-8532674D01*
X18477801Y-8532674D02*
X18487325Y-8542198D01*
X18487325Y-8542198D02*
X18496849Y-8561246D01*
X18496849Y-8561246D02*
X18496849Y-8618389D01*
X18496849Y-8618389D02*
X18487325Y-8637436D01*
X18487325Y-8637436D02*
X18477801Y-8646960D01*
X18477801Y-8646960D02*
X18458754Y-8656484D01*
X18458754Y-8656484D02*
X18430182Y-8656484D01*
X18553992Y-8523150D02*
X18630182Y-8523150D01*
X18582563Y-8456484D02*
X18582563Y-8627912D01*
X18582563Y-8627912D02*
X18592087Y-8646960D01*
X18592087Y-8646960D02*
X18611134Y-8656484D01*
X18611134Y-8656484D02*
X18630182Y-8656484D01*
X18849230Y-8523150D02*
X18849230Y-8723150D01*
X18849230Y-8532674D02*
X18868277Y-8523150D01*
X18868277Y-8523150D02*
X18906373Y-8523150D01*
X18906373Y-8523150D02*
X18925420Y-8532674D01*
X18925420Y-8532674D02*
X18934944Y-8542198D01*
X18934944Y-8542198D02*
X18944468Y-8561246D01*
X18944468Y-8561246D02*
X18944468Y-8618389D01*
X18944468Y-8618389D02*
X18934944Y-8637436D01*
X18934944Y-8637436D02*
X18925420Y-8646960D01*
X18925420Y-8646960D02*
X18906373Y-8656484D01*
X18906373Y-8656484D02*
X18868277Y-8656484D01*
X18868277Y-8656484D02*
X18849230Y-8646960D01*
X19058754Y-8656484D02*
X19039706Y-8646960D01*
X19039706Y-8646960D02*
X19030182Y-8627912D01*
X19030182Y-8627912D02*
X19030182Y-8456484D01*
X19220658Y-8656484D02*
X19220658Y-8551722D01*
X19220658Y-8551722D02*
X19211135Y-8532674D01*
X19211135Y-8532674D02*
X19192087Y-8523150D01*
X19192087Y-8523150D02*
X19153992Y-8523150D01*
X19153992Y-8523150D02*
X19134944Y-8532674D01*
X19220658Y-8646960D02*
X19201611Y-8656484D01*
X19201611Y-8656484D02*
X19153992Y-8656484D01*
X19153992Y-8656484D02*
X19134944Y-8646960D01*
X19134944Y-8646960D02*
X19125420Y-8627912D01*
X19125420Y-8627912D02*
X19125420Y-8608865D01*
X19125420Y-8608865D02*
X19134944Y-8589817D01*
X19134944Y-8589817D02*
X19153992Y-8580293D01*
X19153992Y-8580293D02*
X19201611Y-8580293D01*
X19201611Y-8580293D02*
X19220658Y-8570770D01*
X19287325Y-8523150D02*
X19363515Y-8523150D01*
X19315896Y-8456484D02*
X19315896Y-8627912D01*
X19315896Y-8627912D02*
X19325420Y-8646960D01*
X19325420Y-8646960D02*
X19344468Y-8656484D01*
X19344468Y-8656484D02*
X19363515Y-8656484D01*
X19506373Y-8646960D02*
X19487325Y-8656484D01*
X19487325Y-8656484D02*
X19449230Y-8656484D01*
X19449230Y-8656484D02*
X19430182Y-8646960D01*
X19430182Y-8646960D02*
X19420658Y-8627912D01*
X19420658Y-8627912D02*
X19420658Y-8551722D01*
X19420658Y-8551722D02*
X19430182Y-8532674D01*
X19430182Y-8532674D02*
X19449230Y-8523150D01*
X19449230Y-8523150D02*
X19487325Y-8523150D01*
X19487325Y-8523150D02*
X19506373Y-8532674D01*
X19506373Y-8532674D02*
X19515896Y-8551722D01*
X19515896Y-8551722D02*
X19515896Y-8570770D01*
X19515896Y-8570770D02*
X19420658Y-8589817D01*
X19687325Y-8656484D02*
X19687325Y-8456484D01*
X19687325Y-8646960D02*
X19668277Y-8656484D01*
X19668277Y-8656484D02*
X19630182Y-8656484D01*
X19630182Y-8656484D02*
X19611135Y-8646960D01*
X19611135Y-8646960D02*
X19601611Y-8637436D01*
X19601611Y-8637436D02*
X19592087Y-8618389D01*
X19592087Y-8618389D02*
X19592087Y-8561246D01*
X19592087Y-8561246D02*
X19601611Y-8542198D01*
X19601611Y-8542198D02*
X19611135Y-8532674D01*
X19611135Y-8532674D02*
X19630182Y-8523150D01*
X19630182Y-8523150D02*
X19668277Y-8523150D01*
X19668277Y-8523150D02*
X19687325Y-8532674D01*
X19763516Y-8732674D02*
X19773039Y-8723150D01*
X19773039Y-8723150D02*
X19792087Y-8694579D01*
X19792087Y-8694579D02*
X19801611Y-8675531D01*
X19801611Y-8675531D02*
X19811135Y-8646960D01*
X19811135Y-8646960D02*
X19820658Y-8599341D01*
X19820658Y-8599341D02*
X19820658Y-8561246D01*
X19820658Y-8561246D02*
X19811135Y-8513627D01*
X19811135Y-8513627D02*
X19801611Y-8485055D01*
X19801611Y-8485055D02*
X19792087Y-8466008D01*
X19792087Y-8466008D02*
X19773039Y-8437436D01*
X19773039Y-8437436D02*
X19763516Y-8427912D01*
M02*
