%TF.GenerationSoftware,KiCad,Pcbnew,7.0.11*%
%TF.CreationDate,2024-05-21T13:22:28-04:00*%
%TF.ProjectId,ISOCHet,49534f43-4865-4742-9e6b-696361645f70,rev?*%
%TF.SameCoordinates,Original*%
%TF.FileFunction,Drillmap*%
%TF.FilePolarity,Positive*%
%FSLAX45Y45*%
G04 Gerber Fmt 4.5, Leading zero omitted, Abs format (unit mm)*
G04 Created by KiCad (PCBNEW 7.0.11) date 2024-05-21 13:22:28*
%MOMM*%
%LPD*%
G01*
G04 APERTURE LIST*
%ADD10C,0.200000*%
%ADD11C,0.100000*%
%ADD12C,0.152400*%
%ADD13C,0.220000*%
%ADD14C,0.304800*%
G04 APERTURE END LIST*
D10*
X13017500Y-7520000D02*
X13017500Y-3910000D01*
X13117500Y-3810000D02*
G75*
G03*
X13017500Y-3910000I0J-100000D01*
G01*
X13017500Y-7520000D02*
G75*
G03*
X13117500Y-7620000I100000J0D01*
G01*
X18732500Y-3910000D02*
X18732500Y-7520000D01*
X18632500Y-7620000D02*
X13117500Y-7620000D01*
X18632500Y-7620000D02*
G75*
G03*
X18732500Y-7520000I0J100000D01*
G01*
X13117500Y-3810000D02*
X18632500Y-3810000D01*
X18732500Y-3910000D02*
G75*
G03*
X18632500Y-3810000I-100000J0D01*
G01*
D11*
X13730000Y-5055000D02*
X13770000Y-5095000D01*
X13770000Y-5055000D02*
X13730000Y-5095000D01*
X15155000Y-5930000D02*
X15195000Y-5970000D01*
X15195000Y-5930000D02*
X15155000Y-5970000D01*
X15450000Y-5495000D02*
X15490000Y-5535000D01*
X15490000Y-5495000D02*
X15450000Y-5535000D01*
X15600000Y-4345000D02*
G75*
G03*
X15555000Y-4345000I-22500J0D01*
G01*
X15555000Y-4345000D02*
G75*
G03*
X15600000Y-4345000I22500J0D01*
G01*
X15600000Y-4480000D02*
G75*
G03*
X15555000Y-4480000I-22500J0D01*
G01*
X15555000Y-4480000D02*
G75*
G03*
X15600000Y-4480000I22500J0D01*
G01*
X15685000Y-4345000D02*
G75*
G03*
X15640000Y-4345000I-22500J0D01*
G01*
X15640000Y-4345000D02*
G75*
G03*
X15685000Y-4345000I22500J0D01*
G01*
X15685000Y-4480000D02*
G75*
G03*
X15640000Y-4480000I-22500J0D01*
G01*
X15640000Y-4480000D02*
G75*
G03*
X15685000Y-4480000I22500J0D01*
G01*
X15770000Y-4345000D02*
G75*
G03*
X15725000Y-4345000I-22500J0D01*
G01*
X15725000Y-4345000D02*
G75*
G03*
X15770000Y-4345000I22500J0D01*
G01*
X15770000Y-4480000D02*
G75*
G03*
X15725000Y-4480000I-22500J0D01*
G01*
X15725000Y-4480000D02*
G75*
G03*
X15770000Y-4480000I22500J0D01*
G01*
X15855000Y-4345000D02*
G75*
G03*
X15810000Y-4345000I-22500J0D01*
G01*
X15810000Y-4345000D02*
G75*
G03*
X15855000Y-4345000I22500J0D01*
G01*
X15855000Y-4480000D02*
G75*
G03*
X15810000Y-4480000I-22500J0D01*
G01*
X15810000Y-4480000D02*
G75*
G03*
X15855000Y-4480000I22500J0D01*
G01*
X15940000Y-4345000D02*
G75*
G03*
X15895000Y-4345000I-22500J0D01*
G01*
X15895000Y-4345000D02*
G75*
G03*
X15940000Y-4345000I22500J0D01*
G01*
X15940000Y-4480000D02*
G75*
G03*
X15895000Y-4480000I-22500J0D01*
G01*
X15895000Y-4480000D02*
G75*
G03*
X15940000Y-4480000I22500J0D01*
G01*
X16025000Y-4345000D02*
G75*
G03*
X15980000Y-4345000I-22500J0D01*
G01*
X15980000Y-4345000D02*
G75*
G03*
X16025000Y-4345000I22500J0D01*
G01*
X16025000Y-4480000D02*
G75*
G03*
X15980000Y-4480000I-22500J0D01*
G01*
X15980000Y-4480000D02*
G75*
G03*
X16025000Y-4480000I22500J0D01*
G01*
X16110000Y-4345000D02*
G75*
G03*
X16065000Y-4345000I-22500J0D01*
G01*
X16065000Y-4345000D02*
G75*
G03*
X16110000Y-4345000I22500J0D01*
G01*
X16110000Y-4480000D02*
G75*
G03*
X16065000Y-4480000I-22500J0D01*
G01*
X16065000Y-4480000D02*
G75*
G03*
X16110000Y-4480000I22500J0D01*
G01*
X16195000Y-4345000D02*
G75*
G03*
X16150000Y-4345000I-22500J0D01*
G01*
X16150000Y-4345000D02*
G75*
G03*
X16195000Y-4345000I22500J0D01*
G01*
X16195000Y-4480000D02*
G75*
G03*
X16150000Y-4480000I-22500J0D01*
G01*
X16150000Y-4480000D02*
G75*
G03*
X16195000Y-4480000I22500J0D01*
G01*
X15443000Y-3977500D02*
X15443000Y-4052500D01*
X15405500Y-4015000D02*
X15480500Y-4015000D01*
X15480500Y-4060000D02*
X15480500Y-3970000D01*
X15480500Y-3970000D02*
G75*
G03*
X15405500Y-3970000I-37500J0D01*
G01*
X15405500Y-3970000D02*
X15405500Y-4060000D01*
X15405500Y-4060000D02*
G75*
G03*
X15480500Y-4060000I37500J0D01*
G01*
X15443000Y-4392500D02*
X15443000Y-4467500D01*
X15405500Y-4430000D02*
X15480500Y-4430000D01*
X15480500Y-4495000D02*
X15480500Y-4365000D01*
X15480500Y-4365000D02*
G75*
G03*
X15405500Y-4365000I-37500J0D01*
G01*
X15405500Y-4365000D02*
X15405500Y-4495000D01*
X15405500Y-4495000D02*
G75*
G03*
X15480500Y-4495000I37500J0D01*
G01*
X16307000Y-3977500D02*
X16307000Y-4052500D01*
X16269500Y-4015000D02*
X16344500Y-4015000D01*
X16344500Y-4060000D02*
X16344500Y-3970000D01*
X16344500Y-3970000D02*
G75*
G03*
X16269500Y-3970000I-37500J0D01*
G01*
X16269500Y-3970000D02*
X16269500Y-4060000D01*
X16269500Y-4060000D02*
G75*
G03*
X16344500Y-4060000I37500J0D01*
G01*
X16307000Y-4392500D02*
X16307000Y-4467500D01*
X16269500Y-4430000D02*
X16344500Y-4430000D01*
X16344500Y-4495000D02*
X16344500Y-4365000D01*
X16344500Y-4365000D02*
G75*
G03*
X16269500Y-4365000I-37500J0D01*
G01*
X16269500Y-4365000D02*
X16269500Y-4495000D01*
X16269500Y-4495000D02*
G75*
G03*
X16344500Y-4495000I37500J0D01*
G01*
X16253284Y-6217784D02*
X16253284Y-6161215D01*
X16196715Y-6161215D01*
X16196715Y-6217784D01*
X16253284Y-6217784D01*
X16253284Y-6979784D02*
X16253284Y-6923215D01*
X16196715Y-6923215D01*
X16196715Y-6979784D01*
X16253284Y-6979784D01*
X18428285Y-5343285D02*
X18428285Y-5286716D01*
X18371716Y-5286716D01*
X18371716Y-5343285D01*
X18428285Y-5343285D01*
X18428285Y-5543285D02*
X18428285Y-5486716D01*
X18371716Y-5486716D01*
X18371716Y-5543285D01*
X18428285Y-5543285D01*
X18428285Y-5743284D02*
X18428285Y-5686715D01*
X18371716Y-5686715D01*
X18371716Y-5743284D01*
X18428285Y-5743284D01*
X18428285Y-5943284D02*
X18428285Y-5886715D01*
X18371716Y-5886715D01*
X18371716Y-5943284D01*
X18428285Y-5943284D01*
X18428285Y-6143284D02*
X18428285Y-6086715D01*
X18371716Y-6086715D01*
X18371716Y-6143284D01*
X18428285Y-6143284D01*
X13827125Y-6463500D02*
X13877125Y-6413500D01*
X13827125Y-6363500D01*
X13777125Y-6413500D01*
X13827125Y-6463500D01*
X13800925Y-6463500D02*
X13853325Y-6463500D01*
X13853325Y-6463500D02*
G75*
G03*
X13853325Y-6363500I0J50000D01*
G01*
X13853325Y-6363500D02*
X13800925Y-6363500D01*
X13800925Y-6363500D02*
G75*
G03*
X13800925Y-6463500I0J-50000D01*
G01*
X14065250Y-6463500D02*
X14115250Y-6413500D01*
X14065250Y-6363500D01*
X14015250Y-6413500D01*
X14065250Y-6463500D01*
X14039050Y-6463500D02*
X14091450Y-6463500D01*
X14091450Y-6463500D02*
G75*
G03*
X14091450Y-6363500I0J50000D01*
G01*
X14091450Y-6363500D02*
X14039050Y-6363500D01*
X14039050Y-6363500D02*
G75*
G03*
X14039050Y-6463500I0J-50000D01*
G01*
X14303375Y-6463500D02*
X14353375Y-6413500D01*
X14303375Y-6363500D01*
X14253375Y-6413500D01*
X14303375Y-6463500D01*
X14277175Y-6463500D02*
X14329575Y-6463500D01*
X14329575Y-6463500D02*
G75*
G03*
X14329575Y-6363500I0J50000D01*
G01*
X14329575Y-6363500D02*
X14277175Y-6363500D01*
X14277175Y-6363500D02*
G75*
G03*
X14277175Y-6463500I0J-50000D01*
G01*
D12*
X13989050Y-4432300D02*
X14141450Y-4584700D01*
X14141450Y-4432300D02*
X13989050Y-4584700D01*
X14141450Y-4508500D02*
G75*
G03*
X13989050Y-4508500I-76200J0D01*
G01*
X13989050Y-4508500D02*
G75*
G03*
X14141450Y-4508500I76200J0D01*
G01*
X14385925Y-6083300D02*
X14538325Y-6235700D01*
X14538325Y-6083300D02*
X14385925Y-6235700D01*
X14538325Y-6159500D02*
G75*
G03*
X14385925Y-6159500I-76200J0D01*
G01*
X14385925Y-6159500D02*
G75*
G03*
X14538325Y-6159500I76200J0D01*
G01*
X14624050Y-4178300D02*
X14776450Y-4330700D01*
X14776450Y-4178300D02*
X14624050Y-4330700D01*
X14776450Y-4254500D02*
G75*
G03*
X14624050Y-4254500I-76200J0D01*
G01*
X14624050Y-4254500D02*
G75*
G03*
X14776450Y-4254500I76200J0D01*
G01*
X14624050Y-6083300D02*
X14776450Y-6235700D01*
X14776450Y-6083300D02*
X14624050Y-6235700D01*
X14776450Y-6159500D02*
G75*
G03*
X14624050Y-6159500I-76200J0D01*
G01*
X14624050Y-6159500D02*
G75*
G03*
X14776450Y-6159500I76200J0D01*
G01*
X14862175Y-6083300D02*
X15014575Y-6235700D01*
X15014575Y-6083300D02*
X14862175Y-6235700D01*
X15014575Y-6159500D02*
G75*
G03*
X14862175Y-6159500I-76200J0D01*
G01*
X14862175Y-6159500D02*
G75*
G03*
X15014575Y-6159500I76200J0D01*
G01*
X17084675Y-5384800D02*
X17237075Y-5537200D01*
X17237075Y-5384800D02*
X17084675Y-5537200D01*
X17237075Y-5461000D02*
G75*
G03*
X17084675Y-5461000I-76200J0D01*
G01*
X17084675Y-5461000D02*
G75*
G03*
X17237075Y-5461000I76200J0D01*
G01*
X17719675Y-5130800D02*
X17872075Y-5283200D01*
X17872075Y-5130800D02*
X17719675Y-5283200D01*
X17872075Y-5207000D02*
G75*
G03*
X17719675Y-5207000I-76200J0D01*
G01*
X17719675Y-5207000D02*
G75*
G03*
X17872075Y-5207000I76200J0D01*
G01*
D13*
X15765000Y-5605000D02*
X15985000Y-5825000D01*
X15985000Y-5605000D02*
X15765000Y-5825000D01*
X15875000Y-5605000D02*
X15875000Y-5825000D01*
X15765000Y-5715000D02*
X15985000Y-5715000D01*
D14*
X18087975Y-4371975D02*
X18392775Y-4676775D01*
X18392775Y-4371975D02*
X18087975Y-4676775D01*
X18348139Y-4632139D02*
X18348139Y-4416611D01*
X18132611Y-4416611D01*
X18132611Y-4632139D01*
X18348139Y-4632139D01*
X18087975Y-6753225D02*
X18392775Y-7058025D01*
X18392775Y-6753225D02*
X18087975Y-7058025D01*
X18348139Y-7013389D02*
X18348139Y-6797861D01*
X18132611Y-6797861D01*
X18132611Y-7013389D01*
X18348139Y-7013389D01*
D10*
X13268277Y-7941484D02*
X13268277Y-7741484D01*
X13268277Y-7741484D02*
X13315896Y-7741484D01*
X13315896Y-7741484D02*
X13344467Y-7751008D01*
X13344467Y-7751008D02*
X13363515Y-7770055D01*
X13363515Y-7770055D02*
X13373039Y-7789103D01*
X13373039Y-7789103D02*
X13382562Y-7827198D01*
X13382562Y-7827198D02*
X13382562Y-7855769D01*
X13382562Y-7855769D02*
X13373039Y-7893865D01*
X13373039Y-7893865D02*
X13363515Y-7912912D01*
X13363515Y-7912912D02*
X13344467Y-7931960D01*
X13344467Y-7931960D02*
X13315896Y-7941484D01*
X13315896Y-7941484D02*
X13268277Y-7941484D01*
X13468277Y-7941484D02*
X13468277Y-7808150D01*
X13468277Y-7846246D02*
X13477801Y-7827198D01*
X13477801Y-7827198D02*
X13487324Y-7817674D01*
X13487324Y-7817674D02*
X13506372Y-7808150D01*
X13506372Y-7808150D02*
X13525420Y-7808150D01*
X13592086Y-7941484D02*
X13592086Y-7808150D01*
X13592086Y-7741484D02*
X13582562Y-7751008D01*
X13582562Y-7751008D02*
X13592086Y-7760531D01*
X13592086Y-7760531D02*
X13601610Y-7751008D01*
X13601610Y-7751008D02*
X13592086Y-7741484D01*
X13592086Y-7741484D02*
X13592086Y-7760531D01*
X13715896Y-7941484D02*
X13696848Y-7931960D01*
X13696848Y-7931960D02*
X13687324Y-7912912D01*
X13687324Y-7912912D02*
X13687324Y-7741484D01*
X13820658Y-7941484D02*
X13801610Y-7931960D01*
X13801610Y-7931960D02*
X13792086Y-7912912D01*
X13792086Y-7912912D02*
X13792086Y-7741484D01*
X14049229Y-7941484D02*
X14049229Y-7741484D01*
X14049229Y-7741484D02*
X14115896Y-7884341D01*
X14115896Y-7884341D02*
X14182562Y-7741484D01*
X14182562Y-7741484D02*
X14182562Y-7941484D01*
X14363515Y-7941484D02*
X14363515Y-7836722D01*
X14363515Y-7836722D02*
X14353991Y-7817674D01*
X14353991Y-7817674D02*
X14334943Y-7808150D01*
X14334943Y-7808150D02*
X14296848Y-7808150D01*
X14296848Y-7808150D02*
X14277801Y-7817674D01*
X14363515Y-7931960D02*
X14344467Y-7941484D01*
X14344467Y-7941484D02*
X14296848Y-7941484D01*
X14296848Y-7941484D02*
X14277801Y-7931960D01*
X14277801Y-7931960D02*
X14268277Y-7912912D01*
X14268277Y-7912912D02*
X14268277Y-7893865D01*
X14268277Y-7893865D02*
X14277801Y-7874817D01*
X14277801Y-7874817D02*
X14296848Y-7865293D01*
X14296848Y-7865293D02*
X14344467Y-7865293D01*
X14344467Y-7865293D02*
X14363515Y-7855769D01*
X14458753Y-7808150D02*
X14458753Y-8008150D01*
X14458753Y-7817674D02*
X14477801Y-7808150D01*
X14477801Y-7808150D02*
X14515896Y-7808150D01*
X14515896Y-7808150D02*
X14534943Y-7817674D01*
X14534943Y-7817674D02*
X14544467Y-7827198D01*
X14544467Y-7827198D02*
X14553991Y-7846246D01*
X14553991Y-7846246D02*
X14553991Y-7903388D01*
X14553991Y-7903388D02*
X14544467Y-7922436D01*
X14544467Y-7922436D02*
X14534943Y-7931960D01*
X14534943Y-7931960D02*
X14515896Y-7941484D01*
X14515896Y-7941484D02*
X14477801Y-7941484D01*
X14477801Y-7941484D02*
X14458753Y-7931960D01*
X14639705Y-7922436D02*
X14649229Y-7931960D01*
X14649229Y-7931960D02*
X14639705Y-7941484D01*
X14639705Y-7941484D02*
X14630182Y-7931960D01*
X14630182Y-7931960D02*
X14639705Y-7922436D01*
X14639705Y-7922436D02*
X14639705Y-7941484D01*
X14639705Y-7817674D02*
X14649229Y-7827198D01*
X14649229Y-7827198D02*
X14639705Y-7836722D01*
X14639705Y-7836722D02*
X14630182Y-7827198D01*
X14630182Y-7827198D02*
X14639705Y-7817674D01*
X14639705Y-7817674D02*
X14639705Y-7836722D01*
D11*
X12967500Y-8250000D02*
X13007500Y-8290000D01*
X13007500Y-8250000D02*
X12967500Y-8290000D01*
D10*
X13306372Y-8161484D02*
X13325420Y-8161484D01*
X13325420Y-8161484D02*
X13344467Y-8171008D01*
X13344467Y-8171008D02*
X13353991Y-8180531D01*
X13353991Y-8180531D02*
X13363515Y-8199579D01*
X13363515Y-8199579D02*
X13373039Y-8237674D01*
X13373039Y-8237674D02*
X13373039Y-8285293D01*
X13373039Y-8285293D02*
X13363515Y-8323388D01*
X13363515Y-8323388D02*
X13353991Y-8342436D01*
X13353991Y-8342436D02*
X13344467Y-8351960D01*
X13344467Y-8351960D02*
X13325420Y-8361484D01*
X13325420Y-8361484D02*
X13306372Y-8361484D01*
X13306372Y-8361484D02*
X13287324Y-8351960D01*
X13287324Y-8351960D02*
X13277801Y-8342436D01*
X13277801Y-8342436D02*
X13268277Y-8323388D01*
X13268277Y-8323388D02*
X13258753Y-8285293D01*
X13258753Y-8285293D02*
X13258753Y-8237674D01*
X13258753Y-8237674D02*
X13268277Y-8199579D01*
X13268277Y-8199579D02*
X13277801Y-8180531D01*
X13277801Y-8180531D02*
X13287324Y-8171008D01*
X13287324Y-8171008D02*
X13306372Y-8161484D01*
X13458753Y-8342436D02*
X13468277Y-8351960D01*
X13468277Y-8351960D02*
X13458753Y-8361484D01*
X13458753Y-8361484D02*
X13449229Y-8351960D01*
X13449229Y-8351960D02*
X13458753Y-8342436D01*
X13458753Y-8342436D02*
X13458753Y-8361484D01*
X13639705Y-8228150D02*
X13639705Y-8361484D01*
X13592086Y-8151960D02*
X13544467Y-8294817D01*
X13544467Y-8294817D02*
X13668277Y-8294817D01*
X13782562Y-8161484D02*
X13801610Y-8161484D01*
X13801610Y-8161484D02*
X13820658Y-8171008D01*
X13820658Y-8171008D02*
X13830182Y-8180531D01*
X13830182Y-8180531D02*
X13839705Y-8199579D01*
X13839705Y-8199579D02*
X13849229Y-8237674D01*
X13849229Y-8237674D02*
X13849229Y-8285293D01*
X13849229Y-8285293D02*
X13839705Y-8323388D01*
X13839705Y-8323388D02*
X13830182Y-8342436D01*
X13830182Y-8342436D02*
X13820658Y-8351960D01*
X13820658Y-8351960D02*
X13801610Y-8361484D01*
X13801610Y-8361484D02*
X13782562Y-8361484D01*
X13782562Y-8361484D02*
X13763515Y-8351960D01*
X13763515Y-8351960D02*
X13753991Y-8342436D01*
X13753991Y-8342436D02*
X13744467Y-8323388D01*
X13744467Y-8323388D02*
X13734943Y-8285293D01*
X13734943Y-8285293D02*
X13734943Y-8237674D01*
X13734943Y-8237674D02*
X13744467Y-8199579D01*
X13744467Y-8199579D02*
X13753991Y-8180531D01*
X13753991Y-8180531D02*
X13763515Y-8171008D01*
X13763515Y-8171008D02*
X13782562Y-8161484D01*
X13973039Y-8161484D02*
X13992086Y-8161484D01*
X13992086Y-8161484D02*
X14011134Y-8171008D01*
X14011134Y-8171008D02*
X14020658Y-8180531D01*
X14020658Y-8180531D02*
X14030182Y-8199579D01*
X14030182Y-8199579D02*
X14039705Y-8237674D01*
X14039705Y-8237674D02*
X14039705Y-8285293D01*
X14039705Y-8285293D02*
X14030182Y-8323388D01*
X14030182Y-8323388D02*
X14020658Y-8342436D01*
X14020658Y-8342436D02*
X14011134Y-8351960D01*
X14011134Y-8351960D02*
X13992086Y-8361484D01*
X13992086Y-8361484D02*
X13973039Y-8361484D01*
X13973039Y-8361484D02*
X13953991Y-8351960D01*
X13953991Y-8351960D02*
X13944467Y-8342436D01*
X13944467Y-8342436D02*
X13934943Y-8323388D01*
X13934943Y-8323388D02*
X13925420Y-8285293D01*
X13925420Y-8285293D02*
X13925420Y-8237674D01*
X13925420Y-8237674D02*
X13934943Y-8199579D01*
X13934943Y-8199579D02*
X13944467Y-8180531D01*
X13944467Y-8180531D02*
X13953991Y-8171008D01*
X13953991Y-8171008D02*
X13973039Y-8161484D01*
X14125420Y-8361484D02*
X14125420Y-8228150D01*
X14125420Y-8247198D02*
X14134943Y-8237674D01*
X14134943Y-8237674D02*
X14153991Y-8228150D01*
X14153991Y-8228150D02*
X14182563Y-8228150D01*
X14182563Y-8228150D02*
X14201610Y-8237674D01*
X14201610Y-8237674D02*
X14211134Y-8256722D01*
X14211134Y-8256722D02*
X14211134Y-8361484D01*
X14211134Y-8256722D02*
X14220658Y-8237674D01*
X14220658Y-8237674D02*
X14239705Y-8228150D01*
X14239705Y-8228150D02*
X14268277Y-8228150D01*
X14268277Y-8228150D02*
X14287324Y-8237674D01*
X14287324Y-8237674D02*
X14296848Y-8256722D01*
X14296848Y-8256722D02*
X14296848Y-8361484D01*
X14392086Y-8361484D02*
X14392086Y-8228150D01*
X14392086Y-8247198D02*
X14401610Y-8237674D01*
X14401610Y-8237674D02*
X14420658Y-8228150D01*
X14420658Y-8228150D02*
X14449229Y-8228150D01*
X14449229Y-8228150D02*
X14468277Y-8237674D01*
X14468277Y-8237674D02*
X14477801Y-8256722D01*
X14477801Y-8256722D02*
X14477801Y-8361484D01*
X14477801Y-8256722D02*
X14487324Y-8237674D01*
X14487324Y-8237674D02*
X14506372Y-8228150D01*
X14506372Y-8228150D02*
X14534943Y-8228150D01*
X14534943Y-8228150D02*
X14553991Y-8237674D01*
X14553991Y-8237674D02*
X14563515Y-8256722D01*
X14563515Y-8256722D02*
X14563515Y-8361484D01*
X14953991Y-8151960D02*
X14782563Y-8409103D01*
X15211134Y-8161484D02*
X15230182Y-8161484D01*
X15230182Y-8161484D02*
X15249229Y-8171008D01*
X15249229Y-8171008D02*
X15258753Y-8180531D01*
X15258753Y-8180531D02*
X15268277Y-8199579D01*
X15268277Y-8199579D02*
X15277801Y-8237674D01*
X15277801Y-8237674D02*
X15277801Y-8285293D01*
X15277801Y-8285293D02*
X15268277Y-8323388D01*
X15268277Y-8323388D02*
X15258753Y-8342436D01*
X15258753Y-8342436D02*
X15249229Y-8351960D01*
X15249229Y-8351960D02*
X15230182Y-8361484D01*
X15230182Y-8361484D02*
X15211134Y-8361484D01*
X15211134Y-8361484D02*
X15192086Y-8351960D01*
X15192086Y-8351960D02*
X15182563Y-8342436D01*
X15182563Y-8342436D02*
X15173039Y-8323388D01*
X15173039Y-8323388D02*
X15163515Y-8285293D01*
X15163515Y-8285293D02*
X15163515Y-8237674D01*
X15163515Y-8237674D02*
X15173039Y-8199579D01*
X15173039Y-8199579D02*
X15182563Y-8180531D01*
X15182563Y-8180531D02*
X15192086Y-8171008D01*
X15192086Y-8171008D02*
X15211134Y-8161484D01*
X15363515Y-8342436D02*
X15373039Y-8351960D01*
X15373039Y-8351960D02*
X15363515Y-8361484D01*
X15363515Y-8361484D02*
X15353991Y-8351960D01*
X15353991Y-8351960D02*
X15363515Y-8342436D01*
X15363515Y-8342436D02*
X15363515Y-8361484D01*
X15496848Y-8161484D02*
X15515896Y-8161484D01*
X15515896Y-8161484D02*
X15534944Y-8171008D01*
X15534944Y-8171008D02*
X15544467Y-8180531D01*
X15544467Y-8180531D02*
X15553991Y-8199579D01*
X15553991Y-8199579D02*
X15563515Y-8237674D01*
X15563515Y-8237674D02*
X15563515Y-8285293D01*
X15563515Y-8285293D02*
X15553991Y-8323388D01*
X15553991Y-8323388D02*
X15544467Y-8342436D01*
X15544467Y-8342436D02*
X15534944Y-8351960D01*
X15534944Y-8351960D02*
X15515896Y-8361484D01*
X15515896Y-8361484D02*
X15496848Y-8361484D01*
X15496848Y-8361484D02*
X15477801Y-8351960D01*
X15477801Y-8351960D02*
X15468277Y-8342436D01*
X15468277Y-8342436D02*
X15458753Y-8323388D01*
X15458753Y-8323388D02*
X15449229Y-8285293D01*
X15449229Y-8285293D02*
X15449229Y-8237674D01*
X15449229Y-8237674D02*
X15458753Y-8199579D01*
X15458753Y-8199579D02*
X15468277Y-8180531D01*
X15468277Y-8180531D02*
X15477801Y-8171008D01*
X15477801Y-8171008D02*
X15496848Y-8161484D01*
X15753991Y-8361484D02*
X15639706Y-8361484D01*
X15696848Y-8361484D02*
X15696848Y-8161484D01*
X15696848Y-8161484D02*
X15677801Y-8190055D01*
X15677801Y-8190055D02*
X15658753Y-8209103D01*
X15658753Y-8209103D02*
X15639706Y-8218627D01*
X15934944Y-8161484D02*
X15839706Y-8161484D01*
X15839706Y-8161484D02*
X15830182Y-8256722D01*
X15830182Y-8256722D02*
X15839706Y-8247198D01*
X15839706Y-8247198D02*
X15858753Y-8237674D01*
X15858753Y-8237674D02*
X15906372Y-8237674D01*
X15906372Y-8237674D02*
X15925420Y-8247198D01*
X15925420Y-8247198D02*
X15934944Y-8256722D01*
X15934944Y-8256722D02*
X15944467Y-8275769D01*
X15944467Y-8275769D02*
X15944467Y-8323388D01*
X15944467Y-8323388D02*
X15934944Y-8342436D01*
X15934944Y-8342436D02*
X15925420Y-8351960D01*
X15925420Y-8351960D02*
X15906372Y-8361484D01*
X15906372Y-8361484D02*
X15858753Y-8361484D01*
X15858753Y-8361484D02*
X15839706Y-8351960D01*
X15839706Y-8351960D02*
X15830182Y-8342436D01*
X16011134Y-8161484D02*
X16144467Y-8161484D01*
X16144467Y-8161484D02*
X16058753Y-8361484D01*
X16211134Y-8161484D02*
X16211134Y-8199579D01*
X16287325Y-8161484D02*
X16287325Y-8199579D01*
X16582563Y-8437674D02*
X16573039Y-8428150D01*
X16573039Y-8428150D02*
X16553991Y-8399579D01*
X16553991Y-8399579D02*
X16544468Y-8380531D01*
X16544468Y-8380531D02*
X16534944Y-8351960D01*
X16534944Y-8351960D02*
X16525420Y-8304341D01*
X16525420Y-8304341D02*
X16525420Y-8266246D01*
X16525420Y-8266246D02*
X16534944Y-8218627D01*
X16534944Y-8218627D02*
X16544468Y-8190055D01*
X16544468Y-8190055D02*
X16553991Y-8171008D01*
X16553991Y-8171008D02*
X16573039Y-8142436D01*
X16573039Y-8142436D02*
X16582563Y-8132912D01*
X16639706Y-8161484D02*
X16763515Y-8161484D01*
X16763515Y-8161484D02*
X16696848Y-8237674D01*
X16696848Y-8237674D02*
X16725420Y-8237674D01*
X16725420Y-8237674D02*
X16744468Y-8247198D01*
X16744468Y-8247198D02*
X16753991Y-8256722D01*
X16753991Y-8256722D02*
X16763515Y-8275769D01*
X16763515Y-8275769D02*
X16763515Y-8323388D01*
X16763515Y-8323388D02*
X16753991Y-8342436D01*
X16753991Y-8342436D02*
X16744468Y-8351960D01*
X16744468Y-8351960D02*
X16725420Y-8361484D01*
X16725420Y-8361484D02*
X16668277Y-8361484D01*
X16668277Y-8361484D02*
X16649229Y-8351960D01*
X16649229Y-8351960D02*
X16639706Y-8342436D01*
X17001611Y-8361484D02*
X17001611Y-8161484D01*
X17087325Y-8361484D02*
X17087325Y-8256722D01*
X17087325Y-8256722D02*
X17077801Y-8237674D01*
X17077801Y-8237674D02*
X17058753Y-8228150D01*
X17058753Y-8228150D02*
X17030182Y-8228150D01*
X17030182Y-8228150D02*
X17011134Y-8237674D01*
X17011134Y-8237674D02*
X17001611Y-8247198D01*
X17211134Y-8361484D02*
X17192087Y-8351960D01*
X17192087Y-8351960D02*
X17182563Y-8342436D01*
X17182563Y-8342436D02*
X17173039Y-8323388D01*
X17173039Y-8323388D02*
X17173039Y-8266246D01*
X17173039Y-8266246D02*
X17182563Y-8247198D01*
X17182563Y-8247198D02*
X17192087Y-8237674D01*
X17192087Y-8237674D02*
X17211134Y-8228150D01*
X17211134Y-8228150D02*
X17239706Y-8228150D01*
X17239706Y-8228150D02*
X17258753Y-8237674D01*
X17258753Y-8237674D02*
X17268277Y-8247198D01*
X17268277Y-8247198D02*
X17277801Y-8266246D01*
X17277801Y-8266246D02*
X17277801Y-8323388D01*
X17277801Y-8323388D02*
X17268277Y-8342436D01*
X17268277Y-8342436D02*
X17258753Y-8351960D01*
X17258753Y-8351960D02*
X17239706Y-8361484D01*
X17239706Y-8361484D02*
X17211134Y-8361484D01*
X17392087Y-8361484D02*
X17373039Y-8351960D01*
X17373039Y-8351960D02*
X17363515Y-8332912D01*
X17363515Y-8332912D02*
X17363515Y-8161484D01*
X17544468Y-8351960D02*
X17525420Y-8361484D01*
X17525420Y-8361484D02*
X17487325Y-8361484D01*
X17487325Y-8361484D02*
X17468277Y-8351960D01*
X17468277Y-8351960D02*
X17458753Y-8332912D01*
X17458753Y-8332912D02*
X17458753Y-8256722D01*
X17458753Y-8256722D02*
X17468277Y-8237674D01*
X17468277Y-8237674D02*
X17487325Y-8228150D01*
X17487325Y-8228150D02*
X17525420Y-8228150D01*
X17525420Y-8228150D02*
X17544468Y-8237674D01*
X17544468Y-8237674D02*
X17553992Y-8256722D01*
X17553992Y-8256722D02*
X17553992Y-8275769D01*
X17553992Y-8275769D02*
X17458753Y-8294817D01*
X17630182Y-8351960D02*
X17649230Y-8361484D01*
X17649230Y-8361484D02*
X17687325Y-8361484D01*
X17687325Y-8361484D02*
X17706373Y-8351960D01*
X17706373Y-8351960D02*
X17715896Y-8332912D01*
X17715896Y-8332912D02*
X17715896Y-8323388D01*
X17715896Y-8323388D02*
X17706373Y-8304341D01*
X17706373Y-8304341D02*
X17687325Y-8294817D01*
X17687325Y-8294817D02*
X17658753Y-8294817D01*
X17658753Y-8294817D02*
X17639706Y-8285293D01*
X17639706Y-8285293D02*
X17630182Y-8266246D01*
X17630182Y-8266246D02*
X17630182Y-8256722D01*
X17630182Y-8256722D02*
X17639706Y-8237674D01*
X17639706Y-8237674D02*
X17658753Y-8228150D01*
X17658753Y-8228150D02*
X17687325Y-8228150D01*
X17687325Y-8228150D02*
X17706373Y-8237674D01*
X17782563Y-8437674D02*
X17792087Y-8428150D01*
X17792087Y-8428150D02*
X17811134Y-8399579D01*
X17811134Y-8399579D02*
X17820658Y-8380531D01*
X17820658Y-8380531D02*
X17830182Y-8351960D01*
X17830182Y-8351960D02*
X17839706Y-8304341D01*
X17839706Y-8304341D02*
X17839706Y-8266246D01*
X17839706Y-8266246D02*
X17830182Y-8218627D01*
X17830182Y-8218627D02*
X17820658Y-8190055D01*
X17820658Y-8190055D02*
X17811134Y-8171008D01*
X17811134Y-8171008D02*
X17792087Y-8142436D01*
X17792087Y-8142436D02*
X17782563Y-8132912D01*
D11*
X13007500Y-8534000D02*
G75*
G03*
X12962500Y-8534000I-22500J0D01*
G01*
X12962500Y-8534000D02*
G75*
G03*
X13007500Y-8534000I22500J0D01*
G01*
D10*
X13306372Y-8425484D02*
X13325420Y-8425484D01*
X13325420Y-8425484D02*
X13344467Y-8435008D01*
X13344467Y-8435008D02*
X13353991Y-8444531D01*
X13353991Y-8444531D02*
X13363515Y-8463579D01*
X13363515Y-8463579D02*
X13373039Y-8501674D01*
X13373039Y-8501674D02*
X13373039Y-8549293D01*
X13373039Y-8549293D02*
X13363515Y-8587389D01*
X13363515Y-8587389D02*
X13353991Y-8606436D01*
X13353991Y-8606436D02*
X13344467Y-8615960D01*
X13344467Y-8615960D02*
X13325420Y-8625484D01*
X13325420Y-8625484D02*
X13306372Y-8625484D01*
X13306372Y-8625484D02*
X13287324Y-8615960D01*
X13287324Y-8615960D02*
X13277801Y-8606436D01*
X13277801Y-8606436D02*
X13268277Y-8587389D01*
X13268277Y-8587389D02*
X13258753Y-8549293D01*
X13258753Y-8549293D02*
X13258753Y-8501674D01*
X13258753Y-8501674D02*
X13268277Y-8463579D01*
X13268277Y-8463579D02*
X13277801Y-8444531D01*
X13277801Y-8444531D02*
X13287324Y-8435008D01*
X13287324Y-8435008D02*
X13306372Y-8425484D01*
X13458753Y-8606436D02*
X13468277Y-8615960D01*
X13468277Y-8615960D02*
X13458753Y-8625484D01*
X13458753Y-8625484D02*
X13449229Y-8615960D01*
X13449229Y-8615960D02*
X13458753Y-8606436D01*
X13458753Y-8606436D02*
X13458753Y-8625484D01*
X13639705Y-8492150D02*
X13639705Y-8625484D01*
X13592086Y-8415960D02*
X13544467Y-8558817D01*
X13544467Y-8558817D02*
X13668277Y-8558817D01*
X13839705Y-8425484D02*
X13744467Y-8425484D01*
X13744467Y-8425484D02*
X13734943Y-8520722D01*
X13734943Y-8520722D02*
X13744467Y-8511198D01*
X13744467Y-8511198D02*
X13763515Y-8501674D01*
X13763515Y-8501674D02*
X13811134Y-8501674D01*
X13811134Y-8501674D02*
X13830182Y-8511198D01*
X13830182Y-8511198D02*
X13839705Y-8520722D01*
X13839705Y-8520722D02*
X13849229Y-8539770D01*
X13849229Y-8539770D02*
X13849229Y-8587389D01*
X13849229Y-8587389D02*
X13839705Y-8606436D01*
X13839705Y-8606436D02*
X13830182Y-8615960D01*
X13830182Y-8615960D02*
X13811134Y-8625484D01*
X13811134Y-8625484D02*
X13763515Y-8625484D01*
X13763515Y-8625484D02*
X13744467Y-8615960D01*
X13744467Y-8615960D02*
X13734943Y-8606436D01*
X13973039Y-8425484D02*
X13992086Y-8425484D01*
X13992086Y-8425484D02*
X14011134Y-8435008D01*
X14011134Y-8435008D02*
X14020658Y-8444531D01*
X14020658Y-8444531D02*
X14030182Y-8463579D01*
X14030182Y-8463579D02*
X14039705Y-8501674D01*
X14039705Y-8501674D02*
X14039705Y-8549293D01*
X14039705Y-8549293D02*
X14030182Y-8587389D01*
X14030182Y-8587389D02*
X14020658Y-8606436D01*
X14020658Y-8606436D02*
X14011134Y-8615960D01*
X14011134Y-8615960D02*
X13992086Y-8625484D01*
X13992086Y-8625484D02*
X13973039Y-8625484D01*
X13973039Y-8625484D02*
X13953991Y-8615960D01*
X13953991Y-8615960D02*
X13944467Y-8606436D01*
X13944467Y-8606436D02*
X13934943Y-8587389D01*
X13934943Y-8587389D02*
X13925420Y-8549293D01*
X13925420Y-8549293D02*
X13925420Y-8501674D01*
X13925420Y-8501674D02*
X13934943Y-8463579D01*
X13934943Y-8463579D02*
X13944467Y-8444531D01*
X13944467Y-8444531D02*
X13953991Y-8435008D01*
X13953991Y-8435008D02*
X13973039Y-8425484D01*
X14125420Y-8625484D02*
X14125420Y-8492150D01*
X14125420Y-8511198D02*
X14134943Y-8501674D01*
X14134943Y-8501674D02*
X14153991Y-8492150D01*
X14153991Y-8492150D02*
X14182563Y-8492150D01*
X14182563Y-8492150D02*
X14201610Y-8501674D01*
X14201610Y-8501674D02*
X14211134Y-8520722D01*
X14211134Y-8520722D02*
X14211134Y-8625484D01*
X14211134Y-8520722D02*
X14220658Y-8501674D01*
X14220658Y-8501674D02*
X14239705Y-8492150D01*
X14239705Y-8492150D02*
X14268277Y-8492150D01*
X14268277Y-8492150D02*
X14287324Y-8501674D01*
X14287324Y-8501674D02*
X14296848Y-8520722D01*
X14296848Y-8520722D02*
X14296848Y-8625484D01*
X14392086Y-8625484D02*
X14392086Y-8492150D01*
X14392086Y-8511198D02*
X14401610Y-8501674D01*
X14401610Y-8501674D02*
X14420658Y-8492150D01*
X14420658Y-8492150D02*
X14449229Y-8492150D01*
X14449229Y-8492150D02*
X14468277Y-8501674D01*
X14468277Y-8501674D02*
X14477801Y-8520722D01*
X14477801Y-8520722D02*
X14477801Y-8625484D01*
X14477801Y-8520722D02*
X14487324Y-8501674D01*
X14487324Y-8501674D02*
X14506372Y-8492150D01*
X14506372Y-8492150D02*
X14534943Y-8492150D01*
X14534943Y-8492150D02*
X14553991Y-8501674D01*
X14553991Y-8501674D02*
X14563515Y-8520722D01*
X14563515Y-8520722D02*
X14563515Y-8625484D01*
X14953991Y-8415960D02*
X14782563Y-8673103D01*
X15211134Y-8425484D02*
X15230182Y-8425484D01*
X15230182Y-8425484D02*
X15249229Y-8435008D01*
X15249229Y-8435008D02*
X15258753Y-8444531D01*
X15258753Y-8444531D02*
X15268277Y-8463579D01*
X15268277Y-8463579D02*
X15277801Y-8501674D01*
X15277801Y-8501674D02*
X15277801Y-8549293D01*
X15277801Y-8549293D02*
X15268277Y-8587389D01*
X15268277Y-8587389D02*
X15258753Y-8606436D01*
X15258753Y-8606436D02*
X15249229Y-8615960D01*
X15249229Y-8615960D02*
X15230182Y-8625484D01*
X15230182Y-8625484D02*
X15211134Y-8625484D01*
X15211134Y-8625484D02*
X15192086Y-8615960D01*
X15192086Y-8615960D02*
X15182563Y-8606436D01*
X15182563Y-8606436D02*
X15173039Y-8587389D01*
X15173039Y-8587389D02*
X15163515Y-8549293D01*
X15163515Y-8549293D02*
X15163515Y-8501674D01*
X15163515Y-8501674D02*
X15173039Y-8463579D01*
X15173039Y-8463579D02*
X15182563Y-8444531D01*
X15182563Y-8444531D02*
X15192086Y-8435008D01*
X15192086Y-8435008D02*
X15211134Y-8425484D01*
X15363515Y-8606436D02*
X15373039Y-8615960D01*
X15373039Y-8615960D02*
X15363515Y-8625484D01*
X15363515Y-8625484D02*
X15353991Y-8615960D01*
X15353991Y-8615960D02*
X15363515Y-8606436D01*
X15363515Y-8606436D02*
X15363515Y-8625484D01*
X15496848Y-8425484D02*
X15515896Y-8425484D01*
X15515896Y-8425484D02*
X15534944Y-8435008D01*
X15534944Y-8435008D02*
X15544467Y-8444531D01*
X15544467Y-8444531D02*
X15553991Y-8463579D01*
X15553991Y-8463579D02*
X15563515Y-8501674D01*
X15563515Y-8501674D02*
X15563515Y-8549293D01*
X15563515Y-8549293D02*
X15553991Y-8587389D01*
X15553991Y-8587389D02*
X15544467Y-8606436D01*
X15544467Y-8606436D02*
X15534944Y-8615960D01*
X15534944Y-8615960D02*
X15515896Y-8625484D01*
X15515896Y-8625484D02*
X15496848Y-8625484D01*
X15496848Y-8625484D02*
X15477801Y-8615960D01*
X15477801Y-8615960D02*
X15468277Y-8606436D01*
X15468277Y-8606436D02*
X15458753Y-8587389D01*
X15458753Y-8587389D02*
X15449229Y-8549293D01*
X15449229Y-8549293D02*
X15449229Y-8501674D01*
X15449229Y-8501674D02*
X15458753Y-8463579D01*
X15458753Y-8463579D02*
X15468277Y-8444531D01*
X15468277Y-8444531D02*
X15477801Y-8435008D01*
X15477801Y-8435008D02*
X15496848Y-8425484D01*
X15753991Y-8625484D02*
X15639706Y-8625484D01*
X15696848Y-8625484D02*
X15696848Y-8425484D01*
X15696848Y-8425484D02*
X15677801Y-8454055D01*
X15677801Y-8454055D02*
X15658753Y-8473103D01*
X15658753Y-8473103D02*
X15639706Y-8482627D01*
X15820658Y-8425484D02*
X15953991Y-8425484D01*
X15953991Y-8425484D02*
X15868277Y-8625484D01*
X16011134Y-8425484D02*
X16144467Y-8425484D01*
X16144467Y-8425484D02*
X16058753Y-8625484D01*
X16211134Y-8425484D02*
X16211134Y-8463579D01*
X16287325Y-8425484D02*
X16287325Y-8463579D01*
X16582563Y-8701674D02*
X16573039Y-8692150D01*
X16573039Y-8692150D02*
X16553991Y-8663579D01*
X16553991Y-8663579D02*
X16544468Y-8644531D01*
X16544468Y-8644531D02*
X16534944Y-8615960D01*
X16534944Y-8615960D02*
X16525420Y-8568341D01*
X16525420Y-8568341D02*
X16525420Y-8530246D01*
X16525420Y-8530246D02*
X16534944Y-8482627D01*
X16534944Y-8482627D02*
X16544468Y-8454055D01*
X16544468Y-8454055D02*
X16553991Y-8435008D01*
X16553991Y-8435008D02*
X16573039Y-8406436D01*
X16573039Y-8406436D02*
X16582563Y-8396912D01*
X16763515Y-8625484D02*
X16649229Y-8625484D01*
X16706372Y-8625484D02*
X16706372Y-8425484D01*
X16706372Y-8425484D02*
X16687325Y-8454055D01*
X16687325Y-8454055D02*
X16668277Y-8473103D01*
X16668277Y-8473103D02*
X16649229Y-8482627D01*
X16934944Y-8425484D02*
X16896849Y-8425484D01*
X16896849Y-8425484D02*
X16877801Y-8435008D01*
X16877801Y-8435008D02*
X16868277Y-8444531D01*
X16868277Y-8444531D02*
X16849230Y-8473103D01*
X16849230Y-8473103D02*
X16839706Y-8511198D01*
X16839706Y-8511198D02*
X16839706Y-8587389D01*
X16839706Y-8587389D02*
X16849230Y-8606436D01*
X16849230Y-8606436D02*
X16858753Y-8615960D01*
X16858753Y-8615960D02*
X16877801Y-8625484D01*
X16877801Y-8625484D02*
X16915896Y-8625484D01*
X16915896Y-8625484D02*
X16934944Y-8615960D01*
X16934944Y-8615960D02*
X16944468Y-8606436D01*
X16944468Y-8606436D02*
X16953991Y-8587389D01*
X16953991Y-8587389D02*
X16953991Y-8539770D01*
X16953991Y-8539770D02*
X16944468Y-8520722D01*
X16944468Y-8520722D02*
X16934944Y-8511198D01*
X16934944Y-8511198D02*
X16915896Y-8501674D01*
X16915896Y-8501674D02*
X16877801Y-8501674D01*
X16877801Y-8501674D02*
X16858753Y-8511198D01*
X16858753Y-8511198D02*
X16849230Y-8520722D01*
X16849230Y-8520722D02*
X16839706Y-8539770D01*
X17192087Y-8625484D02*
X17192087Y-8425484D01*
X17277801Y-8625484D02*
X17277801Y-8520722D01*
X17277801Y-8520722D02*
X17268277Y-8501674D01*
X17268277Y-8501674D02*
X17249230Y-8492150D01*
X17249230Y-8492150D02*
X17220658Y-8492150D01*
X17220658Y-8492150D02*
X17201611Y-8501674D01*
X17201611Y-8501674D02*
X17192087Y-8511198D01*
X17401611Y-8625484D02*
X17382563Y-8615960D01*
X17382563Y-8615960D02*
X17373039Y-8606436D01*
X17373039Y-8606436D02*
X17363515Y-8587389D01*
X17363515Y-8587389D02*
X17363515Y-8530246D01*
X17363515Y-8530246D02*
X17373039Y-8511198D01*
X17373039Y-8511198D02*
X17382563Y-8501674D01*
X17382563Y-8501674D02*
X17401611Y-8492150D01*
X17401611Y-8492150D02*
X17430182Y-8492150D01*
X17430182Y-8492150D02*
X17449230Y-8501674D01*
X17449230Y-8501674D02*
X17458753Y-8511198D01*
X17458753Y-8511198D02*
X17468277Y-8530246D01*
X17468277Y-8530246D02*
X17468277Y-8587389D01*
X17468277Y-8587389D02*
X17458753Y-8606436D01*
X17458753Y-8606436D02*
X17449230Y-8615960D01*
X17449230Y-8615960D02*
X17430182Y-8625484D01*
X17430182Y-8625484D02*
X17401611Y-8625484D01*
X17582563Y-8625484D02*
X17563515Y-8615960D01*
X17563515Y-8615960D02*
X17553992Y-8596912D01*
X17553992Y-8596912D02*
X17553992Y-8425484D01*
X17734944Y-8615960D02*
X17715896Y-8625484D01*
X17715896Y-8625484D02*
X17677801Y-8625484D01*
X17677801Y-8625484D02*
X17658753Y-8615960D01*
X17658753Y-8615960D02*
X17649230Y-8596912D01*
X17649230Y-8596912D02*
X17649230Y-8520722D01*
X17649230Y-8520722D02*
X17658753Y-8501674D01*
X17658753Y-8501674D02*
X17677801Y-8492150D01*
X17677801Y-8492150D02*
X17715896Y-8492150D01*
X17715896Y-8492150D02*
X17734944Y-8501674D01*
X17734944Y-8501674D02*
X17744468Y-8520722D01*
X17744468Y-8520722D02*
X17744468Y-8539770D01*
X17744468Y-8539770D02*
X17649230Y-8558817D01*
X17820658Y-8615960D02*
X17839706Y-8625484D01*
X17839706Y-8625484D02*
X17877801Y-8625484D01*
X17877801Y-8625484D02*
X17896849Y-8615960D01*
X17896849Y-8615960D02*
X17906373Y-8596912D01*
X17906373Y-8596912D02*
X17906373Y-8587389D01*
X17906373Y-8587389D02*
X17896849Y-8568341D01*
X17896849Y-8568341D02*
X17877801Y-8558817D01*
X17877801Y-8558817D02*
X17849230Y-8558817D01*
X17849230Y-8558817D02*
X17830182Y-8549293D01*
X17830182Y-8549293D02*
X17820658Y-8530246D01*
X17820658Y-8530246D02*
X17820658Y-8520722D01*
X17820658Y-8520722D02*
X17830182Y-8501674D01*
X17830182Y-8501674D02*
X17849230Y-8492150D01*
X17849230Y-8492150D02*
X17877801Y-8492150D01*
X17877801Y-8492150D02*
X17896849Y-8501674D01*
X17973039Y-8701674D02*
X17982563Y-8692150D01*
X17982563Y-8692150D02*
X18001611Y-8663579D01*
X18001611Y-8663579D02*
X18011134Y-8644531D01*
X18011134Y-8644531D02*
X18020658Y-8615960D01*
X18020658Y-8615960D02*
X18030182Y-8568341D01*
X18030182Y-8568341D02*
X18030182Y-8530246D01*
X18030182Y-8530246D02*
X18020658Y-8482627D01*
X18020658Y-8482627D02*
X18011134Y-8454055D01*
X18011134Y-8454055D02*
X18001611Y-8435008D01*
X18001611Y-8435008D02*
X17982563Y-8406436D01*
X17982563Y-8406436D02*
X17973039Y-8396912D01*
D11*
X12970000Y-8760500D02*
X12970000Y-8835500D01*
X12932500Y-8798000D02*
X13007500Y-8798000D01*
D10*
X13306372Y-8689484D02*
X13325420Y-8689484D01*
X13325420Y-8689484D02*
X13344467Y-8699008D01*
X13344467Y-8699008D02*
X13353991Y-8708531D01*
X13353991Y-8708531D02*
X13363515Y-8727579D01*
X13363515Y-8727579D02*
X13373039Y-8765674D01*
X13373039Y-8765674D02*
X13373039Y-8813293D01*
X13373039Y-8813293D02*
X13363515Y-8851389D01*
X13363515Y-8851389D02*
X13353991Y-8870436D01*
X13353991Y-8870436D02*
X13344467Y-8879960D01*
X13344467Y-8879960D02*
X13325420Y-8889484D01*
X13325420Y-8889484D02*
X13306372Y-8889484D01*
X13306372Y-8889484D02*
X13287324Y-8879960D01*
X13287324Y-8879960D02*
X13277801Y-8870436D01*
X13277801Y-8870436D02*
X13268277Y-8851389D01*
X13268277Y-8851389D02*
X13258753Y-8813293D01*
X13258753Y-8813293D02*
X13258753Y-8765674D01*
X13258753Y-8765674D02*
X13268277Y-8727579D01*
X13268277Y-8727579D02*
X13277801Y-8708531D01*
X13277801Y-8708531D02*
X13287324Y-8699008D01*
X13287324Y-8699008D02*
X13306372Y-8689484D01*
X13458753Y-8870436D02*
X13468277Y-8879960D01*
X13468277Y-8879960D02*
X13458753Y-8889484D01*
X13458753Y-8889484D02*
X13449229Y-8879960D01*
X13449229Y-8879960D02*
X13458753Y-8870436D01*
X13458753Y-8870436D02*
X13458753Y-8889484D01*
X13534943Y-8689484D02*
X13668277Y-8689484D01*
X13668277Y-8689484D02*
X13582562Y-8889484D01*
X13839705Y-8689484D02*
X13744467Y-8689484D01*
X13744467Y-8689484D02*
X13734943Y-8784722D01*
X13734943Y-8784722D02*
X13744467Y-8775198D01*
X13744467Y-8775198D02*
X13763515Y-8765674D01*
X13763515Y-8765674D02*
X13811134Y-8765674D01*
X13811134Y-8765674D02*
X13830182Y-8775198D01*
X13830182Y-8775198D02*
X13839705Y-8784722D01*
X13839705Y-8784722D02*
X13849229Y-8803770D01*
X13849229Y-8803770D02*
X13849229Y-8851389D01*
X13849229Y-8851389D02*
X13839705Y-8870436D01*
X13839705Y-8870436D02*
X13830182Y-8879960D01*
X13830182Y-8879960D02*
X13811134Y-8889484D01*
X13811134Y-8889484D02*
X13763515Y-8889484D01*
X13763515Y-8889484D02*
X13744467Y-8879960D01*
X13744467Y-8879960D02*
X13734943Y-8870436D01*
X13973039Y-8689484D02*
X13992086Y-8689484D01*
X13992086Y-8689484D02*
X14011134Y-8699008D01*
X14011134Y-8699008D02*
X14020658Y-8708531D01*
X14020658Y-8708531D02*
X14030182Y-8727579D01*
X14030182Y-8727579D02*
X14039705Y-8765674D01*
X14039705Y-8765674D02*
X14039705Y-8813293D01*
X14039705Y-8813293D02*
X14030182Y-8851389D01*
X14030182Y-8851389D02*
X14020658Y-8870436D01*
X14020658Y-8870436D02*
X14011134Y-8879960D01*
X14011134Y-8879960D02*
X13992086Y-8889484D01*
X13992086Y-8889484D02*
X13973039Y-8889484D01*
X13973039Y-8889484D02*
X13953991Y-8879960D01*
X13953991Y-8879960D02*
X13944467Y-8870436D01*
X13944467Y-8870436D02*
X13934943Y-8851389D01*
X13934943Y-8851389D02*
X13925420Y-8813293D01*
X13925420Y-8813293D02*
X13925420Y-8765674D01*
X13925420Y-8765674D02*
X13934943Y-8727579D01*
X13934943Y-8727579D02*
X13944467Y-8708531D01*
X13944467Y-8708531D02*
X13953991Y-8699008D01*
X13953991Y-8699008D02*
X13973039Y-8689484D01*
X14125420Y-8889484D02*
X14125420Y-8756150D01*
X14125420Y-8775198D02*
X14134943Y-8765674D01*
X14134943Y-8765674D02*
X14153991Y-8756150D01*
X14153991Y-8756150D02*
X14182563Y-8756150D01*
X14182563Y-8756150D02*
X14201610Y-8765674D01*
X14201610Y-8765674D02*
X14211134Y-8784722D01*
X14211134Y-8784722D02*
X14211134Y-8889484D01*
X14211134Y-8784722D02*
X14220658Y-8765674D01*
X14220658Y-8765674D02*
X14239705Y-8756150D01*
X14239705Y-8756150D02*
X14268277Y-8756150D01*
X14268277Y-8756150D02*
X14287324Y-8765674D01*
X14287324Y-8765674D02*
X14296848Y-8784722D01*
X14296848Y-8784722D02*
X14296848Y-8889484D01*
X14392086Y-8889484D02*
X14392086Y-8756150D01*
X14392086Y-8775198D02*
X14401610Y-8765674D01*
X14401610Y-8765674D02*
X14420658Y-8756150D01*
X14420658Y-8756150D02*
X14449229Y-8756150D01*
X14449229Y-8756150D02*
X14468277Y-8765674D01*
X14468277Y-8765674D02*
X14477801Y-8784722D01*
X14477801Y-8784722D02*
X14477801Y-8889484D01*
X14477801Y-8784722D02*
X14487324Y-8765674D01*
X14487324Y-8765674D02*
X14506372Y-8756150D01*
X14506372Y-8756150D02*
X14534943Y-8756150D01*
X14534943Y-8756150D02*
X14553991Y-8765674D01*
X14553991Y-8765674D02*
X14563515Y-8784722D01*
X14563515Y-8784722D02*
X14563515Y-8889484D01*
X14953991Y-8679960D02*
X14782563Y-8937103D01*
X15211134Y-8689484D02*
X15230182Y-8689484D01*
X15230182Y-8689484D02*
X15249229Y-8699008D01*
X15249229Y-8699008D02*
X15258753Y-8708531D01*
X15258753Y-8708531D02*
X15268277Y-8727579D01*
X15268277Y-8727579D02*
X15277801Y-8765674D01*
X15277801Y-8765674D02*
X15277801Y-8813293D01*
X15277801Y-8813293D02*
X15268277Y-8851389D01*
X15268277Y-8851389D02*
X15258753Y-8870436D01*
X15258753Y-8870436D02*
X15249229Y-8879960D01*
X15249229Y-8879960D02*
X15230182Y-8889484D01*
X15230182Y-8889484D02*
X15211134Y-8889484D01*
X15211134Y-8889484D02*
X15192086Y-8879960D01*
X15192086Y-8879960D02*
X15182563Y-8870436D01*
X15182563Y-8870436D02*
X15173039Y-8851389D01*
X15173039Y-8851389D02*
X15163515Y-8813293D01*
X15163515Y-8813293D02*
X15163515Y-8765674D01*
X15163515Y-8765674D02*
X15173039Y-8727579D01*
X15173039Y-8727579D02*
X15182563Y-8708531D01*
X15182563Y-8708531D02*
X15192086Y-8699008D01*
X15192086Y-8699008D02*
X15211134Y-8689484D01*
X15363515Y-8870436D02*
X15373039Y-8879960D01*
X15373039Y-8879960D02*
X15363515Y-8889484D01*
X15363515Y-8889484D02*
X15353991Y-8879960D01*
X15353991Y-8879960D02*
X15363515Y-8870436D01*
X15363515Y-8870436D02*
X15363515Y-8889484D01*
X15496848Y-8689484D02*
X15515896Y-8689484D01*
X15515896Y-8689484D02*
X15534944Y-8699008D01*
X15534944Y-8699008D02*
X15544467Y-8708531D01*
X15544467Y-8708531D02*
X15553991Y-8727579D01*
X15553991Y-8727579D02*
X15563515Y-8765674D01*
X15563515Y-8765674D02*
X15563515Y-8813293D01*
X15563515Y-8813293D02*
X15553991Y-8851389D01*
X15553991Y-8851389D02*
X15544467Y-8870436D01*
X15544467Y-8870436D02*
X15534944Y-8879960D01*
X15534944Y-8879960D02*
X15515896Y-8889484D01*
X15515896Y-8889484D02*
X15496848Y-8889484D01*
X15496848Y-8889484D02*
X15477801Y-8879960D01*
X15477801Y-8879960D02*
X15468277Y-8870436D01*
X15468277Y-8870436D02*
X15458753Y-8851389D01*
X15458753Y-8851389D02*
X15449229Y-8813293D01*
X15449229Y-8813293D02*
X15449229Y-8765674D01*
X15449229Y-8765674D02*
X15458753Y-8727579D01*
X15458753Y-8727579D02*
X15468277Y-8708531D01*
X15468277Y-8708531D02*
X15477801Y-8699008D01*
X15477801Y-8699008D02*
X15496848Y-8689484D01*
X15639706Y-8708531D02*
X15649229Y-8699008D01*
X15649229Y-8699008D02*
X15668277Y-8689484D01*
X15668277Y-8689484D02*
X15715896Y-8689484D01*
X15715896Y-8689484D02*
X15734944Y-8699008D01*
X15734944Y-8699008D02*
X15744467Y-8708531D01*
X15744467Y-8708531D02*
X15753991Y-8727579D01*
X15753991Y-8727579D02*
X15753991Y-8746627D01*
X15753991Y-8746627D02*
X15744467Y-8775198D01*
X15744467Y-8775198D02*
X15630182Y-8889484D01*
X15630182Y-8889484D02*
X15753991Y-8889484D01*
X15849229Y-8889484D02*
X15887325Y-8889484D01*
X15887325Y-8889484D02*
X15906372Y-8879960D01*
X15906372Y-8879960D02*
X15915896Y-8870436D01*
X15915896Y-8870436D02*
X15934944Y-8841865D01*
X15934944Y-8841865D02*
X15944467Y-8803770D01*
X15944467Y-8803770D02*
X15944467Y-8727579D01*
X15944467Y-8727579D02*
X15934944Y-8708531D01*
X15934944Y-8708531D02*
X15925420Y-8699008D01*
X15925420Y-8699008D02*
X15906372Y-8689484D01*
X15906372Y-8689484D02*
X15868277Y-8689484D01*
X15868277Y-8689484D02*
X15849229Y-8699008D01*
X15849229Y-8699008D02*
X15839706Y-8708531D01*
X15839706Y-8708531D02*
X15830182Y-8727579D01*
X15830182Y-8727579D02*
X15830182Y-8775198D01*
X15830182Y-8775198D02*
X15839706Y-8794246D01*
X15839706Y-8794246D02*
X15849229Y-8803770D01*
X15849229Y-8803770D02*
X15868277Y-8813293D01*
X15868277Y-8813293D02*
X15906372Y-8813293D01*
X15906372Y-8813293D02*
X15925420Y-8803770D01*
X15925420Y-8803770D02*
X15934944Y-8794246D01*
X15934944Y-8794246D02*
X15944467Y-8775198D01*
X16125420Y-8689484D02*
X16030182Y-8689484D01*
X16030182Y-8689484D02*
X16020658Y-8784722D01*
X16020658Y-8784722D02*
X16030182Y-8775198D01*
X16030182Y-8775198D02*
X16049229Y-8765674D01*
X16049229Y-8765674D02*
X16096848Y-8765674D01*
X16096848Y-8765674D02*
X16115896Y-8775198D01*
X16115896Y-8775198D02*
X16125420Y-8784722D01*
X16125420Y-8784722D02*
X16134944Y-8803770D01*
X16134944Y-8803770D02*
X16134944Y-8851389D01*
X16134944Y-8851389D02*
X16125420Y-8870436D01*
X16125420Y-8870436D02*
X16115896Y-8879960D01*
X16115896Y-8879960D02*
X16096848Y-8889484D01*
X16096848Y-8889484D02*
X16049229Y-8889484D01*
X16049229Y-8889484D02*
X16030182Y-8879960D01*
X16030182Y-8879960D02*
X16020658Y-8870436D01*
X16211134Y-8689484D02*
X16211134Y-8727579D01*
X16287325Y-8689484D02*
X16287325Y-8727579D01*
X16582563Y-8965674D02*
X16573039Y-8956150D01*
X16573039Y-8956150D02*
X16553991Y-8927579D01*
X16553991Y-8927579D02*
X16544468Y-8908531D01*
X16544468Y-8908531D02*
X16534944Y-8879960D01*
X16534944Y-8879960D02*
X16525420Y-8832341D01*
X16525420Y-8832341D02*
X16525420Y-8794246D01*
X16525420Y-8794246D02*
X16534944Y-8746627D01*
X16534944Y-8746627D02*
X16544468Y-8718055D01*
X16544468Y-8718055D02*
X16553991Y-8699008D01*
X16553991Y-8699008D02*
X16573039Y-8670436D01*
X16573039Y-8670436D02*
X16582563Y-8660912D01*
X16696848Y-8689484D02*
X16715896Y-8689484D01*
X16715896Y-8689484D02*
X16734944Y-8699008D01*
X16734944Y-8699008D02*
X16744468Y-8708531D01*
X16744468Y-8708531D02*
X16753991Y-8727579D01*
X16753991Y-8727579D02*
X16763515Y-8765674D01*
X16763515Y-8765674D02*
X16763515Y-8813293D01*
X16763515Y-8813293D02*
X16753991Y-8851389D01*
X16753991Y-8851389D02*
X16744468Y-8870436D01*
X16744468Y-8870436D02*
X16734944Y-8879960D01*
X16734944Y-8879960D02*
X16715896Y-8889484D01*
X16715896Y-8889484D02*
X16696848Y-8889484D01*
X16696848Y-8889484D02*
X16677801Y-8879960D01*
X16677801Y-8879960D02*
X16668277Y-8870436D01*
X16668277Y-8870436D02*
X16658753Y-8851389D01*
X16658753Y-8851389D02*
X16649229Y-8813293D01*
X16649229Y-8813293D02*
X16649229Y-8765674D01*
X16649229Y-8765674D02*
X16658753Y-8727579D01*
X16658753Y-8727579D02*
X16668277Y-8708531D01*
X16668277Y-8708531D02*
X16677801Y-8699008D01*
X16677801Y-8699008D02*
X16696848Y-8689484D01*
X17001611Y-8889484D02*
X17001611Y-8689484D01*
X17087325Y-8889484D02*
X17087325Y-8784722D01*
X17087325Y-8784722D02*
X17077801Y-8765674D01*
X17077801Y-8765674D02*
X17058753Y-8756150D01*
X17058753Y-8756150D02*
X17030182Y-8756150D01*
X17030182Y-8756150D02*
X17011134Y-8765674D01*
X17011134Y-8765674D02*
X17001611Y-8775198D01*
X17211134Y-8889484D02*
X17192087Y-8879960D01*
X17192087Y-8879960D02*
X17182563Y-8870436D01*
X17182563Y-8870436D02*
X17173039Y-8851389D01*
X17173039Y-8851389D02*
X17173039Y-8794246D01*
X17173039Y-8794246D02*
X17182563Y-8775198D01*
X17182563Y-8775198D02*
X17192087Y-8765674D01*
X17192087Y-8765674D02*
X17211134Y-8756150D01*
X17211134Y-8756150D02*
X17239706Y-8756150D01*
X17239706Y-8756150D02*
X17258753Y-8765674D01*
X17258753Y-8765674D02*
X17268277Y-8775198D01*
X17268277Y-8775198D02*
X17277801Y-8794246D01*
X17277801Y-8794246D02*
X17277801Y-8851389D01*
X17277801Y-8851389D02*
X17268277Y-8870436D01*
X17268277Y-8870436D02*
X17258753Y-8879960D01*
X17258753Y-8879960D02*
X17239706Y-8889484D01*
X17239706Y-8889484D02*
X17211134Y-8889484D01*
X17392087Y-8889484D02*
X17373039Y-8879960D01*
X17373039Y-8879960D02*
X17363515Y-8860912D01*
X17363515Y-8860912D02*
X17363515Y-8689484D01*
X17544468Y-8879960D02*
X17525420Y-8889484D01*
X17525420Y-8889484D02*
X17487325Y-8889484D01*
X17487325Y-8889484D02*
X17468277Y-8879960D01*
X17468277Y-8879960D02*
X17458753Y-8860912D01*
X17458753Y-8860912D02*
X17458753Y-8784722D01*
X17458753Y-8784722D02*
X17468277Y-8765674D01*
X17468277Y-8765674D02*
X17487325Y-8756150D01*
X17487325Y-8756150D02*
X17525420Y-8756150D01*
X17525420Y-8756150D02*
X17544468Y-8765674D01*
X17544468Y-8765674D02*
X17553992Y-8784722D01*
X17553992Y-8784722D02*
X17553992Y-8803770D01*
X17553992Y-8803770D02*
X17458753Y-8822817D01*
X17630182Y-8879960D02*
X17649230Y-8889484D01*
X17649230Y-8889484D02*
X17687325Y-8889484D01*
X17687325Y-8889484D02*
X17706373Y-8879960D01*
X17706373Y-8879960D02*
X17715896Y-8860912D01*
X17715896Y-8860912D02*
X17715896Y-8851389D01*
X17715896Y-8851389D02*
X17706373Y-8832341D01*
X17706373Y-8832341D02*
X17687325Y-8822817D01*
X17687325Y-8822817D02*
X17658753Y-8822817D01*
X17658753Y-8822817D02*
X17639706Y-8813293D01*
X17639706Y-8813293D02*
X17630182Y-8794246D01*
X17630182Y-8794246D02*
X17630182Y-8784722D01*
X17630182Y-8784722D02*
X17639706Y-8765674D01*
X17639706Y-8765674D02*
X17658753Y-8756150D01*
X17658753Y-8756150D02*
X17687325Y-8756150D01*
X17687325Y-8756150D02*
X17706373Y-8765674D01*
X17953992Y-8813293D02*
X18106373Y-8813293D01*
X18030182Y-8889484D02*
X18030182Y-8737103D01*
X18439706Y-8756150D02*
X18439706Y-8889484D01*
X18392087Y-8679960D02*
X18344468Y-8822817D01*
X18344468Y-8822817D02*
X18468277Y-8822817D01*
X18687325Y-8879960D02*
X18706373Y-8889484D01*
X18706373Y-8889484D02*
X18744468Y-8889484D01*
X18744468Y-8889484D02*
X18763516Y-8879960D01*
X18763516Y-8879960D02*
X18773039Y-8860912D01*
X18773039Y-8860912D02*
X18773039Y-8851389D01*
X18773039Y-8851389D02*
X18763516Y-8832341D01*
X18763516Y-8832341D02*
X18744468Y-8822817D01*
X18744468Y-8822817D02*
X18715896Y-8822817D01*
X18715896Y-8822817D02*
X18696849Y-8813293D01*
X18696849Y-8813293D02*
X18687325Y-8794246D01*
X18687325Y-8794246D02*
X18687325Y-8784722D01*
X18687325Y-8784722D02*
X18696849Y-8765674D01*
X18696849Y-8765674D02*
X18715896Y-8756150D01*
X18715896Y-8756150D02*
X18744468Y-8756150D01*
X18744468Y-8756150D02*
X18763516Y-8765674D01*
X18887325Y-8889484D02*
X18868277Y-8879960D01*
X18868277Y-8879960D02*
X18858754Y-8860912D01*
X18858754Y-8860912D02*
X18858754Y-8689484D01*
X18992087Y-8889484D02*
X18973039Y-8879960D01*
X18973039Y-8879960D02*
X18963516Y-8870436D01*
X18963516Y-8870436D02*
X18953992Y-8851389D01*
X18953992Y-8851389D02*
X18953992Y-8794246D01*
X18953992Y-8794246D02*
X18963516Y-8775198D01*
X18963516Y-8775198D02*
X18973039Y-8765674D01*
X18973039Y-8765674D02*
X18992087Y-8756150D01*
X18992087Y-8756150D02*
X19020658Y-8756150D01*
X19020658Y-8756150D02*
X19039706Y-8765674D01*
X19039706Y-8765674D02*
X19049230Y-8775198D01*
X19049230Y-8775198D02*
X19058754Y-8794246D01*
X19058754Y-8794246D02*
X19058754Y-8851389D01*
X19058754Y-8851389D02*
X19049230Y-8870436D01*
X19049230Y-8870436D02*
X19039706Y-8879960D01*
X19039706Y-8879960D02*
X19020658Y-8889484D01*
X19020658Y-8889484D02*
X18992087Y-8889484D01*
X19115897Y-8756150D02*
X19192087Y-8756150D01*
X19144468Y-8689484D02*
X19144468Y-8860912D01*
X19144468Y-8860912D02*
X19153992Y-8879960D01*
X19153992Y-8879960D02*
X19173039Y-8889484D01*
X19173039Y-8889484D02*
X19192087Y-8889484D01*
X19249230Y-8879960D02*
X19268277Y-8889484D01*
X19268277Y-8889484D02*
X19306373Y-8889484D01*
X19306373Y-8889484D02*
X19325420Y-8879960D01*
X19325420Y-8879960D02*
X19334944Y-8860912D01*
X19334944Y-8860912D02*
X19334944Y-8851389D01*
X19334944Y-8851389D02*
X19325420Y-8832341D01*
X19325420Y-8832341D02*
X19306373Y-8822817D01*
X19306373Y-8822817D02*
X19277801Y-8822817D01*
X19277801Y-8822817D02*
X19258754Y-8813293D01*
X19258754Y-8813293D02*
X19249230Y-8794246D01*
X19249230Y-8794246D02*
X19249230Y-8784722D01*
X19249230Y-8784722D02*
X19258754Y-8765674D01*
X19258754Y-8765674D02*
X19277801Y-8756150D01*
X19277801Y-8756150D02*
X19306373Y-8756150D01*
X19306373Y-8756150D02*
X19325420Y-8765674D01*
X19401611Y-8965674D02*
X19411135Y-8956150D01*
X19411135Y-8956150D02*
X19430182Y-8927579D01*
X19430182Y-8927579D02*
X19439706Y-8908531D01*
X19439706Y-8908531D02*
X19449230Y-8879960D01*
X19449230Y-8879960D02*
X19458754Y-8832341D01*
X19458754Y-8832341D02*
X19458754Y-8794246D01*
X19458754Y-8794246D02*
X19449230Y-8746627D01*
X19449230Y-8746627D02*
X19439706Y-8718055D01*
X19439706Y-8718055D02*
X19430182Y-8699008D01*
X19430182Y-8699008D02*
X19411135Y-8670436D01*
X19411135Y-8670436D02*
X19401611Y-8660912D01*
D11*
X12995784Y-9090285D02*
X12995784Y-9033716D01*
X12939215Y-9033716D01*
X12939215Y-9090285D01*
X12995784Y-9090285D01*
D10*
X13306372Y-8953484D02*
X13325420Y-8953484D01*
X13325420Y-8953484D02*
X13344467Y-8963008D01*
X13344467Y-8963008D02*
X13353991Y-8972531D01*
X13353991Y-8972531D02*
X13363515Y-8991579D01*
X13363515Y-8991579D02*
X13373039Y-9029674D01*
X13373039Y-9029674D02*
X13373039Y-9077293D01*
X13373039Y-9077293D02*
X13363515Y-9115389D01*
X13363515Y-9115389D02*
X13353991Y-9134436D01*
X13353991Y-9134436D02*
X13344467Y-9143960D01*
X13344467Y-9143960D02*
X13325420Y-9153484D01*
X13325420Y-9153484D02*
X13306372Y-9153484D01*
X13306372Y-9153484D02*
X13287324Y-9143960D01*
X13287324Y-9143960D02*
X13277801Y-9134436D01*
X13277801Y-9134436D02*
X13268277Y-9115389D01*
X13268277Y-9115389D02*
X13258753Y-9077293D01*
X13258753Y-9077293D02*
X13258753Y-9029674D01*
X13258753Y-9029674D02*
X13268277Y-8991579D01*
X13268277Y-8991579D02*
X13277801Y-8972531D01*
X13277801Y-8972531D02*
X13287324Y-8963008D01*
X13287324Y-8963008D02*
X13306372Y-8953484D01*
X13458753Y-9134436D02*
X13468277Y-9143960D01*
X13468277Y-9143960D02*
X13458753Y-9153484D01*
X13458753Y-9153484D02*
X13449229Y-9143960D01*
X13449229Y-9143960D02*
X13458753Y-9134436D01*
X13458753Y-9134436D02*
X13458753Y-9153484D01*
X13582562Y-9039198D02*
X13563515Y-9029674D01*
X13563515Y-9029674D02*
X13553991Y-9020150D01*
X13553991Y-9020150D02*
X13544467Y-9001103D01*
X13544467Y-9001103D02*
X13544467Y-8991579D01*
X13544467Y-8991579D02*
X13553991Y-8972531D01*
X13553991Y-8972531D02*
X13563515Y-8963008D01*
X13563515Y-8963008D02*
X13582562Y-8953484D01*
X13582562Y-8953484D02*
X13620658Y-8953484D01*
X13620658Y-8953484D02*
X13639705Y-8963008D01*
X13639705Y-8963008D02*
X13649229Y-8972531D01*
X13649229Y-8972531D02*
X13658753Y-8991579D01*
X13658753Y-8991579D02*
X13658753Y-9001103D01*
X13658753Y-9001103D02*
X13649229Y-9020150D01*
X13649229Y-9020150D02*
X13639705Y-9029674D01*
X13639705Y-9029674D02*
X13620658Y-9039198D01*
X13620658Y-9039198D02*
X13582562Y-9039198D01*
X13582562Y-9039198D02*
X13563515Y-9048722D01*
X13563515Y-9048722D02*
X13553991Y-9058246D01*
X13553991Y-9058246D02*
X13544467Y-9077293D01*
X13544467Y-9077293D02*
X13544467Y-9115389D01*
X13544467Y-9115389D02*
X13553991Y-9134436D01*
X13553991Y-9134436D02*
X13563515Y-9143960D01*
X13563515Y-9143960D02*
X13582562Y-9153484D01*
X13582562Y-9153484D02*
X13620658Y-9153484D01*
X13620658Y-9153484D02*
X13639705Y-9143960D01*
X13639705Y-9143960D02*
X13649229Y-9134436D01*
X13649229Y-9134436D02*
X13658753Y-9115389D01*
X13658753Y-9115389D02*
X13658753Y-9077293D01*
X13658753Y-9077293D02*
X13649229Y-9058246D01*
X13649229Y-9058246D02*
X13639705Y-9048722D01*
X13639705Y-9048722D02*
X13620658Y-9039198D01*
X13782562Y-8953484D02*
X13801610Y-8953484D01*
X13801610Y-8953484D02*
X13820658Y-8963008D01*
X13820658Y-8963008D02*
X13830182Y-8972531D01*
X13830182Y-8972531D02*
X13839705Y-8991579D01*
X13839705Y-8991579D02*
X13849229Y-9029674D01*
X13849229Y-9029674D02*
X13849229Y-9077293D01*
X13849229Y-9077293D02*
X13839705Y-9115389D01*
X13839705Y-9115389D02*
X13830182Y-9134436D01*
X13830182Y-9134436D02*
X13820658Y-9143960D01*
X13820658Y-9143960D02*
X13801610Y-9153484D01*
X13801610Y-9153484D02*
X13782562Y-9153484D01*
X13782562Y-9153484D02*
X13763515Y-9143960D01*
X13763515Y-9143960D02*
X13753991Y-9134436D01*
X13753991Y-9134436D02*
X13744467Y-9115389D01*
X13744467Y-9115389D02*
X13734943Y-9077293D01*
X13734943Y-9077293D02*
X13734943Y-9029674D01*
X13734943Y-9029674D02*
X13744467Y-8991579D01*
X13744467Y-8991579D02*
X13753991Y-8972531D01*
X13753991Y-8972531D02*
X13763515Y-8963008D01*
X13763515Y-8963008D02*
X13782562Y-8953484D01*
X13973039Y-8953484D02*
X13992086Y-8953484D01*
X13992086Y-8953484D02*
X14011134Y-8963008D01*
X14011134Y-8963008D02*
X14020658Y-8972531D01*
X14020658Y-8972531D02*
X14030182Y-8991579D01*
X14030182Y-8991579D02*
X14039705Y-9029674D01*
X14039705Y-9029674D02*
X14039705Y-9077293D01*
X14039705Y-9077293D02*
X14030182Y-9115389D01*
X14030182Y-9115389D02*
X14020658Y-9134436D01*
X14020658Y-9134436D02*
X14011134Y-9143960D01*
X14011134Y-9143960D02*
X13992086Y-9153484D01*
X13992086Y-9153484D02*
X13973039Y-9153484D01*
X13973039Y-9153484D02*
X13953991Y-9143960D01*
X13953991Y-9143960D02*
X13944467Y-9134436D01*
X13944467Y-9134436D02*
X13934943Y-9115389D01*
X13934943Y-9115389D02*
X13925420Y-9077293D01*
X13925420Y-9077293D02*
X13925420Y-9029674D01*
X13925420Y-9029674D02*
X13934943Y-8991579D01*
X13934943Y-8991579D02*
X13944467Y-8972531D01*
X13944467Y-8972531D02*
X13953991Y-8963008D01*
X13953991Y-8963008D02*
X13973039Y-8953484D01*
X14125420Y-9153484D02*
X14125420Y-9020150D01*
X14125420Y-9039198D02*
X14134943Y-9029674D01*
X14134943Y-9029674D02*
X14153991Y-9020150D01*
X14153991Y-9020150D02*
X14182563Y-9020150D01*
X14182563Y-9020150D02*
X14201610Y-9029674D01*
X14201610Y-9029674D02*
X14211134Y-9048722D01*
X14211134Y-9048722D02*
X14211134Y-9153484D01*
X14211134Y-9048722D02*
X14220658Y-9029674D01*
X14220658Y-9029674D02*
X14239705Y-9020150D01*
X14239705Y-9020150D02*
X14268277Y-9020150D01*
X14268277Y-9020150D02*
X14287324Y-9029674D01*
X14287324Y-9029674D02*
X14296848Y-9048722D01*
X14296848Y-9048722D02*
X14296848Y-9153484D01*
X14392086Y-9153484D02*
X14392086Y-9020150D01*
X14392086Y-9039198D02*
X14401610Y-9029674D01*
X14401610Y-9029674D02*
X14420658Y-9020150D01*
X14420658Y-9020150D02*
X14449229Y-9020150D01*
X14449229Y-9020150D02*
X14468277Y-9029674D01*
X14468277Y-9029674D02*
X14477801Y-9048722D01*
X14477801Y-9048722D02*
X14477801Y-9153484D01*
X14477801Y-9048722D02*
X14487324Y-9029674D01*
X14487324Y-9029674D02*
X14506372Y-9020150D01*
X14506372Y-9020150D02*
X14534943Y-9020150D01*
X14534943Y-9020150D02*
X14553991Y-9029674D01*
X14553991Y-9029674D02*
X14563515Y-9048722D01*
X14563515Y-9048722D02*
X14563515Y-9153484D01*
X14953991Y-8943960D02*
X14782563Y-9201103D01*
X15211134Y-8953484D02*
X15230182Y-8953484D01*
X15230182Y-8953484D02*
X15249229Y-8963008D01*
X15249229Y-8963008D02*
X15258753Y-8972531D01*
X15258753Y-8972531D02*
X15268277Y-8991579D01*
X15268277Y-8991579D02*
X15277801Y-9029674D01*
X15277801Y-9029674D02*
X15277801Y-9077293D01*
X15277801Y-9077293D02*
X15268277Y-9115389D01*
X15268277Y-9115389D02*
X15258753Y-9134436D01*
X15258753Y-9134436D02*
X15249229Y-9143960D01*
X15249229Y-9143960D02*
X15230182Y-9153484D01*
X15230182Y-9153484D02*
X15211134Y-9153484D01*
X15211134Y-9153484D02*
X15192086Y-9143960D01*
X15192086Y-9143960D02*
X15182563Y-9134436D01*
X15182563Y-9134436D02*
X15173039Y-9115389D01*
X15173039Y-9115389D02*
X15163515Y-9077293D01*
X15163515Y-9077293D02*
X15163515Y-9029674D01*
X15163515Y-9029674D02*
X15173039Y-8991579D01*
X15173039Y-8991579D02*
X15182563Y-8972531D01*
X15182563Y-8972531D02*
X15192086Y-8963008D01*
X15192086Y-8963008D02*
X15211134Y-8953484D01*
X15363515Y-9134436D02*
X15373039Y-9143960D01*
X15373039Y-9143960D02*
X15363515Y-9153484D01*
X15363515Y-9153484D02*
X15353991Y-9143960D01*
X15353991Y-9143960D02*
X15363515Y-9134436D01*
X15363515Y-9134436D02*
X15363515Y-9153484D01*
X15496848Y-8953484D02*
X15515896Y-8953484D01*
X15515896Y-8953484D02*
X15534944Y-8963008D01*
X15534944Y-8963008D02*
X15544467Y-8972531D01*
X15544467Y-8972531D02*
X15553991Y-8991579D01*
X15553991Y-8991579D02*
X15563515Y-9029674D01*
X15563515Y-9029674D02*
X15563515Y-9077293D01*
X15563515Y-9077293D02*
X15553991Y-9115389D01*
X15553991Y-9115389D02*
X15544467Y-9134436D01*
X15544467Y-9134436D02*
X15534944Y-9143960D01*
X15534944Y-9143960D02*
X15515896Y-9153484D01*
X15515896Y-9153484D02*
X15496848Y-9153484D01*
X15496848Y-9153484D02*
X15477801Y-9143960D01*
X15477801Y-9143960D02*
X15468277Y-9134436D01*
X15468277Y-9134436D02*
X15458753Y-9115389D01*
X15458753Y-9115389D02*
X15449229Y-9077293D01*
X15449229Y-9077293D02*
X15449229Y-9029674D01*
X15449229Y-9029674D02*
X15458753Y-8991579D01*
X15458753Y-8991579D02*
X15468277Y-8972531D01*
X15468277Y-8972531D02*
X15477801Y-8963008D01*
X15477801Y-8963008D02*
X15496848Y-8953484D01*
X15630182Y-8953484D02*
X15753991Y-8953484D01*
X15753991Y-8953484D02*
X15687325Y-9029674D01*
X15687325Y-9029674D02*
X15715896Y-9029674D01*
X15715896Y-9029674D02*
X15734944Y-9039198D01*
X15734944Y-9039198D02*
X15744467Y-9048722D01*
X15744467Y-9048722D02*
X15753991Y-9067770D01*
X15753991Y-9067770D02*
X15753991Y-9115389D01*
X15753991Y-9115389D02*
X15744467Y-9134436D01*
X15744467Y-9134436D02*
X15734944Y-9143960D01*
X15734944Y-9143960D02*
X15715896Y-9153484D01*
X15715896Y-9153484D02*
X15658753Y-9153484D01*
X15658753Y-9153484D02*
X15639706Y-9143960D01*
X15639706Y-9143960D02*
X15630182Y-9134436D01*
X15944467Y-9153484D02*
X15830182Y-9153484D01*
X15887325Y-9153484D02*
X15887325Y-8953484D01*
X15887325Y-8953484D02*
X15868277Y-8982055D01*
X15868277Y-8982055D02*
X15849229Y-9001103D01*
X15849229Y-9001103D02*
X15830182Y-9010627D01*
X16125420Y-8953484D02*
X16030182Y-8953484D01*
X16030182Y-8953484D02*
X16020658Y-9048722D01*
X16020658Y-9048722D02*
X16030182Y-9039198D01*
X16030182Y-9039198D02*
X16049229Y-9029674D01*
X16049229Y-9029674D02*
X16096848Y-9029674D01*
X16096848Y-9029674D02*
X16115896Y-9039198D01*
X16115896Y-9039198D02*
X16125420Y-9048722D01*
X16125420Y-9048722D02*
X16134944Y-9067770D01*
X16134944Y-9067770D02*
X16134944Y-9115389D01*
X16134944Y-9115389D02*
X16125420Y-9134436D01*
X16125420Y-9134436D02*
X16115896Y-9143960D01*
X16115896Y-9143960D02*
X16096848Y-9153484D01*
X16096848Y-9153484D02*
X16049229Y-9153484D01*
X16049229Y-9153484D02*
X16030182Y-9143960D01*
X16030182Y-9143960D02*
X16020658Y-9134436D01*
X16211134Y-8953484D02*
X16211134Y-8991579D01*
X16287325Y-8953484D02*
X16287325Y-8991579D01*
X16582563Y-9229674D02*
X16573039Y-9220150D01*
X16573039Y-9220150D02*
X16553991Y-9191579D01*
X16553991Y-9191579D02*
X16544468Y-9172531D01*
X16544468Y-9172531D02*
X16534944Y-9143960D01*
X16534944Y-9143960D02*
X16525420Y-9096341D01*
X16525420Y-9096341D02*
X16525420Y-9058246D01*
X16525420Y-9058246D02*
X16534944Y-9010627D01*
X16534944Y-9010627D02*
X16544468Y-8982055D01*
X16544468Y-8982055D02*
X16553991Y-8963008D01*
X16553991Y-8963008D02*
X16573039Y-8934436D01*
X16573039Y-8934436D02*
X16582563Y-8924912D01*
X16639706Y-8953484D02*
X16773039Y-8953484D01*
X16773039Y-8953484D02*
X16687325Y-9153484D01*
X17001611Y-9153484D02*
X17001611Y-8953484D01*
X17087325Y-9153484D02*
X17087325Y-9048722D01*
X17087325Y-9048722D02*
X17077801Y-9029674D01*
X17077801Y-9029674D02*
X17058753Y-9020150D01*
X17058753Y-9020150D02*
X17030182Y-9020150D01*
X17030182Y-9020150D02*
X17011134Y-9029674D01*
X17011134Y-9029674D02*
X17001611Y-9039198D01*
X17211134Y-9153484D02*
X17192087Y-9143960D01*
X17192087Y-9143960D02*
X17182563Y-9134436D01*
X17182563Y-9134436D02*
X17173039Y-9115389D01*
X17173039Y-9115389D02*
X17173039Y-9058246D01*
X17173039Y-9058246D02*
X17182563Y-9039198D01*
X17182563Y-9039198D02*
X17192087Y-9029674D01*
X17192087Y-9029674D02*
X17211134Y-9020150D01*
X17211134Y-9020150D02*
X17239706Y-9020150D01*
X17239706Y-9020150D02*
X17258753Y-9029674D01*
X17258753Y-9029674D02*
X17268277Y-9039198D01*
X17268277Y-9039198D02*
X17277801Y-9058246D01*
X17277801Y-9058246D02*
X17277801Y-9115389D01*
X17277801Y-9115389D02*
X17268277Y-9134436D01*
X17268277Y-9134436D02*
X17258753Y-9143960D01*
X17258753Y-9143960D02*
X17239706Y-9153484D01*
X17239706Y-9153484D02*
X17211134Y-9153484D01*
X17392087Y-9153484D02*
X17373039Y-9143960D01*
X17373039Y-9143960D02*
X17363515Y-9124912D01*
X17363515Y-9124912D02*
X17363515Y-8953484D01*
X17544468Y-9143960D02*
X17525420Y-9153484D01*
X17525420Y-9153484D02*
X17487325Y-9153484D01*
X17487325Y-9153484D02*
X17468277Y-9143960D01*
X17468277Y-9143960D02*
X17458753Y-9124912D01*
X17458753Y-9124912D02*
X17458753Y-9048722D01*
X17458753Y-9048722D02*
X17468277Y-9029674D01*
X17468277Y-9029674D02*
X17487325Y-9020150D01*
X17487325Y-9020150D02*
X17525420Y-9020150D01*
X17525420Y-9020150D02*
X17544468Y-9029674D01*
X17544468Y-9029674D02*
X17553992Y-9048722D01*
X17553992Y-9048722D02*
X17553992Y-9067770D01*
X17553992Y-9067770D02*
X17458753Y-9086817D01*
X17630182Y-9143960D02*
X17649230Y-9153484D01*
X17649230Y-9153484D02*
X17687325Y-9153484D01*
X17687325Y-9153484D02*
X17706373Y-9143960D01*
X17706373Y-9143960D02*
X17715896Y-9124912D01*
X17715896Y-9124912D02*
X17715896Y-9115389D01*
X17715896Y-9115389D02*
X17706373Y-9096341D01*
X17706373Y-9096341D02*
X17687325Y-9086817D01*
X17687325Y-9086817D02*
X17658753Y-9086817D01*
X17658753Y-9086817D02*
X17639706Y-9077293D01*
X17639706Y-9077293D02*
X17630182Y-9058246D01*
X17630182Y-9058246D02*
X17630182Y-9048722D01*
X17630182Y-9048722D02*
X17639706Y-9029674D01*
X17639706Y-9029674D02*
X17658753Y-9020150D01*
X17658753Y-9020150D02*
X17687325Y-9020150D01*
X17687325Y-9020150D02*
X17706373Y-9029674D01*
X17782563Y-9229674D02*
X17792087Y-9220150D01*
X17792087Y-9220150D02*
X17811134Y-9191579D01*
X17811134Y-9191579D02*
X17820658Y-9172531D01*
X17820658Y-9172531D02*
X17830182Y-9143960D01*
X17830182Y-9143960D02*
X17839706Y-9096341D01*
X17839706Y-9096341D02*
X17839706Y-9058246D01*
X17839706Y-9058246D02*
X17830182Y-9010627D01*
X17830182Y-9010627D02*
X17820658Y-8982055D01*
X17820658Y-8982055D02*
X17811134Y-8963008D01*
X17811134Y-8963008D02*
X17792087Y-8934436D01*
X17792087Y-8934436D02*
X17782563Y-8924912D01*
D11*
X12957500Y-9376000D02*
X13007500Y-9326000D01*
X12957500Y-9276000D01*
X12907500Y-9326000D01*
X12957500Y-9376000D01*
D10*
X13373039Y-9417484D02*
X13258753Y-9417484D01*
X13315896Y-9417484D02*
X13315896Y-9217484D01*
X13315896Y-9217484D02*
X13296848Y-9246055D01*
X13296848Y-9246055D02*
X13277801Y-9265103D01*
X13277801Y-9265103D02*
X13258753Y-9274627D01*
X13458753Y-9398436D02*
X13468277Y-9407960D01*
X13468277Y-9407960D02*
X13458753Y-9417484D01*
X13458753Y-9417484D02*
X13449229Y-9407960D01*
X13449229Y-9407960D02*
X13458753Y-9398436D01*
X13458753Y-9398436D02*
X13458753Y-9417484D01*
X13592086Y-9217484D02*
X13611134Y-9217484D01*
X13611134Y-9217484D02*
X13630182Y-9227008D01*
X13630182Y-9227008D02*
X13639705Y-9236531D01*
X13639705Y-9236531D02*
X13649229Y-9255579D01*
X13649229Y-9255579D02*
X13658753Y-9293674D01*
X13658753Y-9293674D02*
X13658753Y-9341293D01*
X13658753Y-9341293D02*
X13649229Y-9379389D01*
X13649229Y-9379389D02*
X13639705Y-9398436D01*
X13639705Y-9398436D02*
X13630182Y-9407960D01*
X13630182Y-9407960D02*
X13611134Y-9417484D01*
X13611134Y-9417484D02*
X13592086Y-9417484D01*
X13592086Y-9417484D02*
X13573039Y-9407960D01*
X13573039Y-9407960D02*
X13563515Y-9398436D01*
X13563515Y-9398436D02*
X13553991Y-9379389D01*
X13553991Y-9379389D02*
X13544467Y-9341293D01*
X13544467Y-9341293D02*
X13544467Y-9293674D01*
X13544467Y-9293674D02*
X13553991Y-9255579D01*
X13553991Y-9255579D02*
X13563515Y-9236531D01*
X13563515Y-9236531D02*
X13573039Y-9227008D01*
X13573039Y-9227008D02*
X13592086Y-9217484D01*
X13782562Y-9217484D02*
X13801610Y-9217484D01*
X13801610Y-9217484D02*
X13820658Y-9227008D01*
X13820658Y-9227008D02*
X13830182Y-9236531D01*
X13830182Y-9236531D02*
X13839705Y-9255579D01*
X13839705Y-9255579D02*
X13849229Y-9293674D01*
X13849229Y-9293674D02*
X13849229Y-9341293D01*
X13849229Y-9341293D02*
X13839705Y-9379389D01*
X13839705Y-9379389D02*
X13830182Y-9398436D01*
X13830182Y-9398436D02*
X13820658Y-9407960D01*
X13820658Y-9407960D02*
X13801610Y-9417484D01*
X13801610Y-9417484D02*
X13782562Y-9417484D01*
X13782562Y-9417484D02*
X13763515Y-9407960D01*
X13763515Y-9407960D02*
X13753991Y-9398436D01*
X13753991Y-9398436D02*
X13744467Y-9379389D01*
X13744467Y-9379389D02*
X13734943Y-9341293D01*
X13734943Y-9341293D02*
X13734943Y-9293674D01*
X13734943Y-9293674D02*
X13744467Y-9255579D01*
X13744467Y-9255579D02*
X13753991Y-9236531D01*
X13753991Y-9236531D02*
X13763515Y-9227008D01*
X13763515Y-9227008D02*
X13782562Y-9217484D01*
X13973039Y-9217484D02*
X13992086Y-9217484D01*
X13992086Y-9217484D02*
X14011134Y-9227008D01*
X14011134Y-9227008D02*
X14020658Y-9236531D01*
X14020658Y-9236531D02*
X14030182Y-9255579D01*
X14030182Y-9255579D02*
X14039705Y-9293674D01*
X14039705Y-9293674D02*
X14039705Y-9341293D01*
X14039705Y-9341293D02*
X14030182Y-9379389D01*
X14030182Y-9379389D02*
X14020658Y-9398436D01*
X14020658Y-9398436D02*
X14011134Y-9407960D01*
X14011134Y-9407960D02*
X13992086Y-9417484D01*
X13992086Y-9417484D02*
X13973039Y-9417484D01*
X13973039Y-9417484D02*
X13953991Y-9407960D01*
X13953991Y-9407960D02*
X13944467Y-9398436D01*
X13944467Y-9398436D02*
X13934943Y-9379389D01*
X13934943Y-9379389D02*
X13925420Y-9341293D01*
X13925420Y-9341293D02*
X13925420Y-9293674D01*
X13925420Y-9293674D02*
X13934943Y-9255579D01*
X13934943Y-9255579D02*
X13944467Y-9236531D01*
X13944467Y-9236531D02*
X13953991Y-9227008D01*
X13953991Y-9227008D02*
X13973039Y-9217484D01*
X14125420Y-9417484D02*
X14125420Y-9284150D01*
X14125420Y-9303198D02*
X14134943Y-9293674D01*
X14134943Y-9293674D02*
X14153991Y-9284150D01*
X14153991Y-9284150D02*
X14182563Y-9284150D01*
X14182563Y-9284150D02*
X14201610Y-9293674D01*
X14201610Y-9293674D02*
X14211134Y-9312722D01*
X14211134Y-9312722D02*
X14211134Y-9417484D01*
X14211134Y-9312722D02*
X14220658Y-9293674D01*
X14220658Y-9293674D02*
X14239705Y-9284150D01*
X14239705Y-9284150D02*
X14268277Y-9284150D01*
X14268277Y-9284150D02*
X14287324Y-9293674D01*
X14287324Y-9293674D02*
X14296848Y-9312722D01*
X14296848Y-9312722D02*
X14296848Y-9417484D01*
X14392086Y-9417484D02*
X14392086Y-9284150D01*
X14392086Y-9303198D02*
X14401610Y-9293674D01*
X14401610Y-9293674D02*
X14420658Y-9284150D01*
X14420658Y-9284150D02*
X14449229Y-9284150D01*
X14449229Y-9284150D02*
X14468277Y-9293674D01*
X14468277Y-9293674D02*
X14477801Y-9312722D01*
X14477801Y-9312722D02*
X14477801Y-9417484D01*
X14477801Y-9312722D02*
X14487324Y-9293674D01*
X14487324Y-9293674D02*
X14506372Y-9284150D01*
X14506372Y-9284150D02*
X14534943Y-9284150D01*
X14534943Y-9284150D02*
X14553991Y-9293674D01*
X14553991Y-9293674D02*
X14563515Y-9312722D01*
X14563515Y-9312722D02*
X14563515Y-9417484D01*
X14953991Y-9207960D02*
X14782563Y-9465103D01*
X15211134Y-9217484D02*
X15230182Y-9217484D01*
X15230182Y-9217484D02*
X15249229Y-9227008D01*
X15249229Y-9227008D02*
X15258753Y-9236531D01*
X15258753Y-9236531D02*
X15268277Y-9255579D01*
X15268277Y-9255579D02*
X15277801Y-9293674D01*
X15277801Y-9293674D02*
X15277801Y-9341293D01*
X15277801Y-9341293D02*
X15268277Y-9379389D01*
X15268277Y-9379389D02*
X15258753Y-9398436D01*
X15258753Y-9398436D02*
X15249229Y-9407960D01*
X15249229Y-9407960D02*
X15230182Y-9417484D01*
X15230182Y-9417484D02*
X15211134Y-9417484D01*
X15211134Y-9417484D02*
X15192086Y-9407960D01*
X15192086Y-9407960D02*
X15182563Y-9398436D01*
X15182563Y-9398436D02*
X15173039Y-9379389D01*
X15173039Y-9379389D02*
X15163515Y-9341293D01*
X15163515Y-9341293D02*
X15163515Y-9293674D01*
X15163515Y-9293674D02*
X15173039Y-9255579D01*
X15173039Y-9255579D02*
X15182563Y-9236531D01*
X15182563Y-9236531D02*
X15192086Y-9227008D01*
X15192086Y-9227008D02*
X15211134Y-9217484D01*
X15363515Y-9398436D02*
X15373039Y-9407960D01*
X15373039Y-9407960D02*
X15363515Y-9417484D01*
X15363515Y-9417484D02*
X15353991Y-9407960D01*
X15353991Y-9407960D02*
X15363515Y-9398436D01*
X15363515Y-9398436D02*
X15363515Y-9417484D01*
X15496848Y-9217484D02*
X15515896Y-9217484D01*
X15515896Y-9217484D02*
X15534944Y-9227008D01*
X15534944Y-9227008D02*
X15544467Y-9236531D01*
X15544467Y-9236531D02*
X15553991Y-9255579D01*
X15553991Y-9255579D02*
X15563515Y-9293674D01*
X15563515Y-9293674D02*
X15563515Y-9341293D01*
X15563515Y-9341293D02*
X15553991Y-9379389D01*
X15553991Y-9379389D02*
X15544467Y-9398436D01*
X15544467Y-9398436D02*
X15534944Y-9407960D01*
X15534944Y-9407960D02*
X15515896Y-9417484D01*
X15515896Y-9417484D02*
X15496848Y-9417484D01*
X15496848Y-9417484D02*
X15477801Y-9407960D01*
X15477801Y-9407960D02*
X15468277Y-9398436D01*
X15468277Y-9398436D02*
X15458753Y-9379389D01*
X15458753Y-9379389D02*
X15449229Y-9341293D01*
X15449229Y-9341293D02*
X15449229Y-9293674D01*
X15449229Y-9293674D02*
X15458753Y-9255579D01*
X15458753Y-9255579D02*
X15468277Y-9236531D01*
X15468277Y-9236531D02*
X15477801Y-9227008D01*
X15477801Y-9227008D02*
X15496848Y-9217484D01*
X15630182Y-9217484D02*
X15753991Y-9217484D01*
X15753991Y-9217484D02*
X15687325Y-9293674D01*
X15687325Y-9293674D02*
X15715896Y-9293674D01*
X15715896Y-9293674D02*
X15734944Y-9303198D01*
X15734944Y-9303198D02*
X15744467Y-9312722D01*
X15744467Y-9312722D02*
X15753991Y-9331770D01*
X15753991Y-9331770D02*
X15753991Y-9379389D01*
X15753991Y-9379389D02*
X15744467Y-9398436D01*
X15744467Y-9398436D02*
X15734944Y-9407960D01*
X15734944Y-9407960D02*
X15715896Y-9417484D01*
X15715896Y-9417484D02*
X15658753Y-9417484D01*
X15658753Y-9417484D02*
X15639706Y-9407960D01*
X15639706Y-9407960D02*
X15630182Y-9398436D01*
X15849229Y-9417484D02*
X15887325Y-9417484D01*
X15887325Y-9417484D02*
X15906372Y-9407960D01*
X15906372Y-9407960D02*
X15915896Y-9398436D01*
X15915896Y-9398436D02*
X15934944Y-9369865D01*
X15934944Y-9369865D02*
X15944467Y-9331770D01*
X15944467Y-9331770D02*
X15944467Y-9255579D01*
X15944467Y-9255579D02*
X15934944Y-9236531D01*
X15934944Y-9236531D02*
X15925420Y-9227008D01*
X15925420Y-9227008D02*
X15906372Y-9217484D01*
X15906372Y-9217484D02*
X15868277Y-9217484D01*
X15868277Y-9217484D02*
X15849229Y-9227008D01*
X15849229Y-9227008D02*
X15839706Y-9236531D01*
X15839706Y-9236531D02*
X15830182Y-9255579D01*
X15830182Y-9255579D02*
X15830182Y-9303198D01*
X15830182Y-9303198D02*
X15839706Y-9322246D01*
X15839706Y-9322246D02*
X15849229Y-9331770D01*
X15849229Y-9331770D02*
X15868277Y-9341293D01*
X15868277Y-9341293D02*
X15906372Y-9341293D01*
X15906372Y-9341293D02*
X15925420Y-9331770D01*
X15925420Y-9331770D02*
X15934944Y-9322246D01*
X15934944Y-9322246D02*
X15944467Y-9303198D01*
X16115896Y-9284150D02*
X16115896Y-9417484D01*
X16068277Y-9207960D02*
X16020658Y-9350817D01*
X16020658Y-9350817D02*
X16144467Y-9350817D01*
X16211134Y-9217484D02*
X16211134Y-9255579D01*
X16287325Y-9217484D02*
X16287325Y-9255579D01*
X16582563Y-9493674D02*
X16573039Y-9484150D01*
X16573039Y-9484150D02*
X16553991Y-9455579D01*
X16553991Y-9455579D02*
X16544468Y-9436531D01*
X16544468Y-9436531D02*
X16534944Y-9407960D01*
X16534944Y-9407960D02*
X16525420Y-9360341D01*
X16525420Y-9360341D02*
X16525420Y-9322246D01*
X16525420Y-9322246D02*
X16534944Y-9274627D01*
X16534944Y-9274627D02*
X16544468Y-9246055D01*
X16544468Y-9246055D02*
X16553991Y-9227008D01*
X16553991Y-9227008D02*
X16573039Y-9198436D01*
X16573039Y-9198436D02*
X16582563Y-9188912D01*
X16696848Y-9217484D02*
X16715896Y-9217484D01*
X16715896Y-9217484D02*
X16734944Y-9227008D01*
X16734944Y-9227008D02*
X16744468Y-9236531D01*
X16744468Y-9236531D02*
X16753991Y-9255579D01*
X16753991Y-9255579D02*
X16763515Y-9293674D01*
X16763515Y-9293674D02*
X16763515Y-9341293D01*
X16763515Y-9341293D02*
X16753991Y-9379389D01*
X16753991Y-9379389D02*
X16744468Y-9398436D01*
X16744468Y-9398436D02*
X16734944Y-9407960D01*
X16734944Y-9407960D02*
X16715896Y-9417484D01*
X16715896Y-9417484D02*
X16696848Y-9417484D01*
X16696848Y-9417484D02*
X16677801Y-9407960D01*
X16677801Y-9407960D02*
X16668277Y-9398436D01*
X16668277Y-9398436D02*
X16658753Y-9379389D01*
X16658753Y-9379389D02*
X16649229Y-9341293D01*
X16649229Y-9341293D02*
X16649229Y-9293674D01*
X16649229Y-9293674D02*
X16658753Y-9255579D01*
X16658753Y-9255579D02*
X16668277Y-9236531D01*
X16668277Y-9236531D02*
X16677801Y-9227008D01*
X16677801Y-9227008D02*
X16696848Y-9217484D01*
X17001611Y-9417484D02*
X17001611Y-9217484D01*
X17087325Y-9417484D02*
X17087325Y-9312722D01*
X17087325Y-9312722D02*
X17077801Y-9293674D01*
X17077801Y-9293674D02*
X17058753Y-9284150D01*
X17058753Y-9284150D02*
X17030182Y-9284150D01*
X17030182Y-9284150D02*
X17011134Y-9293674D01*
X17011134Y-9293674D02*
X17001611Y-9303198D01*
X17211134Y-9417484D02*
X17192087Y-9407960D01*
X17192087Y-9407960D02*
X17182563Y-9398436D01*
X17182563Y-9398436D02*
X17173039Y-9379389D01*
X17173039Y-9379389D02*
X17173039Y-9322246D01*
X17173039Y-9322246D02*
X17182563Y-9303198D01*
X17182563Y-9303198D02*
X17192087Y-9293674D01*
X17192087Y-9293674D02*
X17211134Y-9284150D01*
X17211134Y-9284150D02*
X17239706Y-9284150D01*
X17239706Y-9284150D02*
X17258753Y-9293674D01*
X17258753Y-9293674D02*
X17268277Y-9303198D01*
X17268277Y-9303198D02*
X17277801Y-9322246D01*
X17277801Y-9322246D02*
X17277801Y-9379389D01*
X17277801Y-9379389D02*
X17268277Y-9398436D01*
X17268277Y-9398436D02*
X17258753Y-9407960D01*
X17258753Y-9407960D02*
X17239706Y-9417484D01*
X17239706Y-9417484D02*
X17211134Y-9417484D01*
X17392087Y-9417484D02*
X17373039Y-9407960D01*
X17373039Y-9407960D02*
X17363515Y-9388912D01*
X17363515Y-9388912D02*
X17363515Y-9217484D01*
X17544468Y-9407960D02*
X17525420Y-9417484D01*
X17525420Y-9417484D02*
X17487325Y-9417484D01*
X17487325Y-9417484D02*
X17468277Y-9407960D01*
X17468277Y-9407960D02*
X17458753Y-9388912D01*
X17458753Y-9388912D02*
X17458753Y-9312722D01*
X17458753Y-9312722D02*
X17468277Y-9293674D01*
X17468277Y-9293674D02*
X17487325Y-9284150D01*
X17487325Y-9284150D02*
X17525420Y-9284150D01*
X17525420Y-9284150D02*
X17544468Y-9293674D01*
X17544468Y-9293674D02*
X17553992Y-9312722D01*
X17553992Y-9312722D02*
X17553992Y-9331770D01*
X17553992Y-9331770D02*
X17458753Y-9350817D01*
X17630182Y-9407960D02*
X17649230Y-9417484D01*
X17649230Y-9417484D02*
X17687325Y-9417484D01*
X17687325Y-9417484D02*
X17706373Y-9407960D01*
X17706373Y-9407960D02*
X17715896Y-9388912D01*
X17715896Y-9388912D02*
X17715896Y-9379389D01*
X17715896Y-9379389D02*
X17706373Y-9360341D01*
X17706373Y-9360341D02*
X17687325Y-9350817D01*
X17687325Y-9350817D02*
X17658753Y-9350817D01*
X17658753Y-9350817D02*
X17639706Y-9341293D01*
X17639706Y-9341293D02*
X17630182Y-9322246D01*
X17630182Y-9322246D02*
X17630182Y-9312722D01*
X17630182Y-9312722D02*
X17639706Y-9293674D01*
X17639706Y-9293674D02*
X17658753Y-9284150D01*
X17658753Y-9284150D02*
X17687325Y-9284150D01*
X17687325Y-9284150D02*
X17706373Y-9293674D01*
X17953992Y-9341293D02*
X18106373Y-9341293D01*
X18030182Y-9417484D02*
X18030182Y-9265103D01*
X18334944Y-9217484D02*
X18458754Y-9217484D01*
X18458754Y-9217484D02*
X18392087Y-9293674D01*
X18392087Y-9293674D02*
X18420658Y-9293674D01*
X18420658Y-9293674D02*
X18439706Y-9303198D01*
X18439706Y-9303198D02*
X18449230Y-9312722D01*
X18449230Y-9312722D02*
X18458754Y-9331770D01*
X18458754Y-9331770D02*
X18458754Y-9379389D01*
X18458754Y-9379389D02*
X18449230Y-9398436D01*
X18449230Y-9398436D02*
X18439706Y-9407960D01*
X18439706Y-9407960D02*
X18420658Y-9417484D01*
X18420658Y-9417484D02*
X18363515Y-9417484D01*
X18363515Y-9417484D02*
X18344468Y-9407960D01*
X18344468Y-9407960D02*
X18334944Y-9398436D01*
X18687325Y-9407960D02*
X18706373Y-9417484D01*
X18706373Y-9417484D02*
X18744468Y-9417484D01*
X18744468Y-9417484D02*
X18763516Y-9407960D01*
X18763516Y-9407960D02*
X18773039Y-9388912D01*
X18773039Y-9388912D02*
X18773039Y-9379389D01*
X18773039Y-9379389D02*
X18763516Y-9360341D01*
X18763516Y-9360341D02*
X18744468Y-9350817D01*
X18744468Y-9350817D02*
X18715896Y-9350817D01*
X18715896Y-9350817D02*
X18696849Y-9341293D01*
X18696849Y-9341293D02*
X18687325Y-9322246D01*
X18687325Y-9322246D02*
X18687325Y-9312722D01*
X18687325Y-9312722D02*
X18696849Y-9293674D01*
X18696849Y-9293674D02*
X18715896Y-9284150D01*
X18715896Y-9284150D02*
X18744468Y-9284150D01*
X18744468Y-9284150D02*
X18763516Y-9293674D01*
X18887325Y-9417484D02*
X18868277Y-9407960D01*
X18868277Y-9407960D02*
X18858754Y-9388912D01*
X18858754Y-9388912D02*
X18858754Y-9217484D01*
X18992087Y-9417484D02*
X18973039Y-9407960D01*
X18973039Y-9407960D02*
X18963516Y-9398436D01*
X18963516Y-9398436D02*
X18953992Y-9379389D01*
X18953992Y-9379389D02*
X18953992Y-9322246D01*
X18953992Y-9322246D02*
X18963516Y-9303198D01*
X18963516Y-9303198D02*
X18973039Y-9293674D01*
X18973039Y-9293674D02*
X18992087Y-9284150D01*
X18992087Y-9284150D02*
X19020658Y-9284150D01*
X19020658Y-9284150D02*
X19039706Y-9293674D01*
X19039706Y-9293674D02*
X19049230Y-9303198D01*
X19049230Y-9303198D02*
X19058754Y-9322246D01*
X19058754Y-9322246D02*
X19058754Y-9379389D01*
X19058754Y-9379389D02*
X19049230Y-9398436D01*
X19049230Y-9398436D02*
X19039706Y-9407960D01*
X19039706Y-9407960D02*
X19020658Y-9417484D01*
X19020658Y-9417484D02*
X18992087Y-9417484D01*
X19115897Y-9284150D02*
X19192087Y-9284150D01*
X19144468Y-9217484D02*
X19144468Y-9388912D01*
X19144468Y-9388912D02*
X19153992Y-9407960D01*
X19153992Y-9407960D02*
X19173039Y-9417484D01*
X19173039Y-9417484D02*
X19192087Y-9417484D01*
X19249230Y-9407960D02*
X19268277Y-9417484D01*
X19268277Y-9417484D02*
X19306373Y-9417484D01*
X19306373Y-9417484D02*
X19325420Y-9407960D01*
X19325420Y-9407960D02*
X19334944Y-9388912D01*
X19334944Y-9388912D02*
X19334944Y-9379389D01*
X19334944Y-9379389D02*
X19325420Y-9360341D01*
X19325420Y-9360341D02*
X19306373Y-9350817D01*
X19306373Y-9350817D02*
X19277801Y-9350817D01*
X19277801Y-9350817D02*
X19258754Y-9341293D01*
X19258754Y-9341293D02*
X19249230Y-9322246D01*
X19249230Y-9322246D02*
X19249230Y-9312722D01*
X19249230Y-9312722D02*
X19258754Y-9293674D01*
X19258754Y-9293674D02*
X19277801Y-9284150D01*
X19277801Y-9284150D02*
X19306373Y-9284150D01*
X19306373Y-9284150D02*
X19325420Y-9293674D01*
X19401611Y-9493674D02*
X19411135Y-9484150D01*
X19411135Y-9484150D02*
X19430182Y-9455579D01*
X19430182Y-9455579D02*
X19439706Y-9436531D01*
X19439706Y-9436531D02*
X19449230Y-9407960D01*
X19449230Y-9407960D02*
X19458754Y-9360341D01*
X19458754Y-9360341D02*
X19458754Y-9322246D01*
X19458754Y-9322246D02*
X19449230Y-9274627D01*
X19449230Y-9274627D02*
X19439706Y-9246055D01*
X19439706Y-9246055D02*
X19430182Y-9227008D01*
X19430182Y-9227008D02*
X19411135Y-9198436D01*
X19411135Y-9198436D02*
X19401611Y-9188912D01*
D12*
X12855100Y-9513800D02*
X13007500Y-9666200D01*
X13007500Y-9513800D02*
X12855100Y-9666200D01*
X13007500Y-9590000D02*
G75*
G03*
X12855100Y-9590000I-76200J0D01*
G01*
X12855100Y-9590000D02*
G75*
G03*
X13007500Y-9590000I76200J0D01*
G01*
D10*
X13373039Y-9681484D02*
X13258753Y-9681484D01*
X13315896Y-9681484D02*
X13315896Y-9481484D01*
X13315896Y-9481484D02*
X13296848Y-9510055D01*
X13296848Y-9510055D02*
X13277801Y-9529103D01*
X13277801Y-9529103D02*
X13258753Y-9538627D01*
X13458753Y-9662436D02*
X13468277Y-9671960D01*
X13468277Y-9671960D02*
X13458753Y-9681484D01*
X13458753Y-9681484D02*
X13449229Y-9671960D01*
X13449229Y-9671960D02*
X13458753Y-9662436D01*
X13458753Y-9662436D02*
X13458753Y-9681484D01*
X13649229Y-9481484D02*
X13553991Y-9481484D01*
X13553991Y-9481484D02*
X13544467Y-9576722D01*
X13544467Y-9576722D02*
X13553991Y-9567198D01*
X13553991Y-9567198D02*
X13573039Y-9557674D01*
X13573039Y-9557674D02*
X13620658Y-9557674D01*
X13620658Y-9557674D02*
X13639705Y-9567198D01*
X13639705Y-9567198D02*
X13649229Y-9576722D01*
X13649229Y-9576722D02*
X13658753Y-9595770D01*
X13658753Y-9595770D02*
X13658753Y-9643389D01*
X13658753Y-9643389D02*
X13649229Y-9662436D01*
X13649229Y-9662436D02*
X13639705Y-9671960D01*
X13639705Y-9671960D02*
X13620658Y-9681484D01*
X13620658Y-9681484D02*
X13573039Y-9681484D01*
X13573039Y-9681484D02*
X13553991Y-9671960D01*
X13553991Y-9671960D02*
X13544467Y-9662436D01*
X13734943Y-9500531D02*
X13744467Y-9491008D01*
X13744467Y-9491008D02*
X13763515Y-9481484D01*
X13763515Y-9481484D02*
X13811134Y-9481484D01*
X13811134Y-9481484D02*
X13830182Y-9491008D01*
X13830182Y-9491008D02*
X13839705Y-9500531D01*
X13839705Y-9500531D02*
X13849229Y-9519579D01*
X13849229Y-9519579D02*
X13849229Y-9538627D01*
X13849229Y-9538627D02*
X13839705Y-9567198D01*
X13839705Y-9567198D02*
X13725420Y-9681484D01*
X13725420Y-9681484D02*
X13849229Y-9681484D01*
X14020658Y-9548150D02*
X14020658Y-9681484D01*
X13973039Y-9471960D02*
X13925420Y-9614817D01*
X13925420Y-9614817D02*
X14049229Y-9614817D01*
X14125420Y-9681484D02*
X14125420Y-9548150D01*
X14125420Y-9567198D02*
X14134943Y-9557674D01*
X14134943Y-9557674D02*
X14153991Y-9548150D01*
X14153991Y-9548150D02*
X14182563Y-9548150D01*
X14182563Y-9548150D02*
X14201610Y-9557674D01*
X14201610Y-9557674D02*
X14211134Y-9576722D01*
X14211134Y-9576722D02*
X14211134Y-9681484D01*
X14211134Y-9576722D02*
X14220658Y-9557674D01*
X14220658Y-9557674D02*
X14239705Y-9548150D01*
X14239705Y-9548150D02*
X14268277Y-9548150D01*
X14268277Y-9548150D02*
X14287324Y-9557674D01*
X14287324Y-9557674D02*
X14296848Y-9576722D01*
X14296848Y-9576722D02*
X14296848Y-9681484D01*
X14392086Y-9681484D02*
X14392086Y-9548150D01*
X14392086Y-9567198D02*
X14401610Y-9557674D01*
X14401610Y-9557674D02*
X14420658Y-9548150D01*
X14420658Y-9548150D02*
X14449229Y-9548150D01*
X14449229Y-9548150D02*
X14468277Y-9557674D01*
X14468277Y-9557674D02*
X14477801Y-9576722D01*
X14477801Y-9576722D02*
X14477801Y-9681484D01*
X14477801Y-9576722D02*
X14487324Y-9557674D01*
X14487324Y-9557674D02*
X14506372Y-9548150D01*
X14506372Y-9548150D02*
X14534943Y-9548150D01*
X14534943Y-9548150D02*
X14553991Y-9557674D01*
X14553991Y-9557674D02*
X14563515Y-9576722D01*
X14563515Y-9576722D02*
X14563515Y-9681484D01*
X14953991Y-9471960D02*
X14782563Y-9729103D01*
X15211134Y-9481484D02*
X15230182Y-9481484D01*
X15230182Y-9481484D02*
X15249229Y-9491008D01*
X15249229Y-9491008D02*
X15258753Y-9500531D01*
X15258753Y-9500531D02*
X15268277Y-9519579D01*
X15268277Y-9519579D02*
X15277801Y-9557674D01*
X15277801Y-9557674D02*
X15277801Y-9605293D01*
X15277801Y-9605293D02*
X15268277Y-9643389D01*
X15268277Y-9643389D02*
X15258753Y-9662436D01*
X15258753Y-9662436D02*
X15249229Y-9671960D01*
X15249229Y-9671960D02*
X15230182Y-9681484D01*
X15230182Y-9681484D02*
X15211134Y-9681484D01*
X15211134Y-9681484D02*
X15192086Y-9671960D01*
X15192086Y-9671960D02*
X15182563Y-9662436D01*
X15182563Y-9662436D02*
X15173039Y-9643389D01*
X15173039Y-9643389D02*
X15163515Y-9605293D01*
X15163515Y-9605293D02*
X15163515Y-9557674D01*
X15163515Y-9557674D02*
X15173039Y-9519579D01*
X15173039Y-9519579D02*
X15182563Y-9500531D01*
X15182563Y-9500531D02*
X15192086Y-9491008D01*
X15192086Y-9491008D02*
X15211134Y-9481484D01*
X15363515Y-9662436D02*
X15373039Y-9671960D01*
X15373039Y-9671960D02*
X15363515Y-9681484D01*
X15363515Y-9681484D02*
X15353991Y-9671960D01*
X15353991Y-9671960D02*
X15363515Y-9662436D01*
X15363515Y-9662436D02*
X15363515Y-9681484D01*
X15496848Y-9481484D02*
X15515896Y-9481484D01*
X15515896Y-9481484D02*
X15534944Y-9491008D01*
X15534944Y-9491008D02*
X15544467Y-9500531D01*
X15544467Y-9500531D02*
X15553991Y-9519579D01*
X15553991Y-9519579D02*
X15563515Y-9557674D01*
X15563515Y-9557674D02*
X15563515Y-9605293D01*
X15563515Y-9605293D02*
X15553991Y-9643389D01*
X15553991Y-9643389D02*
X15544467Y-9662436D01*
X15544467Y-9662436D02*
X15534944Y-9671960D01*
X15534944Y-9671960D02*
X15515896Y-9681484D01*
X15515896Y-9681484D02*
X15496848Y-9681484D01*
X15496848Y-9681484D02*
X15477801Y-9671960D01*
X15477801Y-9671960D02*
X15468277Y-9662436D01*
X15468277Y-9662436D02*
X15458753Y-9643389D01*
X15458753Y-9643389D02*
X15449229Y-9605293D01*
X15449229Y-9605293D02*
X15449229Y-9557674D01*
X15449229Y-9557674D02*
X15458753Y-9519579D01*
X15458753Y-9519579D02*
X15468277Y-9500531D01*
X15468277Y-9500531D02*
X15477801Y-9491008D01*
X15477801Y-9491008D02*
X15496848Y-9481484D01*
X15734944Y-9481484D02*
X15696848Y-9481484D01*
X15696848Y-9481484D02*
X15677801Y-9491008D01*
X15677801Y-9491008D02*
X15668277Y-9500531D01*
X15668277Y-9500531D02*
X15649229Y-9529103D01*
X15649229Y-9529103D02*
X15639706Y-9567198D01*
X15639706Y-9567198D02*
X15639706Y-9643389D01*
X15639706Y-9643389D02*
X15649229Y-9662436D01*
X15649229Y-9662436D02*
X15658753Y-9671960D01*
X15658753Y-9671960D02*
X15677801Y-9681484D01*
X15677801Y-9681484D02*
X15715896Y-9681484D01*
X15715896Y-9681484D02*
X15734944Y-9671960D01*
X15734944Y-9671960D02*
X15744467Y-9662436D01*
X15744467Y-9662436D02*
X15753991Y-9643389D01*
X15753991Y-9643389D02*
X15753991Y-9595770D01*
X15753991Y-9595770D02*
X15744467Y-9576722D01*
X15744467Y-9576722D02*
X15734944Y-9567198D01*
X15734944Y-9567198D02*
X15715896Y-9557674D01*
X15715896Y-9557674D02*
X15677801Y-9557674D01*
X15677801Y-9557674D02*
X15658753Y-9567198D01*
X15658753Y-9567198D02*
X15649229Y-9576722D01*
X15649229Y-9576722D02*
X15639706Y-9595770D01*
X15877801Y-9481484D02*
X15896848Y-9481484D01*
X15896848Y-9481484D02*
X15915896Y-9491008D01*
X15915896Y-9491008D02*
X15925420Y-9500531D01*
X15925420Y-9500531D02*
X15934944Y-9519579D01*
X15934944Y-9519579D02*
X15944467Y-9557674D01*
X15944467Y-9557674D02*
X15944467Y-9605293D01*
X15944467Y-9605293D02*
X15934944Y-9643389D01*
X15934944Y-9643389D02*
X15925420Y-9662436D01*
X15925420Y-9662436D02*
X15915896Y-9671960D01*
X15915896Y-9671960D02*
X15896848Y-9681484D01*
X15896848Y-9681484D02*
X15877801Y-9681484D01*
X15877801Y-9681484D02*
X15858753Y-9671960D01*
X15858753Y-9671960D02*
X15849229Y-9662436D01*
X15849229Y-9662436D02*
X15839706Y-9643389D01*
X15839706Y-9643389D02*
X15830182Y-9605293D01*
X15830182Y-9605293D02*
X15830182Y-9557674D01*
X15830182Y-9557674D02*
X15839706Y-9519579D01*
X15839706Y-9519579D02*
X15849229Y-9500531D01*
X15849229Y-9500531D02*
X15858753Y-9491008D01*
X15858753Y-9491008D02*
X15877801Y-9481484D01*
X16068277Y-9481484D02*
X16087325Y-9481484D01*
X16087325Y-9481484D02*
X16106372Y-9491008D01*
X16106372Y-9491008D02*
X16115896Y-9500531D01*
X16115896Y-9500531D02*
X16125420Y-9519579D01*
X16125420Y-9519579D02*
X16134944Y-9557674D01*
X16134944Y-9557674D02*
X16134944Y-9605293D01*
X16134944Y-9605293D02*
X16125420Y-9643389D01*
X16125420Y-9643389D02*
X16115896Y-9662436D01*
X16115896Y-9662436D02*
X16106372Y-9671960D01*
X16106372Y-9671960D02*
X16087325Y-9681484D01*
X16087325Y-9681484D02*
X16068277Y-9681484D01*
X16068277Y-9681484D02*
X16049229Y-9671960D01*
X16049229Y-9671960D02*
X16039706Y-9662436D01*
X16039706Y-9662436D02*
X16030182Y-9643389D01*
X16030182Y-9643389D02*
X16020658Y-9605293D01*
X16020658Y-9605293D02*
X16020658Y-9557674D01*
X16020658Y-9557674D02*
X16030182Y-9519579D01*
X16030182Y-9519579D02*
X16039706Y-9500531D01*
X16039706Y-9500531D02*
X16049229Y-9491008D01*
X16049229Y-9491008D02*
X16068277Y-9481484D01*
X16211134Y-9481484D02*
X16211134Y-9519579D01*
X16287325Y-9481484D02*
X16287325Y-9519579D01*
X16582563Y-9757674D02*
X16573039Y-9748150D01*
X16573039Y-9748150D02*
X16553991Y-9719579D01*
X16553991Y-9719579D02*
X16544468Y-9700531D01*
X16544468Y-9700531D02*
X16534944Y-9671960D01*
X16534944Y-9671960D02*
X16525420Y-9624341D01*
X16525420Y-9624341D02*
X16525420Y-9586246D01*
X16525420Y-9586246D02*
X16534944Y-9538627D01*
X16534944Y-9538627D02*
X16544468Y-9510055D01*
X16544468Y-9510055D02*
X16553991Y-9491008D01*
X16553991Y-9491008D02*
X16573039Y-9462436D01*
X16573039Y-9462436D02*
X16582563Y-9452912D01*
X16639706Y-9481484D02*
X16773039Y-9481484D01*
X16773039Y-9481484D02*
X16687325Y-9681484D01*
X17001611Y-9681484D02*
X17001611Y-9481484D01*
X17087325Y-9681484D02*
X17087325Y-9576722D01*
X17087325Y-9576722D02*
X17077801Y-9557674D01*
X17077801Y-9557674D02*
X17058753Y-9548150D01*
X17058753Y-9548150D02*
X17030182Y-9548150D01*
X17030182Y-9548150D02*
X17011134Y-9557674D01*
X17011134Y-9557674D02*
X17001611Y-9567198D01*
X17211134Y-9681484D02*
X17192087Y-9671960D01*
X17192087Y-9671960D02*
X17182563Y-9662436D01*
X17182563Y-9662436D02*
X17173039Y-9643389D01*
X17173039Y-9643389D02*
X17173039Y-9586246D01*
X17173039Y-9586246D02*
X17182563Y-9567198D01*
X17182563Y-9567198D02*
X17192087Y-9557674D01*
X17192087Y-9557674D02*
X17211134Y-9548150D01*
X17211134Y-9548150D02*
X17239706Y-9548150D01*
X17239706Y-9548150D02*
X17258753Y-9557674D01*
X17258753Y-9557674D02*
X17268277Y-9567198D01*
X17268277Y-9567198D02*
X17277801Y-9586246D01*
X17277801Y-9586246D02*
X17277801Y-9643389D01*
X17277801Y-9643389D02*
X17268277Y-9662436D01*
X17268277Y-9662436D02*
X17258753Y-9671960D01*
X17258753Y-9671960D02*
X17239706Y-9681484D01*
X17239706Y-9681484D02*
X17211134Y-9681484D01*
X17392087Y-9681484D02*
X17373039Y-9671960D01*
X17373039Y-9671960D02*
X17363515Y-9652912D01*
X17363515Y-9652912D02*
X17363515Y-9481484D01*
X17544468Y-9671960D02*
X17525420Y-9681484D01*
X17525420Y-9681484D02*
X17487325Y-9681484D01*
X17487325Y-9681484D02*
X17468277Y-9671960D01*
X17468277Y-9671960D02*
X17458753Y-9652912D01*
X17458753Y-9652912D02*
X17458753Y-9576722D01*
X17458753Y-9576722D02*
X17468277Y-9557674D01*
X17468277Y-9557674D02*
X17487325Y-9548150D01*
X17487325Y-9548150D02*
X17525420Y-9548150D01*
X17525420Y-9548150D02*
X17544468Y-9557674D01*
X17544468Y-9557674D02*
X17553992Y-9576722D01*
X17553992Y-9576722D02*
X17553992Y-9595770D01*
X17553992Y-9595770D02*
X17458753Y-9614817D01*
X17630182Y-9671960D02*
X17649230Y-9681484D01*
X17649230Y-9681484D02*
X17687325Y-9681484D01*
X17687325Y-9681484D02*
X17706373Y-9671960D01*
X17706373Y-9671960D02*
X17715896Y-9652912D01*
X17715896Y-9652912D02*
X17715896Y-9643389D01*
X17715896Y-9643389D02*
X17706373Y-9624341D01*
X17706373Y-9624341D02*
X17687325Y-9614817D01*
X17687325Y-9614817D02*
X17658753Y-9614817D01*
X17658753Y-9614817D02*
X17639706Y-9605293D01*
X17639706Y-9605293D02*
X17630182Y-9586246D01*
X17630182Y-9586246D02*
X17630182Y-9576722D01*
X17630182Y-9576722D02*
X17639706Y-9557674D01*
X17639706Y-9557674D02*
X17658753Y-9548150D01*
X17658753Y-9548150D02*
X17687325Y-9548150D01*
X17687325Y-9548150D02*
X17706373Y-9557674D01*
X17782563Y-9757674D02*
X17792087Y-9748150D01*
X17792087Y-9748150D02*
X17811134Y-9719579D01*
X17811134Y-9719579D02*
X17820658Y-9700531D01*
X17820658Y-9700531D02*
X17830182Y-9671960D01*
X17830182Y-9671960D02*
X17839706Y-9624341D01*
X17839706Y-9624341D02*
X17839706Y-9586246D01*
X17839706Y-9586246D02*
X17830182Y-9538627D01*
X17830182Y-9538627D02*
X17820658Y-9510055D01*
X17820658Y-9510055D02*
X17811134Y-9491008D01*
X17811134Y-9491008D02*
X17792087Y-9462436D01*
X17792087Y-9462436D02*
X17782563Y-9452912D01*
X12807500Y-9762400D02*
X13007500Y-9962400D01*
X13007500Y-9762400D02*
X12807500Y-9962400D01*
X12907500Y-9762400D02*
X12907500Y-9962400D01*
X12807500Y-9862400D02*
X13007500Y-9862400D01*
X13258753Y-9772931D02*
X13268277Y-9763408D01*
X13268277Y-9763408D02*
X13287324Y-9753884D01*
X13287324Y-9753884D02*
X13334943Y-9753884D01*
X13334943Y-9753884D02*
X13353991Y-9763408D01*
X13353991Y-9763408D02*
X13363515Y-9772931D01*
X13363515Y-9772931D02*
X13373039Y-9791979D01*
X13373039Y-9791979D02*
X13373039Y-9811027D01*
X13373039Y-9811027D02*
X13363515Y-9839598D01*
X13363515Y-9839598D02*
X13249229Y-9953884D01*
X13249229Y-9953884D02*
X13373039Y-9953884D01*
X13458753Y-9934836D02*
X13468277Y-9944360D01*
X13468277Y-9944360D02*
X13458753Y-9953884D01*
X13458753Y-9953884D02*
X13449229Y-9944360D01*
X13449229Y-9944360D02*
X13458753Y-9934836D01*
X13458753Y-9934836D02*
X13458753Y-9953884D01*
X13544467Y-9772931D02*
X13553991Y-9763408D01*
X13553991Y-9763408D02*
X13573039Y-9753884D01*
X13573039Y-9753884D02*
X13620658Y-9753884D01*
X13620658Y-9753884D02*
X13639705Y-9763408D01*
X13639705Y-9763408D02*
X13649229Y-9772931D01*
X13649229Y-9772931D02*
X13658753Y-9791979D01*
X13658753Y-9791979D02*
X13658753Y-9811027D01*
X13658753Y-9811027D02*
X13649229Y-9839598D01*
X13649229Y-9839598D02*
X13534943Y-9953884D01*
X13534943Y-9953884D02*
X13658753Y-9953884D01*
X13782562Y-9753884D02*
X13801610Y-9753884D01*
X13801610Y-9753884D02*
X13820658Y-9763408D01*
X13820658Y-9763408D02*
X13830182Y-9772931D01*
X13830182Y-9772931D02*
X13839705Y-9791979D01*
X13839705Y-9791979D02*
X13849229Y-9830074D01*
X13849229Y-9830074D02*
X13849229Y-9877693D01*
X13849229Y-9877693D02*
X13839705Y-9915789D01*
X13839705Y-9915789D02*
X13830182Y-9934836D01*
X13830182Y-9934836D02*
X13820658Y-9944360D01*
X13820658Y-9944360D02*
X13801610Y-9953884D01*
X13801610Y-9953884D02*
X13782562Y-9953884D01*
X13782562Y-9953884D02*
X13763515Y-9944360D01*
X13763515Y-9944360D02*
X13753991Y-9934836D01*
X13753991Y-9934836D02*
X13744467Y-9915789D01*
X13744467Y-9915789D02*
X13734943Y-9877693D01*
X13734943Y-9877693D02*
X13734943Y-9830074D01*
X13734943Y-9830074D02*
X13744467Y-9791979D01*
X13744467Y-9791979D02*
X13753991Y-9772931D01*
X13753991Y-9772931D02*
X13763515Y-9763408D01*
X13763515Y-9763408D02*
X13782562Y-9753884D01*
X13973039Y-9753884D02*
X13992086Y-9753884D01*
X13992086Y-9753884D02*
X14011134Y-9763408D01*
X14011134Y-9763408D02*
X14020658Y-9772931D01*
X14020658Y-9772931D02*
X14030182Y-9791979D01*
X14030182Y-9791979D02*
X14039705Y-9830074D01*
X14039705Y-9830074D02*
X14039705Y-9877693D01*
X14039705Y-9877693D02*
X14030182Y-9915789D01*
X14030182Y-9915789D02*
X14020658Y-9934836D01*
X14020658Y-9934836D02*
X14011134Y-9944360D01*
X14011134Y-9944360D02*
X13992086Y-9953884D01*
X13992086Y-9953884D02*
X13973039Y-9953884D01*
X13973039Y-9953884D02*
X13953991Y-9944360D01*
X13953991Y-9944360D02*
X13944467Y-9934836D01*
X13944467Y-9934836D02*
X13934943Y-9915789D01*
X13934943Y-9915789D02*
X13925420Y-9877693D01*
X13925420Y-9877693D02*
X13925420Y-9830074D01*
X13925420Y-9830074D02*
X13934943Y-9791979D01*
X13934943Y-9791979D02*
X13944467Y-9772931D01*
X13944467Y-9772931D02*
X13953991Y-9763408D01*
X13953991Y-9763408D02*
X13973039Y-9753884D01*
X14125420Y-9953884D02*
X14125420Y-9820550D01*
X14125420Y-9839598D02*
X14134943Y-9830074D01*
X14134943Y-9830074D02*
X14153991Y-9820550D01*
X14153991Y-9820550D02*
X14182563Y-9820550D01*
X14182563Y-9820550D02*
X14201610Y-9830074D01*
X14201610Y-9830074D02*
X14211134Y-9849122D01*
X14211134Y-9849122D02*
X14211134Y-9953884D01*
X14211134Y-9849122D02*
X14220658Y-9830074D01*
X14220658Y-9830074D02*
X14239705Y-9820550D01*
X14239705Y-9820550D02*
X14268277Y-9820550D01*
X14268277Y-9820550D02*
X14287324Y-9830074D01*
X14287324Y-9830074D02*
X14296848Y-9849122D01*
X14296848Y-9849122D02*
X14296848Y-9953884D01*
X14392086Y-9953884D02*
X14392086Y-9820550D01*
X14392086Y-9839598D02*
X14401610Y-9830074D01*
X14401610Y-9830074D02*
X14420658Y-9820550D01*
X14420658Y-9820550D02*
X14449229Y-9820550D01*
X14449229Y-9820550D02*
X14468277Y-9830074D01*
X14468277Y-9830074D02*
X14477801Y-9849122D01*
X14477801Y-9849122D02*
X14477801Y-9953884D01*
X14477801Y-9849122D02*
X14487324Y-9830074D01*
X14487324Y-9830074D02*
X14506372Y-9820550D01*
X14506372Y-9820550D02*
X14534943Y-9820550D01*
X14534943Y-9820550D02*
X14553991Y-9830074D01*
X14553991Y-9830074D02*
X14563515Y-9849122D01*
X14563515Y-9849122D02*
X14563515Y-9953884D01*
X14953991Y-9744360D02*
X14782563Y-10001503D01*
X15211134Y-9753884D02*
X15230182Y-9753884D01*
X15230182Y-9753884D02*
X15249229Y-9763408D01*
X15249229Y-9763408D02*
X15258753Y-9772931D01*
X15258753Y-9772931D02*
X15268277Y-9791979D01*
X15268277Y-9791979D02*
X15277801Y-9830074D01*
X15277801Y-9830074D02*
X15277801Y-9877693D01*
X15277801Y-9877693D02*
X15268277Y-9915789D01*
X15268277Y-9915789D02*
X15258753Y-9934836D01*
X15258753Y-9934836D02*
X15249229Y-9944360D01*
X15249229Y-9944360D02*
X15230182Y-9953884D01*
X15230182Y-9953884D02*
X15211134Y-9953884D01*
X15211134Y-9953884D02*
X15192086Y-9944360D01*
X15192086Y-9944360D02*
X15182563Y-9934836D01*
X15182563Y-9934836D02*
X15173039Y-9915789D01*
X15173039Y-9915789D02*
X15163515Y-9877693D01*
X15163515Y-9877693D02*
X15163515Y-9830074D01*
X15163515Y-9830074D02*
X15173039Y-9791979D01*
X15173039Y-9791979D02*
X15182563Y-9772931D01*
X15182563Y-9772931D02*
X15192086Y-9763408D01*
X15192086Y-9763408D02*
X15211134Y-9753884D01*
X15363515Y-9934836D02*
X15373039Y-9944360D01*
X15373039Y-9944360D02*
X15363515Y-9953884D01*
X15363515Y-9953884D02*
X15353991Y-9944360D01*
X15353991Y-9944360D02*
X15363515Y-9934836D01*
X15363515Y-9934836D02*
X15363515Y-9953884D01*
X15496848Y-9753884D02*
X15515896Y-9753884D01*
X15515896Y-9753884D02*
X15534944Y-9763408D01*
X15534944Y-9763408D02*
X15544467Y-9772931D01*
X15544467Y-9772931D02*
X15553991Y-9791979D01*
X15553991Y-9791979D02*
X15563515Y-9830074D01*
X15563515Y-9830074D02*
X15563515Y-9877693D01*
X15563515Y-9877693D02*
X15553991Y-9915789D01*
X15553991Y-9915789D02*
X15544467Y-9934836D01*
X15544467Y-9934836D02*
X15534944Y-9944360D01*
X15534944Y-9944360D02*
X15515896Y-9953884D01*
X15515896Y-9953884D02*
X15496848Y-9953884D01*
X15496848Y-9953884D02*
X15477801Y-9944360D01*
X15477801Y-9944360D02*
X15468277Y-9934836D01*
X15468277Y-9934836D02*
X15458753Y-9915789D01*
X15458753Y-9915789D02*
X15449229Y-9877693D01*
X15449229Y-9877693D02*
X15449229Y-9830074D01*
X15449229Y-9830074D02*
X15458753Y-9791979D01*
X15458753Y-9791979D02*
X15468277Y-9772931D01*
X15468277Y-9772931D02*
X15477801Y-9763408D01*
X15477801Y-9763408D02*
X15496848Y-9753884D01*
X15677801Y-9839598D02*
X15658753Y-9830074D01*
X15658753Y-9830074D02*
X15649229Y-9820550D01*
X15649229Y-9820550D02*
X15639706Y-9801503D01*
X15639706Y-9801503D02*
X15639706Y-9791979D01*
X15639706Y-9791979D02*
X15649229Y-9772931D01*
X15649229Y-9772931D02*
X15658753Y-9763408D01*
X15658753Y-9763408D02*
X15677801Y-9753884D01*
X15677801Y-9753884D02*
X15715896Y-9753884D01*
X15715896Y-9753884D02*
X15734944Y-9763408D01*
X15734944Y-9763408D02*
X15744467Y-9772931D01*
X15744467Y-9772931D02*
X15753991Y-9791979D01*
X15753991Y-9791979D02*
X15753991Y-9801503D01*
X15753991Y-9801503D02*
X15744467Y-9820550D01*
X15744467Y-9820550D02*
X15734944Y-9830074D01*
X15734944Y-9830074D02*
X15715896Y-9839598D01*
X15715896Y-9839598D02*
X15677801Y-9839598D01*
X15677801Y-9839598D02*
X15658753Y-9849122D01*
X15658753Y-9849122D02*
X15649229Y-9858646D01*
X15649229Y-9858646D02*
X15639706Y-9877693D01*
X15639706Y-9877693D02*
X15639706Y-9915789D01*
X15639706Y-9915789D02*
X15649229Y-9934836D01*
X15649229Y-9934836D02*
X15658753Y-9944360D01*
X15658753Y-9944360D02*
X15677801Y-9953884D01*
X15677801Y-9953884D02*
X15715896Y-9953884D01*
X15715896Y-9953884D02*
X15734944Y-9944360D01*
X15734944Y-9944360D02*
X15744467Y-9934836D01*
X15744467Y-9934836D02*
X15753991Y-9915789D01*
X15753991Y-9915789D02*
X15753991Y-9877693D01*
X15753991Y-9877693D02*
X15744467Y-9858646D01*
X15744467Y-9858646D02*
X15734944Y-9849122D01*
X15734944Y-9849122D02*
X15715896Y-9839598D01*
X15925420Y-9753884D02*
X15887325Y-9753884D01*
X15887325Y-9753884D02*
X15868277Y-9763408D01*
X15868277Y-9763408D02*
X15858753Y-9772931D01*
X15858753Y-9772931D02*
X15839706Y-9801503D01*
X15839706Y-9801503D02*
X15830182Y-9839598D01*
X15830182Y-9839598D02*
X15830182Y-9915789D01*
X15830182Y-9915789D02*
X15839706Y-9934836D01*
X15839706Y-9934836D02*
X15849229Y-9944360D01*
X15849229Y-9944360D02*
X15868277Y-9953884D01*
X15868277Y-9953884D02*
X15906372Y-9953884D01*
X15906372Y-9953884D02*
X15925420Y-9944360D01*
X15925420Y-9944360D02*
X15934944Y-9934836D01*
X15934944Y-9934836D02*
X15944467Y-9915789D01*
X15944467Y-9915789D02*
X15944467Y-9868170D01*
X15944467Y-9868170D02*
X15934944Y-9849122D01*
X15934944Y-9849122D02*
X15925420Y-9839598D01*
X15925420Y-9839598D02*
X15906372Y-9830074D01*
X15906372Y-9830074D02*
X15868277Y-9830074D01*
X15868277Y-9830074D02*
X15849229Y-9839598D01*
X15849229Y-9839598D02*
X15839706Y-9849122D01*
X15839706Y-9849122D02*
X15830182Y-9868170D01*
X16115896Y-9753884D02*
X16077801Y-9753884D01*
X16077801Y-9753884D02*
X16058753Y-9763408D01*
X16058753Y-9763408D02*
X16049229Y-9772931D01*
X16049229Y-9772931D02*
X16030182Y-9801503D01*
X16030182Y-9801503D02*
X16020658Y-9839598D01*
X16020658Y-9839598D02*
X16020658Y-9915789D01*
X16020658Y-9915789D02*
X16030182Y-9934836D01*
X16030182Y-9934836D02*
X16039706Y-9944360D01*
X16039706Y-9944360D02*
X16058753Y-9953884D01*
X16058753Y-9953884D02*
X16096848Y-9953884D01*
X16096848Y-9953884D02*
X16115896Y-9944360D01*
X16115896Y-9944360D02*
X16125420Y-9934836D01*
X16125420Y-9934836D02*
X16134944Y-9915789D01*
X16134944Y-9915789D02*
X16134944Y-9868170D01*
X16134944Y-9868170D02*
X16125420Y-9849122D01*
X16125420Y-9849122D02*
X16115896Y-9839598D01*
X16115896Y-9839598D02*
X16096848Y-9830074D01*
X16096848Y-9830074D02*
X16058753Y-9830074D01*
X16058753Y-9830074D02*
X16039706Y-9839598D01*
X16039706Y-9839598D02*
X16030182Y-9849122D01*
X16030182Y-9849122D02*
X16020658Y-9868170D01*
X16211134Y-9753884D02*
X16211134Y-9791979D01*
X16287325Y-9753884D02*
X16287325Y-9791979D01*
X16582563Y-10030074D02*
X16573039Y-10020550D01*
X16573039Y-10020550D02*
X16553991Y-9991979D01*
X16553991Y-9991979D02*
X16544468Y-9972931D01*
X16544468Y-9972931D02*
X16534944Y-9944360D01*
X16534944Y-9944360D02*
X16525420Y-9896741D01*
X16525420Y-9896741D02*
X16525420Y-9858646D01*
X16525420Y-9858646D02*
X16534944Y-9811027D01*
X16534944Y-9811027D02*
X16544468Y-9782455D01*
X16544468Y-9782455D02*
X16553991Y-9763408D01*
X16553991Y-9763408D02*
X16573039Y-9734836D01*
X16573039Y-9734836D02*
X16582563Y-9725312D01*
X16763515Y-9953884D02*
X16649229Y-9953884D01*
X16706372Y-9953884D02*
X16706372Y-9753884D01*
X16706372Y-9753884D02*
X16687325Y-9782455D01*
X16687325Y-9782455D02*
X16668277Y-9801503D01*
X16668277Y-9801503D02*
X16649229Y-9811027D01*
X17001611Y-9953884D02*
X17001611Y-9753884D01*
X17087325Y-9953884D02*
X17087325Y-9849122D01*
X17087325Y-9849122D02*
X17077801Y-9830074D01*
X17077801Y-9830074D02*
X17058753Y-9820550D01*
X17058753Y-9820550D02*
X17030182Y-9820550D01*
X17030182Y-9820550D02*
X17011134Y-9830074D01*
X17011134Y-9830074D02*
X17001611Y-9839598D01*
X17211134Y-9953884D02*
X17192087Y-9944360D01*
X17192087Y-9944360D02*
X17182563Y-9934836D01*
X17182563Y-9934836D02*
X17173039Y-9915789D01*
X17173039Y-9915789D02*
X17173039Y-9858646D01*
X17173039Y-9858646D02*
X17182563Y-9839598D01*
X17182563Y-9839598D02*
X17192087Y-9830074D01*
X17192087Y-9830074D02*
X17211134Y-9820550D01*
X17211134Y-9820550D02*
X17239706Y-9820550D01*
X17239706Y-9820550D02*
X17258753Y-9830074D01*
X17258753Y-9830074D02*
X17268277Y-9839598D01*
X17268277Y-9839598D02*
X17277801Y-9858646D01*
X17277801Y-9858646D02*
X17277801Y-9915789D01*
X17277801Y-9915789D02*
X17268277Y-9934836D01*
X17268277Y-9934836D02*
X17258753Y-9944360D01*
X17258753Y-9944360D02*
X17239706Y-9953884D01*
X17239706Y-9953884D02*
X17211134Y-9953884D01*
X17392087Y-9953884D02*
X17373039Y-9944360D01*
X17373039Y-9944360D02*
X17363515Y-9925312D01*
X17363515Y-9925312D02*
X17363515Y-9753884D01*
X17544468Y-9944360D02*
X17525420Y-9953884D01*
X17525420Y-9953884D02*
X17487325Y-9953884D01*
X17487325Y-9953884D02*
X17468277Y-9944360D01*
X17468277Y-9944360D02*
X17458753Y-9925312D01*
X17458753Y-9925312D02*
X17458753Y-9849122D01*
X17458753Y-9849122D02*
X17468277Y-9830074D01*
X17468277Y-9830074D02*
X17487325Y-9820550D01*
X17487325Y-9820550D02*
X17525420Y-9820550D01*
X17525420Y-9820550D02*
X17544468Y-9830074D01*
X17544468Y-9830074D02*
X17553992Y-9849122D01*
X17553992Y-9849122D02*
X17553992Y-9868170D01*
X17553992Y-9868170D02*
X17458753Y-9887217D01*
X17620658Y-10030074D02*
X17630182Y-10020550D01*
X17630182Y-10020550D02*
X17649230Y-9991979D01*
X17649230Y-9991979D02*
X17658753Y-9972931D01*
X17658753Y-9972931D02*
X17668277Y-9944360D01*
X17668277Y-9944360D02*
X17677801Y-9896741D01*
X17677801Y-9896741D02*
X17677801Y-9858646D01*
X17677801Y-9858646D02*
X17668277Y-9811027D01*
X17668277Y-9811027D02*
X17658753Y-9782455D01*
X17658753Y-9782455D02*
X17649230Y-9763408D01*
X17649230Y-9763408D02*
X17630182Y-9734836D01*
X17630182Y-9734836D02*
X17620658Y-9725312D01*
X12807500Y-10082400D02*
X13007500Y-10282400D01*
X13007500Y-10082400D02*
X12807500Y-10282400D01*
X12978211Y-10253111D02*
X12978211Y-10111689D01*
X12836789Y-10111689D01*
X12836789Y-10253111D01*
X12978211Y-10253111D01*
X13249229Y-10073884D02*
X13373039Y-10073884D01*
X13373039Y-10073884D02*
X13306372Y-10150074D01*
X13306372Y-10150074D02*
X13334943Y-10150074D01*
X13334943Y-10150074D02*
X13353991Y-10159598D01*
X13353991Y-10159598D02*
X13363515Y-10169122D01*
X13363515Y-10169122D02*
X13373039Y-10188170D01*
X13373039Y-10188170D02*
X13373039Y-10235789D01*
X13373039Y-10235789D02*
X13363515Y-10254836D01*
X13363515Y-10254836D02*
X13353991Y-10264360D01*
X13353991Y-10264360D02*
X13334943Y-10273884D01*
X13334943Y-10273884D02*
X13277801Y-10273884D01*
X13277801Y-10273884D02*
X13258753Y-10264360D01*
X13258753Y-10264360D02*
X13249229Y-10254836D01*
X13458753Y-10254836D02*
X13468277Y-10264360D01*
X13468277Y-10264360D02*
X13458753Y-10273884D01*
X13458753Y-10273884D02*
X13449229Y-10264360D01*
X13449229Y-10264360D02*
X13458753Y-10254836D01*
X13458753Y-10254836D02*
X13458753Y-10273884D01*
X13592086Y-10073884D02*
X13611134Y-10073884D01*
X13611134Y-10073884D02*
X13630182Y-10083408D01*
X13630182Y-10083408D02*
X13639705Y-10092931D01*
X13639705Y-10092931D02*
X13649229Y-10111979D01*
X13649229Y-10111979D02*
X13658753Y-10150074D01*
X13658753Y-10150074D02*
X13658753Y-10197693D01*
X13658753Y-10197693D02*
X13649229Y-10235789D01*
X13649229Y-10235789D02*
X13639705Y-10254836D01*
X13639705Y-10254836D02*
X13630182Y-10264360D01*
X13630182Y-10264360D02*
X13611134Y-10273884D01*
X13611134Y-10273884D02*
X13592086Y-10273884D01*
X13592086Y-10273884D02*
X13573039Y-10264360D01*
X13573039Y-10264360D02*
X13563515Y-10254836D01*
X13563515Y-10254836D02*
X13553991Y-10235789D01*
X13553991Y-10235789D02*
X13544467Y-10197693D01*
X13544467Y-10197693D02*
X13544467Y-10150074D01*
X13544467Y-10150074D02*
X13553991Y-10111979D01*
X13553991Y-10111979D02*
X13563515Y-10092931D01*
X13563515Y-10092931D02*
X13573039Y-10083408D01*
X13573039Y-10083408D02*
X13592086Y-10073884D01*
X13830182Y-10140550D02*
X13830182Y-10273884D01*
X13782562Y-10064360D02*
X13734943Y-10207217D01*
X13734943Y-10207217D02*
X13858753Y-10207217D01*
X13963515Y-10159598D02*
X13944467Y-10150074D01*
X13944467Y-10150074D02*
X13934943Y-10140550D01*
X13934943Y-10140550D02*
X13925420Y-10121503D01*
X13925420Y-10121503D02*
X13925420Y-10111979D01*
X13925420Y-10111979D02*
X13934943Y-10092931D01*
X13934943Y-10092931D02*
X13944467Y-10083408D01*
X13944467Y-10083408D02*
X13963515Y-10073884D01*
X13963515Y-10073884D02*
X14001610Y-10073884D01*
X14001610Y-10073884D02*
X14020658Y-10083408D01*
X14020658Y-10083408D02*
X14030182Y-10092931D01*
X14030182Y-10092931D02*
X14039705Y-10111979D01*
X14039705Y-10111979D02*
X14039705Y-10121503D01*
X14039705Y-10121503D02*
X14030182Y-10140550D01*
X14030182Y-10140550D02*
X14020658Y-10150074D01*
X14020658Y-10150074D02*
X14001610Y-10159598D01*
X14001610Y-10159598D02*
X13963515Y-10159598D01*
X13963515Y-10159598D02*
X13944467Y-10169122D01*
X13944467Y-10169122D02*
X13934943Y-10178646D01*
X13934943Y-10178646D02*
X13925420Y-10197693D01*
X13925420Y-10197693D02*
X13925420Y-10235789D01*
X13925420Y-10235789D02*
X13934943Y-10254836D01*
X13934943Y-10254836D02*
X13944467Y-10264360D01*
X13944467Y-10264360D02*
X13963515Y-10273884D01*
X13963515Y-10273884D02*
X14001610Y-10273884D01*
X14001610Y-10273884D02*
X14020658Y-10264360D01*
X14020658Y-10264360D02*
X14030182Y-10254836D01*
X14030182Y-10254836D02*
X14039705Y-10235789D01*
X14039705Y-10235789D02*
X14039705Y-10197693D01*
X14039705Y-10197693D02*
X14030182Y-10178646D01*
X14030182Y-10178646D02*
X14020658Y-10169122D01*
X14020658Y-10169122D02*
X14001610Y-10159598D01*
X14125420Y-10273884D02*
X14125420Y-10140550D01*
X14125420Y-10159598D02*
X14134943Y-10150074D01*
X14134943Y-10150074D02*
X14153991Y-10140550D01*
X14153991Y-10140550D02*
X14182563Y-10140550D01*
X14182563Y-10140550D02*
X14201610Y-10150074D01*
X14201610Y-10150074D02*
X14211134Y-10169122D01*
X14211134Y-10169122D02*
X14211134Y-10273884D01*
X14211134Y-10169122D02*
X14220658Y-10150074D01*
X14220658Y-10150074D02*
X14239705Y-10140550D01*
X14239705Y-10140550D02*
X14268277Y-10140550D01*
X14268277Y-10140550D02*
X14287324Y-10150074D01*
X14287324Y-10150074D02*
X14296848Y-10169122D01*
X14296848Y-10169122D02*
X14296848Y-10273884D01*
X14392086Y-10273884D02*
X14392086Y-10140550D01*
X14392086Y-10159598D02*
X14401610Y-10150074D01*
X14401610Y-10150074D02*
X14420658Y-10140550D01*
X14420658Y-10140550D02*
X14449229Y-10140550D01*
X14449229Y-10140550D02*
X14468277Y-10150074D01*
X14468277Y-10150074D02*
X14477801Y-10169122D01*
X14477801Y-10169122D02*
X14477801Y-10273884D01*
X14477801Y-10169122D02*
X14487324Y-10150074D01*
X14487324Y-10150074D02*
X14506372Y-10140550D01*
X14506372Y-10140550D02*
X14534943Y-10140550D01*
X14534943Y-10140550D02*
X14553991Y-10150074D01*
X14553991Y-10150074D02*
X14563515Y-10169122D01*
X14563515Y-10169122D02*
X14563515Y-10273884D01*
X14953991Y-10064360D02*
X14782563Y-10321503D01*
X15211134Y-10073884D02*
X15230182Y-10073884D01*
X15230182Y-10073884D02*
X15249229Y-10083408D01*
X15249229Y-10083408D02*
X15258753Y-10092931D01*
X15258753Y-10092931D02*
X15268277Y-10111979D01*
X15268277Y-10111979D02*
X15277801Y-10150074D01*
X15277801Y-10150074D02*
X15277801Y-10197693D01*
X15277801Y-10197693D02*
X15268277Y-10235789D01*
X15268277Y-10235789D02*
X15258753Y-10254836D01*
X15258753Y-10254836D02*
X15249229Y-10264360D01*
X15249229Y-10264360D02*
X15230182Y-10273884D01*
X15230182Y-10273884D02*
X15211134Y-10273884D01*
X15211134Y-10273884D02*
X15192086Y-10264360D01*
X15192086Y-10264360D02*
X15182563Y-10254836D01*
X15182563Y-10254836D02*
X15173039Y-10235789D01*
X15173039Y-10235789D02*
X15163515Y-10197693D01*
X15163515Y-10197693D02*
X15163515Y-10150074D01*
X15163515Y-10150074D02*
X15173039Y-10111979D01*
X15173039Y-10111979D02*
X15182563Y-10092931D01*
X15182563Y-10092931D02*
X15192086Y-10083408D01*
X15192086Y-10083408D02*
X15211134Y-10073884D01*
X15363515Y-10254836D02*
X15373039Y-10264360D01*
X15373039Y-10264360D02*
X15363515Y-10273884D01*
X15363515Y-10273884D02*
X15353991Y-10264360D01*
X15353991Y-10264360D02*
X15363515Y-10254836D01*
X15363515Y-10254836D02*
X15363515Y-10273884D01*
X15563515Y-10273884D02*
X15449229Y-10273884D01*
X15506372Y-10273884D02*
X15506372Y-10073884D01*
X15506372Y-10073884D02*
X15487325Y-10102455D01*
X15487325Y-10102455D02*
X15468277Y-10121503D01*
X15468277Y-10121503D02*
X15449229Y-10131027D01*
X15639706Y-10092931D02*
X15649229Y-10083408D01*
X15649229Y-10083408D02*
X15668277Y-10073884D01*
X15668277Y-10073884D02*
X15715896Y-10073884D01*
X15715896Y-10073884D02*
X15734944Y-10083408D01*
X15734944Y-10083408D02*
X15744467Y-10092931D01*
X15744467Y-10092931D02*
X15753991Y-10111979D01*
X15753991Y-10111979D02*
X15753991Y-10131027D01*
X15753991Y-10131027D02*
X15744467Y-10159598D01*
X15744467Y-10159598D02*
X15630182Y-10273884D01*
X15630182Y-10273884D02*
X15753991Y-10273884D01*
X15877801Y-10073884D02*
X15896848Y-10073884D01*
X15896848Y-10073884D02*
X15915896Y-10083408D01*
X15915896Y-10083408D02*
X15925420Y-10092931D01*
X15925420Y-10092931D02*
X15934944Y-10111979D01*
X15934944Y-10111979D02*
X15944467Y-10150074D01*
X15944467Y-10150074D02*
X15944467Y-10197693D01*
X15944467Y-10197693D02*
X15934944Y-10235789D01*
X15934944Y-10235789D02*
X15925420Y-10254836D01*
X15925420Y-10254836D02*
X15915896Y-10264360D01*
X15915896Y-10264360D02*
X15896848Y-10273884D01*
X15896848Y-10273884D02*
X15877801Y-10273884D01*
X15877801Y-10273884D02*
X15858753Y-10264360D01*
X15858753Y-10264360D02*
X15849229Y-10254836D01*
X15849229Y-10254836D02*
X15839706Y-10235789D01*
X15839706Y-10235789D02*
X15830182Y-10197693D01*
X15830182Y-10197693D02*
X15830182Y-10150074D01*
X15830182Y-10150074D02*
X15839706Y-10111979D01*
X15839706Y-10111979D02*
X15849229Y-10092931D01*
X15849229Y-10092931D02*
X15858753Y-10083408D01*
X15858753Y-10083408D02*
X15877801Y-10073884D01*
X16068277Y-10073884D02*
X16087325Y-10073884D01*
X16087325Y-10073884D02*
X16106372Y-10083408D01*
X16106372Y-10083408D02*
X16115896Y-10092931D01*
X16115896Y-10092931D02*
X16125420Y-10111979D01*
X16125420Y-10111979D02*
X16134944Y-10150074D01*
X16134944Y-10150074D02*
X16134944Y-10197693D01*
X16134944Y-10197693D02*
X16125420Y-10235789D01*
X16125420Y-10235789D02*
X16115896Y-10254836D01*
X16115896Y-10254836D02*
X16106372Y-10264360D01*
X16106372Y-10264360D02*
X16087325Y-10273884D01*
X16087325Y-10273884D02*
X16068277Y-10273884D01*
X16068277Y-10273884D02*
X16049229Y-10264360D01*
X16049229Y-10264360D02*
X16039706Y-10254836D01*
X16039706Y-10254836D02*
X16030182Y-10235789D01*
X16030182Y-10235789D02*
X16020658Y-10197693D01*
X16020658Y-10197693D02*
X16020658Y-10150074D01*
X16020658Y-10150074D02*
X16030182Y-10111979D01*
X16030182Y-10111979D02*
X16039706Y-10092931D01*
X16039706Y-10092931D02*
X16049229Y-10083408D01*
X16049229Y-10083408D02*
X16068277Y-10073884D01*
X16211134Y-10073884D02*
X16211134Y-10111979D01*
X16287325Y-10073884D02*
X16287325Y-10111979D01*
X16582563Y-10350074D02*
X16573039Y-10340550D01*
X16573039Y-10340550D02*
X16553991Y-10311979D01*
X16553991Y-10311979D02*
X16544468Y-10292931D01*
X16544468Y-10292931D02*
X16534944Y-10264360D01*
X16534944Y-10264360D02*
X16525420Y-10216741D01*
X16525420Y-10216741D02*
X16525420Y-10178646D01*
X16525420Y-10178646D02*
X16534944Y-10131027D01*
X16534944Y-10131027D02*
X16544468Y-10102455D01*
X16544468Y-10102455D02*
X16553991Y-10083408D01*
X16553991Y-10083408D02*
X16573039Y-10054836D01*
X16573039Y-10054836D02*
X16582563Y-10045312D01*
X16649229Y-10092931D02*
X16658753Y-10083408D01*
X16658753Y-10083408D02*
X16677801Y-10073884D01*
X16677801Y-10073884D02*
X16725420Y-10073884D01*
X16725420Y-10073884D02*
X16744468Y-10083408D01*
X16744468Y-10083408D02*
X16753991Y-10092931D01*
X16753991Y-10092931D02*
X16763515Y-10111979D01*
X16763515Y-10111979D02*
X16763515Y-10131027D01*
X16763515Y-10131027D02*
X16753991Y-10159598D01*
X16753991Y-10159598D02*
X16639706Y-10273884D01*
X16639706Y-10273884D02*
X16763515Y-10273884D01*
X17001611Y-10273884D02*
X17001611Y-10073884D01*
X17087325Y-10273884D02*
X17087325Y-10169122D01*
X17087325Y-10169122D02*
X17077801Y-10150074D01*
X17077801Y-10150074D02*
X17058753Y-10140550D01*
X17058753Y-10140550D02*
X17030182Y-10140550D01*
X17030182Y-10140550D02*
X17011134Y-10150074D01*
X17011134Y-10150074D02*
X17001611Y-10159598D01*
X17211134Y-10273884D02*
X17192087Y-10264360D01*
X17192087Y-10264360D02*
X17182563Y-10254836D01*
X17182563Y-10254836D02*
X17173039Y-10235789D01*
X17173039Y-10235789D02*
X17173039Y-10178646D01*
X17173039Y-10178646D02*
X17182563Y-10159598D01*
X17182563Y-10159598D02*
X17192087Y-10150074D01*
X17192087Y-10150074D02*
X17211134Y-10140550D01*
X17211134Y-10140550D02*
X17239706Y-10140550D01*
X17239706Y-10140550D02*
X17258753Y-10150074D01*
X17258753Y-10150074D02*
X17268277Y-10159598D01*
X17268277Y-10159598D02*
X17277801Y-10178646D01*
X17277801Y-10178646D02*
X17277801Y-10235789D01*
X17277801Y-10235789D02*
X17268277Y-10254836D01*
X17268277Y-10254836D02*
X17258753Y-10264360D01*
X17258753Y-10264360D02*
X17239706Y-10273884D01*
X17239706Y-10273884D02*
X17211134Y-10273884D01*
X17392087Y-10273884D02*
X17373039Y-10264360D01*
X17373039Y-10264360D02*
X17363515Y-10245312D01*
X17363515Y-10245312D02*
X17363515Y-10073884D01*
X17544468Y-10264360D02*
X17525420Y-10273884D01*
X17525420Y-10273884D02*
X17487325Y-10273884D01*
X17487325Y-10273884D02*
X17468277Y-10264360D01*
X17468277Y-10264360D02*
X17458753Y-10245312D01*
X17458753Y-10245312D02*
X17458753Y-10169122D01*
X17458753Y-10169122D02*
X17468277Y-10150074D01*
X17468277Y-10150074D02*
X17487325Y-10140550D01*
X17487325Y-10140550D02*
X17525420Y-10140550D01*
X17525420Y-10140550D02*
X17544468Y-10150074D01*
X17544468Y-10150074D02*
X17553992Y-10169122D01*
X17553992Y-10169122D02*
X17553992Y-10188170D01*
X17553992Y-10188170D02*
X17458753Y-10207217D01*
X17630182Y-10264360D02*
X17649230Y-10273884D01*
X17649230Y-10273884D02*
X17687325Y-10273884D01*
X17687325Y-10273884D02*
X17706373Y-10264360D01*
X17706373Y-10264360D02*
X17715896Y-10245312D01*
X17715896Y-10245312D02*
X17715896Y-10235789D01*
X17715896Y-10235789D02*
X17706373Y-10216741D01*
X17706373Y-10216741D02*
X17687325Y-10207217D01*
X17687325Y-10207217D02*
X17658753Y-10207217D01*
X17658753Y-10207217D02*
X17639706Y-10197693D01*
X17639706Y-10197693D02*
X17630182Y-10178646D01*
X17630182Y-10178646D02*
X17630182Y-10169122D01*
X17630182Y-10169122D02*
X17639706Y-10150074D01*
X17639706Y-10150074D02*
X17658753Y-10140550D01*
X17658753Y-10140550D02*
X17687325Y-10140550D01*
X17687325Y-10140550D02*
X17706373Y-10150074D01*
X17782563Y-10350074D02*
X17792087Y-10340550D01*
X17792087Y-10340550D02*
X17811134Y-10311979D01*
X17811134Y-10311979D02*
X17820658Y-10292931D01*
X17820658Y-10292931D02*
X17830182Y-10264360D01*
X17830182Y-10264360D02*
X17839706Y-10216741D01*
X17839706Y-10216741D02*
X17839706Y-10178646D01*
X17839706Y-10178646D02*
X17830182Y-10131027D01*
X17830182Y-10131027D02*
X17820658Y-10102455D01*
X17820658Y-10102455D02*
X17811134Y-10083408D01*
X17811134Y-10083408D02*
X17792087Y-10054836D01*
X17792087Y-10054836D02*
X17782563Y-10045312D01*
M02*
